G04 #@! TF.GenerationSoftware,KiCad,Pcbnew,(5.1.5-0-10_14)*
G04 #@! TF.CreationDate,2019-12-31T01:38:16-08:00*
G04 #@! TF.ProjectId,Glue Board,476c7565-2042-46f6-9172-642e6b696361,rev?*
G04 #@! TF.SameCoordinates,Original*
G04 #@! TF.FileFunction,Soldermask,Top*
G04 #@! TF.FilePolarity,Negative*
%FSLAX46Y46*%
G04 Gerber Fmt 4.6, Leading zero omitted, Abs format (unit mm)*
G04 Created by KiCad (PCBNEW (5.1.5-0-10_14)) date 2019-12-31 01:38:16*
%MOMM*%
%LPD*%
G04 APERTURE LIST*
%ADD10C,0.010000*%
%ADD11C,0.100000*%
G04 APERTURE END LIST*
D10*
G36*
X230224000Y-76554000D02*
G01*
X231374000Y-76554000D01*
X231374000Y-77054000D01*
X230224000Y-77054000D01*
X230224000Y-76554000D01*
G37*
X230224000Y-76554000D02*
X231374000Y-76554000D01*
X231374000Y-77054000D01*
X230224000Y-77054000D01*
X230224000Y-76554000D01*
G36*
X230724000Y-74954000D02*
G01*
X231024000Y-74954000D01*
X231024000Y-75654000D01*
X230724000Y-75654000D01*
X230724000Y-74954000D01*
G37*
X230724000Y-74954000D02*
X231024000Y-74954000D01*
X231024000Y-75654000D01*
X230724000Y-75654000D01*
X230724000Y-74954000D01*
G36*
X229224000Y-74954000D02*
G01*
X229524000Y-74954000D01*
X229524000Y-75654000D01*
X229224000Y-75654000D01*
X229224000Y-74954000D01*
G37*
X229224000Y-74954000D02*
X229524000Y-74954000D01*
X229524000Y-75654000D01*
X229224000Y-75654000D01*
X229224000Y-74954000D01*
G36*
X230724000Y-77254000D02*
G01*
X231024000Y-77254000D01*
X231024000Y-77954000D01*
X230724000Y-77954000D01*
X230724000Y-77254000D01*
G37*
X230724000Y-77254000D02*
X231024000Y-77254000D01*
X231024000Y-77954000D01*
X230724000Y-77954000D01*
X230724000Y-77254000D01*
G36*
X229224000Y-77254000D02*
G01*
X229524000Y-77254000D01*
X229524000Y-77954000D01*
X229224000Y-77954000D01*
X229224000Y-77254000D01*
G37*
X229224000Y-77254000D02*
X229524000Y-77254000D01*
X229524000Y-77954000D01*
X229224000Y-77954000D01*
X229224000Y-77254000D01*
G36*
X230224000Y-77254000D02*
G01*
X230524000Y-77254000D01*
X230524000Y-77954000D01*
X230224000Y-77954000D01*
X230224000Y-77254000D01*
G37*
X230224000Y-77254000D02*
X230524000Y-77254000D01*
X230524000Y-77954000D01*
X230224000Y-77954000D01*
X230224000Y-77254000D01*
G36*
X229724000Y-77254000D02*
G01*
X230024000Y-77254000D01*
X230024000Y-77954000D01*
X229724000Y-77954000D01*
X229724000Y-77254000D01*
G37*
X229724000Y-77254000D02*
X230024000Y-77254000D01*
X230024000Y-77954000D01*
X229724000Y-77954000D01*
X229724000Y-77254000D01*
G36*
X230224000Y-74954000D02*
G01*
X230524000Y-74954000D01*
X230524000Y-75654000D01*
X230224000Y-75654000D01*
X230224000Y-74954000D01*
G37*
X230224000Y-74954000D02*
X230524000Y-74954000D01*
X230524000Y-75654000D01*
X230224000Y-75654000D01*
X230224000Y-74954000D01*
G36*
X229724000Y-74954000D02*
G01*
X230024000Y-74954000D01*
X230024000Y-75654000D01*
X229724000Y-75654000D01*
X229724000Y-74954000D01*
G37*
X229724000Y-74954000D02*
X230024000Y-74954000D01*
X230024000Y-75654000D01*
X229724000Y-75654000D01*
X229724000Y-74954000D01*
G36*
X228874000Y-76554000D02*
G01*
X230024000Y-76554000D01*
X230024000Y-77054000D01*
X228874000Y-77054000D01*
X228874000Y-76554000D01*
G37*
X228874000Y-76554000D02*
X230024000Y-76554000D01*
X230024000Y-77054000D01*
X228874000Y-77054000D01*
X228874000Y-76554000D01*
G36*
X230224000Y-75854000D02*
G01*
X231374000Y-75854000D01*
X231374000Y-76354000D01*
X230224000Y-76354000D01*
X230224000Y-75854000D01*
G37*
X230224000Y-75854000D02*
X231374000Y-75854000D01*
X231374000Y-76354000D01*
X230224000Y-76354000D01*
X230224000Y-75854000D01*
G36*
X228874000Y-75854000D02*
G01*
X230024000Y-75854000D01*
X230024000Y-76354000D01*
X228874000Y-76354000D01*
X228874000Y-75854000D01*
G37*
X228874000Y-75854000D02*
X230024000Y-75854000D01*
X230024000Y-76354000D01*
X228874000Y-76354000D01*
X228874000Y-75854000D01*
D11*
G36*
X205345512Y-95115927D02*
G01*
X205494812Y-95145624D01*
X205658784Y-95213544D01*
X205806354Y-95312147D01*
X205931853Y-95437646D01*
X206030456Y-95585216D01*
X206098376Y-95749188D01*
X206133000Y-95923259D01*
X206133000Y-96100741D01*
X206098376Y-96274812D01*
X206030456Y-96438784D01*
X205931853Y-96586354D01*
X205806354Y-96711853D01*
X205658784Y-96810456D01*
X205494812Y-96878376D01*
X205345512Y-96908073D01*
X205320742Y-96913000D01*
X205143258Y-96913000D01*
X205118488Y-96908073D01*
X204969188Y-96878376D01*
X204805216Y-96810456D01*
X204657646Y-96711853D01*
X204532147Y-96586354D01*
X204433544Y-96438784D01*
X204365624Y-96274812D01*
X204331000Y-96100741D01*
X204331000Y-95923259D01*
X204365624Y-95749188D01*
X204433544Y-95585216D01*
X204532147Y-95437646D01*
X204657646Y-95312147D01*
X204805216Y-95213544D01*
X204969188Y-95145624D01*
X205118488Y-95115927D01*
X205143258Y-95111000D01*
X205320742Y-95111000D01*
X205345512Y-95115927D01*
G37*
G36*
X239867059Y-95383860D02*
G01*
X239996910Y-95437646D01*
X240003732Y-95440472D01*
X240126735Y-95522660D01*
X240231340Y-95627265D01*
X240233629Y-95630691D01*
X240313529Y-95750270D01*
X240370140Y-95886941D01*
X240399000Y-96032032D01*
X240399000Y-96179968D01*
X240370140Y-96325059D01*
X240323034Y-96438784D01*
X240313528Y-96461732D01*
X240231340Y-96584735D01*
X240126735Y-96689340D01*
X240003732Y-96771528D01*
X240003731Y-96771529D01*
X240003730Y-96771529D01*
X239867059Y-96828140D01*
X239721968Y-96857000D01*
X239574032Y-96857000D01*
X239428941Y-96828140D01*
X239292270Y-96771529D01*
X239292269Y-96771529D01*
X239292268Y-96771528D01*
X239169265Y-96689340D01*
X239064660Y-96584735D01*
X238982472Y-96461732D01*
X238972967Y-96438784D01*
X238925860Y-96325059D01*
X238897000Y-96179968D01*
X238897000Y-96032032D01*
X238925860Y-95886941D01*
X238982471Y-95750270D01*
X239062371Y-95630691D01*
X239064660Y-95627265D01*
X239169265Y-95522660D01*
X239292268Y-95440472D01*
X239299091Y-95437646D01*
X239428941Y-95383860D01*
X239574032Y-95355000D01*
X239721968Y-95355000D01*
X239867059Y-95383860D01*
G37*
G36*
X228867059Y-95383860D02*
G01*
X228996910Y-95437646D01*
X229003732Y-95440472D01*
X229126735Y-95522660D01*
X229231340Y-95627265D01*
X229233629Y-95630691D01*
X229313529Y-95750270D01*
X229370140Y-95886941D01*
X229399000Y-96032032D01*
X229399000Y-96179968D01*
X229370140Y-96325059D01*
X229323034Y-96438784D01*
X229313528Y-96461732D01*
X229231340Y-96584735D01*
X229126735Y-96689340D01*
X229003732Y-96771528D01*
X229003731Y-96771529D01*
X229003730Y-96771529D01*
X228867059Y-96828140D01*
X228721968Y-96857000D01*
X228574032Y-96857000D01*
X228428941Y-96828140D01*
X228292270Y-96771529D01*
X228292269Y-96771529D01*
X228292268Y-96771528D01*
X228169265Y-96689340D01*
X228064660Y-96584735D01*
X227982472Y-96461732D01*
X227972967Y-96438784D01*
X227925860Y-96325059D01*
X227897000Y-96179968D01*
X227897000Y-96032032D01*
X227925860Y-95886941D01*
X227982471Y-95750270D01*
X228062371Y-95630691D01*
X228064660Y-95627265D01*
X228169265Y-95522660D01*
X228292268Y-95440472D01*
X228299091Y-95437646D01*
X228428941Y-95383860D01*
X228574032Y-95355000D01*
X228721968Y-95355000D01*
X228867059Y-95383860D01*
G37*
G36*
X209158810Y-95237935D02*
G01*
X209305309Y-95298617D01*
X209305310Y-95298618D01*
X209437158Y-95386716D01*
X209549284Y-95498842D01*
X209569836Y-95529600D01*
X209637383Y-95630691D01*
X209698065Y-95777190D01*
X209729000Y-95932713D01*
X209729000Y-96091287D01*
X209698065Y-96246810D01*
X209637383Y-96393309D01*
X209637382Y-96393310D01*
X209549284Y-96525158D01*
X209437158Y-96637284D01*
X209370785Y-96681633D01*
X209305309Y-96725383D01*
X209158810Y-96786065D01*
X209003287Y-96817000D01*
X208844713Y-96817000D01*
X208689190Y-96786065D01*
X208542691Y-96725383D01*
X208477215Y-96681633D01*
X208410842Y-96637284D01*
X208298716Y-96525158D01*
X208210618Y-96393310D01*
X208210617Y-96393309D01*
X208149935Y-96246810D01*
X208119000Y-96091287D01*
X208119000Y-95932713D01*
X208149935Y-95777190D01*
X208210617Y-95630691D01*
X208278164Y-95529600D01*
X208298716Y-95498842D01*
X208410842Y-95386716D01*
X208542690Y-95298618D01*
X208542691Y-95298617D01*
X208689190Y-95237935D01*
X208844713Y-95207000D01*
X209003287Y-95207000D01*
X209158810Y-95237935D01*
G37*
G36*
X191782778Y-93735547D02*
G01*
X191949224Y-93804491D01*
X192099022Y-93904583D01*
X192226417Y-94031978D01*
X192326509Y-94181776D01*
X192395453Y-94348222D01*
X192430600Y-94524918D01*
X192430600Y-94705082D01*
X192395453Y-94881778D01*
X192326509Y-95048224D01*
X192226417Y-95198022D01*
X192099022Y-95325417D01*
X191949224Y-95425509D01*
X191782778Y-95494453D01*
X191606082Y-95529600D01*
X191425918Y-95529600D01*
X191249222Y-95494453D01*
X191082776Y-95425509D01*
X190932978Y-95325417D01*
X190805583Y-95198022D01*
X190705491Y-95048224D01*
X190636547Y-94881778D01*
X190601400Y-94705082D01*
X190601400Y-94524918D01*
X190636547Y-94348222D01*
X190705491Y-94181776D01*
X190805583Y-94031978D01*
X190932978Y-93904583D01*
X191082776Y-93804491D01*
X191249222Y-93735547D01*
X191425918Y-93700400D01*
X191606082Y-93700400D01*
X191782778Y-93735547D01*
G37*
G36*
X196862778Y-93735547D02*
G01*
X197029224Y-93804491D01*
X197179022Y-93904583D01*
X197306417Y-94031978D01*
X197406509Y-94181776D01*
X197475453Y-94348222D01*
X197510600Y-94524918D01*
X197510600Y-94705082D01*
X197475453Y-94881778D01*
X197406509Y-95048224D01*
X197306417Y-95198022D01*
X197179022Y-95325417D01*
X197029224Y-95425509D01*
X196862778Y-95494453D01*
X196686082Y-95529600D01*
X196505918Y-95529600D01*
X196329222Y-95494453D01*
X196162776Y-95425509D01*
X196012978Y-95325417D01*
X195885583Y-95198022D01*
X195785491Y-95048224D01*
X195716547Y-94881778D01*
X195681400Y-94705082D01*
X195681400Y-94524918D01*
X195716547Y-94348222D01*
X195785491Y-94181776D01*
X195885583Y-94031978D01*
X196012978Y-93904583D01*
X196162776Y-93804491D01*
X196329222Y-93735547D01*
X196505918Y-93700400D01*
X196686082Y-93700400D01*
X196862778Y-93735547D01*
G37*
G36*
X194322778Y-93735547D02*
G01*
X194489224Y-93804491D01*
X194639022Y-93904583D01*
X194766417Y-94031978D01*
X194866509Y-94181776D01*
X194935453Y-94348222D01*
X194970600Y-94524918D01*
X194970600Y-94705082D01*
X194935453Y-94881778D01*
X194866509Y-95048224D01*
X194766417Y-95198022D01*
X194639022Y-95325417D01*
X194489224Y-95425509D01*
X194322778Y-95494453D01*
X194146082Y-95529600D01*
X193965918Y-95529600D01*
X193789222Y-95494453D01*
X193622776Y-95425509D01*
X193472978Y-95325417D01*
X193345583Y-95198022D01*
X193245491Y-95048224D01*
X193176547Y-94881778D01*
X193141400Y-94705082D01*
X193141400Y-94524918D01*
X193176547Y-94348222D01*
X193245491Y-94181776D01*
X193345583Y-94031978D01*
X193472978Y-93904583D01*
X193622776Y-93804491D01*
X193789222Y-93735547D01*
X193965918Y-93700400D01*
X194146082Y-93700400D01*
X194322778Y-93735547D01*
G37*
G36*
X173812468Y-94129565D02*
G01*
X173851138Y-94141296D01*
X173886777Y-94160346D01*
X173918017Y-94185983D01*
X173943654Y-94217223D01*
X173962704Y-94252862D01*
X173974435Y-94291532D01*
X173979000Y-94337888D01*
X173979000Y-94989112D01*
X173974435Y-95035468D01*
X173962704Y-95074138D01*
X173943654Y-95109777D01*
X173918017Y-95141017D01*
X173886777Y-95166654D01*
X173851138Y-95185704D01*
X173812468Y-95197435D01*
X173766112Y-95202000D01*
X172689888Y-95202000D01*
X172643532Y-95197435D01*
X172604862Y-95185704D01*
X172569223Y-95166654D01*
X172537983Y-95141017D01*
X172512346Y-95109777D01*
X172493296Y-95074138D01*
X172481565Y-95035468D01*
X172477000Y-94989112D01*
X172477000Y-94337888D01*
X172481565Y-94291532D01*
X172493296Y-94252862D01*
X172512346Y-94217223D01*
X172537983Y-94185983D01*
X172569223Y-94160346D01*
X172604862Y-94141296D01*
X172643532Y-94129565D01*
X172689888Y-94125000D01*
X173766112Y-94125000D01*
X173812468Y-94129565D01*
G37*
G36*
X171575591Y-94029085D02*
G01*
X171609569Y-94039393D01*
X171640890Y-94056134D01*
X171668339Y-94078661D01*
X171690866Y-94106110D01*
X171707607Y-94137431D01*
X171717915Y-94171409D01*
X171722000Y-94212890D01*
X171722000Y-94814110D01*
X171717915Y-94855591D01*
X171707607Y-94889569D01*
X171690866Y-94920890D01*
X171668339Y-94948339D01*
X171640890Y-94970866D01*
X171609569Y-94987607D01*
X171575591Y-94997915D01*
X171534110Y-95002000D01*
X170857890Y-95002000D01*
X170816409Y-94997915D01*
X170782431Y-94987607D01*
X170751110Y-94970866D01*
X170723661Y-94948339D01*
X170701134Y-94920890D01*
X170684393Y-94889569D01*
X170674085Y-94855591D01*
X170670000Y-94814110D01*
X170670000Y-94212890D01*
X170674085Y-94171409D01*
X170684393Y-94137431D01*
X170701134Y-94106110D01*
X170723661Y-94078661D01*
X170751110Y-94056134D01*
X170782431Y-94039393D01*
X170816409Y-94029085D01*
X170857890Y-94025000D01*
X171534110Y-94025000D01*
X171575591Y-94029085D01*
G37*
G36*
X175639591Y-94029085D02*
G01*
X175673569Y-94039393D01*
X175704890Y-94056134D01*
X175732339Y-94078661D01*
X175754866Y-94106110D01*
X175771607Y-94137431D01*
X175781915Y-94171409D01*
X175786000Y-94212890D01*
X175786000Y-94814110D01*
X175781915Y-94855591D01*
X175771607Y-94889569D01*
X175754866Y-94920890D01*
X175732339Y-94948339D01*
X175704890Y-94970866D01*
X175673569Y-94987607D01*
X175639591Y-94997915D01*
X175598110Y-95002000D01*
X174921890Y-95002000D01*
X174880409Y-94997915D01*
X174846431Y-94987607D01*
X174815110Y-94970866D01*
X174787661Y-94948339D01*
X174765134Y-94920890D01*
X174748393Y-94889569D01*
X174738085Y-94855591D01*
X174734000Y-94814110D01*
X174734000Y-94212890D01*
X174738085Y-94171409D01*
X174748393Y-94137431D01*
X174765134Y-94106110D01*
X174787661Y-94078661D01*
X174815110Y-94056134D01*
X174846431Y-94039393D01*
X174880409Y-94029085D01*
X174921890Y-94025000D01*
X175598110Y-94025000D01*
X175639591Y-94029085D01*
G37*
G36*
X205345512Y-92575927D02*
G01*
X205494812Y-92605624D01*
X205658784Y-92673544D01*
X205806354Y-92772147D01*
X205931853Y-92897646D01*
X206030456Y-93045216D01*
X206098376Y-93209188D01*
X206133000Y-93383259D01*
X206133000Y-93560741D01*
X206098376Y-93734812D01*
X206030456Y-93898784D01*
X205931853Y-94046354D01*
X205806354Y-94171853D01*
X205658784Y-94270456D01*
X205494812Y-94338376D01*
X205345512Y-94368073D01*
X205320742Y-94373000D01*
X205143258Y-94373000D01*
X205118488Y-94368073D01*
X204969188Y-94338376D01*
X204805216Y-94270456D01*
X204657646Y-94171853D01*
X204532147Y-94046354D01*
X204433544Y-93898784D01*
X204365624Y-93734812D01*
X204331000Y-93560741D01*
X204331000Y-93383259D01*
X204365624Y-93209188D01*
X204433544Y-93045216D01*
X204532147Y-92897646D01*
X204657646Y-92772147D01*
X204805216Y-92673544D01*
X204969188Y-92605624D01*
X205118488Y-92575927D01*
X205143258Y-92571000D01*
X205320742Y-92571000D01*
X205345512Y-92575927D01*
G37*
G36*
X209158810Y-92697935D02*
G01*
X209305309Y-92758617D01*
X209305310Y-92758618D01*
X209437158Y-92846716D01*
X209549284Y-92958842D01*
X209549285Y-92958844D01*
X209637383Y-93090691D01*
X209698065Y-93237190D01*
X209729000Y-93392713D01*
X209729000Y-93551287D01*
X209698065Y-93706810D01*
X209637383Y-93853309D01*
X209603122Y-93904584D01*
X209549284Y-93985158D01*
X209437158Y-94097284D01*
X209382879Y-94133552D01*
X209305309Y-94185383D01*
X209158810Y-94246065D01*
X209003287Y-94277000D01*
X208844713Y-94277000D01*
X208689190Y-94246065D01*
X208542691Y-94185383D01*
X208465121Y-94133552D01*
X208410842Y-94097284D01*
X208298716Y-93985158D01*
X208244878Y-93904584D01*
X208210617Y-93853309D01*
X208149935Y-93706810D01*
X208119000Y-93551287D01*
X208119000Y-93392713D01*
X208149935Y-93237190D01*
X208210617Y-93090691D01*
X208298715Y-92958844D01*
X208298716Y-92958842D01*
X208410842Y-92846716D01*
X208542690Y-92758618D01*
X208542691Y-92758617D01*
X208689190Y-92697935D01*
X208844713Y-92667000D01*
X209003287Y-92667000D01*
X209158810Y-92697935D01*
G37*
G36*
X175639591Y-92454085D02*
G01*
X175673569Y-92464393D01*
X175704890Y-92481134D01*
X175732339Y-92503661D01*
X175754866Y-92531110D01*
X175771607Y-92562431D01*
X175781915Y-92596409D01*
X175786000Y-92637890D01*
X175786000Y-93239110D01*
X175781915Y-93280591D01*
X175771607Y-93314569D01*
X175754866Y-93345890D01*
X175732339Y-93373339D01*
X175704890Y-93395866D01*
X175673569Y-93412607D01*
X175639591Y-93422915D01*
X175598110Y-93427000D01*
X174921890Y-93427000D01*
X174880409Y-93422915D01*
X174846431Y-93412607D01*
X174815110Y-93395866D01*
X174787661Y-93373339D01*
X174765134Y-93345890D01*
X174748393Y-93314569D01*
X174738085Y-93280591D01*
X174734000Y-93239110D01*
X174734000Y-92637890D01*
X174738085Y-92596409D01*
X174748393Y-92562431D01*
X174765134Y-92531110D01*
X174787661Y-92503661D01*
X174815110Y-92481134D01*
X174846431Y-92464393D01*
X174880409Y-92454085D01*
X174921890Y-92450000D01*
X175598110Y-92450000D01*
X175639591Y-92454085D01*
G37*
G36*
X171575591Y-92454085D02*
G01*
X171609569Y-92464393D01*
X171640890Y-92481134D01*
X171668339Y-92503661D01*
X171690866Y-92531110D01*
X171707607Y-92562431D01*
X171717915Y-92596409D01*
X171722000Y-92637890D01*
X171722000Y-93239110D01*
X171717915Y-93280591D01*
X171707607Y-93314569D01*
X171690866Y-93345890D01*
X171668339Y-93373339D01*
X171640890Y-93395866D01*
X171609569Y-93412607D01*
X171575591Y-93422915D01*
X171534110Y-93427000D01*
X170857890Y-93427000D01*
X170816409Y-93422915D01*
X170782431Y-93412607D01*
X170751110Y-93395866D01*
X170723661Y-93373339D01*
X170701134Y-93345890D01*
X170684393Y-93314569D01*
X170674085Y-93280591D01*
X170670000Y-93239110D01*
X170670000Y-92637890D01*
X170674085Y-92596409D01*
X170684393Y-92562431D01*
X170701134Y-92531110D01*
X170723661Y-92503661D01*
X170751110Y-92481134D01*
X170782431Y-92464393D01*
X170816409Y-92454085D01*
X170857890Y-92450000D01*
X171534110Y-92450000D01*
X171575591Y-92454085D01*
G37*
G36*
X173812468Y-92254565D02*
G01*
X173851138Y-92266296D01*
X173886777Y-92285346D01*
X173918017Y-92310983D01*
X173943654Y-92342223D01*
X173962704Y-92377862D01*
X173974435Y-92416532D01*
X173979000Y-92462888D01*
X173979000Y-93114112D01*
X173974435Y-93160468D01*
X173962704Y-93199138D01*
X173943654Y-93234777D01*
X173918017Y-93266017D01*
X173886777Y-93291654D01*
X173851138Y-93310704D01*
X173812468Y-93322435D01*
X173766112Y-93327000D01*
X172689888Y-93327000D01*
X172643532Y-93322435D01*
X172604862Y-93310704D01*
X172569223Y-93291654D01*
X172537983Y-93266017D01*
X172512346Y-93234777D01*
X172493296Y-93199138D01*
X172481565Y-93160468D01*
X172477000Y-93114112D01*
X172477000Y-92462888D01*
X172481565Y-92416532D01*
X172493296Y-92377862D01*
X172512346Y-92342223D01*
X172537983Y-92310983D01*
X172569223Y-92285346D01*
X172604862Y-92266296D01*
X172643532Y-92254565D01*
X172689888Y-92250000D01*
X173766112Y-92250000D01*
X173812468Y-92254565D01*
G37*
G36*
X197510600Y-92989600D02*
G01*
X195681400Y-92989600D01*
X195681400Y-91160400D01*
X197510600Y-91160400D01*
X197510600Y-92989600D01*
G37*
G36*
X191782778Y-91195547D02*
G01*
X191949224Y-91264491D01*
X192099022Y-91364583D01*
X192226417Y-91491978D01*
X192326509Y-91641776D01*
X192395453Y-91808222D01*
X192430600Y-91984918D01*
X192430600Y-92165082D01*
X192395453Y-92341778D01*
X192326509Y-92508224D01*
X192226417Y-92658022D01*
X192099022Y-92785417D01*
X191949224Y-92885509D01*
X191782778Y-92954453D01*
X191606082Y-92989600D01*
X191425918Y-92989600D01*
X191249222Y-92954453D01*
X191082776Y-92885509D01*
X190932978Y-92785417D01*
X190805583Y-92658022D01*
X190705491Y-92508224D01*
X190636547Y-92341778D01*
X190601400Y-92165082D01*
X190601400Y-91984918D01*
X190636547Y-91808222D01*
X190705491Y-91641776D01*
X190805583Y-91491978D01*
X190932978Y-91364583D01*
X191082776Y-91264491D01*
X191249222Y-91195547D01*
X191425918Y-91160400D01*
X191606082Y-91160400D01*
X191782778Y-91195547D01*
G37*
G36*
X194322778Y-91195547D02*
G01*
X194489224Y-91264491D01*
X194639022Y-91364583D01*
X194766417Y-91491978D01*
X194866509Y-91641776D01*
X194935453Y-91808222D01*
X194970600Y-91984918D01*
X194970600Y-92165082D01*
X194935453Y-92341778D01*
X194866509Y-92508224D01*
X194766417Y-92658022D01*
X194639022Y-92785417D01*
X194489224Y-92885509D01*
X194322778Y-92954453D01*
X194146082Y-92989600D01*
X193965918Y-92989600D01*
X193789222Y-92954453D01*
X193622776Y-92885509D01*
X193472978Y-92785417D01*
X193345583Y-92658022D01*
X193245491Y-92508224D01*
X193176547Y-92341778D01*
X193141400Y-92165082D01*
X193141400Y-91984918D01*
X193176547Y-91808222D01*
X193245491Y-91641776D01*
X193345583Y-91491978D01*
X193472978Y-91364583D01*
X193622776Y-91264491D01*
X193789222Y-91195547D01*
X193965918Y-91160400D01*
X194146082Y-91160400D01*
X194322778Y-91195547D01*
G37*
G36*
X205345512Y-90035927D02*
G01*
X205494812Y-90065624D01*
X205658784Y-90133544D01*
X205806354Y-90232147D01*
X205931853Y-90357646D01*
X206030456Y-90505216D01*
X206098376Y-90669188D01*
X206133000Y-90843259D01*
X206133000Y-91020741D01*
X206098376Y-91194812D01*
X206030456Y-91358784D01*
X205931853Y-91506354D01*
X205806354Y-91631853D01*
X205658784Y-91730456D01*
X205494812Y-91798376D01*
X205345512Y-91828073D01*
X205320742Y-91833000D01*
X205143258Y-91833000D01*
X205118488Y-91828073D01*
X204969188Y-91798376D01*
X204805216Y-91730456D01*
X204657646Y-91631853D01*
X204532147Y-91506354D01*
X204433544Y-91358784D01*
X204365624Y-91194812D01*
X204331000Y-91020741D01*
X204331000Y-90843259D01*
X204365624Y-90669188D01*
X204433544Y-90505216D01*
X204532147Y-90357646D01*
X204657646Y-90232147D01*
X204805216Y-90133544D01*
X204969188Y-90065624D01*
X205118488Y-90035927D01*
X205143258Y-90031000D01*
X205320742Y-90031000D01*
X205345512Y-90035927D01*
G37*
G36*
X209158810Y-90157935D02*
G01*
X209305309Y-90218617D01*
X209305310Y-90218618D01*
X209437158Y-90306716D01*
X209549284Y-90418842D01*
X209549285Y-90418844D01*
X209637383Y-90550691D01*
X209698065Y-90697190D01*
X209729000Y-90852713D01*
X209729000Y-91011287D01*
X209698065Y-91166810D01*
X209637383Y-91313309D01*
X209603122Y-91364584D01*
X209549284Y-91445158D01*
X209437158Y-91557284D01*
X209370785Y-91601633D01*
X209305309Y-91645383D01*
X209158810Y-91706065D01*
X209003287Y-91737000D01*
X208844713Y-91737000D01*
X208689190Y-91706065D01*
X208542691Y-91645383D01*
X208477215Y-91601633D01*
X208410842Y-91557284D01*
X208298716Y-91445158D01*
X208244878Y-91364584D01*
X208210617Y-91313309D01*
X208149935Y-91166810D01*
X208119000Y-91011287D01*
X208119000Y-90852713D01*
X208149935Y-90697190D01*
X208210617Y-90550691D01*
X208298715Y-90418844D01*
X208298716Y-90418842D01*
X208410842Y-90306716D01*
X208542690Y-90218618D01*
X208542691Y-90218617D01*
X208689190Y-90157935D01*
X208844713Y-90127000D01*
X209003287Y-90127000D01*
X209158810Y-90157935D01*
G37*
G36*
X206133000Y-89293000D02*
G01*
X204331000Y-89293000D01*
X204331000Y-87491000D01*
X206133000Y-87491000D01*
X206133000Y-89293000D01*
G37*
G36*
X209158810Y-87617935D02*
G01*
X209305309Y-87678617D01*
X209305310Y-87678618D01*
X209437158Y-87766716D01*
X209549284Y-87878842D01*
X209568215Y-87907174D01*
X209637383Y-88010691D01*
X209698065Y-88157190D01*
X209729000Y-88312713D01*
X209729000Y-88471287D01*
X209698065Y-88626810D01*
X209637383Y-88773309D01*
X209611004Y-88812788D01*
X209549284Y-88905158D01*
X209437158Y-89017284D01*
X209370785Y-89061633D01*
X209305309Y-89105383D01*
X209158810Y-89166065D01*
X209003287Y-89197000D01*
X208844713Y-89197000D01*
X208689190Y-89166065D01*
X208542691Y-89105383D01*
X208477215Y-89061633D01*
X208410842Y-89017284D01*
X208298716Y-88905158D01*
X208236996Y-88812788D01*
X208210617Y-88773309D01*
X208149935Y-88626810D01*
X208119000Y-88471287D01*
X208119000Y-88312713D01*
X208149935Y-88157190D01*
X208210617Y-88010691D01*
X208279785Y-87907174D01*
X208298716Y-87878842D01*
X208410842Y-87766716D01*
X208542690Y-87678618D01*
X208542691Y-87678617D01*
X208689190Y-87617935D01*
X208844713Y-87587000D01*
X209003287Y-87587000D01*
X209158810Y-87617935D01*
G37*
G36*
X179146468Y-87906565D02*
G01*
X179185138Y-87918296D01*
X179220777Y-87937346D01*
X179252017Y-87962983D01*
X179277654Y-87994223D01*
X179296704Y-88029862D01*
X179308435Y-88068532D01*
X179313000Y-88114888D01*
X179313000Y-88766112D01*
X179308435Y-88812468D01*
X179296704Y-88851138D01*
X179277654Y-88886777D01*
X179252017Y-88918017D01*
X179220777Y-88943654D01*
X179185138Y-88962704D01*
X179146468Y-88974435D01*
X179100112Y-88979000D01*
X178023888Y-88979000D01*
X177977532Y-88974435D01*
X177938862Y-88962704D01*
X177903223Y-88943654D01*
X177871983Y-88918017D01*
X177846346Y-88886777D01*
X177827296Y-88851138D01*
X177815565Y-88812468D01*
X177811000Y-88766112D01*
X177811000Y-88114888D01*
X177815565Y-88068532D01*
X177827296Y-88029862D01*
X177846346Y-87994223D01*
X177871983Y-87962983D01*
X177903223Y-87937346D01*
X177938862Y-87918296D01*
X177977532Y-87906565D01*
X178023888Y-87902000D01*
X179100112Y-87902000D01*
X179146468Y-87906565D01*
G37*
G36*
X168019591Y-87806085D02*
G01*
X168053569Y-87816393D01*
X168084890Y-87833134D01*
X168112339Y-87855661D01*
X168134866Y-87883110D01*
X168151607Y-87914431D01*
X168161915Y-87948409D01*
X168166000Y-87989890D01*
X168166000Y-88591110D01*
X168161915Y-88632591D01*
X168151607Y-88666569D01*
X168134866Y-88697890D01*
X168112339Y-88725339D01*
X168084890Y-88747866D01*
X168053569Y-88764607D01*
X168019591Y-88774915D01*
X167978110Y-88779000D01*
X167301890Y-88779000D01*
X167260409Y-88774915D01*
X167226431Y-88764607D01*
X167195110Y-88747866D01*
X167167661Y-88725339D01*
X167145134Y-88697890D01*
X167128393Y-88666569D01*
X167118085Y-88632591D01*
X167114000Y-88591110D01*
X167114000Y-87989890D01*
X167118085Y-87948409D01*
X167128393Y-87914431D01*
X167145134Y-87883110D01*
X167167661Y-87855661D01*
X167195110Y-87833134D01*
X167226431Y-87816393D01*
X167260409Y-87806085D01*
X167301890Y-87802000D01*
X167978110Y-87802000D01*
X168019591Y-87806085D01*
G37*
G36*
X171575591Y-87806085D02*
G01*
X171609569Y-87816393D01*
X171640890Y-87833134D01*
X171668339Y-87855661D01*
X171690866Y-87883110D01*
X171707607Y-87914431D01*
X171717915Y-87948409D01*
X171722000Y-87989890D01*
X171722000Y-88591110D01*
X171717915Y-88632591D01*
X171707607Y-88666569D01*
X171690866Y-88697890D01*
X171668339Y-88725339D01*
X171640890Y-88747866D01*
X171609569Y-88764607D01*
X171575591Y-88774915D01*
X171534110Y-88779000D01*
X170857890Y-88779000D01*
X170816409Y-88774915D01*
X170782431Y-88764607D01*
X170751110Y-88747866D01*
X170723661Y-88725339D01*
X170701134Y-88697890D01*
X170684393Y-88666569D01*
X170674085Y-88632591D01*
X170670000Y-88591110D01*
X170670000Y-87989890D01*
X170674085Y-87948409D01*
X170684393Y-87914431D01*
X170701134Y-87883110D01*
X170723661Y-87855661D01*
X170751110Y-87833134D01*
X170782431Y-87816393D01*
X170816409Y-87806085D01*
X170857890Y-87802000D01*
X171534110Y-87802000D01*
X171575591Y-87806085D01*
G37*
G36*
X169797591Y-87806085D02*
G01*
X169831569Y-87816393D01*
X169862890Y-87833134D01*
X169890339Y-87855661D01*
X169912866Y-87883110D01*
X169929607Y-87914431D01*
X169939915Y-87948409D01*
X169944000Y-87989890D01*
X169944000Y-88591110D01*
X169939915Y-88632591D01*
X169929607Y-88666569D01*
X169912866Y-88697890D01*
X169890339Y-88725339D01*
X169862890Y-88747866D01*
X169831569Y-88764607D01*
X169797591Y-88774915D01*
X169756110Y-88779000D01*
X169079890Y-88779000D01*
X169038409Y-88774915D01*
X169004431Y-88764607D01*
X168973110Y-88747866D01*
X168945661Y-88725339D01*
X168923134Y-88697890D01*
X168906393Y-88666569D01*
X168896085Y-88632591D01*
X168892000Y-88591110D01*
X168892000Y-87989890D01*
X168896085Y-87948409D01*
X168906393Y-87914431D01*
X168923134Y-87883110D01*
X168945661Y-87855661D01*
X168973110Y-87833134D01*
X169004431Y-87816393D01*
X169038409Y-87806085D01*
X169079890Y-87802000D01*
X169756110Y-87802000D01*
X169797591Y-87806085D01*
G37*
G36*
X166241591Y-87806085D02*
G01*
X166275569Y-87816393D01*
X166306890Y-87833134D01*
X166334339Y-87855661D01*
X166356866Y-87883110D01*
X166373607Y-87914431D01*
X166383915Y-87948409D01*
X166388000Y-87989890D01*
X166388000Y-88591110D01*
X166383915Y-88632591D01*
X166373607Y-88666569D01*
X166356866Y-88697890D01*
X166334339Y-88725339D01*
X166306890Y-88747866D01*
X166275569Y-88764607D01*
X166241591Y-88774915D01*
X166200110Y-88779000D01*
X165523890Y-88779000D01*
X165482409Y-88774915D01*
X165448431Y-88764607D01*
X165417110Y-88747866D01*
X165389661Y-88725339D01*
X165367134Y-88697890D01*
X165350393Y-88666569D01*
X165340085Y-88632591D01*
X165336000Y-88591110D01*
X165336000Y-87989890D01*
X165340085Y-87948409D01*
X165350393Y-87914431D01*
X165367134Y-87883110D01*
X165389661Y-87855661D01*
X165417110Y-87833134D01*
X165448431Y-87816393D01*
X165482409Y-87806085D01*
X165523890Y-87802000D01*
X166200110Y-87802000D01*
X166241591Y-87806085D01*
G37*
G36*
X176909591Y-87806085D02*
G01*
X176943569Y-87816393D01*
X176974890Y-87833134D01*
X177002339Y-87855661D01*
X177024866Y-87883110D01*
X177041607Y-87914431D01*
X177051915Y-87948409D01*
X177056000Y-87989890D01*
X177056000Y-88591110D01*
X177051915Y-88632591D01*
X177041607Y-88666569D01*
X177024866Y-88697890D01*
X177002339Y-88725339D01*
X176974890Y-88747866D01*
X176943569Y-88764607D01*
X176909591Y-88774915D01*
X176868110Y-88779000D01*
X176191890Y-88779000D01*
X176150409Y-88774915D01*
X176116431Y-88764607D01*
X176085110Y-88747866D01*
X176057661Y-88725339D01*
X176035134Y-88697890D01*
X176018393Y-88666569D01*
X176008085Y-88632591D01*
X176004000Y-88591110D01*
X176004000Y-87989890D01*
X176008085Y-87948409D01*
X176018393Y-87914431D01*
X176035134Y-87883110D01*
X176057661Y-87855661D01*
X176085110Y-87833134D01*
X176116431Y-87816393D01*
X176150409Y-87806085D01*
X176191890Y-87802000D01*
X176868110Y-87802000D01*
X176909591Y-87806085D01*
G37*
G36*
X175131591Y-87806085D02*
G01*
X175165569Y-87816393D01*
X175196890Y-87833134D01*
X175224339Y-87855661D01*
X175246866Y-87883110D01*
X175263607Y-87914431D01*
X175273915Y-87948409D01*
X175278000Y-87989890D01*
X175278000Y-88591110D01*
X175273915Y-88632591D01*
X175263607Y-88666569D01*
X175246866Y-88697890D01*
X175224339Y-88725339D01*
X175196890Y-88747866D01*
X175165569Y-88764607D01*
X175131591Y-88774915D01*
X175090110Y-88779000D01*
X174413890Y-88779000D01*
X174372409Y-88774915D01*
X174338431Y-88764607D01*
X174307110Y-88747866D01*
X174279661Y-88725339D01*
X174257134Y-88697890D01*
X174240393Y-88666569D01*
X174230085Y-88632591D01*
X174226000Y-88591110D01*
X174226000Y-87989890D01*
X174230085Y-87948409D01*
X174240393Y-87914431D01*
X174257134Y-87883110D01*
X174279661Y-87855661D01*
X174307110Y-87833134D01*
X174338431Y-87816393D01*
X174372409Y-87806085D01*
X174413890Y-87802000D01*
X175090110Y-87802000D01*
X175131591Y-87806085D01*
G37*
G36*
X164463591Y-87806085D02*
G01*
X164497569Y-87816393D01*
X164528890Y-87833134D01*
X164556339Y-87855661D01*
X164578866Y-87883110D01*
X164595607Y-87914431D01*
X164605915Y-87948409D01*
X164610000Y-87989890D01*
X164610000Y-88591110D01*
X164605915Y-88632591D01*
X164595607Y-88666569D01*
X164578866Y-88697890D01*
X164556339Y-88725339D01*
X164528890Y-88747866D01*
X164497569Y-88764607D01*
X164463591Y-88774915D01*
X164422110Y-88779000D01*
X163745890Y-88779000D01*
X163704409Y-88774915D01*
X163670431Y-88764607D01*
X163639110Y-88747866D01*
X163611661Y-88725339D01*
X163589134Y-88697890D01*
X163572393Y-88666569D01*
X163562085Y-88632591D01*
X163558000Y-88591110D01*
X163558000Y-87989890D01*
X163562085Y-87948409D01*
X163572393Y-87914431D01*
X163589134Y-87883110D01*
X163611661Y-87855661D01*
X163639110Y-87833134D01*
X163670431Y-87816393D01*
X163704409Y-87806085D01*
X163745890Y-87802000D01*
X164422110Y-87802000D01*
X164463591Y-87806085D01*
G37*
G36*
X173353591Y-87806085D02*
G01*
X173387569Y-87816393D01*
X173418890Y-87833134D01*
X173446339Y-87855661D01*
X173468866Y-87883110D01*
X173485607Y-87914431D01*
X173495915Y-87948409D01*
X173500000Y-87989890D01*
X173500000Y-88591110D01*
X173495915Y-88632591D01*
X173485607Y-88666569D01*
X173468866Y-88697890D01*
X173446339Y-88725339D01*
X173418890Y-88747866D01*
X173387569Y-88764607D01*
X173353591Y-88774915D01*
X173312110Y-88779000D01*
X172635890Y-88779000D01*
X172594409Y-88774915D01*
X172560431Y-88764607D01*
X172529110Y-88747866D01*
X172501661Y-88725339D01*
X172479134Y-88697890D01*
X172462393Y-88666569D01*
X172452085Y-88632591D01*
X172448000Y-88591110D01*
X172448000Y-87989890D01*
X172452085Y-87948409D01*
X172462393Y-87914431D01*
X172479134Y-87883110D01*
X172501661Y-87855661D01*
X172529110Y-87833134D01*
X172560431Y-87816393D01*
X172594409Y-87806085D01*
X172635890Y-87802000D01*
X173312110Y-87802000D01*
X173353591Y-87806085D01*
G37*
G36*
X237173331Y-84374211D02*
G01*
X237501092Y-84509974D01*
X237796070Y-84707072D01*
X238046928Y-84957930D01*
X238244026Y-85252908D01*
X238379789Y-85580669D01*
X238449000Y-85928616D01*
X238449000Y-86283384D01*
X238379789Y-86631331D01*
X238244026Y-86959092D01*
X238046928Y-87254070D01*
X237796070Y-87504928D01*
X237501092Y-87702026D01*
X237173331Y-87837789D01*
X236825384Y-87907000D01*
X236470616Y-87907000D01*
X236122669Y-87837789D01*
X235794908Y-87702026D01*
X235499930Y-87504928D01*
X235249072Y-87254070D01*
X235051974Y-86959092D01*
X234916211Y-86631331D01*
X234847000Y-86283384D01*
X234847000Y-85928616D01*
X234916211Y-85580669D01*
X235051974Y-85252908D01*
X235249072Y-84957930D01*
X235499930Y-84707072D01*
X235794908Y-84509974D01*
X236122669Y-84374211D01*
X236470616Y-84305000D01*
X236825384Y-84305000D01*
X237173331Y-84374211D01*
G37*
G36*
X233449000Y-87907000D02*
G01*
X229847000Y-87907000D01*
X229847000Y-84305000D01*
X233449000Y-84305000D01*
X233449000Y-87907000D01*
G37*
G36*
X164463591Y-86231085D02*
G01*
X164497569Y-86241393D01*
X164528890Y-86258134D01*
X164556339Y-86280661D01*
X164578866Y-86308110D01*
X164595607Y-86339431D01*
X164605915Y-86373409D01*
X164610000Y-86414890D01*
X164610000Y-87016110D01*
X164605915Y-87057591D01*
X164595607Y-87091569D01*
X164578866Y-87122890D01*
X164556339Y-87150339D01*
X164528890Y-87172866D01*
X164497569Y-87189607D01*
X164463591Y-87199915D01*
X164422110Y-87204000D01*
X163745890Y-87204000D01*
X163704409Y-87199915D01*
X163670431Y-87189607D01*
X163639110Y-87172866D01*
X163611661Y-87150339D01*
X163589134Y-87122890D01*
X163572393Y-87091569D01*
X163562085Y-87057591D01*
X163558000Y-87016110D01*
X163558000Y-86414890D01*
X163562085Y-86373409D01*
X163572393Y-86339431D01*
X163589134Y-86308110D01*
X163611661Y-86280661D01*
X163639110Y-86258134D01*
X163670431Y-86241393D01*
X163704409Y-86231085D01*
X163745890Y-86227000D01*
X164422110Y-86227000D01*
X164463591Y-86231085D01*
G37*
G36*
X168019591Y-86231085D02*
G01*
X168053569Y-86241393D01*
X168084890Y-86258134D01*
X168112339Y-86280661D01*
X168134866Y-86308110D01*
X168151607Y-86339431D01*
X168161915Y-86373409D01*
X168166000Y-86414890D01*
X168166000Y-87016110D01*
X168161915Y-87057591D01*
X168151607Y-87091569D01*
X168134866Y-87122890D01*
X168112339Y-87150339D01*
X168084890Y-87172866D01*
X168053569Y-87189607D01*
X168019591Y-87199915D01*
X167978110Y-87204000D01*
X167301890Y-87204000D01*
X167260409Y-87199915D01*
X167226431Y-87189607D01*
X167195110Y-87172866D01*
X167167661Y-87150339D01*
X167145134Y-87122890D01*
X167128393Y-87091569D01*
X167118085Y-87057591D01*
X167114000Y-87016110D01*
X167114000Y-86414890D01*
X167118085Y-86373409D01*
X167128393Y-86339431D01*
X167145134Y-86308110D01*
X167167661Y-86280661D01*
X167195110Y-86258134D01*
X167226431Y-86241393D01*
X167260409Y-86231085D01*
X167301890Y-86227000D01*
X167978110Y-86227000D01*
X168019591Y-86231085D01*
G37*
G36*
X166241591Y-86231085D02*
G01*
X166275569Y-86241393D01*
X166306890Y-86258134D01*
X166334339Y-86280661D01*
X166356866Y-86308110D01*
X166373607Y-86339431D01*
X166383915Y-86373409D01*
X166388000Y-86414890D01*
X166388000Y-87016110D01*
X166383915Y-87057591D01*
X166373607Y-87091569D01*
X166356866Y-87122890D01*
X166334339Y-87150339D01*
X166306890Y-87172866D01*
X166275569Y-87189607D01*
X166241591Y-87199915D01*
X166200110Y-87204000D01*
X165523890Y-87204000D01*
X165482409Y-87199915D01*
X165448431Y-87189607D01*
X165417110Y-87172866D01*
X165389661Y-87150339D01*
X165367134Y-87122890D01*
X165350393Y-87091569D01*
X165340085Y-87057591D01*
X165336000Y-87016110D01*
X165336000Y-86414890D01*
X165340085Y-86373409D01*
X165350393Y-86339431D01*
X165367134Y-86308110D01*
X165389661Y-86280661D01*
X165417110Y-86258134D01*
X165448431Y-86241393D01*
X165482409Y-86231085D01*
X165523890Y-86227000D01*
X166200110Y-86227000D01*
X166241591Y-86231085D01*
G37*
G36*
X176909591Y-86231085D02*
G01*
X176943569Y-86241393D01*
X176974890Y-86258134D01*
X177002339Y-86280661D01*
X177024866Y-86308110D01*
X177041607Y-86339431D01*
X177051915Y-86373409D01*
X177056000Y-86414890D01*
X177056000Y-87016110D01*
X177051915Y-87057591D01*
X177041607Y-87091569D01*
X177024866Y-87122890D01*
X177002339Y-87150339D01*
X176974890Y-87172866D01*
X176943569Y-87189607D01*
X176909591Y-87199915D01*
X176868110Y-87204000D01*
X176191890Y-87204000D01*
X176150409Y-87199915D01*
X176116431Y-87189607D01*
X176085110Y-87172866D01*
X176057661Y-87150339D01*
X176035134Y-87122890D01*
X176018393Y-87091569D01*
X176008085Y-87057591D01*
X176004000Y-87016110D01*
X176004000Y-86414890D01*
X176008085Y-86373409D01*
X176018393Y-86339431D01*
X176035134Y-86308110D01*
X176057661Y-86280661D01*
X176085110Y-86258134D01*
X176116431Y-86241393D01*
X176150409Y-86231085D01*
X176191890Y-86227000D01*
X176868110Y-86227000D01*
X176909591Y-86231085D01*
G37*
G36*
X171575591Y-86231085D02*
G01*
X171609569Y-86241393D01*
X171640890Y-86258134D01*
X171668339Y-86280661D01*
X171690866Y-86308110D01*
X171707607Y-86339431D01*
X171717915Y-86373409D01*
X171722000Y-86414890D01*
X171722000Y-87016110D01*
X171717915Y-87057591D01*
X171707607Y-87091569D01*
X171690866Y-87122890D01*
X171668339Y-87150339D01*
X171640890Y-87172866D01*
X171609569Y-87189607D01*
X171575591Y-87199915D01*
X171534110Y-87204000D01*
X170857890Y-87204000D01*
X170816409Y-87199915D01*
X170782431Y-87189607D01*
X170751110Y-87172866D01*
X170723661Y-87150339D01*
X170701134Y-87122890D01*
X170684393Y-87091569D01*
X170674085Y-87057591D01*
X170670000Y-87016110D01*
X170670000Y-86414890D01*
X170674085Y-86373409D01*
X170684393Y-86339431D01*
X170701134Y-86308110D01*
X170723661Y-86280661D01*
X170751110Y-86258134D01*
X170782431Y-86241393D01*
X170816409Y-86231085D01*
X170857890Y-86227000D01*
X171534110Y-86227000D01*
X171575591Y-86231085D01*
G37*
G36*
X169797591Y-86231085D02*
G01*
X169831569Y-86241393D01*
X169862890Y-86258134D01*
X169890339Y-86280661D01*
X169912866Y-86308110D01*
X169929607Y-86339431D01*
X169939915Y-86373409D01*
X169944000Y-86414890D01*
X169944000Y-87016110D01*
X169939915Y-87057591D01*
X169929607Y-87091569D01*
X169912866Y-87122890D01*
X169890339Y-87150339D01*
X169862890Y-87172866D01*
X169831569Y-87189607D01*
X169797591Y-87199915D01*
X169756110Y-87204000D01*
X169079890Y-87204000D01*
X169038409Y-87199915D01*
X169004431Y-87189607D01*
X168973110Y-87172866D01*
X168945661Y-87150339D01*
X168923134Y-87122890D01*
X168906393Y-87091569D01*
X168896085Y-87057591D01*
X168892000Y-87016110D01*
X168892000Y-86414890D01*
X168896085Y-86373409D01*
X168906393Y-86339431D01*
X168923134Y-86308110D01*
X168945661Y-86280661D01*
X168973110Y-86258134D01*
X169004431Y-86241393D01*
X169038409Y-86231085D01*
X169079890Y-86227000D01*
X169756110Y-86227000D01*
X169797591Y-86231085D01*
G37*
G36*
X175131591Y-86231085D02*
G01*
X175165569Y-86241393D01*
X175196890Y-86258134D01*
X175224339Y-86280661D01*
X175246866Y-86308110D01*
X175263607Y-86339431D01*
X175273915Y-86373409D01*
X175278000Y-86414890D01*
X175278000Y-87016110D01*
X175273915Y-87057591D01*
X175263607Y-87091569D01*
X175246866Y-87122890D01*
X175224339Y-87150339D01*
X175196890Y-87172866D01*
X175165569Y-87189607D01*
X175131591Y-87199915D01*
X175090110Y-87204000D01*
X174413890Y-87204000D01*
X174372409Y-87199915D01*
X174338431Y-87189607D01*
X174307110Y-87172866D01*
X174279661Y-87150339D01*
X174257134Y-87122890D01*
X174240393Y-87091569D01*
X174230085Y-87057591D01*
X174226000Y-87016110D01*
X174226000Y-86414890D01*
X174230085Y-86373409D01*
X174240393Y-86339431D01*
X174257134Y-86308110D01*
X174279661Y-86280661D01*
X174307110Y-86258134D01*
X174338431Y-86241393D01*
X174372409Y-86231085D01*
X174413890Y-86227000D01*
X175090110Y-86227000D01*
X175131591Y-86231085D01*
G37*
G36*
X173353591Y-86231085D02*
G01*
X173387569Y-86241393D01*
X173418890Y-86258134D01*
X173446339Y-86280661D01*
X173468866Y-86308110D01*
X173485607Y-86339431D01*
X173495915Y-86373409D01*
X173500000Y-86414890D01*
X173500000Y-87016110D01*
X173495915Y-87057591D01*
X173485607Y-87091569D01*
X173468866Y-87122890D01*
X173446339Y-87150339D01*
X173418890Y-87172866D01*
X173387569Y-87189607D01*
X173353591Y-87199915D01*
X173312110Y-87204000D01*
X172635890Y-87204000D01*
X172594409Y-87199915D01*
X172560431Y-87189607D01*
X172529110Y-87172866D01*
X172501661Y-87150339D01*
X172479134Y-87122890D01*
X172462393Y-87091569D01*
X172452085Y-87057591D01*
X172448000Y-87016110D01*
X172448000Y-86414890D01*
X172452085Y-86373409D01*
X172462393Y-86339431D01*
X172479134Y-86308110D01*
X172501661Y-86280661D01*
X172529110Y-86258134D01*
X172560431Y-86241393D01*
X172594409Y-86231085D01*
X172635890Y-86227000D01*
X173312110Y-86227000D01*
X173353591Y-86231085D01*
G37*
G36*
X179146468Y-86031565D02*
G01*
X179185138Y-86043296D01*
X179220777Y-86062346D01*
X179252017Y-86087983D01*
X179277654Y-86119223D01*
X179296704Y-86154862D01*
X179308435Y-86193532D01*
X179313000Y-86239888D01*
X179313000Y-86891112D01*
X179308435Y-86937468D01*
X179296704Y-86976138D01*
X179277654Y-87011777D01*
X179252017Y-87043017D01*
X179220777Y-87068654D01*
X179185138Y-87087704D01*
X179146468Y-87099435D01*
X179100112Y-87104000D01*
X178023888Y-87104000D01*
X177977532Y-87099435D01*
X177938862Y-87087704D01*
X177903223Y-87068654D01*
X177871983Y-87043017D01*
X177846346Y-87011777D01*
X177827296Y-86976138D01*
X177815565Y-86937468D01*
X177811000Y-86891112D01*
X177811000Y-86239888D01*
X177815565Y-86193532D01*
X177827296Y-86154862D01*
X177846346Y-86119223D01*
X177871983Y-86087983D01*
X177903223Y-86062346D01*
X177938862Y-86043296D01*
X177977532Y-86031565D01*
X178023888Y-86027000D01*
X179100112Y-86027000D01*
X179146468Y-86031565D01*
G37*
G36*
X191807000Y-87026000D02*
G01*
X190605000Y-87026000D01*
X190605000Y-78074000D01*
X191807000Y-78074000D01*
X191807000Y-87026000D01*
G37*
G36*
X197507000Y-87026000D02*
G01*
X196305000Y-87026000D01*
X196305000Y-78074000D01*
X197507000Y-78074000D01*
X197507000Y-87026000D01*
G37*
G36*
X209158810Y-85077935D02*
G01*
X209305309Y-85138617D01*
X209305310Y-85138618D01*
X209437158Y-85226716D01*
X209549284Y-85338842D01*
X209549285Y-85338844D01*
X209637383Y-85470691D01*
X209698065Y-85617190D01*
X209729000Y-85772713D01*
X209729000Y-85931287D01*
X209698065Y-86086810D01*
X209637383Y-86233309D01*
X209620795Y-86258134D01*
X209549284Y-86365158D01*
X209437158Y-86477284D01*
X209370785Y-86521633D01*
X209305309Y-86565383D01*
X209158810Y-86626065D01*
X209003287Y-86657000D01*
X208844713Y-86657000D01*
X208689190Y-86626065D01*
X208542691Y-86565383D01*
X208477215Y-86521633D01*
X208410842Y-86477284D01*
X208298716Y-86365158D01*
X208227205Y-86258134D01*
X208210617Y-86233309D01*
X208149935Y-86086810D01*
X208119000Y-85931287D01*
X208119000Y-85772713D01*
X208149935Y-85617190D01*
X208210617Y-85470691D01*
X208298715Y-85338844D01*
X208298716Y-85338842D01*
X208410842Y-85226716D01*
X208542690Y-85138618D01*
X208542691Y-85138617D01*
X208689190Y-85077935D01*
X208844713Y-85047000D01*
X209003287Y-85047000D01*
X209158810Y-85077935D01*
G37*
G36*
X209158810Y-82537935D02*
G01*
X209305309Y-82598617D01*
X209305310Y-82598618D01*
X209437158Y-82686716D01*
X209549284Y-82798842D01*
X209549285Y-82798844D01*
X209637383Y-82930691D01*
X209698065Y-83077190D01*
X209729000Y-83232713D01*
X209729000Y-83391287D01*
X209698065Y-83546810D01*
X209637383Y-83693309D01*
X209637382Y-83693310D01*
X209549284Y-83825158D01*
X209437158Y-83937284D01*
X209370785Y-83981633D01*
X209305309Y-84025383D01*
X209158810Y-84086065D01*
X209003287Y-84117000D01*
X208844713Y-84117000D01*
X208689190Y-84086065D01*
X208542691Y-84025383D01*
X208477215Y-83981633D01*
X208410842Y-83937284D01*
X208298716Y-83825158D01*
X208210618Y-83693310D01*
X208210617Y-83693309D01*
X208149935Y-83546810D01*
X208119000Y-83391287D01*
X208119000Y-83232713D01*
X208149935Y-83077190D01*
X208210617Y-82930691D01*
X208298715Y-82798844D01*
X208298716Y-82798842D01*
X208410842Y-82686716D01*
X208542690Y-82598618D01*
X208542691Y-82598617D01*
X208689190Y-82537935D01*
X208844713Y-82507000D01*
X209003287Y-82507000D01*
X209158810Y-82537935D01*
G37*
G36*
X181276000Y-83640000D02*
G01*
X180674000Y-83640000D01*
X180674000Y-82688000D01*
X181276000Y-82688000D01*
X181276000Y-83640000D01*
G37*
G36*
X180006000Y-83640000D02*
G01*
X179404000Y-83640000D01*
X179404000Y-82688000D01*
X180006000Y-82688000D01*
X180006000Y-83640000D01*
G37*
G36*
X178736000Y-83640000D02*
G01*
X178134000Y-83640000D01*
X178134000Y-82688000D01*
X178736000Y-82688000D01*
X178736000Y-83640000D01*
G37*
G36*
X177466000Y-83640000D02*
G01*
X176864000Y-83640000D01*
X176864000Y-82688000D01*
X177466000Y-82688000D01*
X177466000Y-83640000D01*
G37*
G36*
X167138604Y-80484347D02*
G01*
X167175144Y-80495432D01*
X167208821Y-80513433D01*
X167238341Y-80537659D01*
X167262567Y-80567179D01*
X167280568Y-80600856D01*
X167291653Y-80637396D01*
X167296000Y-80681538D01*
X167296000Y-81630462D01*
X167291653Y-81674604D01*
X167280568Y-81711144D01*
X167262567Y-81744821D01*
X167238341Y-81774341D01*
X167208821Y-81798567D01*
X167175144Y-81816568D01*
X167138604Y-81827653D01*
X167094462Y-81832000D01*
X165645538Y-81832000D01*
X165601396Y-81827653D01*
X165564856Y-81816568D01*
X165531179Y-81798567D01*
X165501659Y-81774341D01*
X165477433Y-81744821D01*
X165459432Y-81711144D01*
X165448347Y-81674604D01*
X165444000Y-81630462D01*
X165444000Y-80681538D01*
X165448347Y-80637396D01*
X165459432Y-80600856D01*
X165477433Y-80567179D01*
X165501659Y-80537659D01*
X165531179Y-80513433D01*
X165564856Y-80495432D01*
X165601396Y-80484347D01*
X165645538Y-80480000D01*
X167094462Y-80480000D01*
X167138604Y-80484347D01*
G37*
G36*
X205345512Y-79875927D02*
G01*
X205494812Y-79905624D01*
X205658784Y-79973544D01*
X205806354Y-80072147D01*
X205931853Y-80197646D01*
X206030456Y-80345216D01*
X206098376Y-80509188D01*
X206133000Y-80683259D01*
X206133000Y-80860741D01*
X206098376Y-81034812D01*
X206030456Y-81198784D01*
X205931853Y-81346354D01*
X205806354Y-81471853D01*
X205658784Y-81570456D01*
X205494812Y-81638376D01*
X205345512Y-81668073D01*
X205320742Y-81673000D01*
X205143258Y-81673000D01*
X205118488Y-81668073D01*
X204969188Y-81638376D01*
X204805216Y-81570456D01*
X204657646Y-81471853D01*
X204532147Y-81346354D01*
X204433544Y-81198784D01*
X204365624Y-81034812D01*
X204331000Y-80860741D01*
X204331000Y-80683259D01*
X204365624Y-80509188D01*
X204433544Y-80345216D01*
X204532147Y-80197646D01*
X204657646Y-80072147D01*
X204805216Y-79973544D01*
X204969188Y-79905624D01*
X205118488Y-79875927D01*
X205143258Y-79871000D01*
X205320742Y-79871000D01*
X205345512Y-79875927D01*
G37*
G36*
X202805512Y-79875927D02*
G01*
X202954812Y-79905624D01*
X203118784Y-79973544D01*
X203266354Y-80072147D01*
X203391853Y-80197646D01*
X203490456Y-80345216D01*
X203558376Y-80509188D01*
X203593000Y-80683259D01*
X203593000Y-80860741D01*
X203558376Y-81034812D01*
X203490456Y-81198784D01*
X203391853Y-81346354D01*
X203266354Y-81471853D01*
X203118784Y-81570456D01*
X202954812Y-81638376D01*
X202805512Y-81668073D01*
X202780742Y-81673000D01*
X202603258Y-81673000D01*
X202578488Y-81668073D01*
X202429188Y-81638376D01*
X202265216Y-81570456D01*
X202117646Y-81471853D01*
X201992147Y-81346354D01*
X201893544Y-81198784D01*
X201825624Y-81034812D01*
X201791000Y-80860741D01*
X201791000Y-80683259D01*
X201825624Y-80509188D01*
X201893544Y-80345216D01*
X201992147Y-80197646D01*
X202117646Y-80072147D01*
X202265216Y-79973544D01*
X202429188Y-79905624D01*
X202578488Y-79875927D01*
X202603258Y-79871000D01*
X202780742Y-79871000D01*
X202805512Y-79875927D01*
G37*
G36*
X209158810Y-79997935D02*
G01*
X209305309Y-80058617D01*
X209346491Y-80086134D01*
X209437158Y-80146716D01*
X209549284Y-80258842D01*
X209549285Y-80258844D01*
X209637383Y-80390691D01*
X209698065Y-80537190D01*
X209729000Y-80692713D01*
X209729000Y-80851287D01*
X209698065Y-81006810D01*
X209637383Y-81153309D01*
X209637382Y-81153310D01*
X209549284Y-81285158D01*
X209437158Y-81397284D01*
X209370785Y-81441633D01*
X209305309Y-81485383D01*
X209158810Y-81546065D01*
X209003287Y-81577000D01*
X208844713Y-81577000D01*
X208689190Y-81546065D01*
X208542691Y-81485383D01*
X208477215Y-81441633D01*
X208410842Y-81397284D01*
X208298716Y-81285158D01*
X208210618Y-81153310D01*
X208210617Y-81153309D01*
X208149935Y-81006810D01*
X208119000Y-80851287D01*
X208119000Y-80692713D01*
X208149935Y-80537190D01*
X208210617Y-80390691D01*
X208298715Y-80258844D01*
X208298716Y-80258842D01*
X208410842Y-80146716D01*
X208501509Y-80086134D01*
X208542691Y-80058617D01*
X208689190Y-79997935D01*
X208844713Y-79967000D01*
X209003287Y-79967000D01*
X209158810Y-79997935D01*
G37*
G36*
X171629564Y-79507389D02*
G01*
X171820833Y-79586615D01*
X171820835Y-79586616D01*
X171953629Y-79675346D01*
X171992973Y-79701635D01*
X172139365Y-79848027D01*
X172254385Y-80020167D01*
X172333611Y-80211436D01*
X172374000Y-80414484D01*
X172374000Y-80621516D01*
X172333611Y-80824564D01*
X172258122Y-81006810D01*
X172254384Y-81015835D01*
X172139365Y-81187973D01*
X171992973Y-81334365D01*
X171820835Y-81449384D01*
X171820834Y-81449385D01*
X171820833Y-81449385D01*
X171629564Y-81528611D01*
X171426516Y-81569000D01*
X171219484Y-81569000D01*
X171016436Y-81528611D01*
X170825167Y-81449385D01*
X170825166Y-81449385D01*
X170825165Y-81449384D01*
X170653027Y-81334365D01*
X170506635Y-81187973D01*
X170391616Y-81015835D01*
X170387878Y-81006810D01*
X170312389Y-80824564D01*
X170272000Y-80621516D01*
X170272000Y-80414484D01*
X170312389Y-80211436D01*
X170391615Y-80020167D01*
X170506635Y-79848027D01*
X170653027Y-79701635D01*
X170692371Y-79675346D01*
X170825165Y-79586616D01*
X170825167Y-79586615D01*
X171016436Y-79507389D01*
X171219484Y-79467000D01*
X171426516Y-79467000D01*
X171629564Y-79507389D01*
G37*
G36*
X177464999Y-76938999D02*
G01*
X177465001Y-76939001D01*
X177465605Y-76945137D01*
X177465605Y-77613396D01*
X177468007Y-77637782D01*
X177475120Y-77661231D01*
X177486671Y-77682842D01*
X177502216Y-77701784D01*
X177521158Y-77717329D01*
X177542769Y-77728880D01*
X177566218Y-77735993D01*
X177590604Y-77738395D01*
X178009396Y-77738395D01*
X178033782Y-77735993D01*
X178057231Y-77728880D01*
X178078842Y-77717329D01*
X178097784Y-77701784D01*
X178113329Y-77682842D01*
X178124880Y-77661231D01*
X178131993Y-77637782D01*
X178134395Y-77613396D01*
X178134395Y-76945137D01*
X178134999Y-76939001D01*
X178135001Y-76938999D01*
X178141137Y-76938395D01*
X178728863Y-76938395D01*
X178734999Y-76938999D01*
X178735001Y-76939001D01*
X178735605Y-76945137D01*
X178735605Y-77613396D01*
X178738007Y-77637782D01*
X178745120Y-77661231D01*
X178756671Y-77682842D01*
X178772216Y-77701784D01*
X178791158Y-77717329D01*
X178812769Y-77728880D01*
X178836218Y-77735993D01*
X178860604Y-77738395D01*
X179279396Y-77738395D01*
X179303782Y-77735993D01*
X179327231Y-77728880D01*
X179348842Y-77717329D01*
X179367784Y-77701784D01*
X179383329Y-77682842D01*
X179394880Y-77661231D01*
X179401993Y-77637782D01*
X179404395Y-77613396D01*
X179404395Y-76945137D01*
X179404999Y-76939001D01*
X179405001Y-76938999D01*
X179411137Y-76938395D01*
X179998863Y-76938395D01*
X180004999Y-76938999D01*
X180005001Y-76939001D01*
X180005605Y-76945137D01*
X180005605Y-77613396D01*
X180008007Y-77637782D01*
X180015120Y-77661231D01*
X180026671Y-77682842D01*
X180042216Y-77701784D01*
X180061158Y-77717329D01*
X180082769Y-77728880D01*
X180106218Y-77735993D01*
X180130604Y-77738395D01*
X180549396Y-77738395D01*
X180573782Y-77735993D01*
X180597231Y-77728880D01*
X180618842Y-77717329D01*
X180637784Y-77701784D01*
X180653329Y-77682842D01*
X180664880Y-77661231D01*
X180671993Y-77637782D01*
X180674395Y-77613396D01*
X180674395Y-76945137D01*
X180674999Y-76939001D01*
X180675001Y-76938999D01*
X180681137Y-76938395D01*
X181268863Y-76938395D01*
X181274999Y-76938999D01*
X181275001Y-76939001D01*
X181275605Y-76945137D01*
X181275605Y-81482863D01*
X181275001Y-81488999D01*
X181274999Y-81489001D01*
X181268863Y-81489605D01*
X176871137Y-81489605D01*
X176865001Y-81489001D01*
X176864999Y-81488999D01*
X176864395Y-81482863D01*
X176864395Y-76945137D01*
X176864999Y-76939001D01*
X176865001Y-76938999D01*
X176871137Y-76938395D01*
X177458863Y-76938395D01*
X177464999Y-76938999D01*
G37*
G36*
X185205468Y-79644565D02*
G01*
X185244138Y-79656296D01*
X185279777Y-79675346D01*
X185311017Y-79700983D01*
X185336654Y-79732223D01*
X185355704Y-79767862D01*
X185367435Y-79806532D01*
X185372000Y-79852888D01*
X185372000Y-80929112D01*
X185367435Y-80975468D01*
X185355704Y-81014138D01*
X185336654Y-81049777D01*
X185311017Y-81081017D01*
X185279777Y-81106654D01*
X185244138Y-81125704D01*
X185205468Y-81137435D01*
X185159112Y-81142000D01*
X184507888Y-81142000D01*
X184461532Y-81137435D01*
X184422862Y-81125704D01*
X184387223Y-81106654D01*
X184355983Y-81081017D01*
X184330346Y-81049777D01*
X184311296Y-81014138D01*
X184299565Y-80975468D01*
X184295000Y-80929112D01*
X184295000Y-79852888D01*
X184299565Y-79806532D01*
X184311296Y-79767862D01*
X184330346Y-79732223D01*
X184355983Y-79700983D01*
X184387223Y-79675346D01*
X184422862Y-79656296D01*
X184461532Y-79644565D01*
X184507888Y-79640000D01*
X185159112Y-79640000D01*
X185205468Y-79644565D01*
G37*
G36*
X183330468Y-79644565D02*
G01*
X183369138Y-79656296D01*
X183404777Y-79675346D01*
X183436017Y-79700983D01*
X183461654Y-79732223D01*
X183480704Y-79767862D01*
X183492435Y-79806532D01*
X183497000Y-79852888D01*
X183497000Y-80929112D01*
X183492435Y-80975468D01*
X183480704Y-81014138D01*
X183461654Y-81049777D01*
X183436017Y-81081017D01*
X183404777Y-81106654D01*
X183369138Y-81125704D01*
X183330468Y-81137435D01*
X183284112Y-81142000D01*
X182632888Y-81142000D01*
X182586532Y-81137435D01*
X182547862Y-81125704D01*
X182512223Y-81106654D01*
X182480983Y-81081017D01*
X182455346Y-81049777D01*
X182436296Y-81014138D01*
X182424565Y-80975468D01*
X182420000Y-80929112D01*
X182420000Y-79852888D01*
X182424565Y-79806532D01*
X182436296Y-79767862D01*
X182455346Y-79732223D01*
X182480983Y-79700983D01*
X182512223Y-79675346D01*
X182547862Y-79656296D01*
X182586532Y-79644565D01*
X182632888Y-79640000D01*
X183284112Y-79640000D01*
X183330468Y-79644565D01*
G37*
G36*
X164463591Y-80059085D02*
G01*
X164497569Y-80069393D01*
X164528890Y-80086134D01*
X164556339Y-80108661D01*
X164578866Y-80136110D01*
X164595607Y-80167431D01*
X164605915Y-80201409D01*
X164610000Y-80242890D01*
X164610000Y-80844110D01*
X164605915Y-80885591D01*
X164595607Y-80919569D01*
X164578866Y-80950890D01*
X164556339Y-80978339D01*
X164528890Y-81000866D01*
X164497569Y-81017607D01*
X164463591Y-81027915D01*
X164422110Y-81032000D01*
X163745890Y-81032000D01*
X163704409Y-81027915D01*
X163670431Y-81017607D01*
X163639110Y-81000866D01*
X163611661Y-80978339D01*
X163589134Y-80950890D01*
X163572393Y-80919569D01*
X163562085Y-80885591D01*
X163558000Y-80844110D01*
X163558000Y-80242890D01*
X163562085Y-80201409D01*
X163572393Y-80167431D01*
X163589134Y-80136110D01*
X163611661Y-80108661D01*
X163639110Y-80086134D01*
X163670431Y-80069393D01*
X163704409Y-80059085D01*
X163745890Y-80055000D01*
X164422110Y-80055000D01*
X164463591Y-80059085D01*
G37*
G36*
X164463591Y-78484085D02*
G01*
X164497569Y-78494393D01*
X164528890Y-78511134D01*
X164556339Y-78533661D01*
X164578866Y-78561110D01*
X164595607Y-78592431D01*
X164605915Y-78626409D01*
X164610000Y-78667890D01*
X164610000Y-79269110D01*
X164605915Y-79310591D01*
X164595607Y-79344569D01*
X164578866Y-79375890D01*
X164556339Y-79403339D01*
X164528890Y-79425866D01*
X164497569Y-79442607D01*
X164463591Y-79452915D01*
X164422110Y-79457000D01*
X163745890Y-79457000D01*
X163704409Y-79452915D01*
X163670431Y-79442607D01*
X163639110Y-79425866D01*
X163611661Y-79403339D01*
X163589134Y-79375890D01*
X163572393Y-79344569D01*
X163562085Y-79310591D01*
X163558000Y-79269110D01*
X163558000Y-78667890D01*
X163562085Y-78626409D01*
X163572393Y-78592431D01*
X163589134Y-78561110D01*
X163611661Y-78533661D01*
X163639110Y-78511134D01*
X163670431Y-78494393D01*
X163704409Y-78484085D01*
X163745890Y-78480000D01*
X164422110Y-78480000D01*
X164463591Y-78484085D01*
G37*
G36*
X237326254Y-75243818D02*
G01*
X237699511Y-75398426D01*
X237699513Y-75398427D01*
X237745550Y-75429188D01*
X238035436Y-75622884D01*
X238321116Y-75908564D01*
X238545574Y-76244489D01*
X238700182Y-76617746D01*
X238779000Y-77013993D01*
X238779000Y-77418007D01*
X238700182Y-77814254D01*
X238563904Y-78143258D01*
X238545573Y-78187513D01*
X238321116Y-78523436D01*
X238035436Y-78809116D01*
X237699513Y-79033573D01*
X237699512Y-79033574D01*
X237699511Y-79033574D01*
X237326254Y-79188182D01*
X236930007Y-79267000D01*
X236525993Y-79267000D01*
X236129746Y-79188182D01*
X235756489Y-79033574D01*
X235756488Y-79033574D01*
X235756487Y-79033573D01*
X235420564Y-78809116D01*
X235134884Y-78523436D01*
X234910427Y-78187513D01*
X234892096Y-78143258D01*
X234755818Y-77814254D01*
X234677000Y-77418007D01*
X234677000Y-77013993D01*
X234755818Y-76617746D01*
X234910426Y-76244489D01*
X235134884Y-75908564D01*
X235420564Y-75622884D01*
X235710450Y-75429188D01*
X235756487Y-75398427D01*
X235756489Y-75398426D01*
X236129746Y-75243818D01*
X236525993Y-75165000D01*
X236930007Y-75165000D01*
X237326254Y-75243818D01*
G37*
G36*
X205345512Y-77335927D02*
G01*
X205494812Y-77365624D01*
X205658784Y-77433544D01*
X205806354Y-77532147D01*
X205931853Y-77657646D01*
X206030456Y-77805216D01*
X206098376Y-77969188D01*
X206133000Y-78143259D01*
X206133000Y-78320741D01*
X206098376Y-78494812D01*
X206030456Y-78658784D01*
X205931853Y-78806354D01*
X205806354Y-78931853D01*
X205658784Y-79030456D01*
X205494812Y-79098376D01*
X205345512Y-79128073D01*
X205320742Y-79133000D01*
X205143258Y-79133000D01*
X205118488Y-79128073D01*
X204969188Y-79098376D01*
X204805216Y-79030456D01*
X204657646Y-78931853D01*
X204532147Y-78806354D01*
X204433544Y-78658784D01*
X204365624Y-78494812D01*
X204331000Y-78320741D01*
X204331000Y-78143259D01*
X204365624Y-77969188D01*
X204433544Y-77805216D01*
X204532147Y-77657646D01*
X204657646Y-77532147D01*
X204805216Y-77433544D01*
X204969188Y-77365624D01*
X205118488Y-77335927D01*
X205143258Y-77331000D01*
X205320742Y-77331000D01*
X205345512Y-77335927D01*
G37*
G36*
X202805512Y-77335927D02*
G01*
X202954812Y-77365624D01*
X203118784Y-77433544D01*
X203266354Y-77532147D01*
X203391853Y-77657646D01*
X203490456Y-77805216D01*
X203558376Y-77969188D01*
X203593000Y-78143259D01*
X203593000Y-78320741D01*
X203558376Y-78494812D01*
X203490456Y-78658784D01*
X203391853Y-78806354D01*
X203266354Y-78931853D01*
X203118784Y-79030456D01*
X202954812Y-79098376D01*
X202805512Y-79128073D01*
X202780742Y-79133000D01*
X202603258Y-79133000D01*
X202578488Y-79128073D01*
X202429188Y-79098376D01*
X202265216Y-79030456D01*
X202117646Y-78931853D01*
X201992147Y-78806354D01*
X201893544Y-78658784D01*
X201825624Y-78494812D01*
X201791000Y-78320741D01*
X201791000Y-78143259D01*
X201825624Y-77969188D01*
X201893544Y-77805216D01*
X201992147Y-77657646D01*
X202117646Y-77532147D01*
X202265216Y-77433544D01*
X202429188Y-77365624D01*
X202578488Y-77335927D01*
X202603258Y-77331000D01*
X202780742Y-77331000D01*
X202805512Y-77335927D01*
G37*
G36*
X209158810Y-77457935D02*
G01*
X209305309Y-77518617D01*
X209305310Y-77518618D01*
X209437158Y-77606716D01*
X209549284Y-77718842D01*
X209549285Y-77718844D01*
X209637383Y-77850691D01*
X209698065Y-77997190D01*
X209729000Y-78152713D01*
X209729000Y-78311287D01*
X209698065Y-78466810D01*
X209637383Y-78613309D01*
X209637382Y-78613310D01*
X209549284Y-78745158D01*
X209437158Y-78857284D01*
X209370785Y-78901633D01*
X209305309Y-78945383D01*
X209158810Y-79006065D01*
X209003287Y-79037000D01*
X208844713Y-79037000D01*
X208689190Y-79006065D01*
X208542691Y-78945383D01*
X208477215Y-78901633D01*
X208410842Y-78857284D01*
X208298716Y-78745158D01*
X208210618Y-78613310D01*
X208210617Y-78613309D01*
X208149935Y-78466810D01*
X208119000Y-78311287D01*
X208119000Y-78152713D01*
X208149935Y-77997190D01*
X208210617Y-77850691D01*
X208298715Y-77718844D01*
X208298716Y-77718842D01*
X208410842Y-77606716D01*
X208542690Y-77518618D01*
X208542691Y-77518617D01*
X208689190Y-77457935D01*
X208844713Y-77427000D01*
X209003287Y-77427000D01*
X209158810Y-77457935D01*
G37*
G36*
X167138604Y-77684347D02*
G01*
X167175144Y-77695432D01*
X167208821Y-77713433D01*
X167238341Y-77737659D01*
X167262567Y-77767179D01*
X167280568Y-77800856D01*
X167291653Y-77837396D01*
X167296000Y-77881538D01*
X167296000Y-78830462D01*
X167291653Y-78874604D01*
X167280568Y-78911144D01*
X167262567Y-78944821D01*
X167238341Y-78974341D01*
X167208821Y-78998567D01*
X167175144Y-79016568D01*
X167138604Y-79027653D01*
X167094462Y-79032000D01*
X165645538Y-79032000D01*
X165601396Y-79027653D01*
X165564856Y-79016568D01*
X165531179Y-78998567D01*
X165501659Y-78974341D01*
X165477433Y-78944821D01*
X165459432Y-78911144D01*
X165448347Y-78874604D01*
X165444000Y-78830462D01*
X165444000Y-77881538D01*
X165448347Y-77837396D01*
X165459432Y-77800856D01*
X165477433Y-77767179D01*
X165501659Y-77737659D01*
X165531179Y-77713433D01*
X165564856Y-77695432D01*
X165601396Y-77684347D01*
X165645538Y-77680000D01*
X167094462Y-77680000D01*
X167138604Y-77684347D01*
G37*
G36*
X183330468Y-77358565D02*
G01*
X183369138Y-77370296D01*
X183404777Y-77389346D01*
X183436017Y-77414983D01*
X183461654Y-77446223D01*
X183480704Y-77481862D01*
X183492435Y-77520532D01*
X183497000Y-77566888D01*
X183497000Y-78643112D01*
X183492435Y-78689468D01*
X183480704Y-78728138D01*
X183461654Y-78763777D01*
X183436017Y-78795017D01*
X183404777Y-78820654D01*
X183369138Y-78839704D01*
X183330468Y-78851435D01*
X183284112Y-78856000D01*
X182632888Y-78856000D01*
X182586532Y-78851435D01*
X182547862Y-78839704D01*
X182512223Y-78820654D01*
X182480983Y-78795017D01*
X182455346Y-78763777D01*
X182436296Y-78728138D01*
X182424565Y-78689468D01*
X182420000Y-78643112D01*
X182420000Y-77566888D01*
X182424565Y-77520532D01*
X182436296Y-77481862D01*
X182455346Y-77446223D01*
X182480983Y-77414983D01*
X182512223Y-77389346D01*
X182547862Y-77370296D01*
X182586532Y-77358565D01*
X182632888Y-77354000D01*
X183284112Y-77354000D01*
X183330468Y-77358565D01*
G37*
G36*
X185205468Y-77358565D02*
G01*
X185244138Y-77370296D01*
X185279777Y-77389346D01*
X185311017Y-77414983D01*
X185336654Y-77446223D01*
X185355704Y-77481862D01*
X185367435Y-77520532D01*
X185372000Y-77566888D01*
X185372000Y-78643112D01*
X185367435Y-78689468D01*
X185355704Y-78728138D01*
X185336654Y-78763777D01*
X185311017Y-78795017D01*
X185279777Y-78820654D01*
X185244138Y-78839704D01*
X185205468Y-78851435D01*
X185159112Y-78856000D01*
X184507888Y-78856000D01*
X184461532Y-78851435D01*
X184422862Y-78839704D01*
X184387223Y-78820654D01*
X184355983Y-78795017D01*
X184330346Y-78763777D01*
X184311296Y-78728138D01*
X184299565Y-78689468D01*
X184295000Y-78643112D01*
X184295000Y-77566888D01*
X184299565Y-77520532D01*
X184311296Y-77481862D01*
X184330346Y-77446223D01*
X184355983Y-77414983D01*
X184387223Y-77389346D01*
X184422862Y-77370296D01*
X184461532Y-77358565D01*
X184507888Y-77354000D01*
X185159112Y-77354000D01*
X185205468Y-77358565D01*
G37*
G36*
X202805512Y-74795927D02*
G01*
X202954812Y-74825624D01*
X203118784Y-74893544D01*
X203266354Y-74992147D01*
X203391853Y-75117646D01*
X203490456Y-75265216D01*
X203558376Y-75429188D01*
X203593000Y-75603259D01*
X203593000Y-75780741D01*
X203558376Y-75954812D01*
X203490456Y-76118784D01*
X203391853Y-76266354D01*
X203266354Y-76391853D01*
X203118784Y-76490456D01*
X202954812Y-76558376D01*
X202805512Y-76588073D01*
X202780742Y-76593000D01*
X202603258Y-76593000D01*
X202578488Y-76588073D01*
X202429188Y-76558376D01*
X202265216Y-76490456D01*
X202117646Y-76391853D01*
X201992147Y-76266354D01*
X201893544Y-76118784D01*
X201825624Y-75954812D01*
X201791000Y-75780741D01*
X201791000Y-75603259D01*
X201825624Y-75429188D01*
X201893544Y-75265216D01*
X201992147Y-75117646D01*
X202117646Y-74992147D01*
X202265216Y-74893544D01*
X202429188Y-74825624D01*
X202578488Y-74795927D01*
X202603258Y-74791000D01*
X202780742Y-74791000D01*
X202805512Y-74795927D01*
G37*
G36*
X205345512Y-74795927D02*
G01*
X205494812Y-74825624D01*
X205658784Y-74893544D01*
X205806354Y-74992147D01*
X205931853Y-75117646D01*
X206030456Y-75265216D01*
X206098376Y-75429188D01*
X206133000Y-75603259D01*
X206133000Y-75780741D01*
X206098376Y-75954812D01*
X206030456Y-76118784D01*
X205931853Y-76266354D01*
X205806354Y-76391853D01*
X205658784Y-76490456D01*
X205494812Y-76558376D01*
X205345512Y-76588073D01*
X205320742Y-76593000D01*
X205143258Y-76593000D01*
X205118488Y-76588073D01*
X204969188Y-76558376D01*
X204805216Y-76490456D01*
X204657646Y-76391853D01*
X204532147Y-76266354D01*
X204433544Y-76118784D01*
X204365624Y-75954812D01*
X204331000Y-75780741D01*
X204331000Y-75603259D01*
X204365624Y-75429188D01*
X204433544Y-75265216D01*
X204532147Y-75117646D01*
X204657646Y-74992147D01*
X204805216Y-74893544D01*
X204969188Y-74825624D01*
X205118488Y-74795927D01*
X205143258Y-74791000D01*
X205320742Y-74791000D01*
X205345512Y-74795927D01*
G37*
G36*
X209158810Y-74917935D02*
G01*
X209305309Y-74978617D01*
X209305310Y-74978618D01*
X209437158Y-75066716D01*
X209549284Y-75178842D01*
X209549285Y-75178844D01*
X209637383Y-75310691D01*
X209698065Y-75457190D01*
X209729000Y-75612713D01*
X209729000Y-75771287D01*
X209698065Y-75926810D01*
X209637383Y-76073309D01*
X209637382Y-76073310D01*
X209549284Y-76205158D01*
X209437158Y-76317284D01*
X209370785Y-76361633D01*
X209305309Y-76405383D01*
X209158810Y-76466065D01*
X209003287Y-76497000D01*
X208844713Y-76497000D01*
X208689190Y-76466065D01*
X208542691Y-76405383D01*
X208477215Y-76361633D01*
X208410842Y-76317284D01*
X208298716Y-76205158D01*
X208210618Y-76073310D01*
X208210617Y-76073309D01*
X208149935Y-75926810D01*
X208119000Y-75771287D01*
X208119000Y-75612713D01*
X208149935Y-75457190D01*
X208210617Y-75310691D01*
X208298715Y-75178844D01*
X208298716Y-75178842D01*
X208410842Y-75066716D01*
X208542690Y-74978618D01*
X208542691Y-74978617D01*
X208689190Y-74917935D01*
X208844713Y-74887000D01*
X209003287Y-74887000D01*
X209158810Y-74917935D01*
G37*
G36*
X179141000Y-75227000D02*
G01*
X164379000Y-75227000D01*
X164379000Y-73775000D01*
X179141000Y-73775000D01*
X179141000Y-75227000D01*
G37*
G36*
X205345512Y-72255927D02*
G01*
X205494812Y-72285624D01*
X205658784Y-72353544D01*
X205806354Y-72452147D01*
X205931853Y-72577646D01*
X206030456Y-72725216D01*
X206098376Y-72889188D01*
X206133000Y-73063259D01*
X206133000Y-73240741D01*
X206098376Y-73414812D01*
X206030456Y-73578784D01*
X205931853Y-73726354D01*
X205806354Y-73851853D01*
X205658784Y-73950456D01*
X205494812Y-74018376D01*
X205345512Y-74048073D01*
X205320742Y-74053000D01*
X205143258Y-74053000D01*
X205118488Y-74048073D01*
X204969188Y-74018376D01*
X204805216Y-73950456D01*
X204657646Y-73851853D01*
X204532147Y-73726354D01*
X204433544Y-73578784D01*
X204365624Y-73414812D01*
X204331000Y-73240741D01*
X204331000Y-73063259D01*
X204365624Y-72889188D01*
X204433544Y-72725216D01*
X204532147Y-72577646D01*
X204657646Y-72452147D01*
X204805216Y-72353544D01*
X204969188Y-72285624D01*
X205118488Y-72255927D01*
X205143258Y-72251000D01*
X205320742Y-72251000D01*
X205345512Y-72255927D01*
G37*
G36*
X202805512Y-72255927D02*
G01*
X202954812Y-72285624D01*
X203118784Y-72353544D01*
X203266354Y-72452147D01*
X203391853Y-72577646D01*
X203490456Y-72725216D01*
X203558376Y-72889188D01*
X203593000Y-73063259D01*
X203593000Y-73240741D01*
X203558376Y-73414812D01*
X203490456Y-73578784D01*
X203391853Y-73726354D01*
X203266354Y-73851853D01*
X203118784Y-73950456D01*
X202954812Y-74018376D01*
X202805512Y-74048073D01*
X202780742Y-74053000D01*
X202603258Y-74053000D01*
X202578488Y-74048073D01*
X202429188Y-74018376D01*
X202265216Y-73950456D01*
X202117646Y-73851853D01*
X201992147Y-73726354D01*
X201893544Y-73578784D01*
X201825624Y-73414812D01*
X201791000Y-73240741D01*
X201791000Y-73063259D01*
X201825624Y-72889188D01*
X201893544Y-72725216D01*
X201992147Y-72577646D01*
X202117646Y-72452147D01*
X202265216Y-72353544D01*
X202429188Y-72285624D01*
X202578488Y-72255927D01*
X202603258Y-72251000D01*
X202780742Y-72251000D01*
X202805512Y-72255927D01*
G37*
G36*
X209158810Y-72377935D02*
G01*
X209305309Y-72438617D01*
X209305310Y-72438618D01*
X209437158Y-72526716D01*
X209549284Y-72638842D01*
X209549285Y-72638844D01*
X209637383Y-72770691D01*
X209698065Y-72917190D01*
X209729000Y-73072713D01*
X209729000Y-73231287D01*
X209698065Y-73386810D01*
X209637383Y-73533309D01*
X209637382Y-73533310D01*
X209549284Y-73665158D01*
X209437158Y-73777284D01*
X209370785Y-73821633D01*
X209305309Y-73865383D01*
X209158810Y-73926065D01*
X209003287Y-73957000D01*
X208844713Y-73957000D01*
X208689190Y-73926065D01*
X208542691Y-73865383D01*
X208477215Y-73821633D01*
X208410842Y-73777284D01*
X208298716Y-73665158D01*
X208210618Y-73533310D01*
X208210617Y-73533309D01*
X208149935Y-73386810D01*
X208119000Y-73231287D01*
X208119000Y-73072713D01*
X208149935Y-72917190D01*
X208210617Y-72770691D01*
X208298715Y-72638844D01*
X208298716Y-72638842D01*
X208410842Y-72526716D01*
X208542690Y-72438618D01*
X208542691Y-72438617D01*
X208689190Y-72377935D01*
X208844713Y-72347000D01*
X209003287Y-72347000D01*
X209158810Y-72377935D01*
G37*
G36*
X192507000Y-72804000D02*
G01*
X191305000Y-72804000D01*
X191305000Y-70452000D01*
X192507000Y-70452000D01*
X192507000Y-72804000D01*
G37*
G36*
X196807000Y-72804000D02*
G01*
X195605000Y-72804000D01*
X195605000Y-70452000D01*
X196807000Y-70452000D01*
X196807000Y-72804000D01*
G37*
G36*
X237326254Y-68639818D02*
G01*
X237699511Y-68794426D01*
X237699513Y-68794427D01*
X237813298Y-68870456D01*
X238035436Y-69018884D01*
X238321116Y-69304564D01*
X238545574Y-69640489D01*
X238700182Y-70013746D01*
X238779000Y-70409993D01*
X238779000Y-70814007D01*
X238700182Y-71210254D01*
X238545574Y-71583511D01*
X238545573Y-71583513D01*
X238321116Y-71919436D01*
X238035436Y-72205116D01*
X237699513Y-72429573D01*
X237699512Y-72429574D01*
X237699511Y-72429574D01*
X237326254Y-72584182D01*
X236930007Y-72663000D01*
X236525993Y-72663000D01*
X236129746Y-72584182D01*
X235756489Y-72429574D01*
X235756488Y-72429574D01*
X235756487Y-72429573D01*
X235420564Y-72205116D01*
X235134884Y-71919436D01*
X234910427Y-71583513D01*
X234910426Y-71583511D01*
X234755818Y-71210254D01*
X234677000Y-70814007D01*
X234677000Y-70409993D01*
X234755818Y-70013746D01*
X234910426Y-69640489D01*
X235134884Y-69304564D01*
X235420564Y-69018884D01*
X235642702Y-68870456D01*
X235756487Y-68794427D01*
X235756489Y-68794426D01*
X236129746Y-68639818D01*
X236525993Y-68561000D01*
X236930007Y-68561000D01*
X237326254Y-68639818D01*
G37*
G36*
X202805512Y-69715927D02*
G01*
X202954812Y-69745624D01*
X203118784Y-69813544D01*
X203266354Y-69912147D01*
X203391853Y-70037646D01*
X203490456Y-70185216D01*
X203558376Y-70349188D01*
X203593000Y-70523259D01*
X203593000Y-70700741D01*
X203558376Y-70874812D01*
X203490456Y-71038784D01*
X203391853Y-71186354D01*
X203266354Y-71311853D01*
X203118784Y-71410456D01*
X202954812Y-71478376D01*
X202805512Y-71508073D01*
X202780742Y-71513000D01*
X202603258Y-71513000D01*
X202578488Y-71508073D01*
X202429188Y-71478376D01*
X202265216Y-71410456D01*
X202117646Y-71311853D01*
X201992147Y-71186354D01*
X201893544Y-71038784D01*
X201825624Y-70874812D01*
X201791000Y-70700741D01*
X201791000Y-70523259D01*
X201825624Y-70349188D01*
X201893544Y-70185216D01*
X201992147Y-70037646D01*
X202117646Y-69912147D01*
X202265216Y-69813544D01*
X202429188Y-69745624D01*
X202578488Y-69715927D01*
X202603258Y-69711000D01*
X202780742Y-69711000D01*
X202805512Y-69715927D01*
G37*
G36*
X205345512Y-69715927D02*
G01*
X205494812Y-69745624D01*
X205658784Y-69813544D01*
X205806354Y-69912147D01*
X205931853Y-70037646D01*
X206030456Y-70185216D01*
X206098376Y-70349188D01*
X206133000Y-70523259D01*
X206133000Y-70700741D01*
X206098376Y-70874812D01*
X206030456Y-71038784D01*
X205931853Y-71186354D01*
X205806354Y-71311853D01*
X205658784Y-71410456D01*
X205494812Y-71478376D01*
X205345512Y-71508073D01*
X205320742Y-71513000D01*
X205143258Y-71513000D01*
X205118488Y-71508073D01*
X204969188Y-71478376D01*
X204805216Y-71410456D01*
X204657646Y-71311853D01*
X204532147Y-71186354D01*
X204433544Y-71038784D01*
X204365624Y-70874812D01*
X204331000Y-70700741D01*
X204331000Y-70523259D01*
X204365624Y-70349188D01*
X204433544Y-70185216D01*
X204532147Y-70037646D01*
X204657646Y-69912147D01*
X204805216Y-69813544D01*
X204969188Y-69745624D01*
X205118488Y-69715927D01*
X205143258Y-69711000D01*
X205320742Y-69711000D01*
X205345512Y-69715927D01*
G37*
G36*
X209158810Y-69837935D02*
G01*
X209305309Y-69898617D01*
X209305310Y-69898618D01*
X209437158Y-69986716D01*
X209549284Y-70098842D01*
X209549285Y-70098844D01*
X209637383Y-70230691D01*
X209698065Y-70377190D01*
X209729000Y-70532713D01*
X209729000Y-70691287D01*
X209698065Y-70846810D01*
X209637383Y-70993309D01*
X209637382Y-70993310D01*
X209549284Y-71125158D01*
X209437158Y-71237284D01*
X209370785Y-71281633D01*
X209305309Y-71325383D01*
X209158810Y-71386065D01*
X209003287Y-71417000D01*
X208844713Y-71417000D01*
X208689190Y-71386065D01*
X208542691Y-71325383D01*
X208477215Y-71281633D01*
X208410842Y-71237284D01*
X208298716Y-71125158D01*
X208210618Y-70993310D01*
X208210617Y-70993309D01*
X208149935Y-70846810D01*
X208119000Y-70691287D01*
X208119000Y-70532713D01*
X208149935Y-70377190D01*
X208210617Y-70230691D01*
X208298715Y-70098844D01*
X208298716Y-70098842D01*
X208410842Y-69986716D01*
X208542690Y-69898618D01*
X208542691Y-69898617D01*
X208689190Y-69837935D01*
X208844713Y-69807000D01*
X209003287Y-69807000D01*
X209158810Y-69837935D01*
G37*
G36*
X176961000Y-71102000D02*
G01*
X166559000Y-71102000D01*
X166559000Y-65750000D01*
X176961000Y-65750000D01*
X176961000Y-71102000D01*
G37*
G36*
X203593000Y-68973000D02*
G01*
X201791000Y-68973000D01*
X201791000Y-67171000D01*
X203593000Y-67171000D01*
X203593000Y-68973000D01*
G37*
G36*
X205345512Y-67175927D02*
G01*
X205494812Y-67205624D01*
X205658784Y-67273544D01*
X205806354Y-67372147D01*
X205931853Y-67497646D01*
X206030456Y-67645216D01*
X206098376Y-67809188D01*
X206133000Y-67983259D01*
X206133000Y-68160741D01*
X206098376Y-68334812D01*
X206030456Y-68498784D01*
X205931853Y-68646354D01*
X205806354Y-68771853D01*
X205658784Y-68870456D01*
X205494812Y-68938376D01*
X205345512Y-68968073D01*
X205320742Y-68973000D01*
X205143258Y-68973000D01*
X205118488Y-68968073D01*
X204969188Y-68938376D01*
X204805216Y-68870456D01*
X204657646Y-68771853D01*
X204532147Y-68646354D01*
X204433544Y-68498784D01*
X204365624Y-68334812D01*
X204331000Y-68160741D01*
X204331000Y-67983259D01*
X204365624Y-67809188D01*
X204433544Y-67645216D01*
X204532147Y-67497646D01*
X204657646Y-67372147D01*
X204805216Y-67273544D01*
X204969188Y-67205624D01*
X205118488Y-67175927D01*
X205143258Y-67171000D01*
X205320742Y-67171000D01*
X205345512Y-67175927D01*
G37*
G36*
X209729000Y-68877000D02*
G01*
X208119000Y-68877000D01*
X208119000Y-67267000D01*
X209729000Y-67267000D01*
X209729000Y-68877000D01*
G37*
G36*
X184120000Y-68765000D02*
G01*
X183418000Y-68765000D01*
X183418000Y-66863000D01*
X184120000Y-66863000D01*
X184120000Y-68765000D01*
G37*
G36*
X186660000Y-68765000D02*
G01*
X185958000Y-68765000D01*
X185958000Y-66863000D01*
X186660000Y-66863000D01*
X186660000Y-68765000D01*
G37*
G36*
X185390000Y-68765000D02*
G01*
X184688000Y-68765000D01*
X184688000Y-66863000D01*
X185390000Y-66863000D01*
X185390000Y-68765000D01*
G37*
G36*
X187930000Y-68765000D02*
G01*
X187228000Y-68765000D01*
X187228000Y-66863000D01*
X187930000Y-66863000D01*
X187930000Y-68765000D01*
G37*
G36*
X237326254Y-62289818D02*
G01*
X237699511Y-62444426D01*
X237699513Y-62444427D01*
X238035436Y-62668884D01*
X238321116Y-62954564D01*
X238545574Y-63290489D01*
X238700182Y-63663746D01*
X238779000Y-64059993D01*
X238779000Y-64464007D01*
X238700182Y-64860254D01*
X238545574Y-65233511D01*
X238545573Y-65233513D01*
X238321116Y-65569436D01*
X238035436Y-65855116D01*
X237699513Y-66079573D01*
X237699512Y-66079574D01*
X237699511Y-66079574D01*
X237326254Y-66234182D01*
X236930007Y-66313000D01*
X236525993Y-66313000D01*
X236129746Y-66234182D01*
X235756489Y-66079574D01*
X235756488Y-66079574D01*
X235756487Y-66079573D01*
X235420564Y-65855116D01*
X235134884Y-65569436D01*
X234910427Y-65233513D01*
X234910426Y-65233511D01*
X234755818Y-64860254D01*
X234677000Y-64464007D01*
X234677000Y-64059993D01*
X234755818Y-63663746D01*
X234910426Y-63290489D01*
X235134884Y-62954564D01*
X235420564Y-62668884D01*
X235756487Y-62444427D01*
X235756489Y-62444426D01*
X236129746Y-62289818D01*
X236525993Y-62211000D01*
X236930007Y-62211000D01*
X237326254Y-62289818D01*
G37*
G36*
X170761000Y-65002000D02*
G01*
X164429000Y-65002000D01*
X164429000Y-59650000D01*
X170761000Y-59650000D01*
X170761000Y-65002000D01*
G37*
G36*
X179091000Y-65002000D02*
G01*
X172759000Y-65002000D01*
X172759000Y-59650000D01*
X179091000Y-59650000D01*
X179091000Y-65002000D01*
G37*
G36*
X210959000Y-62369000D02*
G01*
X209157000Y-62369000D01*
X209157000Y-60567000D01*
X210959000Y-60567000D01*
X210959000Y-62369000D01*
G37*
G36*
X223797000Y-61491000D02*
G01*
X220195000Y-61491000D01*
X220195000Y-57889000D01*
X223797000Y-57889000D01*
X223797000Y-61491000D01*
G37*
G36*
X217521331Y-57958211D02*
G01*
X217849092Y-58093974D01*
X218144070Y-58291072D01*
X218394928Y-58541930D01*
X218592026Y-58836908D01*
X218727789Y-59164669D01*
X218797000Y-59512616D01*
X218797000Y-59867384D01*
X218727789Y-60215331D01*
X218592026Y-60543092D01*
X218394928Y-60838070D01*
X218144070Y-61088928D01*
X217849092Y-61286026D01*
X217521331Y-61421789D01*
X217173384Y-61491000D01*
X216818616Y-61491000D01*
X216470669Y-61421789D01*
X216142908Y-61286026D01*
X215847930Y-61088928D01*
X215597072Y-60838070D01*
X215399974Y-60543092D01*
X215264211Y-60215331D01*
X215195000Y-59867384D01*
X215195000Y-59512616D01*
X215264211Y-59164669D01*
X215399974Y-58836908D01*
X215597072Y-58541930D01*
X215847930Y-58291072D01*
X216142908Y-58093974D01*
X216470669Y-57958211D01*
X216818616Y-57889000D01*
X217173384Y-57889000D01*
X217521331Y-57958211D01*
G37*
G36*
X200708585Y-57914802D02*
G01*
X200858410Y-57944604D01*
X201140674Y-58061521D01*
X201394705Y-58231259D01*
X201610741Y-58447295D01*
X201780479Y-58701326D01*
X201897396Y-58983590D01*
X201957000Y-59283240D01*
X201957000Y-59588760D01*
X201897396Y-59888410D01*
X201780479Y-60170674D01*
X201610741Y-60424705D01*
X201394705Y-60640741D01*
X201140674Y-60810479D01*
X200858410Y-60927396D01*
X200708585Y-60957198D01*
X200558761Y-60987000D01*
X200253239Y-60987000D01*
X200103415Y-60957198D01*
X199953590Y-60927396D01*
X199671326Y-60810479D01*
X199417295Y-60640741D01*
X199201259Y-60424705D01*
X199031521Y-60170674D01*
X198914604Y-59888410D01*
X198855000Y-59588760D01*
X198855000Y-59283240D01*
X198914604Y-58983590D01*
X199031521Y-58701326D01*
X199201259Y-58447295D01*
X199417295Y-58231259D01*
X199671326Y-58061521D01*
X199953590Y-57944604D01*
X200103415Y-57914802D01*
X200253239Y-57885000D01*
X200558761Y-57885000D01*
X200708585Y-57914802D01*
G37*
G36*
X207037000Y-60987000D02*
G01*
X203935000Y-60987000D01*
X203935000Y-57885000D01*
X207037000Y-57885000D01*
X207037000Y-60987000D01*
G37*
G36*
X196281000Y-60433000D02*
G01*
X195641000Y-60433000D01*
X195641000Y-58093000D01*
X196281000Y-58093000D01*
X196281000Y-60433000D01*
G37*
G36*
X192471000Y-60433000D02*
G01*
X191831000Y-60433000D01*
X191831000Y-58093000D01*
X192471000Y-58093000D01*
X192471000Y-60433000D01*
G37*
G36*
X195011000Y-60433000D02*
G01*
X194371000Y-60433000D01*
X194371000Y-58093000D01*
X195011000Y-58093000D01*
X195011000Y-60433000D01*
G37*
G36*
X193741000Y-60433000D02*
G01*
X193101000Y-60433000D01*
X193101000Y-58093000D01*
X193741000Y-58093000D01*
X193741000Y-60433000D01*
G37*
G36*
X210171512Y-58031927D02*
G01*
X210320812Y-58061624D01*
X210484784Y-58129544D01*
X210632354Y-58228147D01*
X210757853Y-58353646D01*
X210856456Y-58501216D01*
X210924376Y-58665188D01*
X210954073Y-58814488D01*
X210958533Y-58836908D01*
X210959000Y-58839259D01*
X210959000Y-59016741D01*
X210924376Y-59190812D01*
X210856456Y-59354784D01*
X210757853Y-59502354D01*
X210632354Y-59627853D01*
X210484784Y-59726456D01*
X210320812Y-59794376D01*
X210171512Y-59824073D01*
X210146742Y-59829000D01*
X209969258Y-59829000D01*
X209944488Y-59824073D01*
X209795188Y-59794376D01*
X209631216Y-59726456D01*
X209483646Y-59627853D01*
X209358147Y-59502354D01*
X209259544Y-59354784D01*
X209191624Y-59190812D01*
X209157000Y-59016741D01*
X209157000Y-58839259D01*
X209157468Y-58836908D01*
X209161927Y-58814488D01*
X209191624Y-58665188D01*
X209259544Y-58501216D01*
X209358147Y-58353646D01*
X209483646Y-58228147D01*
X209631216Y-58129544D01*
X209795188Y-58061624D01*
X209944488Y-58031927D01*
X209969258Y-58027000D01*
X210146742Y-58027000D01*
X210171512Y-58031927D01*
G37*
G36*
X187930000Y-58105000D02*
G01*
X187228000Y-58105000D01*
X187228000Y-56203000D01*
X187930000Y-56203000D01*
X187930000Y-58105000D01*
G37*
G36*
X186660000Y-58105000D02*
G01*
X185958000Y-58105000D01*
X185958000Y-56203000D01*
X186660000Y-56203000D01*
X186660000Y-58105000D01*
G37*
G36*
X185390000Y-58105000D02*
G01*
X184688000Y-58105000D01*
X184688000Y-56203000D01*
X185390000Y-56203000D01*
X185390000Y-58105000D01*
G37*
G36*
X184120000Y-58105000D02*
G01*
X183418000Y-58105000D01*
X183418000Y-56203000D01*
X184120000Y-56203000D01*
X184120000Y-58105000D01*
G37*
G36*
X242180979Y-54347293D02*
G01*
X242314625Y-54387834D01*
X242437784Y-54453664D01*
X242545740Y-54542260D01*
X242634336Y-54650216D01*
X242700166Y-54773375D01*
X242740707Y-54907021D01*
X242755000Y-55052140D01*
X242755000Y-57215860D01*
X242740707Y-57360979D01*
X242700166Y-57494625D01*
X242634336Y-57617784D01*
X242545740Y-57725740D01*
X242437784Y-57814336D01*
X242314625Y-57880166D01*
X242180979Y-57920707D01*
X242035860Y-57935000D01*
X240372140Y-57935000D01*
X240227021Y-57920707D01*
X240093375Y-57880166D01*
X239970216Y-57814336D01*
X239862260Y-57725740D01*
X239773664Y-57617784D01*
X239707834Y-57494625D01*
X239667293Y-57360979D01*
X239653000Y-57215860D01*
X239653000Y-55052140D01*
X239667293Y-54907021D01*
X239707834Y-54773375D01*
X239773664Y-54650216D01*
X239862260Y-54542260D01*
X239970216Y-54453664D01*
X240093375Y-54387834D01*
X240227021Y-54347293D01*
X240372140Y-54333000D01*
X242035860Y-54333000D01*
X242180979Y-54347293D01*
G37*
G36*
X237005000Y-57935000D02*
G01*
X233403000Y-57935000D01*
X233403000Y-54333000D01*
X237005000Y-54333000D01*
X237005000Y-57935000D01*
G37*
G36*
X195606000Y-55391751D02*
G01*
X195608402Y-55416137D01*
X195615515Y-55439586D01*
X195627066Y-55461197D01*
X195642611Y-55480139D01*
X195655050Y-55492578D01*
X195697185Y-55555637D01*
X195726205Y-55625698D01*
X195741000Y-55700079D01*
X195741000Y-55775921D01*
X195726205Y-55850302D01*
X195697185Y-55920363D01*
X195655050Y-55983422D01*
X195642611Y-55995861D01*
X195627066Y-56014803D01*
X195615515Y-56036414D01*
X195608402Y-56059863D01*
X195606000Y-56084249D01*
X195606000Y-56691751D01*
X195608402Y-56716137D01*
X195615515Y-56739586D01*
X195627066Y-56761197D01*
X195642611Y-56780139D01*
X195655050Y-56792578D01*
X195697185Y-56855637D01*
X195726205Y-56925698D01*
X195741000Y-57000079D01*
X195741000Y-57075921D01*
X195726205Y-57150302D01*
X195697185Y-57220363D01*
X195655050Y-57283422D01*
X195642611Y-57295861D01*
X195627066Y-57314803D01*
X195615515Y-57336414D01*
X195608402Y-57359863D01*
X195606000Y-57384249D01*
X195606000Y-57588000D01*
X192506000Y-57588000D01*
X192506000Y-57384249D01*
X192503598Y-57359863D01*
X192496485Y-57336414D01*
X192484934Y-57314803D01*
X192469389Y-57295861D01*
X192456950Y-57283422D01*
X192414815Y-57220363D01*
X192385795Y-57150302D01*
X192371000Y-57075921D01*
X192371000Y-57000079D01*
X192385795Y-56925698D01*
X192414815Y-56855637D01*
X192456950Y-56792578D01*
X192469389Y-56780139D01*
X192484934Y-56761197D01*
X192496485Y-56739586D01*
X192503598Y-56716137D01*
X192506000Y-56691751D01*
X192506000Y-56084249D01*
X192503598Y-56059863D01*
X192496485Y-56036414D01*
X192484934Y-56014803D01*
X192469389Y-55995861D01*
X192456950Y-55983422D01*
X192414815Y-55920363D01*
X192385795Y-55850302D01*
X192371000Y-55775921D01*
X192371000Y-55700079D01*
X192385795Y-55625698D01*
X192414815Y-55555637D01*
X192456950Y-55492578D01*
X192469389Y-55480139D01*
X192484934Y-55461197D01*
X192496485Y-55439586D01*
X192503598Y-55416137D01*
X192506000Y-55391751D01*
X192506000Y-55188000D01*
X195606000Y-55188000D01*
X195606000Y-55391751D01*
G37*
G36*
X179141000Y-56977000D02*
G01*
X164379000Y-56977000D01*
X164379000Y-55525000D01*
X179141000Y-55525000D01*
X179141000Y-56977000D01*
G37*
G36*
X195011000Y-54683000D02*
G01*
X194371000Y-54683000D01*
X194371000Y-52343000D01*
X195011000Y-52343000D01*
X195011000Y-54683000D01*
G37*
G36*
X196281000Y-54683000D02*
G01*
X195641000Y-54683000D01*
X195641000Y-52343000D01*
X196281000Y-52343000D01*
X196281000Y-54683000D01*
G37*
G36*
X192471000Y-54683000D02*
G01*
X191831000Y-54683000D01*
X191831000Y-52343000D01*
X192471000Y-52343000D01*
X192471000Y-54683000D01*
G37*
G36*
X193741000Y-54683000D02*
G01*
X193101000Y-54683000D01*
X193101000Y-52343000D01*
X193741000Y-52343000D01*
X193741000Y-54683000D01*
G37*
G36*
X239330366Y-49649695D02*
G01*
X239487460Y-49697349D01*
X239632231Y-49774731D01*
X239759128Y-49878872D01*
X239863269Y-50005769D01*
X239940651Y-50150540D01*
X239988305Y-50307634D01*
X240005000Y-50477140D01*
X240005000Y-52390860D01*
X239988305Y-52560366D01*
X239940651Y-52717460D01*
X239863269Y-52862231D01*
X239759128Y-52989128D01*
X239632231Y-53093269D01*
X239487460Y-53170651D01*
X239330366Y-53218305D01*
X239160860Y-53235000D01*
X237247140Y-53235000D01*
X237077634Y-53218305D01*
X236920540Y-53170651D01*
X236775769Y-53093269D01*
X236648872Y-52989128D01*
X236544731Y-52862231D01*
X236467349Y-52717460D01*
X236419695Y-52560366D01*
X236403000Y-52390860D01*
X236403000Y-50477140D01*
X236419695Y-50307634D01*
X236467349Y-50150540D01*
X236544731Y-50005769D01*
X236648872Y-49878872D01*
X236775769Y-49774731D01*
X236920540Y-49697349D01*
X237077634Y-49649695D01*
X237247140Y-49633000D01*
X239160860Y-49633000D01*
X239330366Y-49649695D01*
G37*
G36*
X169023890Y-51666017D02*
G01*
X169142364Y-51715091D01*
X169248988Y-51786335D01*
X169339665Y-51877012D01*
X169410909Y-51983636D01*
X169459983Y-52102110D01*
X169485000Y-52227882D01*
X169485000Y-52356118D01*
X169459983Y-52481890D01*
X169410909Y-52600364D01*
X169339665Y-52706988D01*
X169248988Y-52797665D01*
X169142364Y-52868909D01*
X169142363Y-52868910D01*
X169142362Y-52868910D01*
X169023890Y-52917983D01*
X168898119Y-52943000D01*
X168769881Y-52943000D01*
X168644110Y-52917983D01*
X168525638Y-52868910D01*
X168525637Y-52868910D01*
X168525636Y-52868909D01*
X168419012Y-52797665D01*
X168328335Y-52706988D01*
X168257091Y-52600364D01*
X168208017Y-52481890D01*
X168183000Y-52356118D01*
X168183000Y-52227882D01*
X168208017Y-52102110D01*
X168257091Y-51983636D01*
X168328335Y-51877012D01*
X168419012Y-51786335D01*
X168525636Y-51715091D01*
X168644110Y-51666017D01*
X168769881Y-51641000D01*
X168898119Y-51641000D01*
X169023890Y-51666017D01*
G37*
G36*
X200619953Y-49261172D02*
G01*
X200858410Y-49308604D01*
X201140674Y-49425521D01*
X201394705Y-49595259D01*
X201610741Y-49811295D01*
X201780479Y-50065326D01*
X201897396Y-50347590D01*
X201897396Y-50347591D01*
X201953018Y-50627218D01*
X201957000Y-50647240D01*
X201957000Y-50952760D01*
X201897396Y-51252410D01*
X201780479Y-51534674D01*
X201610741Y-51788705D01*
X201394705Y-52004741D01*
X201140674Y-52174479D01*
X200858410Y-52291396D01*
X200708585Y-52321198D01*
X200558761Y-52351000D01*
X200253239Y-52351000D01*
X200103415Y-52321198D01*
X199953590Y-52291396D01*
X199671326Y-52174479D01*
X199417295Y-52004741D01*
X199201259Y-51788705D01*
X199031521Y-51534674D01*
X198914604Y-51252410D01*
X198855000Y-50952760D01*
X198855000Y-50647240D01*
X198858983Y-50627218D01*
X198914604Y-50347591D01*
X198914604Y-50347590D01*
X199031521Y-50065326D01*
X199201259Y-49811295D01*
X199417295Y-49595259D01*
X199671326Y-49425521D01*
X199953590Y-49308604D01*
X200192047Y-49261172D01*
X200253239Y-49249000D01*
X200558761Y-49249000D01*
X200619953Y-49261172D01*
G37*
G36*
X207037000Y-52351000D02*
G01*
X203935000Y-52351000D01*
X203935000Y-49249000D01*
X207037000Y-49249000D01*
X207037000Y-52351000D01*
G37*
G36*
X210171512Y-50157927D02*
G01*
X210320812Y-50187624D01*
X210484784Y-50255544D01*
X210632354Y-50354147D01*
X210757853Y-50479646D01*
X210856456Y-50627216D01*
X210924376Y-50791188D01*
X210959000Y-50965259D01*
X210959000Y-51142741D01*
X210924376Y-51316812D01*
X210856456Y-51480784D01*
X210757853Y-51628354D01*
X210632354Y-51753853D01*
X210484784Y-51852456D01*
X210320812Y-51920376D01*
X210171512Y-51950073D01*
X210146742Y-51955000D01*
X209969258Y-51955000D01*
X209944488Y-51950073D01*
X209795188Y-51920376D01*
X209631216Y-51852456D01*
X209483646Y-51753853D01*
X209358147Y-51628354D01*
X209259544Y-51480784D01*
X209191624Y-51316812D01*
X209157000Y-51142741D01*
X209157000Y-50965259D01*
X209191624Y-50791188D01*
X209259544Y-50627216D01*
X209358147Y-50479646D01*
X209483646Y-50354147D01*
X209631216Y-50255544D01*
X209795188Y-50187624D01*
X209944488Y-50157927D01*
X209969258Y-50153000D01*
X210146742Y-50153000D01*
X210171512Y-50157927D01*
G37*
G36*
X173110626Y-49254037D02*
G01*
X173280465Y-49305557D01*
X173280467Y-49305558D01*
X173436989Y-49389221D01*
X173574186Y-49501814D01*
X173650873Y-49595259D01*
X173686778Y-49639009D01*
X173686779Y-49639011D01*
X173759324Y-49774731D01*
X173770443Y-49795534D01*
X173821963Y-49965373D01*
X173835000Y-50097742D01*
X173835000Y-50486257D01*
X173821963Y-50618626D01*
X173770443Y-50788466D01*
X173686778Y-50944991D01*
X173680402Y-50952760D01*
X173574186Y-51082186D01*
X173500398Y-51142741D01*
X173436991Y-51194778D01*
X173280466Y-51278443D01*
X173110627Y-51329963D01*
X172934000Y-51347359D01*
X172757374Y-51329963D01*
X172587535Y-51278443D01*
X172431010Y-51194778D01*
X172293815Y-51082185D01*
X172181222Y-50944991D01*
X172097557Y-50788466D01*
X172046037Y-50618627D01*
X172033000Y-50486258D01*
X172033000Y-50097743D01*
X172036193Y-50065328D01*
X172046037Y-49965376D01*
X172046037Y-49965374D01*
X172097557Y-49795535D01*
X172114430Y-49763968D01*
X172181221Y-49639011D01*
X172293814Y-49501814D01*
X172399599Y-49415000D01*
X172431009Y-49389222D01*
X172563101Y-49318617D01*
X172587532Y-49305558D01*
X172587534Y-49305557D01*
X172757373Y-49254037D01*
X172934000Y-49236641D01*
X173110626Y-49254037D01*
G37*
G36*
X171192600Y-49244989D02*
G01*
X171225652Y-49255015D01*
X171256103Y-49271292D01*
X171282799Y-49293201D01*
X171304708Y-49319897D01*
X171320985Y-49350348D01*
X171331011Y-49383400D01*
X171335000Y-49423903D01*
X171335000Y-51160097D01*
X171331011Y-51200600D01*
X171320985Y-51233652D01*
X171304708Y-51264103D01*
X171282799Y-51290799D01*
X171256103Y-51312708D01*
X171225652Y-51328985D01*
X171192600Y-51339011D01*
X171152097Y-51343000D01*
X169715903Y-51343000D01*
X169675400Y-51339011D01*
X169642348Y-51328985D01*
X169611897Y-51312708D01*
X169585201Y-51290799D01*
X169563292Y-51264103D01*
X169547015Y-51233652D01*
X169536989Y-51200600D01*
X169533000Y-51160097D01*
X169533000Y-49423903D01*
X169536989Y-49383400D01*
X169547015Y-49350348D01*
X169563292Y-49319897D01*
X169585201Y-49293201D01*
X169611897Y-49271292D01*
X169642348Y-49255015D01*
X169675400Y-49244989D01*
X169715903Y-49241000D01*
X171152097Y-49241000D01*
X171192600Y-49244989D01*
G37*
G36*
X225147762Y-48954474D02*
G01*
X225215059Y-48967860D01*
X225351732Y-49024472D01*
X225474735Y-49106660D01*
X225579340Y-49211265D01*
X225661528Y-49334268D01*
X225661529Y-49334270D01*
X225718140Y-49470941D01*
X225747000Y-49616032D01*
X225747000Y-49763968D01*
X225718140Y-49909059D01*
X225694814Y-49965374D01*
X225661528Y-50045732D01*
X225579340Y-50168735D01*
X225474735Y-50273340D01*
X225351732Y-50355528D01*
X225351731Y-50355529D01*
X225351730Y-50355529D01*
X225215059Y-50412140D01*
X225069968Y-50441000D01*
X224922032Y-50441000D01*
X224776941Y-50412140D01*
X224640270Y-50355529D01*
X224640269Y-50355529D01*
X224640268Y-50355528D01*
X224517265Y-50273340D01*
X224412660Y-50168735D01*
X224330472Y-50045732D01*
X224297187Y-49965374D01*
X224273860Y-49909059D01*
X224245000Y-49763968D01*
X224245000Y-49616032D01*
X224273860Y-49470941D01*
X224330471Y-49334270D01*
X224330472Y-49334268D01*
X224412660Y-49211265D01*
X224517265Y-49106660D01*
X224640268Y-49024472D01*
X224776941Y-48967860D01*
X224844238Y-48954474D01*
X224922032Y-48939000D01*
X225069968Y-48939000D01*
X225147762Y-48954474D01*
G37*
G36*
X214147762Y-48954474D02*
G01*
X214215059Y-48967860D01*
X214351732Y-49024472D01*
X214474735Y-49106660D01*
X214579340Y-49211265D01*
X214661528Y-49334268D01*
X214661529Y-49334270D01*
X214718140Y-49470941D01*
X214747000Y-49616032D01*
X214747000Y-49763968D01*
X214718140Y-49909059D01*
X214694814Y-49965374D01*
X214661528Y-50045732D01*
X214579340Y-50168735D01*
X214474735Y-50273340D01*
X214351732Y-50355528D01*
X214351731Y-50355529D01*
X214351730Y-50355529D01*
X214215059Y-50412140D01*
X214069968Y-50441000D01*
X213922032Y-50441000D01*
X213776941Y-50412140D01*
X213640270Y-50355529D01*
X213640269Y-50355529D01*
X213640268Y-50355528D01*
X213517265Y-50273340D01*
X213412660Y-50168735D01*
X213330472Y-50045732D01*
X213297187Y-49965374D01*
X213273860Y-49909059D01*
X213245000Y-49763968D01*
X213245000Y-49616032D01*
X213273860Y-49470941D01*
X213330471Y-49334270D01*
X213330472Y-49334268D01*
X213412660Y-49211265D01*
X213517265Y-49106660D01*
X213640268Y-49024472D01*
X213776941Y-48967860D01*
X213844238Y-48954474D01*
X213922032Y-48939000D01*
X214069968Y-48939000D01*
X214147762Y-48954474D01*
G37*
G36*
X210959000Y-49415000D02*
G01*
X209157000Y-49415000D01*
X209157000Y-47613000D01*
X210959000Y-47613000D01*
X210959000Y-49415000D01*
G37*
G36*
X190287410Y-47565525D02*
G01*
X190372426Y-47591314D01*
X190450775Y-47633193D01*
X190519449Y-47689551D01*
X190575807Y-47758225D01*
X190617686Y-47836574D01*
X190643475Y-47921590D01*
X190650000Y-47987842D01*
X190650000Y-48532158D01*
X190643475Y-48598410D01*
X190617686Y-48683426D01*
X190575807Y-48761775D01*
X190519449Y-48830448D01*
X190450774Y-48886807D01*
X190372425Y-48928686D01*
X190287409Y-48954475D01*
X190199000Y-48963182D01*
X190110590Y-48954475D01*
X190025574Y-48928686D01*
X189947225Y-48886807D01*
X189878552Y-48830449D01*
X189822193Y-48761774D01*
X189780314Y-48683425D01*
X189754525Y-48598409D01*
X189748000Y-48532157D01*
X189748000Y-47987842D01*
X189754525Y-47921590D01*
X189780313Y-47836577D01*
X189822195Y-47758224D01*
X189878552Y-47689551D01*
X189947226Y-47633193D01*
X190025575Y-47591314D01*
X190110591Y-47565525D01*
X190199000Y-47556818D01*
X190287410Y-47565525D01*
G37*
G36*
X191537410Y-47565525D02*
G01*
X191622426Y-47591314D01*
X191700775Y-47633193D01*
X191769449Y-47689551D01*
X191825807Y-47758225D01*
X191867686Y-47836574D01*
X191893475Y-47921590D01*
X191900000Y-47987842D01*
X191900000Y-48532158D01*
X191893475Y-48598410D01*
X191867686Y-48683426D01*
X191825807Y-48761775D01*
X191769449Y-48830448D01*
X191700774Y-48886807D01*
X191622425Y-48928686D01*
X191537409Y-48954475D01*
X191449000Y-48963182D01*
X191360590Y-48954475D01*
X191275574Y-48928686D01*
X191197225Y-48886807D01*
X191128552Y-48830449D01*
X191072193Y-48761774D01*
X191030314Y-48683425D01*
X191004525Y-48598409D01*
X190998000Y-48532157D01*
X190998000Y-47987842D01*
X191004525Y-47921590D01*
X191030313Y-47836577D01*
X191072195Y-47758224D01*
X191128552Y-47689551D01*
X191197226Y-47633193D01*
X191275575Y-47591314D01*
X191360591Y-47565525D01*
X191449000Y-47556818D01*
X191537410Y-47565525D01*
G37*
G36*
X192787410Y-47565525D02*
G01*
X192872426Y-47591314D01*
X192950775Y-47633193D01*
X193019449Y-47689551D01*
X193075807Y-47758225D01*
X193117686Y-47836574D01*
X193143475Y-47921590D01*
X193150000Y-47987842D01*
X193150000Y-48532158D01*
X193143475Y-48598410D01*
X193117686Y-48683426D01*
X193075807Y-48761775D01*
X193019449Y-48830448D01*
X192950774Y-48886807D01*
X192872425Y-48928686D01*
X192787409Y-48954475D01*
X192699000Y-48963182D01*
X192610590Y-48954475D01*
X192525574Y-48928686D01*
X192447225Y-48886807D01*
X192378552Y-48830449D01*
X192322193Y-48761774D01*
X192280314Y-48683425D01*
X192254525Y-48598409D01*
X192248000Y-48532157D01*
X192248000Y-47987842D01*
X192254525Y-47921590D01*
X192280313Y-47836577D01*
X192322195Y-47758224D01*
X192378552Y-47689551D01*
X192447226Y-47633193D01*
X192525575Y-47591314D01*
X192610591Y-47565525D01*
X192699000Y-47556818D01*
X192787410Y-47565525D01*
G37*
G36*
X194037410Y-47565525D02*
G01*
X194122426Y-47591314D01*
X194200775Y-47633193D01*
X194269449Y-47689551D01*
X194325807Y-47758225D01*
X194367686Y-47836574D01*
X194393475Y-47921590D01*
X194400000Y-47987842D01*
X194400000Y-48532158D01*
X194393475Y-48598410D01*
X194367686Y-48683426D01*
X194325807Y-48761775D01*
X194269449Y-48830448D01*
X194200774Y-48886807D01*
X194122425Y-48928686D01*
X194037409Y-48954475D01*
X193949000Y-48963182D01*
X193860590Y-48954475D01*
X193775574Y-48928686D01*
X193697225Y-48886807D01*
X193628552Y-48830449D01*
X193572193Y-48761774D01*
X193530314Y-48683425D01*
X193504525Y-48598409D01*
X193498000Y-48532157D01*
X193498000Y-47987842D01*
X193504525Y-47921590D01*
X193530313Y-47836577D01*
X193572195Y-47758224D01*
X193628552Y-47689551D01*
X193697226Y-47633193D01*
X193775575Y-47591314D01*
X193860591Y-47565525D01*
X193949000Y-47556818D01*
X194037410Y-47565525D01*
G37*
G36*
X195518683Y-47562725D02*
G01*
X195549143Y-47571966D01*
X195577223Y-47586974D01*
X195601831Y-47607169D01*
X195622026Y-47631777D01*
X195637034Y-47659857D01*
X195646275Y-47690317D01*
X195650000Y-47728140D01*
X195650000Y-48791860D01*
X195646275Y-48829683D01*
X195637034Y-48860143D01*
X195622026Y-48888223D01*
X195601831Y-48912831D01*
X195577223Y-48933026D01*
X195549143Y-48948034D01*
X195518683Y-48957275D01*
X195480860Y-48961000D01*
X194917140Y-48961000D01*
X194879317Y-48957275D01*
X194848857Y-48948034D01*
X194820777Y-48933026D01*
X194796169Y-48912831D01*
X194775974Y-48888223D01*
X194760966Y-48860143D01*
X194751725Y-48829683D01*
X194748000Y-48791860D01*
X194748000Y-47728140D01*
X194751725Y-47690317D01*
X194760966Y-47659857D01*
X194775974Y-47631777D01*
X194796169Y-47607169D01*
X194820777Y-47586974D01*
X194848857Y-47571966D01*
X194879317Y-47562725D01*
X194917140Y-47559000D01*
X195480860Y-47559000D01*
X195518683Y-47562725D01*
G37*
M02*
