M48
INCH,TZ
T1C0.0079
T2C0.0130
T3C0.0157
T4C0.0160
T5C0.0197
T6C0.0394
T7C0.0400
T8C0.0598
T9C0.0748
T10C0.1250
%
G90
G05
T1
X90443Y-29962
X90443Y-30238
X90757Y-29962
X90757Y-30238
T2
X75888Y-21944
X75888Y-22456
X76400Y-21944
X76400Y-22456
X76912Y-21944
X76912Y-22456
T3
X64600Y-30600
X64600Y-33600
X65300Y-33600
X66000Y-35300
X66700Y-33600
X67400Y-35250
X68100Y-33600
X68100Y-35250
X68800Y-33600
X69000Y-36000
X69794Y-30000
X70250Y-30000
X70750Y-29331
X74700Y-32100
X74700Y-32550
X92100Y-32900
T4
X64600Y-35300
X65300Y-35300
X65600Y-23250
X65650Y-21600
X65650Y-28700
X66000Y-23250
X66050Y-21600
X66250Y-28250
X66450Y-21600
X66450Y-23250
X66950Y-28250
X67400Y-37800
X67650Y-28250
X68200Y-37800
X68350Y-28250
X68800Y-21600
X68800Y-23250
X69000Y-28250
X69000Y-37800
X69200Y-21600
X69200Y-23250
X69355Y-32645
X69600Y-21600
X69600Y-23250
X69750Y-33150
X70250Y-33150
X70700Y-30000
X70750Y-33150
X70950Y-34050
X70950Y-34850
X71900Y-21750
X72000Y-27700
X72800Y-30150
X72800Y-32200
X72850Y-23150
X72850Y-26050
X73350Y-23150
X73350Y-26050
X73650Y-23700
X73650Y-24600
X74150Y-27700
X74150Y-28350
X74300Y-19850
X74300Y-21750
X74400Y-26350
X74400Y-26950
X74700Y-30650
X74700Y-34150
X74900Y-28100
X75550Y-25200
X75550Y-26200
X75550Y-27100
X75550Y-29300
X75650Y-24300
X77150Y-24300
X77250Y-25200
X77250Y-26200
X77250Y-29300
X77900Y-28100
X78100Y-27100
X78100Y-30650
X78100Y-32250
X78400Y-28100
X78450Y-31000
X78450Y-31450
X78450Y-31900
X84550Y-37800
X84800Y-35050
X84800Y-36800
X84900Y-31300
X85050Y-34250
X85300Y-19400
X85300Y-21400
X85500Y-31300
X85600Y-34400
X85600Y-36800
X86100Y-19400
X86100Y-21400
X86150Y-34250
X86150Y-35250
X86200Y-27800
X86200Y-31300
X87100Y-19400
X87100Y-21400
X87300Y-34850
X87400Y-31300
X87850Y-36650
X88000Y-31300
X88072Y-35228
X88600Y-34500
X88600Y-35000
X88650Y-26600
X88700Y-31300
X89100Y-26600
X89300Y-29850
X89300Y-30350
X89700Y-28950
X89700Y-29850
X89700Y-30350
X89700Y-31450
X89850Y-30950
X90000Y-33000
X90150Y-26600
X90300Y-31300
X90400Y-28950
X90800Y-31300
X90900Y-28950
X91200Y-26600
X91350Y-31300
X91500Y-28950
X91500Y-29850
X91500Y-30350
X91900Y-29850
X91900Y-30350
X94350Y-32550
T5
X74881Y-19000
X75374Y-19000
X75866Y-19000
X76358Y-19000
X76850Y-19000
T6
X82700Y-23200
X82700Y-24200
X79800Y-26800
X79800Y-27800
X79800Y-28800
X79800Y-29800
X79800Y-30800
X79800Y-31800
X80800Y-26800
X80800Y-27800
X80800Y-28800
X80800Y-29800
X80800Y-30800
X80800Y-31800
X90019Y-37837
X94350Y-37837
X82254Y-26800
X82254Y-27800
X82254Y-28800
X82254Y-29800
X82254Y-30800
X82254Y-31800
X82254Y-32800
X82254Y-33800
X82254Y-34800
X82254Y-35800
X82254Y-36800
X82254Y-37800
X84250Y-19563
X88581Y-19563
X82700Y-19100
X82700Y-20100
X67100Y-19800
X68084Y-19800
X80800Y-34800
X80800Y-35800
X80800Y-36800
X80800Y-37800
T7
X75400Y-36250
X75400Y-37250
X76400Y-36250
X76400Y-37250
X77400Y-36250
X77400Y-37250
T8
X78900Y-23400
X80900Y-23400
X78900Y-20000
X80900Y-20000
T9
X91200Y-33900
X93169Y-33900
X85431Y-23500
X87400Y-23500
T10
X65600Y-37500
X90800Y-19700
T6
G00X92600Y-22494
M15
G01X92600Y-21706
M16
G05
G00X94175Y-20250
M15
G01X93387Y-20250
M16
G05
G00X94962Y-22494
M15
G01X94962Y-21706
M16
G05
T0
M30
