G04 #@! TF.GenerationSoftware,KiCad,Pcbnew,(5.1.5-0-10_14)*
G04 #@! TF.CreationDate,2019-12-31T01:38:16-08:00*
G04 #@! TF.ProjectId,Glue Board,476c7565-2042-46f6-9172-642e6b696361,rev?*
G04 #@! TF.SameCoordinates,Original*
G04 #@! TF.FileFunction,Legend,Bot*
G04 #@! TF.FilePolarity,Positive*
%FSLAX46Y46*%
G04 Gerber Fmt 4.6, Leading zero omitted, Abs format (unit mm)*
G04 Created by KiCad (PCBNEW (5.1.5-0-10_14)) date 2019-12-31 01:38:16*
%MOMM*%
%LPD*%
G04 APERTURE LIST*
%ADD10C,0.120000*%
%ADD11C,0.150000*%
G04 APERTURE END LIST*
D10*
X202783221Y-53846000D02*
X203108779Y-53846000D01*
X202783221Y-54866000D02*
X203108779Y-54866000D01*
D11*
X220478000Y-91913000D02*
X220478000Y-85938000D01*
X214953000Y-90338000D02*
X214953000Y-85938000D01*
X226828000Y-91913000D02*
X226828000Y-85938000D01*
X221303000Y-90338000D02*
X221303000Y-85938000D01*
D10*
X216156000Y-81625221D02*
X216156000Y-81950779D01*
X215136000Y-81625221D02*
X215136000Y-81950779D01*
X222506000Y-81625221D02*
X222506000Y-81950779D01*
X221486000Y-81625221D02*
X221486000Y-81950779D01*
X217680000Y-81625221D02*
X217680000Y-81950779D01*
X216660000Y-81625221D02*
X216660000Y-81950779D01*
X224030000Y-81625221D02*
X224030000Y-81950779D01*
X223010000Y-81625221D02*
X223010000Y-81950779D01*
X218238000Y-82046578D02*
X218238000Y-81529422D01*
X219658000Y-82046578D02*
X219658000Y-81529422D01*
X224588000Y-82046578D02*
X224588000Y-81529422D01*
X226008000Y-82046578D02*
X226008000Y-81529422D01*
X189774000Y-59074000D02*
X183764000Y-59074000D01*
X187524000Y-65894000D02*
X183764000Y-65894000D01*
X183764000Y-59074000D02*
X183764000Y-60334000D01*
X183764000Y-65894000D02*
X183764000Y-64634000D01*
X183894000Y-50200779D02*
X183894000Y-49875221D01*
X184914000Y-50200779D02*
X184914000Y-49875221D01*
X185836779Y-55374000D02*
X185511221Y-55374000D01*
X185836779Y-54354000D02*
X185511221Y-54354000D01*
X187454000Y-49875221D02*
X187454000Y-50200779D01*
X186434000Y-49875221D02*
X186434000Y-50200779D01*
X185932578Y-71068000D02*
X185415422Y-71068000D01*
X185932578Y-69648000D02*
X185415422Y-69648000D01*
X188012000Y-53090578D02*
X188012000Y-52573422D01*
X189432000Y-53090578D02*
X189432000Y-52573422D01*
X191210000Y-67559422D02*
X191210000Y-68076578D01*
X189790000Y-67559422D02*
X189790000Y-68076578D01*
X185932578Y-53542000D02*
X185415422Y-53542000D01*
X185932578Y-52122000D02*
X185415422Y-52122000D01*
X193893221Y-70229000D02*
X194218779Y-70229000D01*
X193893221Y-71249000D02*
X194218779Y-71249000D01*
X193893221Y-71880000D02*
X194218779Y-71880000D01*
X193893221Y-72900000D02*
X194218779Y-72900000D01*
X194218779Y-69344000D02*
X193893221Y-69344000D01*
X194218779Y-68324000D02*
X193893221Y-68324000D01*
X194218779Y-62232000D02*
X193893221Y-62232000D01*
X194218779Y-61212000D02*
X193893221Y-61212000D01*
X193893221Y-83056000D02*
X194218779Y-83056000D01*
X193893221Y-84076000D02*
X194218779Y-84076000D01*
X193893221Y-81278000D02*
X194218779Y-81278000D01*
X193893221Y-82298000D02*
X194218779Y-82298000D01*
X193893221Y-84834000D02*
X194218779Y-84834000D01*
X193893221Y-85854000D02*
X194218779Y-85854000D01*
X194314578Y-75132000D02*
X193797422Y-75132000D01*
X194314578Y-73712000D02*
X193797422Y-73712000D01*
X193797422Y-65838000D02*
X194314578Y-65838000D01*
X193797422Y-67258000D02*
X194314578Y-67258000D01*
X193797422Y-63298000D02*
X194314578Y-63298000D01*
X193797422Y-64718000D02*
X194314578Y-64718000D01*
X194314578Y-80466000D02*
X193797422Y-80466000D01*
X194314578Y-79046000D02*
X193797422Y-79046000D01*
X202783221Y-55878000D02*
X203108779Y-55878000D01*
X202783221Y-56898000D02*
X203108779Y-56898000D01*
X219874000Y-52418064D02*
X219874000Y-51213936D01*
X222594000Y-52418064D02*
X222594000Y-51213936D01*
X217984000Y-52074578D02*
X217984000Y-51557422D01*
X219404000Y-52074578D02*
X219404000Y-51557422D01*
X215952000Y-52074578D02*
X215952000Y-51557422D01*
X217372000Y-52074578D02*
X217372000Y-51557422D01*
X234700578Y-90372000D02*
X234183422Y-90372000D01*
X234700578Y-88952000D02*
X234183422Y-88952000D01*
X231138000Y-70774779D02*
X231138000Y-70449221D01*
X232158000Y-70774779D02*
X232158000Y-70449221D01*
X229872000Y-81625221D02*
X229872000Y-81950779D01*
X228852000Y-81625221D02*
X228852000Y-81950779D01*
X228348000Y-81625221D02*
X228348000Y-81950779D01*
X227328000Y-81625221D02*
X227328000Y-81950779D01*
X235968000Y-81625221D02*
X235968000Y-81950779D01*
X234948000Y-81625221D02*
X234948000Y-81950779D01*
X233424000Y-81950779D02*
X233424000Y-81625221D01*
X234444000Y-81950779D02*
X234444000Y-81625221D01*
X212435221Y-95502000D02*
X212760779Y-95502000D01*
X212435221Y-96522000D02*
X212760779Y-96522000D01*
X231396000Y-81625221D02*
X231396000Y-81950779D01*
X230376000Y-81625221D02*
X230376000Y-81950779D01*
X231900000Y-81950779D02*
X231900000Y-81625221D01*
X232920000Y-81950779D02*
X232920000Y-81625221D01*
D11*
X214154000Y-72403000D02*
X214154000Y-78473000D01*
X218154000Y-75438000D02*
X214154000Y-78473000D01*
X218154000Y-75438000D02*
X214154000Y-72403000D01*
D10*
X224319000Y-71214064D02*
X224319000Y-70009936D01*
X227039000Y-71214064D02*
X227039000Y-70009936D01*
X228271000Y-70870578D02*
X228271000Y-70353422D01*
X229691000Y-70870578D02*
X229691000Y-70353422D01*
X211995936Y-92112000D02*
X213200064Y-92112000D01*
X211995936Y-94832000D02*
X213200064Y-94832000D01*
X215895422Y-69902000D02*
X216412578Y-69902000D01*
X215895422Y-71322000D02*
X216412578Y-71322000D01*
X237946000Y-81529422D02*
X237946000Y-82046578D01*
X236526000Y-81529422D02*
X236526000Y-82046578D01*
D11*
X206636857Y-54808380D02*
X206970190Y-54332190D01*
X207208285Y-54808380D02*
X207208285Y-53808380D01*
X206827333Y-53808380D01*
X206732095Y-53856000D01*
X206684476Y-53903619D01*
X206636857Y-53998857D01*
X206636857Y-54141714D01*
X206684476Y-54236952D01*
X206732095Y-54284571D01*
X206827333Y-54332190D01*
X207208285Y-54332190D01*
X205684476Y-54808380D02*
X206255904Y-54808380D01*
X205970190Y-54808380D02*
X205970190Y-53808380D01*
X206065428Y-53951238D01*
X206160666Y-54046476D01*
X206255904Y-54094095D01*
X205065428Y-53808380D02*
X204970190Y-53808380D01*
X204874952Y-53856000D01*
X204827333Y-53903619D01*
X204779714Y-53998857D01*
X204732095Y-54189333D01*
X204732095Y-54427428D01*
X204779714Y-54617904D01*
X204827333Y-54713142D01*
X204874952Y-54760761D01*
X204970190Y-54808380D01*
X205065428Y-54808380D01*
X205160666Y-54760761D01*
X205208285Y-54713142D01*
X205255904Y-54617904D01*
X205303523Y-54427428D01*
X205303523Y-54189333D01*
X205255904Y-53998857D01*
X205208285Y-53903619D01*
X205160666Y-53856000D01*
X205065428Y-53808380D01*
X213574380Y-87376095D02*
X214383904Y-87376095D01*
X214479142Y-87423714D01*
X214526761Y-87471333D01*
X214574380Y-87566571D01*
X214574380Y-87757047D01*
X214526761Y-87852285D01*
X214479142Y-87899904D01*
X214383904Y-87947523D01*
X213574380Y-87947523D01*
X214574380Y-88471333D02*
X214574380Y-88661809D01*
X214526761Y-88757047D01*
X214479142Y-88804666D01*
X214336285Y-88899904D01*
X214145809Y-88947523D01*
X213764857Y-88947523D01*
X213669619Y-88899904D01*
X213622000Y-88852285D01*
X213574380Y-88757047D01*
X213574380Y-88566571D01*
X213622000Y-88471333D01*
X213669619Y-88423714D01*
X213764857Y-88376095D01*
X214002952Y-88376095D01*
X214098190Y-88423714D01*
X214145809Y-88471333D01*
X214193428Y-88566571D01*
X214193428Y-88757047D01*
X214145809Y-88852285D01*
X214098190Y-88899904D01*
X214002952Y-88947523D01*
X227290380Y-87376095D02*
X228099904Y-87376095D01*
X228195142Y-87423714D01*
X228242761Y-87471333D01*
X228290380Y-87566571D01*
X228290380Y-87757047D01*
X228242761Y-87852285D01*
X228195142Y-87899904D01*
X228099904Y-87947523D01*
X227290380Y-87947523D01*
X227718952Y-88566571D02*
X227671333Y-88471333D01*
X227623714Y-88423714D01*
X227528476Y-88376095D01*
X227480857Y-88376095D01*
X227385619Y-88423714D01*
X227338000Y-88471333D01*
X227290380Y-88566571D01*
X227290380Y-88757047D01*
X227338000Y-88852285D01*
X227385619Y-88899904D01*
X227480857Y-88947523D01*
X227528476Y-88947523D01*
X227623714Y-88899904D01*
X227671333Y-88852285D01*
X227718952Y-88757047D01*
X227718952Y-88566571D01*
X227766571Y-88471333D01*
X227814190Y-88423714D01*
X227909428Y-88376095D01*
X228099904Y-88376095D01*
X228195142Y-88423714D01*
X228242761Y-88471333D01*
X228290380Y-88566571D01*
X228290380Y-88757047D01*
X228242761Y-88852285D01*
X228195142Y-88899904D01*
X228099904Y-88947523D01*
X227909428Y-88947523D01*
X227814190Y-88899904D01*
X227766571Y-88852285D01*
X227718952Y-88757047D01*
X214574380Y-81145142D02*
X214098190Y-80811809D01*
X214574380Y-80573714D02*
X213574380Y-80573714D01*
X213574380Y-80954666D01*
X213622000Y-81049904D01*
X213669619Y-81097523D01*
X213764857Y-81145142D01*
X213907714Y-81145142D01*
X214002952Y-81097523D01*
X214050571Y-81049904D01*
X214098190Y-80954666D01*
X214098190Y-80573714D01*
X213907714Y-82002285D02*
X214574380Y-82002285D01*
X213526761Y-81764190D02*
X214241047Y-81526095D01*
X214241047Y-82145142D01*
X213574380Y-82716571D02*
X213574380Y-82811809D01*
X213622000Y-82907047D01*
X213669619Y-82954666D01*
X213764857Y-83002285D01*
X213955333Y-83049904D01*
X214193428Y-83049904D01*
X214383904Y-83002285D01*
X214479142Y-82954666D01*
X214526761Y-82907047D01*
X214574380Y-82811809D01*
X214574380Y-82716571D01*
X214526761Y-82621333D01*
X214479142Y-82573714D01*
X214383904Y-82526095D01*
X214193428Y-82478476D01*
X213955333Y-82478476D01*
X213764857Y-82526095D01*
X213669619Y-82573714D01*
X213622000Y-82621333D01*
X213574380Y-82716571D01*
X222448380Y-78097142D02*
X221972190Y-77763809D01*
X222448380Y-77525714D02*
X221448380Y-77525714D01*
X221448380Y-77906666D01*
X221496000Y-78001904D01*
X221543619Y-78049523D01*
X221638857Y-78097142D01*
X221781714Y-78097142D01*
X221876952Y-78049523D01*
X221924571Y-78001904D01*
X221972190Y-77906666D01*
X221972190Y-77525714D01*
X221448380Y-78430476D02*
X221448380Y-79049523D01*
X221829333Y-78716190D01*
X221829333Y-78859047D01*
X221876952Y-78954285D01*
X221924571Y-79001904D01*
X222019809Y-79049523D01*
X222257904Y-79049523D01*
X222353142Y-79001904D01*
X222400761Y-78954285D01*
X222448380Y-78859047D01*
X222448380Y-78573333D01*
X222400761Y-78478095D01*
X222353142Y-78430476D01*
X222448380Y-79525714D02*
X222448380Y-79716190D01*
X222400761Y-79811428D01*
X222353142Y-79859047D01*
X222210285Y-79954285D01*
X222019809Y-80001904D01*
X221638857Y-80001904D01*
X221543619Y-79954285D01*
X221496000Y-79906666D01*
X221448380Y-79811428D01*
X221448380Y-79620952D01*
X221496000Y-79525714D01*
X221543619Y-79478095D01*
X221638857Y-79430476D01*
X221876952Y-79430476D01*
X221972190Y-79478095D01*
X222019809Y-79525714D01*
X222067428Y-79620952D01*
X222067428Y-79811428D01*
X222019809Y-79906666D01*
X221972190Y-79954285D01*
X221876952Y-80001904D01*
X217622380Y-78097142D02*
X217146190Y-77763809D01*
X217622380Y-77525714D02*
X216622380Y-77525714D01*
X216622380Y-77906666D01*
X216670000Y-78001904D01*
X216717619Y-78049523D01*
X216812857Y-78097142D01*
X216955714Y-78097142D01*
X217050952Y-78049523D01*
X217098571Y-78001904D01*
X217146190Y-77906666D01*
X217146190Y-77525714D01*
X216622380Y-78430476D02*
X216622380Y-79049523D01*
X217003333Y-78716190D01*
X217003333Y-78859047D01*
X217050952Y-78954285D01*
X217098571Y-79001904D01*
X217193809Y-79049523D01*
X217431904Y-79049523D01*
X217527142Y-79001904D01*
X217574761Y-78954285D01*
X217622380Y-78859047D01*
X217622380Y-78573333D01*
X217574761Y-78478095D01*
X217527142Y-78430476D01*
X217050952Y-79620952D02*
X217003333Y-79525714D01*
X216955714Y-79478095D01*
X216860476Y-79430476D01*
X216812857Y-79430476D01*
X216717619Y-79478095D01*
X216670000Y-79525714D01*
X216622380Y-79620952D01*
X216622380Y-79811428D01*
X216670000Y-79906666D01*
X216717619Y-79954285D01*
X216812857Y-80001904D01*
X216860476Y-80001904D01*
X216955714Y-79954285D01*
X217003333Y-79906666D01*
X217050952Y-79811428D01*
X217050952Y-79620952D01*
X217098571Y-79525714D01*
X217146190Y-79478095D01*
X217241428Y-79430476D01*
X217431904Y-79430476D01*
X217527142Y-79478095D01*
X217574761Y-79525714D01*
X217622380Y-79620952D01*
X217622380Y-79811428D01*
X217574761Y-79906666D01*
X217527142Y-79954285D01*
X217431904Y-80001904D01*
X217241428Y-80001904D01*
X217146190Y-79954285D01*
X217098571Y-79906666D01*
X217050952Y-79811428D01*
X223972380Y-78097142D02*
X223496190Y-77763809D01*
X223972380Y-77525714D02*
X222972380Y-77525714D01*
X222972380Y-77906666D01*
X223020000Y-78001904D01*
X223067619Y-78049523D01*
X223162857Y-78097142D01*
X223305714Y-78097142D01*
X223400952Y-78049523D01*
X223448571Y-78001904D01*
X223496190Y-77906666D01*
X223496190Y-77525714D01*
X222972380Y-78430476D02*
X222972380Y-79049523D01*
X223353333Y-78716190D01*
X223353333Y-78859047D01*
X223400952Y-78954285D01*
X223448571Y-79001904D01*
X223543809Y-79049523D01*
X223781904Y-79049523D01*
X223877142Y-79001904D01*
X223924761Y-78954285D01*
X223972380Y-78859047D01*
X223972380Y-78573333D01*
X223924761Y-78478095D01*
X223877142Y-78430476D01*
X222972380Y-79382857D02*
X222972380Y-80049523D01*
X223972380Y-79620952D01*
X219305142Y-78097142D02*
X219352761Y-78049523D01*
X219400380Y-77906666D01*
X219400380Y-77811428D01*
X219352761Y-77668571D01*
X219257523Y-77573333D01*
X219162285Y-77525714D01*
X218971809Y-77478095D01*
X218828952Y-77478095D01*
X218638476Y-77525714D01*
X218543238Y-77573333D01*
X218448000Y-77668571D01*
X218400380Y-77811428D01*
X218400380Y-77906666D01*
X218448000Y-78049523D01*
X218495619Y-78097142D01*
X218495619Y-78478095D02*
X218448000Y-78525714D01*
X218400380Y-78620952D01*
X218400380Y-78859047D01*
X218448000Y-78954285D01*
X218495619Y-79001904D01*
X218590857Y-79049523D01*
X218686095Y-79049523D01*
X218828952Y-79001904D01*
X219400380Y-78430476D01*
X219400380Y-79049523D01*
X218400380Y-79382857D02*
X218400380Y-80001904D01*
X218781333Y-79668571D01*
X218781333Y-79811428D01*
X218828952Y-79906666D01*
X218876571Y-79954285D01*
X218971809Y-80001904D01*
X219209904Y-80001904D01*
X219305142Y-79954285D01*
X219352761Y-79906666D01*
X219400380Y-79811428D01*
X219400380Y-79525714D01*
X219352761Y-79430476D01*
X219305142Y-79382857D01*
X225655142Y-78097142D02*
X225702761Y-78049523D01*
X225750380Y-77906666D01*
X225750380Y-77811428D01*
X225702761Y-77668571D01*
X225607523Y-77573333D01*
X225512285Y-77525714D01*
X225321809Y-77478095D01*
X225178952Y-77478095D01*
X224988476Y-77525714D01*
X224893238Y-77573333D01*
X224798000Y-77668571D01*
X224750380Y-77811428D01*
X224750380Y-77906666D01*
X224798000Y-78049523D01*
X224845619Y-78097142D01*
X224845619Y-78478095D02*
X224798000Y-78525714D01*
X224750380Y-78620952D01*
X224750380Y-78859047D01*
X224798000Y-78954285D01*
X224845619Y-79001904D01*
X224940857Y-79049523D01*
X225036095Y-79049523D01*
X225178952Y-79001904D01*
X225750380Y-78430476D01*
X225750380Y-79049523D01*
X224845619Y-79430476D02*
X224798000Y-79478095D01*
X224750380Y-79573333D01*
X224750380Y-79811428D01*
X224798000Y-79906666D01*
X224845619Y-79954285D01*
X224940857Y-80001904D01*
X225036095Y-80001904D01*
X225178952Y-79954285D01*
X225750380Y-79382857D01*
X225750380Y-80001904D01*
X181951380Y-57404095D02*
X182760904Y-57404095D01*
X182856142Y-57451714D01*
X182903761Y-57499333D01*
X182951380Y-57594571D01*
X182951380Y-57785047D01*
X182903761Y-57880285D01*
X182856142Y-57927904D01*
X182760904Y-57975523D01*
X181951380Y-57975523D01*
X181951380Y-58927904D02*
X181951380Y-58451714D01*
X182427571Y-58404095D01*
X182379952Y-58451714D01*
X182332333Y-58546952D01*
X182332333Y-58785047D01*
X182379952Y-58880285D01*
X182427571Y-58927904D01*
X182522809Y-58975523D01*
X182760904Y-58975523D01*
X182856142Y-58927904D01*
X182903761Y-58880285D01*
X182951380Y-58785047D01*
X182951380Y-58546952D01*
X182903761Y-58451714D01*
X182856142Y-58404095D01*
X183332380Y-49395142D02*
X182856190Y-49061809D01*
X183332380Y-48823714D02*
X182332380Y-48823714D01*
X182332380Y-49204666D01*
X182380000Y-49299904D01*
X182427619Y-49347523D01*
X182522857Y-49395142D01*
X182665714Y-49395142D01*
X182760952Y-49347523D01*
X182808571Y-49299904D01*
X182856190Y-49204666D01*
X182856190Y-48823714D01*
X182332380Y-49728476D02*
X182332380Y-50347523D01*
X182713333Y-50014190D01*
X182713333Y-50157047D01*
X182760952Y-50252285D01*
X182808571Y-50299904D01*
X182903809Y-50347523D01*
X183141904Y-50347523D01*
X183237142Y-50299904D01*
X183284761Y-50252285D01*
X183332380Y-50157047D01*
X183332380Y-49871333D01*
X183284761Y-49776095D01*
X183237142Y-49728476D01*
X182332380Y-51204666D02*
X182332380Y-51014190D01*
X182380000Y-50918952D01*
X182427619Y-50871333D01*
X182570476Y-50776095D01*
X182760952Y-50728476D01*
X183141904Y-50728476D01*
X183237142Y-50776095D01*
X183284761Y-50823714D01*
X183332380Y-50918952D01*
X183332380Y-51109428D01*
X183284761Y-51204666D01*
X183237142Y-51252285D01*
X183141904Y-51299904D01*
X182903809Y-51299904D01*
X182808571Y-51252285D01*
X182760952Y-51204666D01*
X182713333Y-51109428D01*
X182713333Y-50918952D01*
X182760952Y-50823714D01*
X182808571Y-50776095D01*
X182903809Y-50728476D01*
X183014857Y-55316380D02*
X183348190Y-54840190D01*
X183586285Y-55316380D02*
X183586285Y-54316380D01*
X183205333Y-54316380D01*
X183110095Y-54364000D01*
X183062476Y-54411619D01*
X183014857Y-54506857D01*
X183014857Y-54649714D01*
X183062476Y-54744952D01*
X183110095Y-54792571D01*
X183205333Y-54840190D01*
X183586285Y-54840190D01*
X182681523Y-54316380D02*
X182062476Y-54316380D01*
X182395809Y-54697333D01*
X182252952Y-54697333D01*
X182157714Y-54744952D01*
X182110095Y-54792571D01*
X182062476Y-54887809D01*
X182062476Y-55125904D01*
X182110095Y-55221142D01*
X182157714Y-55268761D01*
X182252952Y-55316380D01*
X182538666Y-55316380D01*
X182633904Y-55268761D01*
X182681523Y-55221142D01*
X181157714Y-54316380D02*
X181633904Y-54316380D01*
X181681523Y-54792571D01*
X181633904Y-54744952D01*
X181538666Y-54697333D01*
X181300571Y-54697333D01*
X181205333Y-54744952D01*
X181157714Y-54792571D01*
X181110095Y-54887809D01*
X181110095Y-55125904D01*
X181157714Y-55221142D01*
X181205333Y-55268761D01*
X181300571Y-55316380D01*
X181538666Y-55316380D01*
X181633904Y-55268761D01*
X181681523Y-55221142D01*
X189047380Y-49395142D02*
X188571190Y-49061809D01*
X189047380Y-48823714D02*
X188047380Y-48823714D01*
X188047380Y-49204666D01*
X188095000Y-49299904D01*
X188142619Y-49347523D01*
X188237857Y-49395142D01*
X188380714Y-49395142D01*
X188475952Y-49347523D01*
X188523571Y-49299904D01*
X188571190Y-49204666D01*
X188571190Y-48823714D01*
X188047380Y-49728476D02*
X188047380Y-50347523D01*
X188428333Y-50014190D01*
X188428333Y-50157047D01*
X188475952Y-50252285D01*
X188523571Y-50299904D01*
X188618809Y-50347523D01*
X188856904Y-50347523D01*
X188952142Y-50299904D01*
X188999761Y-50252285D01*
X189047380Y-50157047D01*
X189047380Y-49871333D01*
X188999761Y-49776095D01*
X188952142Y-49728476D01*
X188380714Y-51204666D02*
X189047380Y-51204666D01*
X187999761Y-50966571D02*
X188714047Y-50728476D01*
X188714047Y-51347523D01*
X183014857Y-70715142D02*
X183062476Y-70762761D01*
X183205333Y-70810380D01*
X183300571Y-70810380D01*
X183443428Y-70762761D01*
X183538666Y-70667523D01*
X183586285Y-70572285D01*
X183633904Y-70381809D01*
X183633904Y-70238952D01*
X183586285Y-70048476D01*
X183538666Y-69953238D01*
X183443428Y-69858000D01*
X183300571Y-69810380D01*
X183205333Y-69810380D01*
X183062476Y-69858000D01*
X183014857Y-69905619D01*
X182633904Y-69905619D02*
X182586285Y-69858000D01*
X182491047Y-69810380D01*
X182252952Y-69810380D01*
X182157714Y-69858000D01*
X182110095Y-69905619D01*
X182062476Y-70000857D01*
X182062476Y-70096095D01*
X182110095Y-70238952D01*
X182681523Y-70810380D01*
X182062476Y-70810380D01*
X181110095Y-70810380D02*
X181681523Y-70810380D01*
X181395809Y-70810380D02*
X181395809Y-69810380D01*
X181491047Y-69953238D01*
X181586285Y-70048476D01*
X181681523Y-70096095D01*
X189079142Y-55491142D02*
X189126761Y-55443523D01*
X189174380Y-55300666D01*
X189174380Y-55205428D01*
X189126761Y-55062571D01*
X189031523Y-54967333D01*
X188936285Y-54919714D01*
X188745809Y-54872095D01*
X188602952Y-54872095D01*
X188412476Y-54919714D01*
X188317238Y-54967333D01*
X188222000Y-55062571D01*
X188174380Y-55205428D01*
X188174380Y-55300666D01*
X188222000Y-55443523D01*
X188269619Y-55491142D01*
X188269619Y-55872095D02*
X188222000Y-55919714D01*
X188174380Y-56014952D01*
X188174380Y-56253047D01*
X188222000Y-56348285D01*
X188269619Y-56395904D01*
X188364857Y-56443523D01*
X188460095Y-56443523D01*
X188602952Y-56395904D01*
X189174380Y-55824476D01*
X189174380Y-56443523D01*
X188174380Y-57062571D02*
X188174380Y-57157809D01*
X188222000Y-57253047D01*
X188269619Y-57300666D01*
X188364857Y-57348285D01*
X188555333Y-57395904D01*
X188793428Y-57395904D01*
X188983904Y-57348285D01*
X189079142Y-57300666D01*
X189126761Y-57253047D01*
X189174380Y-57157809D01*
X189174380Y-57062571D01*
X189126761Y-56967333D01*
X189079142Y-56919714D01*
X188983904Y-56872095D01*
X188793428Y-56824476D01*
X188555333Y-56824476D01*
X188364857Y-56872095D01*
X188269619Y-56919714D01*
X188222000Y-56967333D01*
X188174380Y-57062571D01*
X191238142Y-63873142D02*
X191285761Y-63825523D01*
X191333380Y-63682666D01*
X191333380Y-63587428D01*
X191285761Y-63444571D01*
X191190523Y-63349333D01*
X191095285Y-63301714D01*
X190904809Y-63254095D01*
X190761952Y-63254095D01*
X190571476Y-63301714D01*
X190476238Y-63349333D01*
X190381000Y-63444571D01*
X190333380Y-63587428D01*
X190333380Y-63682666D01*
X190381000Y-63825523D01*
X190428619Y-63873142D01*
X191333380Y-64825523D02*
X191333380Y-64254095D01*
X191333380Y-64539809D02*
X190333380Y-64539809D01*
X190476238Y-64444571D01*
X190571476Y-64349333D01*
X190619095Y-64254095D01*
X191333380Y-65301714D02*
X191333380Y-65492190D01*
X191285761Y-65587428D01*
X191238142Y-65635047D01*
X191095285Y-65730285D01*
X190904809Y-65777904D01*
X190523857Y-65777904D01*
X190428619Y-65730285D01*
X190381000Y-65682666D01*
X190333380Y-65587428D01*
X190333380Y-65396952D01*
X190381000Y-65301714D01*
X190428619Y-65254095D01*
X190523857Y-65206476D01*
X190761952Y-65206476D01*
X190857190Y-65254095D01*
X190904809Y-65301714D01*
X190952428Y-65396952D01*
X190952428Y-65587428D01*
X190904809Y-65682666D01*
X190857190Y-65730285D01*
X190761952Y-65777904D01*
X183014857Y-53189142D02*
X183062476Y-53236761D01*
X183205333Y-53284380D01*
X183300571Y-53284380D01*
X183443428Y-53236761D01*
X183538666Y-53141523D01*
X183586285Y-53046285D01*
X183633904Y-52855809D01*
X183633904Y-52712952D01*
X183586285Y-52522476D01*
X183538666Y-52427238D01*
X183443428Y-52332000D01*
X183300571Y-52284380D01*
X183205333Y-52284380D01*
X183062476Y-52332000D01*
X183014857Y-52379619D01*
X182062476Y-53284380D02*
X182633904Y-53284380D01*
X182348190Y-53284380D02*
X182348190Y-52284380D01*
X182443428Y-52427238D01*
X182538666Y-52522476D01*
X182633904Y-52570095D01*
X181491047Y-52712952D02*
X181586285Y-52665333D01*
X181633904Y-52617714D01*
X181681523Y-52522476D01*
X181681523Y-52474857D01*
X181633904Y-52379619D01*
X181586285Y-52332000D01*
X181491047Y-52284380D01*
X181300571Y-52284380D01*
X181205333Y-52332000D01*
X181157714Y-52379619D01*
X181110095Y-52474857D01*
X181110095Y-52522476D01*
X181157714Y-52617714D01*
X181205333Y-52665333D01*
X181300571Y-52712952D01*
X181491047Y-52712952D01*
X181586285Y-52760571D01*
X181633904Y-52808190D01*
X181681523Y-52903428D01*
X181681523Y-53093904D01*
X181633904Y-53189142D01*
X181586285Y-53236761D01*
X181491047Y-53284380D01*
X181300571Y-53284380D01*
X181205333Y-53236761D01*
X181157714Y-53189142D01*
X181110095Y-53093904D01*
X181110095Y-52903428D01*
X181157714Y-52808190D01*
X181205333Y-52760571D01*
X181300571Y-52712952D01*
X197873857Y-71318380D02*
X198207190Y-70842190D01*
X198445285Y-71318380D02*
X198445285Y-70318380D01*
X198064333Y-70318380D01*
X197969095Y-70366000D01*
X197921476Y-70413619D01*
X197873857Y-70508857D01*
X197873857Y-70651714D01*
X197921476Y-70746952D01*
X197969095Y-70794571D01*
X198064333Y-70842190D01*
X198445285Y-70842190D01*
X197540523Y-70318380D02*
X196921476Y-70318380D01*
X197254809Y-70699333D01*
X197111952Y-70699333D01*
X197016714Y-70746952D01*
X196969095Y-70794571D01*
X196921476Y-70889809D01*
X196921476Y-71127904D01*
X196969095Y-71223142D01*
X197016714Y-71270761D01*
X197111952Y-71318380D01*
X197397666Y-71318380D01*
X197492904Y-71270761D01*
X197540523Y-71223142D01*
X196588142Y-70318380D02*
X195969095Y-70318380D01*
X196302428Y-70699333D01*
X196159571Y-70699333D01*
X196064333Y-70746952D01*
X196016714Y-70794571D01*
X195969095Y-70889809D01*
X195969095Y-71127904D01*
X196016714Y-71223142D01*
X196064333Y-71270761D01*
X196159571Y-71318380D01*
X196445285Y-71318380D01*
X196540523Y-71270761D01*
X196588142Y-71223142D01*
X197873857Y-72842380D02*
X198207190Y-72366190D01*
X198445285Y-72842380D02*
X198445285Y-71842380D01*
X198064333Y-71842380D01*
X197969095Y-71890000D01*
X197921476Y-71937619D01*
X197873857Y-72032857D01*
X197873857Y-72175714D01*
X197921476Y-72270952D01*
X197969095Y-72318571D01*
X198064333Y-72366190D01*
X198445285Y-72366190D01*
X197540523Y-71842380D02*
X196921476Y-71842380D01*
X197254809Y-72223333D01*
X197111952Y-72223333D01*
X197016714Y-72270952D01*
X196969095Y-72318571D01*
X196921476Y-72413809D01*
X196921476Y-72651904D01*
X196969095Y-72747142D01*
X197016714Y-72794761D01*
X197111952Y-72842380D01*
X197397666Y-72842380D01*
X197492904Y-72794761D01*
X197540523Y-72747142D01*
X196540523Y-71937619D02*
X196492904Y-71890000D01*
X196397666Y-71842380D01*
X196159571Y-71842380D01*
X196064333Y-71890000D01*
X196016714Y-71937619D01*
X195969095Y-72032857D01*
X195969095Y-72128095D01*
X196016714Y-72270952D01*
X196588142Y-72842380D01*
X195969095Y-72842380D01*
X197873857Y-69286380D02*
X198207190Y-68810190D01*
X198445285Y-69286380D02*
X198445285Y-68286380D01*
X198064333Y-68286380D01*
X197969095Y-68334000D01*
X197921476Y-68381619D01*
X197873857Y-68476857D01*
X197873857Y-68619714D01*
X197921476Y-68714952D01*
X197969095Y-68762571D01*
X198064333Y-68810190D01*
X198445285Y-68810190D01*
X197540523Y-68286380D02*
X196921476Y-68286380D01*
X197254809Y-68667333D01*
X197111952Y-68667333D01*
X197016714Y-68714952D01*
X196969095Y-68762571D01*
X196921476Y-68857809D01*
X196921476Y-69095904D01*
X196969095Y-69191142D01*
X197016714Y-69238761D01*
X197111952Y-69286380D01*
X197397666Y-69286380D01*
X197492904Y-69238761D01*
X197540523Y-69191142D01*
X195969095Y-69286380D02*
X196540523Y-69286380D01*
X196254809Y-69286380D02*
X196254809Y-68286380D01*
X196350047Y-68429238D01*
X196445285Y-68524476D01*
X196540523Y-68572095D01*
X197873857Y-62174380D02*
X198207190Y-61698190D01*
X198445285Y-62174380D02*
X198445285Y-61174380D01*
X198064333Y-61174380D01*
X197969095Y-61222000D01*
X197921476Y-61269619D01*
X197873857Y-61364857D01*
X197873857Y-61507714D01*
X197921476Y-61602952D01*
X197969095Y-61650571D01*
X198064333Y-61698190D01*
X198445285Y-61698190D01*
X197492904Y-61269619D02*
X197445285Y-61222000D01*
X197350047Y-61174380D01*
X197111952Y-61174380D01*
X197016714Y-61222000D01*
X196969095Y-61269619D01*
X196921476Y-61364857D01*
X196921476Y-61460095D01*
X196969095Y-61602952D01*
X197540523Y-62174380D01*
X196921476Y-62174380D01*
X196445285Y-62174380D02*
X196254809Y-62174380D01*
X196159571Y-62126761D01*
X196111952Y-62079142D01*
X196016714Y-61936285D01*
X195969095Y-61745809D01*
X195969095Y-61364857D01*
X196016714Y-61269619D01*
X196064333Y-61222000D01*
X196159571Y-61174380D01*
X196350047Y-61174380D01*
X196445285Y-61222000D01*
X196492904Y-61269619D01*
X196540523Y-61364857D01*
X196540523Y-61602952D01*
X196492904Y-61698190D01*
X196445285Y-61745809D01*
X196350047Y-61793428D01*
X196159571Y-61793428D01*
X196064333Y-61745809D01*
X196016714Y-61698190D01*
X195969095Y-61602952D01*
X197873857Y-84018380D02*
X198207190Y-83542190D01*
X198445285Y-84018380D02*
X198445285Y-83018380D01*
X198064333Y-83018380D01*
X197969095Y-83066000D01*
X197921476Y-83113619D01*
X197873857Y-83208857D01*
X197873857Y-83351714D01*
X197921476Y-83446952D01*
X197969095Y-83494571D01*
X198064333Y-83542190D01*
X198445285Y-83542190D01*
X196921476Y-84018380D02*
X197492904Y-84018380D01*
X197207190Y-84018380D02*
X197207190Y-83018380D01*
X197302428Y-83161238D01*
X197397666Y-83256476D01*
X197492904Y-83304095D01*
X196588142Y-83018380D02*
X195969095Y-83018380D01*
X196302428Y-83399333D01*
X196159571Y-83399333D01*
X196064333Y-83446952D01*
X196016714Y-83494571D01*
X195969095Y-83589809D01*
X195969095Y-83827904D01*
X196016714Y-83923142D01*
X196064333Y-83970761D01*
X196159571Y-84018380D01*
X196445285Y-84018380D01*
X196540523Y-83970761D01*
X196588142Y-83923142D01*
X197873857Y-82240380D02*
X198207190Y-81764190D01*
X198445285Y-82240380D02*
X198445285Y-81240380D01*
X198064333Y-81240380D01*
X197969095Y-81288000D01*
X197921476Y-81335619D01*
X197873857Y-81430857D01*
X197873857Y-81573714D01*
X197921476Y-81668952D01*
X197969095Y-81716571D01*
X198064333Y-81764190D01*
X198445285Y-81764190D01*
X196921476Y-82240380D02*
X197492904Y-82240380D01*
X197207190Y-82240380D02*
X197207190Y-81240380D01*
X197302428Y-81383238D01*
X197397666Y-81478476D01*
X197492904Y-81526095D01*
X196540523Y-81335619D02*
X196492904Y-81288000D01*
X196397666Y-81240380D01*
X196159571Y-81240380D01*
X196064333Y-81288000D01*
X196016714Y-81335619D01*
X195969095Y-81430857D01*
X195969095Y-81526095D01*
X196016714Y-81668952D01*
X196588142Y-82240380D01*
X195969095Y-82240380D01*
X197873857Y-85796380D02*
X198207190Y-85320190D01*
X198445285Y-85796380D02*
X198445285Y-84796380D01*
X198064333Y-84796380D01*
X197969095Y-84844000D01*
X197921476Y-84891619D01*
X197873857Y-84986857D01*
X197873857Y-85129714D01*
X197921476Y-85224952D01*
X197969095Y-85272571D01*
X198064333Y-85320190D01*
X198445285Y-85320190D01*
X196921476Y-85796380D02*
X197492904Y-85796380D01*
X197207190Y-85796380D02*
X197207190Y-84796380D01*
X197302428Y-84939238D01*
X197397666Y-85034476D01*
X197492904Y-85082095D01*
X195969095Y-85796380D02*
X196540523Y-85796380D01*
X196254809Y-85796380D02*
X196254809Y-84796380D01*
X196350047Y-84939238D01*
X196445285Y-85034476D01*
X196540523Y-85082095D01*
X197873857Y-74779142D02*
X197921476Y-74826761D01*
X198064333Y-74874380D01*
X198159571Y-74874380D01*
X198302428Y-74826761D01*
X198397666Y-74731523D01*
X198445285Y-74636285D01*
X198492904Y-74445809D01*
X198492904Y-74302952D01*
X198445285Y-74112476D01*
X198397666Y-74017238D01*
X198302428Y-73922000D01*
X198159571Y-73874380D01*
X198064333Y-73874380D01*
X197921476Y-73922000D01*
X197873857Y-73969619D01*
X196921476Y-74874380D02*
X197492904Y-74874380D01*
X197207190Y-74874380D02*
X197207190Y-73874380D01*
X197302428Y-74017238D01*
X197397666Y-74112476D01*
X197492904Y-74160095D01*
X196588142Y-73874380D02*
X195921476Y-73874380D01*
X196350047Y-74874380D01*
X197873857Y-66905142D02*
X197921476Y-66952761D01*
X198064333Y-67000380D01*
X198159571Y-67000380D01*
X198302428Y-66952761D01*
X198397666Y-66857523D01*
X198445285Y-66762285D01*
X198492904Y-66571809D01*
X198492904Y-66428952D01*
X198445285Y-66238476D01*
X198397666Y-66143238D01*
X198302428Y-66048000D01*
X198159571Y-66000380D01*
X198064333Y-66000380D01*
X197921476Y-66048000D01*
X197873857Y-66095619D01*
X196921476Y-67000380D02*
X197492904Y-67000380D01*
X197207190Y-67000380D02*
X197207190Y-66000380D01*
X197302428Y-66143238D01*
X197397666Y-66238476D01*
X197492904Y-66286095D01*
X196064333Y-66333714D02*
X196064333Y-67000380D01*
X196302428Y-65952761D02*
X196540523Y-66667047D01*
X195921476Y-66667047D01*
X197873857Y-64365142D02*
X197921476Y-64412761D01*
X198064333Y-64460380D01*
X198159571Y-64460380D01*
X198302428Y-64412761D01*
X198397666Y-64317523D01*
X198445285Y-64222285D01*
X198492904Y-64031809D01*
X198492904Y-63888952D01*
X198445285Y-63698476D01*
X198397666Y-63603238D01*
X198302428Y-63508000D01*
X198159571Y-63460380D01*
X198064333Y-63460380D01*
X197921476Y-63508000D01*
X197873857Y-63555619D01*
X196921476Y-64460380D02*
X197492904Y-64460380D01*
X197207190Y-64460380D02*
X197207190Y-63460380D01*
X197302428Y-63603238D01*
X197397666Y-63698476D01*
X197492904Y-63746095D01*
X196588142Y-63460380D02*
X195969095Y-63460380D01*
X196302428Y-63841333D01*
X196159571Y-63841333D01*
X196064333Y-63888952D01*
X196016714Y-63936571D01*
X195969095Y-64031809D01*
X195969095Y-64269904D01*
X196016714Y-64365142D01*
X196064333Y-64412761D01*
X196159571Y-64460380D01*
X196445285Y-64460380D01*
X196540523Y-64412761D01*
X196588142Y-64365142D01*
X197873857Y-80113142D02*
X197921476Y-80160761D01*
X198064333Y-80208380D01*
X198159571Y-80208380D01*
X198302428Y-80160761D01*
X198397666Y-80065523D01*
X198445285Y-79970285D01*
X198492904Y-79779809D01*
X198492904Y-79636952D01*
X198445285Y-79446476D01*
X198397666Y-79351238D01*
X198302428Y-79256000D01*
X198159571Y-79208380D01*
X198064333Y-79208380D01*
X197921476Y-79256000D01*
X197873857Y-79303619D01*
X196921476Y-80208380D02*
X197492904Y-80208380D01*
X197207190Y-80208380D02*
X197207190Y-79208380D01*
X197302428Y-79351238D01*
X197397666Y-79446476D01*
X197492904Y-79494095D01*
X196302428Y-79208380D02*
X196207190Y-79208380D01*
X196111952Y-79256000D01*
X196064333Y-79303619D01*
X196016714Y-79398857D01*
X195969095Y-79589333D01*
X195969095Y-79827428D01*
X196016714Y-80017904D01*
X196064333Y-80113142D01*
X196111952Y-80160761D01*
X196207190Y-80208380D01*
X196302428Y-80208380D01*
X196397666Y-80160761D01*
X196445285Y-80113142D01*
X196492904Y-80017904D01*
X196540523Y-79827428D01*
X196540523Y-79589333D01*
X196492904Y-79398857D01*
X196445285Y-79303619D01*
X196397666Y-79256000D01*
X196302428Y-79208380D01*
X205652666Y-56840380D02*
X205986000Y-56364190D01*
X206224095Y-56840380D02*
X206224095Y-55840380D01*
X205843142Y-55840380D01*
X205747904Y-55888000D01*
X205700285Y-55935619D01*
X205652666Y-56030857D01*
X205652666Y-56173714D01*
X205700285Y-56268952D01*
X205747904Y-56316571D01*
X205843142Y-56364190D01*
X206224095Y-56364190D01*
X205176476Y-56840380D02*
X204986000Y-56840380D01*
X204890761Y-56792761D01*
X204843142Y-56745142D01*
X204747904Y-56602285D01*
X204700285Y-56411809D01*
X204700285Y-56030857D01*
X204747904Y-55935619D01*
X204795523Y-55888000D01*
X204890761Y-55840380D01*
X205081238Y-55840380D01*
X205176476Y-55888000D01*
X205224095Y-55935619D01*
X205271714Y-56030857D01*
X205271714Y-56268952D01*
X205224095Y-56364190D01*
X205176476Y-56411809D01*
X205081238Y-56459428D01*
X204890761Y-56459428D01*
X204795523Y-56411809D01*
X204747904Y-56364190D01*
X204700285Y-56268952D01*
X221591142Y-48093333D02*
X221638761Y-48045714D01*
X221686380Y-47902857D01*
X221686380Y-47807619D01*
X221638761Y-47664761D01*
X221543523Y-47569523D01*
X221448285Y-47521904D01*
X221257809Y-47474285D01*
X221114952Y-47474285D01*
X220924476Y-47521904D01*
X220829238Y-47569523D01*
X220734000Y-47664761D01*
X220686380Y-47807619D01*
X220686380Y-47902857D01*
X220734000Y-48045714D01*
X220781619Y-48093333D01*
X221686380Y-48569523D02*
X221686380Y-48760000D01*
X221638761Y-48855238D01*
X221591142Y-48902857D01*
X221448285Y-48998095D01*
X221257809Y-49045714D01*
X220876857Y-49045714D01*
X220781619Y-48998095D01*
X220734000Y-48950476D01*
X220686380Y-48855238D01*
X220686380Y-48664761D01*
X220734000Y-48569523D01*
X220781619Y-48521904D01*
X220876857Y-48474285D01*
X221114952Y-48474285D01*
X221210190Y-48521904D01*
X221257809Y-48569523D01*
X221305428Y-48664761D01*
X221305428Y-48855238D01*
X221257809Y-48950476D01*
X221210190Y-48998095D01*
X221114952Y-49045714D01*
X219051142Y-48093333D02*
X219098761Y-48045714D01*
X219146380Y-47902857D01*
X219146380Y-47807619D01*
X219098761Y-47664761D01*
X219003523Y-47569523D01*
X218908285Y-47521904D01*
X218717809Y-47474285D01*
X218574952Y-47474285D01*
X218384476Y-47521904D01*
X218289238Y-47569523D01*
X218194000Y-47664761D01*
X218146380Y-47807619D01*
X218146380Y-47902857D01*
X218194000Y-48045714D01*
X218241619Y-48093333D01*
X218574952Y-48664761D02*
X218527333Y-48569523D01*
X218479714Y-48521904D01*
X218384476Y-48474285D01*
X218336857Y-48474285D01*
X218241619Y-48521904D01*
X218194000Y-48569523D01*
X218146380Y-48664761D01*
X218146380Y-48855238D01*
X218194000Y-48950476D01*
X218241619Y-48998095D01*
X218336857Y-49045714D01*
X218384476Y-49045714D01*
X218479714Y-48998095D01*
X218527333Y-48950476D01*
X218574952Y-48855238D01*
X218574952Y-48664761D01*
X218622571Y-48569523D01*
X218670190Y-48521904D01*
X218765428Y-48474285D01*
X218955904Y-48474285D01*
X219051142Y-48521904D01*
X219098761Y-48569523D01*
X219146380Y-48664761D01*
X219146380Y-48855238D01*
X219098761Y-48950476D01*
X219051142Y-48998095D01*
X218955904Y-49045714D01*
X218765428Y-49045714D01*
X218670190Y-48998095D01*
X218622571Y-48950476D01*
X218574952Y-48855238D01*
X217019142Y-48093333D02*
X217066761Y-48045714D01*
X217114380Y-47902857D01*
X217114380Y-47807619D01*
X217066761Y-47664761D01*
X216971523Y-47569523D01*
X216876285Y-47521904D01*
X216685809Y-47474285D01*
X216542952Y-47474285D01*
X216352476Y-47521904D01*
X216257238Y-47569523D01*
X216162000Y-47664761D01*
X216114380Y-47807619D01*
X216114380Y-47902857D01*
X216162000Y-48045714D01*
X216209619Y-48093333D01*
X216114380Y-48426666D02*
X216114380Y-49093333D01*
X217114380Y-48664761D01*
X231814666Y-90019142D02*
X231862285Y-90066761D01*
X232005142Y-90114380D01*
X232100380Y-90114380D01*
X232243238Y-90066761D01*
X232338476Y-89971523D01*
X232386095Y-89876285D01*
X232433714Y-89685809D01*
X232433714Y-89542952D01*
X232386095Y-89352476D01*
X232338476Y-89257238D01*
X232243238Y-89162000D01*
X232100380Y-89114380D01*
X232005142Y-89114380D01*
X231862285Y-89162000D01*
X231814666Y-89209619D01*
X230957523Y-89114380D02*
X231148000Y-89114380D01*
X231243238Y-89162000D01*
X231290857Y-89209619D01*
X231386095Y-89352476D01*
X231433714Y-89542952D01*
X231433714Y-89923904D01*
X231386095Y-90019142D01*
X231338476Y-90066761D01*
X231243238Y-90114380D01*
X231052761Y-90114380D01*
X230957523Y-90066761D01*
X230909904Y-90019142D01*
X230862285Y-89923904D01*
X230862285Y-89685809D01*
X230909904Y-89590571D01*
X230957523Y-89542952D01*
X231052761Y-89495333D01*
X231243238Y-89495333D01*
X231338476Y-89542952D01*
X231386095Y-89590571D01*
X231433714Y-89685809D01*
X232100380Y-66762333D02*
X231624190Y-66429000D01*
X232100380Y-66190904D02*
X231100380Y-66190904D01*
X231100380Y-66571857D01*
X231148000Y-66667095D01*
X231195619Y-66714714D01*
X231290857Y-66762333D01*
X231433714Y-66762333D01*
X231528952Y-66714714D01*
X231576571Y-66667095D01*
X231624190Y-66571857D01*
X231624190Y-66190904D01*
X231528952Y-67333761D02*
X231481333Y-67238523D01*
X231433714Y-67190904D01*
X231338476Y-67143285D01*
X231290857Y-67143285D01*
X231195619Y-67190904D01*
X231148000Y-67238523D01*
X231100380Y-67333761D01*
X231100380Y-67524238D01*
X231148000Y-67619476D01*
X231195619Y-67667095D01*
X231290857Y-67714714D01*
X231338476Y-67714714D01*
X231433714Y-67667095D01*
X231481333Y-67619476D01*
X231528952Y-67524238D01*
X231528952Y-67333761D01*
X231576571Y-67238523D01*
X231624190Y-67190904D01*
X231719428Y-67143285D01*
X231909904Y-67143285D01*
X232005142Y-67190904D01*
X232052761Y-67238523D01*
X232100380Y-67333761D01*
X232100380Y-67524238D01*
X232052761Y-67619476D01*
X232005142Y-67667095D01*
X231909904Y-67714714D01*
X231719428Y-67714714D01*
X231624190Y-67667095D01*
X231576571Y-67619476D01*
X231528952Y-67524238D01*
X229814380Y-78827333D02*
X229338190Y-78494000D01*
X229814380Y-78255904D02*
X228814380Y-78255904D01*
X228814380Y-78636857D01*
X228862000Y-78732095D01*
X228909619Y-78779714D01*
X229004857Y-78827333D01*
X229147714Y-78827333D01*
X229242952Y-78779714D01*
X229290571Y-78732095D01*
X229338190Y-78636857D01*
X229338190Y-78255904D01*
X228814380Y-79160666D02*
X228814380Y-79827333D01*
X229814380Y-79398761D01*
X228290380Y-78827333D02*
X227814190Y-78494000D01*
X228290380Y-78255904D02*
X227290380Y-78255904D01*
X227290380Y-78636857D01*
X227338000Y-78732095D01*
X227385619Y-78779714D01*
X227480857Y-78827333D01*
X227623714Y-78827333D01*
X227718952Y-78779714D01*
X227766571Y-78732095D01*
X227814190Y-78636857D01*
X227814190Y-78255904D01*
X227290380Y-79684476D02*
X227290380Y-79494000D01*
X227338000Y-79398761D01*
X227385619Y-79351142D01*
X227528476Y-79255904D01*
X227718952Y-79208285D01*
X228099904Y-79208285D01*
X228195142Y-79255904D01*
X228242761Y-79303523D01*
X228290380Y-79398761D01*
X228290380Y-79589238D01*
X228242761Y-79684476D01*
X228195142Y-79732095D01*
X228099904Y-79779714D01*
X227861809Y-79779714D01*
X227766571Y-79732095D01*
X227718952Y-79684476D01*
X227671333Y-79589238D01*
X227671333Y-79398761D01*
X227718952Y-79303523D01*
X227766571Y-79255904D01*
X227861809Y-79208285D01*
X235910380Y-78827333D02*
X235434190Y-78494000D01*
X235910380Y-78255904D02*
X234910380Y-78255904D01*
X234910380Y-78636857D01*
X234958000Y-78732095D01*
X235005619Y-78779714D01*
X235100857Y-78827333D01*
X235243714Y-78827333D01*
X235338952Y-78779714D01*
X235386571Y-78732095D01*
X235434190Y-78636857D01*
X235434190Y-78255904D01*
X234910380Y-79732095D02*
X234910380Y-79255904D01*
X235386571Y-79208285D01*
X235338952Y-79255904D01*
X235291333Y-79351142D01*
X235291333Y-79589238D01*
X235338952Y-79684476D01*
X235386571Y-79732095D01*
X235481809Y-79779714D01*
X235719904Y-79779714D01*
X235815142Y-79732095D01*
X235862761Y-79684476D01*
X235910380Y-79589238D01*
X235910380Y-79351142D01*
X235862761Y-79255904D01*
X235815142Y-79208285D01*
X234386380Y-78827333D02*
X233910190Y-78494000D01*
X234386380Y-78255904D02*
X233386380Y-78255904D01*
X233386380Y-78636857D01*
X233434000Y-78732095D01*
X233481619Y-78779714D01*
X233576857Y-78827333D01*
X233719714Y-78827333D01*
X233814952Y-78779714D01*
X233862571Y-78732095D01*
X233910190Y-78636857D01*
X233910190Y-78255904D01*
X233719714Y-79684476D02*
X234386380Y-79684476D01*
X233338761Y-79446380D02*
X234053047Y-79208285D01*
X234053047Y-79827333D01*
X216066666Y-96464380D02*
X216400000Y-95988190D01*
X216638095Y-96464380D02*
X216638095Y-95464380D01*
X216257142Y-95464380D01*
X216161904Y-95512000D01*
X216114285Y-95559619D01*
X216066666Y-95654857D01*
X216066666Y-95797714D01*
X216114285Y-95892952D01*
X216161904Y-95940571D01*
X216257142Y-95988190D01*
X216638095Y-95988190D01*
X215733333Y-95464380D02*
X215114285Y-95464380D01*
X215447619Y-95845333D01*
X215304761Y-95845333D01*
X215209523Y-95892952D01*
X215161904Y-95940571D01*
X215114285Y-96035809D01*
X215114285Y-96273904D01*
X215161904Y-96369142D01*
X215209523Y-96416761D01*
X215304761Y-96464380D01*
X215590476Y-96464380D01*
X215685714Y-96416761D01*
X215733333Y-96369142D01*
X231338380Y-78827333D02*
X230862190Y-78494000D01*
X231338380Y-78255904D02*
X230338380Y-78255904D01*
X230338380Y-78636857D01*
X230386000Y-78732095D01*
X230433619Y-78779714D01*
X230528857Y-78827333D01*
X230671714Y-78827333D01*
X230766952Y-78779714D01*
X230814571Y-78732095D01*
X230862190Y-78636857D01*
X230862190Y-78255904D01*
X230433619Y-79208285D02*
X230386000Y-79255904D01*
X230338380Y-79351142D01*
X230338380Y-79589238D01*
X230386000Y-79684476D01*
X230433619Y-79732095D01*
X230528857Y-79779714D01*
X230624095Y-79779714D01*
X230766952Y-79732095D01*
X231338380Y-79160666D01*
X231338380Y-79779714D01*
X232862380Y-78827333D02*
X232386190Y-78494000D01*
X232862380Y-78255904D02*
X231862380Y-78255904D01*
X231862380Y-78636857D01*
X231910000Y-78732095D01*
X231957619Y-78779714D01*
X232052857Y-78827333D01*
X232195714Y-78827333D01*
X232290952Y-78779714D01*
X232338571Y-78732095D01*
X232386190Y-78636857D01*
X232386190Y-78255904D01*
X232862380Y-79779714D02*
X232862380Y-79208285D01*
X232862380Y-79494000D02*
X231862380Y-79494000D01*
X232005238Y-79398761D01*
X232100476Y-79303523D01*
X232148095Y-79208285D01*
X226036142Y-66762333D02*
X226083761Y-66714714D01*
X226131380Y-66571857D01*
X226131380Y-66476619D01*
X226083761Y-66333761D01*
X225988523Y-66238523D01*
X225893285Y-66190904D01*
X225702809Y-66143285D01*
X225559952Y-66143285D01*
X225369476Y-66190904D01*
X225274238Y-66238523D01*
X225179000Y-66333761D01*
X225131380Y-66476619D01*
X225131380Y-66571857D01*
X225179000Y-66714714D01*
X225226619Y-66762333D01*
X225131380Y-67667095D02*
X225131380Y-67190904D01*
X225607571Y-67143285D01*
X225559952Y-67190904D01*
X225512333Y-67286142D01*
X225512333Y-67524238D01*
X225559952Y-67619476D01*
X225607571Y-67667095D01*
X225702809Y-67714714D01*
X225940904Y-67714714D01*
X226036142Y-67667095D01*
X226083761Y-67619476D01*
X226131380Y-67524238D01*
X226131380Y-67286142D01*
X226083761Y-67190904D01*
X226036142Y-67143285D01*
X229338142Y-66762333D02*
X229385761Y-66714714D01*
X229433380Y-66571857D01*
X229433380Y-66476619D01*
X229385761Y-66333761D01*
X229290523Y-66238523D01*
X229195285Y-66190904D01*
X229004809Y-66143285D01*
X228861952Y-66143285D01*
X228671476Y-66190904D01*
X228576238Y-66238523D01*
X228481000Y-66333761D01*
X228433380Y-66476619D01*
X228433380Y-66571857D01*
X228481000Y-66714714D01*
X228528619Y-66762333D01*
X228766714Y-67619476D02*
X229433380Y-67619476D01*
X228385761Y-67381380D02*
X229100047Y-67143285D01*
X229100047Y-67762333D01*
X216066666Y-93829142D02*
X216114285Y-93876761D01*
X216257142Y-93924380D01*
X216352380Y-93924380D01*
X216495238Y-93876761D01*
X216590476Y-93781523D01*
X216638095Y-93686285D01*
X216685714Y-93495809D01*
X216685714Y-93352952D01*
X216638095Y-93162476D01*
X216590476Y-93067238D01*
X216495238Y-92972000D01*
X216352380Y-92924380D01*
X216257142Y-92924380D01*
X216114285Y-92972000D01*
X216066666Y-93019619D01*
X215733333Y-92924380D02*
X215114285Y-92924380D01*
X215447619Y-93305333D01*
X215304761Y-93305333D01*
X215209523Y-93352952D01*
X215161904Y-93400571D01*
X215114285Y-93495809D01*
X215114285Y-93733904D01*
X215161904Y-93829142D01*
X215209523Y-93876761D01*
X215304761Y-93924380D01*
X215590476Y-93924380D01*
X215685714Y-93876761D01*
X215733333Y-93829142D01*
X219114666Y-70969142D02*
X219162285Y-71016761D01*
X219305142Y-71064380D01*
X219400380Y-71064380D01*
X219543238Y-71016761D01*
X219638476Y-70921523D01*
X219686095Y-70826285D01*
X219733714Y-70635809D01*
X219733714Y-70492952D01*
X219686095Y-70302476D01*
X219638476Y-70207238D01*
X219543238Y-70112000D01*
X219400380Y-70064380D01*
X219305142Y-70064380D01*
X219162285Y-70112000D01*
X219114666Y-70159619D01*
X218733714Y-70159619D02*
X218686095Y-70112000D01*
X218590857Y-70064380D01*
X218352761Y-70064380D01*
X218257523Y-70112000D01*
X218209904Y-70159619D01*
X218162285Y-70254857D01*
X218162285Y-70350095D01*
X218209904Y-70492952D01*
X218781333Y-71064380D01*
X218162285Y-71064380D01*
X237593142Y-78827333D02*
X237640761Y-78779714D01*
X237688380Y-78636857D01*
X237688380Y-78541619D01*
X237640761Y-78398761D01*
X237545523Y-78303523D01*
X237450285Y-78255904D01*
X237259809Y-78208285D01*
X237116952Y-78208285D01*
X236926476Y-78255904D01*
X236831238Y-78303523D01*
X236736000Y-78398761D01*
X236688380Y-78541619D01*
X236688380Y-78636857D01*
X236736000Y-78779714D01*
X236783619Y-78827333D01*
X237688380Y-79779714D02*
X237688380Y-79208285D01*
X237688380Y-79494000D02*
X236688380Y-79494000D01*
X236831238Y-79398761D01*
X236926476Y-79303523D01*
X236974095Y-79208285D01*
M02*
