G04 #@! TF.GenerationSoftware,KiCad,Pcbnew,(5.1.5-0-10_14)*
G04 #@! TF.CreationDate,2019-12-31T01:38:16-08:00*
G04 #@! TF.ProjectId,Glue Board,476c7565-2042-46f6-9172-642e6b696361,rev?*
G04 #@! TF.SameCoordinates,Original*
G04 #@! TF.FileFunction,Legend,Top*
G04 #@! TF.FilePolarity,Positive*
%FSLAX46Y46*%
G04 Gerber Fmt 4.6, Leading zero omitted, Abs format (unit mm)*
G04 Created by KiCad (PCBNEW (5.1.5-0-10_14)) date 2019-12-31 01:38:16*
%MOMM*%
%LPD*%
G04 APERTURE LIST*
%ADD10C,0.150000*%
%ADD11C,0.127000*%
%ADD12C,0.200000*%
%ADD13C,0.120000*%
%ADD14C,0.015000*%
G04 APERTURE END LIST*
D10*
X176711428Y-50364571D02*
X176820285Y-50400857D01*
X176856571Y-50437142D01*
X176892857Y-50509714D01*
X176892857Y-50618571D01*
X176856571Y-50691142D01*
X176820285Y-50727428D01*
X176747714Y-50763714D01*
X176457428Y-50763714D01*
X176457428Y-50001714D01*
X176711428Y-50001714D01*
X176784000Y-50038000D01*
X176820285Y-50074285D01*
X176856571Y-50146857D01*
X176856571Y-50219428D01*
X176820285Y-50292000D01*
X176784000Y-50328285D01*
X176711428Y-50364571D01*
X176457428Y-50364571D01*
X177364571Y-50400857D02*
X177364571Y-50763714D01*
X177110571Y-50001714D02*
X177364571Y-50400857D01*
X177618571Y-50001714D01*
X177872571Y-50691142D02*
X177908857Y-50727428D01*
X177872571Y-50763714D01*
X177836285Y-50727428D01*
X177872571Y-50691142D01*
X177872571Y-50763714D01*
X177872571Y-50292000D02*
X177908857Y-50328285D01*
X177872571Y-50364571D01*
X177836285Y-50328285D01*
X177872571Y-50292000D01*
X177872571Y-50364571D01*
X178779714Y-50546000D02*
X179142571Y-50546000D01*
X178707142Y-50763714D02*
X178961142Y-50001714D01*
X179215142Y-50763714D01*
X179904571Y-50763714D02*
X179650571Y-50400857D01*
X179469142Y-50763714D02*
X179469142Y-50001714D01*
X179759428Y-50001714D01*
X179832000Y-50038000D01*
X179868285Y-50074285D01*
X179904571Y-50146857D01*
X179904571Y-50255714D01*
X179868285Y-50328285D01*
X179832000Y-50364571D01*
X179759428Y-50400857D01*
X179469142Y-50400857D01*
X180231142Y-50763714D02*
X180231142Y-50001714D01*
X180666571Y-50763714D02*
X180340000Y-50328285D01*
X180666571Y-50001714D02*
X180231142Y-50437142D01*
X181138285Y-50001714D02*
X181283428Y-50001714D01*
X181356000Y-50038000D01*
X181428571Y-50110571D01*
X181464857Y-50255714D01*
X181464857Y-50509714D01*
X181428571Y-50654857D01*
X181356000Y-50727428D01*
X181283428Y-50763714D01*
X181138285Y-50763714D01*
X181065714Y-50727428D01*
X180993142Y-50654857D01*
X180956857Y-50509714D01*
X180956857Y-50255714D01*
X180993142Y-50110571D01*
X181065714Y-50038000D01*
X181138285Y-50001714D01*
X177098476Y-47879000D02*
X176977523Y-47818523D01*
X176796095Y-47818523D01*
X176614666Y-47879000D01*
X176493714Y-47999952D01*
X176433238Y-48120904D01*
X176372761Y-48362809D01*
X176372761Y-48544238D01*
X176433238Y-48786142D01*
X176493714Y-48907095D01*
X176614666Y-49028047D01*
X176796095Y-49088523D01*
X176917047Y-49088523D01*
X177098476Y-49028047D01*
X177158952Y-48967571D01*
X177158952Y-48544238D01*
X176917047Y-48544238D01*
X178308000Y-49088523D02*
X177703238Y-49088523D01*
X177703238Y-47818523D01*
X178731333Y-47818523D02*
X178731333Y-48846619D01*
X178791809Y-48967571D01*
X178852285Y-49028047D01*
X178973238Y-49088523D01*
X179215142Y-49088523D01*
X179336095Y-49028047D01*
X179396571Y-48967571D01*
X179457047Y-48846619D01*
X179457047Y-47818523D01*
X180061809Y-48423285D02*
X180485142Y-48423285D01*
X180666571Y-49088523D02*
X180061809Y-49088523D01*
X180061809Y-47818523D01*
X180666571Y-47818523D01*
X182601809Y-48423285D02*
X182783238Y-48483761D01*
X182843714Y-48544238D01*
X182904190Y-48665190D01*
X182904190Y-48846619D01*
X182843714Y-48967571D01*
X182783238Y-49028047D01*
X182662285Y-49088523D01*
X182178476Y-49088523D01*
X182178476Y-47818523D01*
X182601809Y-47818523D01*
X182722761Y-47879000D01*
X182783238Y-47939476D01*
X182843714Y-48060428D01*
X182843714Y-48181380D01*
X182783238Y-48302333D01*
X182722761Y-48362809D01*
X182601809Y-48423285D01*
X182178476Y-48423285D01*
X183690380Y-47818523D02*
X183932285Y-47818523D01*
X184053238Y-47879000D01*
X184174190Y-47999952D01*
X184234666Y-48241857D01*
X184234666Y-48665190D01*
X184174190Y-48907095D01*
X184053238Y-49028047D01*
X183932285Y-49088523D01*
X183690380Y-49088523D01*
X183569428Y-49028047D01*
X183448476Y-48907095D01*
X183388000Y-48665190D01*
X183388000Y-48241857D01*
X183448476Y-47999952D01*
X183569428Y-47879000D01*
X183690380Y-47818523D01*
X184718476Y-48725666D02*
X185323238Y-48725666D01*
X184597523Y-49088523D02*
X185020857Y-47818523D01*
X185444190Y-49088523D01*
X186593238Y-49088523D02*
X186169904Y-48483761D01*
X185867523Y-49088523D02*
X185867523Y-47818523D01*
X186351333Y-47818523D01*
X186472285Y-47879000D01*
X186532761Y-47939476D01*
X186593238Y-48060428D01*
X186593238Y-48241857D01*
X186532761Y-48362809D01*
X186472285Y-48423285D01*
X186351333Y-48483761D01*
X185867523Y-48483761D01*
X187137523Y-49088523D02*
X187137523Y-47818523D01*
X187439904Y-47818523D01*
X187621333Y-47879000D01*
X187742285Y-47999952D01*
X187802761Y-48120904D01*
X187863238Y-48362809D01*
X187863238Y-48544238D01*
X187802761Y-48786142D01*
X187742285Y-48907095D01*
X187621333Y-49028047D01*
X187439904Y-49088523D01*
X187137523Y-49088523D01*
D11*
X187252428Y-97572285D02*
X187288714Y-97463428D01*
X187288714Y-97282000D01*
X187252428Y-97209428D01*
X187216142Y-97173142D01*
X187143571Y-97136857D01*
X187071000Y-97136857D01*
X186998428Y-97173142D01*
X186962142Y-97209428D01*
X186925857Y-97282000D01*
X186889571Y-97427142D01*
X186853285Y-97499714D01*
X186817000Y-97536000D01*
X186744428Y-97572285D01*
X186671857Y-97572285D01*
X186599285Y-97536000D01*
X186563000Y-97499714D01*
X186526714Y-97427142D01*
X186526714Y-97245714D01*
X186563000Y-97136857D01*
X187288714Y-96810285D02*
X186526714Y-96810285D01*
X186889571Y-96810285D02*
X186889571Y-96374857D01*
X187288714Y-96374857D02*
X186526714Y-96374857D01*
X187288714Y-96012000D02*
X186526714Y-96012000D01*
X186526714Y-95758000D02*
X186526714Y-95322571D01*
X187288714Y-95540285D02*
X186526714Y-95540285D01*
X186526714Y-95177428D02*
X186526714Y-94742000D01*
X187288714Y-94959714D02*
X186526714Y-94959714D01*
X186925857Y-94342857D02*
X187288714Y-94342857D01*
X186526714Y-94596857D02*
X186925857Y-94342857D01*
X186526714Y-94088857D01*
X187071000Y-93290571D02*
X187071000Y-92927714D01*
X187288714Y-93363142D02*
X186526714Y-93109142D01*
X187288714Y-92855142D01*
X187288714Y-92601142D02*
X186526714Y-92601142D01*
X186526714Y-92419714D01*
X186563000Y-92310857D01*
X186635571Y-92238285D01*
X186708142Y-92202000D01*
X186853285Y-92165714D01*
X186962142Y-92165714D01*
X187107285Y-92202000D01*
X187179857Y-92238285D01*
X187252428Y-92310857D01*
X187288714Y-92419714D01*
X187288714Y-92601142D01*
X187288714Y-91839142D02*
X186526714Y-91839142D01*
X186526714Y-91657714D01*
X186563000Y-91548857D01*
X186635571Y-91476285D01*
X186708142Y-91440000D01*
X186853285Y-91403714D01*
X186962142Y-91403714D01*
X187107285Y-91440000D01*
X187179857Y-91476285D01*
X187252428Y-91548857D01*
X187288714Y-91657714D01*
X187288714Y-91839142D01*
X186998428Y-91077142D02*
X186998428Y-90496571D01*
X186526714Y-89988571D02*
X186526714Y-89843428D01*
X186563000Y-89770857D01*
X186635571Y-89698285D01*
X186780714Y-89662000D01*
X187034714Y-89662000D01*
X187179857Y-89698285D01*
X187252428Y-89770857D01*
X187288714Y-89843428D01*
X187288714Y-89988571D01*
X187252428Y-90061142D01*
X187179857Y-90133714D01*
X187034714Y-90170000D01*
X186780714Y-90170000D01*
X186635571Y-90133714D01*
X186563000Y-90061142D01*
X186526714Y-89988571D01*
X187288714Y-89335428D02*
X186526714Y-89335428D01*
X187288714Y-88900000D01*
X186526714Y-88900000D01*
X187796714Y-96139000D02*
X188558714Y-95885000D01*
X187796714Y-95631000D01*
X188486142Y-95377000D02*
X188522428Y-95340714D01*
X188558714Y-95377000D01*
X188522428Y-95413285D01*
X188486142Y-95377000D01*
X188558714Y-95377000D01*
X188558714Y-94034428D02*
X188558714Y-94469857D01*
X188558714Y-94252142D02*
X187796714Y-94252142D01*
X187905571Y-94324714D01*
X187978142Y-94397285D01*
X188014428Y-94469857D01*
X188486142Y-93707857D02*
X188522428Y-93671571D01*
X188558714Y-93707857D01*
X188522428Y-93744142D01*
X188486142Y-93707857D01*
X188558714Y-93707857D01*
X187796714Y-93018428D02*
X187796714Y-93163571D01*
X187833000Y-93236142D01*
X187869285Y-93272428D01*
X187978142Y-93345000D01*
X188123285Y-93381285D01*
X188413571Y-93381285D01*
X188486142Y-93345000D01*
X188522428Y-93308714D01*
X188558714Y-93236142D01*
X188558714Y-93091000D01*
X188522428Y-93018428D01*
X188486142Y-92982142D01*
X188413571Y-92945857D01*
X188232142Y-92945857D01*
X188159571Y-92982142D01*
X188123285Y-93018428D01*
X188087000Y-93091000D01*
X188087000Y-93236142D01*
X188123285Y-93308714D01*
X188159571Y-93345000D01*
X188232142Y-93381285D01*
X188558714Y-92583000D02*
X188558714Y-92437857D01*
X188522428Y-92365285D01*
X188486142Y-92329000D01*
X188377285Y-92256428D01*
X188232142Y-92220142D01*
X187941857Y-92220142D01*
X187869285Y-92256428D01*
X187833000Y-92292714D01*
X187796714Y-92365285D01*
X187796714Y-92510428D01*
X187833000Y-92583000D01*
X187869285Y-92619285D01*
X187941857Y-92655571D01*
X188123285Y-92655571D01*
X188195857Y-92619285D01*
X188232142Y-92583000D01*
X188268428Y-92510428D01*
X188268428Y-92365285D01*
X188232142Y-92292714D01*
X188195857Y-92256428D01*
X188123285Y-92220142D01*
X188159571Y-91639571D02*
X188195857Y-91530714D01*
X188232142Y-91494428D01*
X188304714Y-91458142D01*
X188413571Y-91458142D01*
X188486142Y-91494428D01*
X188522428Y-91530714D01*
X188558714Y-91603285D01*
X188558714Y-91893571D01*
X187796714Y-91893571D01*
X187796714Y-91639571D01*
X187833000Y-91567000D01*
X187869285Y-91530714D01*
X187941857Y-91494428D01*
X188014428Y-91494428D01*
X188087000Y-91530714D01*
X188123285Y-91567000D01*
X188159571Y-91639571D01*
X188159571Y-91893571D01*
X188558714Y-91131571D02*
X187796714Y-91131571D01*
X188522428Y-90805000D02*
X188558714Y-90696142D01*
X188558714Y-90514714D01*
X188522428Y-90442142D01*
X188486142Y-90405857D01*
X188413571Y-90369571D01*
X188341000Y-90369571D01*
X188268428Y-90405857D01*
X188232142Y-90442142D01*
X188195857Y-90514714D01*
X188159571Y-90659857D01*
X188123285Y-90732428D01*
X188087000Y-90768714D01*
X188014428Y-90805000D01*
X187941857Y-90805000D01*
X187869285Y-90768714D01*
X187833000Y-90732428D01*
X187796714Y-90659857D01*
X187796714Y-90478428D01*
X187833000Y-90369571D01*
X189756142Y-95703571D02*
X189792428Y-95739857D01*
X189828714Y-95848714D01*
X189828714Y-95921285D01*
X189792428Y-96030142D01*
X189719857Y-96102714D01*
X189647285Y-96139000D01*
X189502142Y-96175285D01*
X189393285Y-96175285D01*
X189248142Y-96139000D01*
X189175571Y-96102714D01*
X189103000Y-96030142D01*
X189066714Y-95921285D01*
X189066714Y-95848714D01*
X189103000Y-95739857D01*
X189139285Y-95703571D01*
X189066714Y-95231857D02*
X189066714Y-95086714D01*
X189103000Y-95014142D01*
X189175571Y-94941571D01*
X189320714Y-94905285D01*
X189574714Y-94905285D01*
X189719857Y-94941571D01*
X189792428Y-95014142D01*
X189828714Y-95086714D01*
X189828714Y-95231857D01*
X189792428Y-95304428D01*
X189719857Y-95377000D01*
X189574714Y-95413285D01*
X189320714Y-95413285D01*
X189175571Y-95377000D01*
X189103000Y-95304428D01*
X189066714Y-95231857D01*
X189828714Y-94578714D02*
X189066714Y-94578714D01*
X189611000Y-94324714D01*
X189066714Y-94070714D01*
X189828714Y-94070714D01*
X189828714Y-93707857D02*
X189066714Y-93707857D01*
X189066714Y-93417571D01*
X189103000Y-93345000D01*
X189139285Y-93308714D01*
X189211857Y-93272428D01*
X189320714Y-93272428D01*
X189393285Y-93308714D01*
X189429571Y-93345000D01*
X189465857Y-93417571D01*
X189465857Y-93707857D01*
X189828714Y-92583000D02*
X189828714Y-92945857D01*
X189066714Y-92945857D01*
X189828714Y-92329000D02*
X189066714Y-92329000D01*
X189611000Y-92002428D02*
X189611000Y-91639571D01*
X189828714Y-92075000D02*
X189066714Y-91821000D01*
X189828714Y-91567000D01*
X189828714Y-91313000D02*
X189066714Y-91313000D01*
X189828714Y-90877571D01*
X189066714Y-90877571D01*
X189066714Y-90623571D02*
X189066714Y-90188142D01*
X189828714Y-90405857D02*
X189066714Y-90405857D01*
X210924000Y-98172000D02*
X210924000Y-65972000D01*
X210924000Y-98172000D02*
X225924000Y-98172000D01*
X225924000Y-98172000D02*
X225924000Y-65972000D01*
X225924000Y-65972000D02*
X210924000Y-65972000D01*
D12*
X208964000Y-65197000D02*
G75*
G03X208964000Y-65197000I-100000J0D01*
G01*
X187674000Y-55584000D02*
G75*
G03X187674000Y-55584000I-100000J0D01*
G01*
D11*
X182694000Y-58684000D02*
X183154000Y-58684000D01*
X182694000Y-66284000D02*
X182694000Y-58684000D01*
X183154000Y-66284000D02*
X182694000Y-66284000D01*
X188654000Y-66284000D02*
X188194000Y-66284000D01*
X188654000Y-58684000D02*
X188654000Y-66284000D01*
X188194000Y-58684000D02*
X188654000Y-58684000D01*
D13*
X202196000Y-88420000D02*
X202196000Y-90960000D01*
X202196000Y-88420000D02*
X199656000Y-88420000D01*
X201946000Y-88670000D02*
X201946000Y-98020000D01*
X186166000Y-88670000D02*
X201946000Y-88670000D01*
X186166000Y-98020000D02*
X186166000Y-88670000D01*
X201946000Y-98020000D02*
X186166000Y-98020000D01*
X203902000Y-87062000D02*
X205232000Y-87062000D01*
X203902000Y-88392000D02*
X203902000Y-87062000D01*
X203902000Y-89662000D02*
X206562000Y-89662000D01*
X206562000Y-89662000D02*
X206562000Y-97342000D01*
X203902000Y-89662000D02*
X203902000Y-97342000D01*
X203902000Y-97342000D02*
X206562000Y-97342000D01*
X176685000Y-77204000D02*
X176385000Y-77204000D01*
X181455000Y-77204000D02*
X181755000Y-77204000D01*
X181405000Y-83324000D02*
X181755000Y-83324000D01*
X176385000Y-77204000D02*
X176385000Y-83324000D01*
X181755000Y-77204000D02*
X181755000Y-83324000D01*
D10*
X191531000Y-58463000D02*
X191531000Y-59863000D01*
X196631000Y-58463000D02*
X196631000Y-54313000D01*
X191481000Y-58463000D02*
X191481000Y-54313000D01*
X196631000Y-58463000D02*
X196486000Y-58463000D01*
X196631000Y-54313000D02*
X196486000Y-54313000D01*
X191481000Y-54313000D02*
X191626000Y-54313000D01*
X191481000Y-58463000D02*
X191531000Y-58463000D01*
D13*
X172523000Y-80518000D02*
G75*
G03X172523000Y-80518000I-1200000J0D01*
G01*
X164594000Y-79918779D02*
X164594000Y-79593221D01*
X163574000Y-79918779D02*
X163574000Y-79593221D01*
X174750000Y-93563221D02*
X174750000Y-93888779D01*
X175770000Y-93563221D02*
X175770000Y-93888779D01*
X166372000Y-87665779D02*
X166372000Y-87340221D01*
X165352000Y-87665779D02*
X165352000Y-87340221D01*
X172464000Y-87340221D02*
X172464000Y-87665779D01*
X173484000Y-87340221D02*
X173484000Y-87665779D01*
X164594000Y-87665779D02*
X164594000Y-87340221D01*
X163574000Y-87665779D02*
X163574000Y-87340221D01*
X174242000Y-87340221D02*
X174242000Y-87665779D01*
X175262000Y-87340221D02*
X175262000Y-87665779D01*
X168908000Y-87340221D02*
X168908000Y-87665779D01*
X169928000Y-87340221D02*
X169928000Y-87665779D01*
X170686000Y-87340221D02*
X170686000Y-87665779D01*
X171706000Y-87340221D02*
X171706000Y-87665779D01*
X176020000Y-87340221D02*
X176020000Y-87665779D01*
X177040000Y-87340221D02*
X177040000Y-87665779D01*
X167130000Y-87340221D02*
X167130000Y-87665779D01*
X168150000Y-87340221D02*
X168150000Y-87665779D01*
X170686000Y-93563221D02*
X170686000Y-93888779D01*
X171706000Y-93563221D02*
X171706000Y-93888779D01*
X197099000Y-46710000D02*
X196099000Y-46710000D01*
X197099000Y-46710000D02*
X197099000Y-47710000D01*
X189099000Y-49910000D02*
X192699000Y-49910000D01*
X189099000Y-49060000D02*
X189099000Y-49910000D01*
X188899000Y-49060000D02*
X189099000Y-49060000D01*
X188899000Y-48260000D02*
X188899000Y-49060000D01*
X189099000Y-48260000D02*
X188899000Y-48260000D01*
X189099000Y-47510000D02*
X189099000Y-48260000D01*
X192699000Y-47510000D02*
X189099000Y-47510000D01*
X196299000Y-49910000D02*
X192699000Y-49910000D01*
X196299000Y-49060000D02*
X196299000Y-49910000D01*
X196499000Y-49060000D02*
X196299000Y-49060000D01*
X196499000Y-48260000D02*
X196499000Y-49060000D01*
X196299000Y-48260000D02*
X196499000Y-48260000D01*
X196299000Y-47510000D02*
X196299000Y-48260000D01*
X192699000Y-47510000D02*
X196299000Y-47510000D01*
X188589000Y-50420000D02*
X196809000Y-50420000D01*
X188589000Y-47000000D02*
X188589000Y-50420000D01*
X196809000Y-47000000D02*
X188589000Y-47000000D01*
X196809000Y-50420000D02*
X196809000Y-47000000D01*
X167584000Y-47542000D02*
X167584000Y-48792000D01*
X168834000Y-47542000D02*
X167584000Y-47542000D01*
X174734000Y-53042000D02*
X171684000Y-53042000D01*
X174734000Y-50092000D02*
X174734000Y-53042000D01*
X175484000Y-50092000D02*
X174734000Y-50092000D01*
X171684000Y-53042000D02*
X169694000Y-53042000D01*
X168634000Y-50092000D02*
X168634000Y-51432000D01*
X167884000Y-50092000D02*
X168634000Y-50092000D01*
X175484000Y-47842000D02*
X173684000Y-47842000D01*
X175484000Y-48592000D02*
X175484000Y-47842000D01*
X173684000Y-48592000D02*
X175484000Y-48592000D01*
X173684000Y-47842000D02*
X173684000Y-48592000D01*
X169684000Y-47842000D02*
X167884000Y-47842000D01*
X169684000Y-48592000D02*
X169684000Y-47842000D01*
X167884000Y-48592000D02*
X169684000Y-48592000D01*
X167884000Y-47842000D02*
X167884000Y-48592000D01*
X172184000Y-47842000D02*
X171184000Y-47842000D01*
X172184000Y-48592000D02*
X172184000Y-47842000D01*
X171184000Y-48592000D02*
X172184000Y-48592000D01*
X171184000Y-47842000D02*
X171184000Y-48592000D01*
X175494000Y-47832000D02*
X167874000Y-47832000D01*
X175494000Y-53802000D02*
X175494000Y-47832000D01*
X167874000Y-53802000D02*
X175494000Y-53802000D01*
X167874000Y-47832000D02*
X167874000Y-53802000D01*
X167505000Y-82041000D02*
X167505000Y-78156000D01*
X165235000Y-82041000D02*
X167505000Y-82041000D01*
X165235000Y-78156000D02*
X165235000Y-82041000D01*
X183637422Y-78815000D02*
X184154578Y-78815000D01*
X183637422Y-77395000D02*
X184154578Y-77395000D01*
X183637422Y-81101000D02*
X184154578Y-81101000D01*
X183637422Y-79681000D02*
X184154578Y-79681000D01*
X177852000Y-87244422D02*
X177852000Y-87761578D01*
X179272000Y-87244422D02*
X179272000Y-87761578D01*
X172518000Y-93467422D02*
X172518000Y-93984578D01*
X173938000Y-93467422D02*
X173938000Y-93984578D01*
X208026000Y-46990000D02*
X197866000Y-46990000D01*
X208026000Y-54610000D02*
X208026000Y-46990000D01*
X197866000Y-54610000D02*
X208026000Y-54610000D01*
X197866000Y-46990000D02*
X197866000Y-54610000D01*
X197866000Y-48260000D02*
X208026000Y-48260000D01*
X208026000Y-55626000D02*
X197866000Y-55626000D01*
X208026000Y-63246000D02*
X208026000Y-55626000D01*
X197866000Y-63246000D02*
X208026000Y-63246000D01*
X197866000Y-55626000D02*
X197866000Y-63246000D01*
X197866000Y-56896000D02*
X208026000Y-56896000D01*
X201362000Y-66742000D02*
X202692000Y-66742000D01*
X201362000Y-68072000D02*
X201362000Y-66742000D01*
X203962000Y-66742000D02*
X206562000Y-66742000D01*
X203962000Y-69342000D02*
X203962000Y-66742000D01*
X201362000Y-69342000D02*
X203962000Y-69342000D01*
X206562000Y-66742000D02*
X206562000Y-82102000D01*
X201362000Y-69342000D02*
X201362000Y-82102000D01*
X201362000Y-82102000D02*
X206562000Y-82102000D01*
X208728000Y-47184000D02*
X210058000Y-47184000D01*
X208728000Y-48514000D02*
X208728000Y-47184000D01*
X208728000Y-49784000D02*
X211388000Y-49784000D01*
X211388000Y-49784000D02*
X211388000Y-52384000D01*
X208728000Y-49784000D02*
X208728000Y-52384000D01*
X208728000Y-52384000D02*
X211388000Y-52384000D01*
X211388000Y-62798000D02*
X210058000Y-62798000D01*
X211388000Y-61468000D02*
X211388000Y-62798000D01*
X211388000Y-60198000D02*
X208728000Y-60198000D01*
X208728000Y-60198000D02*
X208728000Y-57598000D01*
X211388000Y-60198000D02*
X211388000Y-57598000D01*
X211388000Y-57598000D02*
X208728000Y-57598000D01*
X238978000Y-64262000D02*
G75*
G03X238978000Y-64262000I-2250000J0D01*
G01*
X238978000Y-77216000D02*
G75*
G03X238978000Y-77216000I-2250000J0D01*
G01*
X238978000Y-70612000D02*
G75*
G03X238978000Y-70612000I-2250000J0D01*
G01*
X228498000Y-97216000D02*
G75*
G02X228498000Y-94996000I0J1110000D01*
G01*
X239798000Y-94996000D02*
G75*
G02X239798000Y-97216000I0J-1110000D01*
G01*
X229088000Y-99316000D02*
X229088000Y-97216000D01*
X239798000Y-94996000D02*
X239208000Y-94996000D01*
X239798000Y-97216000D02*
X239208000Y-97216000D01*
X229088000Y-97216000D02*
X228498000Y-97216000D01*
X229088000Y-94996000D02*
X228498000Y-94996000D01*
X229088000Y-94996000D02*
X229088000Y-90096000D01*
X239208000Y-99316000D02*
X239208000Y-97216000D01*
X239208000Y-94996000D02*
X239208000Y-90096000D01*
X239208000Y-90096000D02*
X229088000Y-90096000D01*
X239208000Y-99316000D02*
X229088000Y-99316000D01*
X234304000Y-60734000D02*
X234304000Y-58134000D01*
X249004000Y-60734000D02*
X234304000Y-60734000D01*
X234304000Y-51534000D02*
X236204000Y-51534000D01*
X234304000Y-54234000D02*
X234304000Y-51534000D01*
X249004000Y-51534000D02*
X249004000Y-60734000D01*
X240204000Y-51534000D02*
X249004000Y-51534000D01*
X235154000Y-60934000D02*
X234104000Y-60934000D01*
X234104000Y-59884000D02*
X234104000Y-60934000D01*
X225146000Y-48580000D02*
G75*
G02X225146000Y-50800000I0J-1110000D01*
G01*
X213846000Y-50800000D02*
G75*
G02X213846000Y-48580000I0J1110000D01*
G01*
X224556000Y-46480000D02*
X224556000Y-48580000D01*
X213846000Y-50800000D02*
X214436000Y-50800000D01*
X213846000Y-48580000D02*
X214436000Y-48580000D01*
X224556000Y-48580000D02*
X225146000Y-48580000D01*
X224556000Y-50800000D02*
X225146000Y-50800000D01*
X224556000Y-50800000D02*
X224556000Y-55700000D01*
X214436000Y-46480000D02*
X214436000Y-48580000D01*
X214436000Y-50800000D02*
X214436000Y-55700000D01*
X214436000Y-55700000D02*
X224556000Y-55700000D01*
X214436000Y-46480000D02*
X224556000Y-46480000D01*
D12*
X228424000Y-76054000D02*
G75*
G03X228424000Y-76054000I-100000J0D01*
G01*
D10*
X192431000Y-70178000D02*
X191356000Y-70178000D01*
X192431000Y-73253000D02*
X195681000Y-73253000D01*
X192431000Y-70003000D02*
X195681000Y-70003000D01*
X192431000Y-73253000D02*
X192431000Y-72978000D01*
X195681000Y-73253000D02*
X195681000Y-72978000D01*
X195681000Y-70003000D02*
X195681000Y-70278000D01*
X192431000Y-70003000D02*
X192431000Y-70178000D01*
D13*
X164260000Y-73476000D02*
X164260000Y-75176000D01*
X163060000Y-73476000D02*
X164260000Y-73476000D01*
X163060000Y-73376000D02*
X163060000Y-73476000D01*
X163060000Y-57376000D02*
X163060000Y-73376000D01*
X180460000Y-73476000D02*
X179260000Y-73476000D01*
X180460000Y-57376000D02*
X180460000Y-73476000D01*
X180460000Y-57276000D02*
X179260000Y-57276000D01*
X180460000Y-57376000D02*
X180460000Y-57276000D01*
X163060000Y-57276000D02*
X164260000Y-57276000D01*
X163060000Y-57376000D02*
X163060000Y-57276000D01*
D10*
X191731000Y-77800000D02*
X190656000Y-77800000D01*
X191731000Y-87525000D02*
X196381000Y-87525000D01*
X191731000Y-77575000D02*
X196381000Y-77575000D01*
X191731000Y-87525000D02*
X191731000Y-87200000D01*
X196381000Y-87525000D02*
X196381000Y-87200000D01*
X196381000Y-77575000D02*
X196381000Y-77900000D01*
X191731000Y-77575000D02*
X191731000Y-77800000D01*
X227782380Y-68270285D02*
X226782380Y-68270285D01*
X226782380Y-67889333D01*
X226830000Y-67794095D01*
X226877619Y-67746476D01*
X226972857Y-67698857D01*
X227115714Y-67698857D01*
X227210952Y-67746476D01*
X227258571Y-67794095D01*
X227306190Y-67889333D01*
X227306190Y-68270285D01*
X227734761Y-67317904D02*
X227782380Y-67175047D01*
X227782380Y-66936952D01*
X227734761Y-66841714D01*
X227687142Y-66794095D01*
X227591904Y-66746476D01*
X227496666Y-66746476D01*
X227401428Y-66794095D01*
X227353809Y-66841714D01*
X227306190Y-66936952D01*
X227258571Y-67127428D01*
X227210952Y-67222666D01*
X227163333Y-67270285D01*
X227068095Y-67317904D01*
X226972857Y-67317904D01*
X226877619Y-67270285D01*
X226830000Y-67222666D01*
X226782380Y-67127428D01*
X226782380Y-66889333D01*
X226830000Y-66746476D01*
X227782380Y-65794095D02*
X227782380Y-66365523D01*
X227782380Y-66079809D02*
X226782380Y-66079809D01*
X226925238Y-66175047D01*
X227020476Y-66270285D01*
X227068095Y-66365523D01*
X181062380Y-63245904D02*
X181871904Y-63245904D01*
X181967142Y-63198285D01*
X182014761Y-63150666D01*
X182062380Y-63055428D01*
X182062380Y-62864952D01*
X182014761Y-62769714D01*
X181967142Y-62722095D01*
X181871904Y-62674476D01*
X181062380Y-62674476D01*
X181062380Y-62293523D02*
X181062380Y-61626857D01*
X182062380Y-62055428D01*
X184324666Y-96861380D02*
X184324666Y-97575666D01*
X184277047Y-97718523D01*
X184181809Y-97813761D01*
X184038952Y-97861380D01*
X183943714Y-97861380D01*
X184943714Y-97289952D02*
X184848476Y-97242333D01*
X184800857Y-97194714D01*
X184753238Y-97099476D01*
X184753238Y-97051857D01*
X184800857Y-96956619D01*
X184848476Y-96909000D01*
X184943714Y-96861380D01*
X185134190Y-96861380D01*
X185229428Y-96909000D01*
X185277047Y-96956619D01*
X185324666Y-97051857D01*
X185324666Y-97099476D01*
X185277047Y-97194714D01*
X185229428Y-97242333D01*
X185134190Y-97289952D01*
X184943714Y-97289952D01*
X184848476Y-97337571D01*
X184800857Y-97385190D01*
X184753238Y-97480428D01*
X184753238Y-97670904D01*
X184800857Y-97766142D01*
X184848476Y-97813761D01*
X184943714Y-97861380D01*
X185134190Y-97861380D01*
X185229428Y-97813761D01*
X185277047Y-97766142D01*
X185324666Y-97670904D01*
X185324666Y-97480428D01*
X185277047Y-97385190D01*
X185229428Y-97337571D01*
X185134190Y-97289952D01*
X204898666Y-85050380D02*
X204898666Y-85764666D01*
X204851047Y-85907523D01*
X204755809Y-86002761D01*
X204612952Y-86050380D01*
X204517714Y-86050380D01*
X205279619Y-85050380D02*
X205946285Y-85050380D01*
X205517714Y-86050380D01*
X183038761Y-83351619D02*
X182943523Y-83304000D01*
X182848285Y-83208761D01*
X182705428Y-83065904D01*
X182610190Y-83018285D01*
X182514952Y-83018285D01*
X182562571Y-83256380D02*
X182467333Y-83208761D01*
X182372095Y-83113523D01*
X182324476Y-82923047D01*
X182324476Y-82589714D01*
X182372095Y-82399238D01*
X182467333Y-82304000D01*
X182562571Y-82256380D01*
X182753047Y-82256380D01*
X182848285Y-82304000D01*
X182943523Y-82399238D01*
X182991142Y-82589714D01*
X182991142Y-82923047D01*
X182943523Y-83113523D01*
X182848285Y-83208761D01*
X182753047Y-83256380D01*
X182562571Y-83256380D01*
X183943523Y-83256380D02*
X183372095Y-83256380D01*
X183657809Y-83256380D02*
X183657809Y-82256380D01*
X183562571Y-82399238D01*
X183467333Y-82494476D01*
X183372095Y-82542095D01*
X190008380Y-57149904D02*
X190817904Y-57149904D01*
X190913142Y-57102285D01*
X190960761Y-57054666D01*
X191008380Y-56959428D01*
X191008380Y-56768952D01*
X190960761Y-56673714D01*
X190913142Y-56626095D01*
X190817904Y-56578476D01*
X190008380Y-56578476D01*
X190103619Y-56149904D02*
X190056000Y-56102285D01*
X190008380Y-56007047D01*
X190008380Y-55768952D01*
X190056000Y-55673714D01*
X190103619Y-55626095D01*
X190198857Y-55578476D01*
X190294095Y-55578476D01*
X190436952Y-55626095D01*
X191008380Y-56197523D01*
X191008380Y-55578476D01*
X170775380Y-78985904D02*
X170775380Y-78414476D01*
X171775380Y-78700190D02*
X170775380Y-78700190D01*
X171775380Y-78081142D02*
X170775380Y-78081142D01*
X170775380Y-77700190D01*
X170823000Y-77604952D01*
X170870619Y-77557333D01*
X170965857Y-77509714D01*
X171108714Y-77509714D01*
X171203952Y-77557333D01*
X171251571Y-77604952D01*
X171299190Y-77700190D01*
X171299190Y-78081142D01*
X171775380Y-76557333D02*
X171775380Y-77128761D01*
X171775380Y-76843047D02*
X170775380Y-76843047D01*
X170918238Y-76938285D01*
X171013476Y-77033523D01*
X171061095Y-77128761D01*
X164536380Y-83700857D02*
X164060190Y-84034190D01*
X164536380Y-84272285D02*
X163536380Y-84272285D01*
X163536380Y-83891333D01*
X163584000Y-83796095D01*
X163631619Y-83748476D01*
X163726857Y-83700857D01*
X163869714Y-83700857D01*
X163964952Y-83748476D01*
X164012571Y-83796095D01*
X164060190Y-83891333D01*
X164060190Y-84272285D01*
X163536380Y-83367523D02*
X163536380Y-82748476D01*
X163917333Y-83081809D01*
X163917333Y-82938952D01*
X163964952Y-82843714D01*
X164012571Y-82796095D01*
X164107809Y-82748476D01*
X164345904Y-82748476D01*
X164441142Y-82796095D01*
X164488761Y-82843714D01*
X164536380Y-82938952D01*
X164536380Y-83224666D01*
X164488761Y-83319904D01*
X164441142Y-83367523D01*
X163536380Y-82129428D02*
X163536380Y-82034190D01*
X163584000Y-81938952D01*
X163631619Y-81891333D01*
X163726857Y-81843714D01*
X163917333Y-81796095D01*
X164155428Y-81796095D01*
X164345904Y-81843714D01*
X164441142Y-81891333D01*
X164488761Y-81938952D01*
X164536380Y-82034190D01*
X164536380Y-82129428D01*
X164488761Y-82224666D01*
X164441142Y-82272285D01*
X164345904Y-82319904D01*
X164155428Y-82367523D01*
X163917333Y-82367523D01*
X163726857Y-82319904D01*
X163631619Y-82272285D01*
X163584000Y-82224666D01*
X163536380Y-82129428D01*
X175712380Y-97670857D02*
X175236190Y-98004190D01*
X175712380Y-98242285D02*
X174712380Y-98242285D01*
X174712380Y-97861333D01*
X174760000Y-97766095D01*
X174807619Y-97718476D01*
X174902857Y-97670857D01*
X175045714Y-97670857D01*
X175140952Y-97718476D01*
X175188571Y-97766095D01*
X175236190Y-97861333D01*
X175236190Y-98242285D01*
X174807619Y-97289904D02*
X174760000Y-97242285D01*
X174712380Y-97147047D01*
X174712380Y-96908952D01*
X174760000Y-96813714D01*
X174807619Y-96766095D01*
X174902857Y-96718476D01*
X174998095Y-96718476D01*
X175140952Y-96766095D01*
X175712380Y-97337523D01*
X175712380Y-96718476D01*
X175140952Y-96147047D02*
X175093333Y-96242285D01*
X175045714Y-96289904D01*
X174950476Y-96337523D01*
X174902857Y-96337523D01*
X174807619Y-96289904D01*
X174760000Y-96242285D01*
X174712380Y-96147047D01*
X174712380Y-95956571D01*
X174760000Y-95861333D01*
X174807619Y-95813714D01*
X174902857Y-95766095D01*
X174950476Y-95766095D01*
X175045714Y-95813714D01*
X175093333Y-95861333D01*
X175140952Y-95956571D01*
X175140952Y-96147047D01*
X175188571Y-96242285D01*
X175236190Y-96289904D01*
X175331428Y-96337523D01*
X175521904Y-96337523D01*
X175617142Y-96289904D01*
X175664761Y-96242285D01*
X175712380Y-96147047D01*
X175712380Y-95956571D01*
X175664761Y-95861333D01*
X175617142Y-95813714D01*
X175521904Y-95766095D01*
X175331428Y-95766095D01*
X175236190Y-95813714D01*
X175188571Y-95861333D01*
X175140952Y-95956571D01*
X166314380Y-91193857D02*
X165838190Y-91527190D01*
X166314380Y-91765285D02*
X165314380Y-91765285D01*
X165314380Y-91384333D01*
X165362000Y-91289095D01*
X165409619Y-91241476D01*
X165504857Y-91193857D01*
X165647714Y-91193857D01*
X165742952Y-91241476D01*
X165790571Y-91289095D01*
X165838190Y-91384333D01*
X165838190Y-91765285D01*
X165409619Y-90812904D02*
X165362000Y-90765285D01*
X165314380Y-90670047D01*
X165314380Y-90431952D01*
X165362000Y-90336714D01*
X165409619Y-90289095D01*
X165504857Y-90241476D01*
X165600095Y-90241476D01*
X165742952Y-90289095D01*
X166314380Y-90860523D01*
X166314380Y-90241476D01*
X165314380Y-89908142D02*
X165314380Y-89241476D01*
X166314380Y-89670047D01*
X173426380Y-91193857D02*
X172950190Y-91527190D01*
X173426380Y-91765285D02*
X172426380Y-91765285D01*
X172426380Y-91384333D01*
X172474000Y-91289095D01*
X172521619Y-91241476D01*
X172616857Y-91193857D01*
X172759714Y-91193857D01*
X172854952Y-91241476D01*
X172902571Y-91289095D01*
X172950190Y-91384333D01*
X172950190Y-91765285D01*
X172521619Y-90812904D02*
X172474000Y-90765285D01*
X172426380Y-90670047D01*
X172426380Y-90431952D01*
X172474000Y-90336714D01*
X172521619Y-90289095D01*
X172616857Y-90241476D01*
X172712095Y-90241476D01*
X172854952Y-90289095D01*
X173426380Y-90860523D01*
X173426380Y-90241476D01*
X172426380Y-89384333D02*
X172426380Y-89574809D01*
X172474000Y-89670047D01*
X172521619Y-89717666D01*
X172664476Y-89812904D01*
X172854952Y-89860523D01*
X173235904Y-89860523D01*
X173331142Y-89812904D01*
X173378761Y-89765285D01*
X173426380Y-89670047D01*
X173426380Y-89479571D01*
X173378761Y-89384333D01*
X173331142Y-89336714D01*
X173235904Y-89289095D01*
X172997809Y-89289095D01*
X172902571Y-89336714D01*
X172854952Y-89384333D01*
X172807333Y-89479571D01*
X172807333Y-89670047D01*
X172854952Y-89765285D01*
X172902571Y-89812904D01*
X172997809Y-89860523D01*
X164536380Y-91193857D02*
X164060190Y-91527190D01*
X164536380Y-91765285D02*
X163536380Y-91765285D01*
X163536380Y-91384333D01*
X163584000Y-91289095D01*
X163631619Y-91241476D01*
X163726857Y-91193857D01*
X163869714Y-91193857D01*
X163964952Y-91241476D01*
X164012571Y-91289095D01*
X164060190Y-91384333D01*
X164060190Y-91765285D01*
X163631619Y-90812904D02*
X163584000Y-90765285D01*
X163536380Y-90670047D01*
X163536380Y-90431952D01*
X163584000Y-90336714D01*
X163631619Y-90289095D01*
X163726857Y-90241476D01*
X163822095Y-90241476D01*
X163964952Y-90289095D01*
X164536380Y-90860523D01*
X164536380Y-90241476D01*
X163536380Y-89336714D02*
X163536380Y-89812904D01*
X164012571Y-89860523D01*
X163964952Y-89812904D01*
X163917333Y-89717666D01*
X163917333Y-89479571D01*
X163964952Y-89384333D01*
X164012571Y-89336714D01*
X164107809Y-89289095D01*
X164345904Y-89289095D01*
X164441142Y-89336714D01*
X164488761Y-89384333D01*
X164536380Y-89479571D01*
X164536380Y-89717666D01*
X164488761Y-89812904D01*
X164441142Y-89860523D01*
X175204380Y-91193857D02*
X174728190Y-91527190D01*
X175204380Y-91765285D02*
X174204380Y-91765285D01*
X174204380Y-91384333D01*
X174252000Y-91289095D01*
X174299619Y-91241476D01*
X174394857Y-91193857D01*
X174537714Y-91193857D01*
X174632952Y-91241476D01*
X174680571Y-91289095D01*
X174728190Y-91384333D01*
X174728190Y-91765285D01*
X174299619Y-90812904D02*
X174252000Y-90765285D01*
X174204380Y-90670047D01*
X174204380Y-90431952D01*
X174252000Y-90336714D01*
X174299619Y-90289095D01*
X174394857Y-90241476D01*
X174490095Y-90241476D01*
X174632952Y-90289095D01*
X175204380Y-90860523D01*
X175204380Y-90241476D01*
X174537714Y-89384333D02*
X175204380Y-89384333D01*
X174156761Y-89622428D02*
X174871047Y-89860523D01*
X174871047Y-89241476D01*
X169870380Y-91193857D02*
X169394190Y-91527190D01*
X169870380Y-91765285D02*
X168870380Y-91765285D01*
X168870380Y-91384333D01*
X168918000Y-91289095D01*
X168965619Y-91241476D01*
X169060857Y-91193857D01*
X169203714Y-91193857D01*
X169298952Y-91241476D01*
X169346571Y-91289095D01*
X169394190Y-91384333D01*
X169394190Y-91765285D01*
X168965619Y-90812904D02*
X168918000Y-90765285D01*
X168870380Y-90670047D01*
X168870380Y-90431952D01*
X168918000Y-90336714D01*
X168965619Y-90289095D01*
X169060857Y-90241476D01*
X169156095Y-90241476D01*
X169298952Y-90289095D01*
X169870380Y-90860523D01*
X169870380Y-90241476D01*
X168870380Y-89908142D02*
X168870380Y-89289095D01*
X169251333Y-89622428D01*
X169251333Y-89479571D01*
X169298952Y-89384333D01*
X169346571Y-89336714D01*
X169441809Y-89289095D01*
X169679904Y-89289095D01*
X169775142Y-89336714D01*
X169822761Y-89384333D01*
X169870380Y-89479571D01*
X169870380Y-89765285D01*
X169822761Y-89860523D01*
X169775142Y-89908142D01*
X171648380Y-91193857D02*
X171172190Y-91527190D01*
X171648380Y-91765285D02*
X170648380Y-91765285D01*
X170648380Y-91384333D01*
X170696000Y-91289095D01*
X170743619Y-91241476D01*
X170838857Y-91193857D01*
X170981714Y-91193857D01*
X171076952Y-91241476D01*
X171124571Y-91289095D01*
X171172190Y-91384333D01*
X171172190Y-91765285D01*
X170743619Y-90812904D02*
X170696000Y-90765285D01*
X170648380Y-90670047D01*
X170648380Y-90431952D01*
X170696000Y-90336714D01*
X170743619Y-90289095D01*
X170838857Y-90241476D01*
X170934095Y-90241476D01*
X171076952Y-90289095D01*
X171648380Y-90860523D01*
X171648380Y-90241476D01*
X170743619Y-89860523D02*
X170696000Y-89812904D01*
X170648380Y-89717666D01*
X170648380Y-89479571D01*
X170696000Y-89384333D01*
X170743619Y-89336714D01*
X170838857Y-89289095D01*
X170934095Y-89289095D01*
X171076952Y-89336714D01*
X171648380Y-89908142D01*
X171648380Y-89289095D01*
X176982380Y-91193857D02*
X176506190Y-91527190D01*
X176982380Y-91765285D02*
X175982380Y-91765285D01*
X175982380Y-91384333D01*
X176030000Y-91289095D01*
X176077619Y-91241476D01*
X176172857Y-91193857D01*
X176315714Y-91193857D01*
X176410952Y-91241476D01*
X176458571Y-91289095D01*
X176506190Y-91384333D01*
X176506190Y-91765285D01*
X176077619Y-90812904D02*
X176030000Y-90765285D01*
X175982380Y-90670047D01*
X175982380Y-90431952D01*
X176030000Y-90336714D01*
X176077619Y-90289095D01*
X176172857Y-90241476D01*
X176268095Y-90241476D01*
X176410952Y-90289095D01*
X176982380Y-90860523D01*
X176982380Y-90241476D01*
X176982380Y-89289095D02*
X176982380Y-89860523D01*
X176982380Y-89574809D02*
X175982380Y-89574809D01*
X176125238Y-89670047D01*
X176220476Y-89765285D01*
X176268095Y-89860523D01*
X168092380Y-91193857D02*
X167616190Y-91527190D01*
X168092380Y-91765285D02*
X167092380Y-91765285D01*
X167092380Y-91384333D01*
X167140000Y-91289095D01*
X167187619Y-91241476D01*
X167282857Y-91193857D01*
X167425714Y-91193857D01*
X167520952Y-91241476D01*
X167568571Y-91289095D01*
X167616190Y-91384333D01*
X167616190Y-91765285D01*
X167187619Y-90812904D02*
X167140000Y-90765285D01*
X167092380Y-90670047D01*
X167092380Y-90431952D01*
X167140000Y-90336714D01*
X167187619Y-90289095D01*
X167282857Y-90241476D01*
X167378095Y-90241476D01*
X167520952Y-90289095D01*
X168092380Y-90860523D01*
X168092380Y-90241476D01*
X167092380Y-89622428D02*
X167092380Y-89527190D01*
X167140000Y-89431952D01*
X167187619Y-89384333D01*
X167282857Y-89336714D01*
X167473333Y-89289095D01*
X167711428Y-89289095D01*
X167901904Y-89336714D01*
X167997142Y-89384333D01*
X168044761Y-89431952D01*
X168092380Y-89527190D01*
X168092380Y-89622428D01*
X168044761Y-89717666D01*
X167997142Y-89765285D01*
X167901904Y-89812904D01*
X167711428Y-89860523D01*
X167473333Y-89860523D01*
X167282857Y-89812904D01*
X167187619Y-89765285D01*
X167140000Y-89717666D01*
X167092380Y-89622428D01*
X171648380Y-97670857D02*
X171172190Y-98004190D01*
X171648380Y-98242285D02*
X170648380Y-98242285D01*
X170648380Y-97861333D01*
X170696000Y-97766095D01*
X170743619Y-97718476D01*
X170838857Y-97670857D01*
X170981714Y-97670857D01*
X171076952Y-97718476D01*
X171124571Y-97766095D01*
X171172190Y-97861333D01*
X171172190Y-98242285D01*
X171648380Y-96718476D02*
X171648380Y-97289904D01*
X171648380Y-97004190D02*
X170648380Y-97004190D01*
X170791238Y-97099428D01*
X170886476Y-97194666D01*
X170934095Y-97289904D01*
X171648380Y-96242285D02*
X171648380Y-96051809D01*
X171600761Y-95956571D01*
X171553142Y-95908952D01*
X171410285Y-95813714D01*
X171219809Y-95766095D01*
X170838857Y-95766095D01*
X170743619Y-95813714D01*
X170696000Y-95861333D01*
X170648380Y-95956571D01*
X170648380Y-96147047D01*
X170696000Y-96242285D01*
X170743619Y-96289904D01*
X170838857Y-96337523D01*
X171076952Y-96337523D01*
X171172190Y-96289904D01*
X171219809Y-96242285D01*
X171267428Y-96147047D01*
X171267428Y-95956571D01*
X171219809Y-95861333D01*
X171172190Y-95813714D01*
X171076952Y-95766095D01*
X188642666Y-51141380D02*
X188642666Y-51855666D01*
X188595047Y-51998523D01*
X188499809Y-52093761D01*
X188356952Y-52141380D01*
X188261714Y-52141380D01*
X189547428Y-51141380D02*
X189356952Y-51141380D01*
X189261714Y-51189000D01*
X189214095Y-51236619D01*
X189118857Y-51379476D01*
X189071238Y-51569952D01*
X189071238Y-51950904D01*
X189118857Y-52046142D01*
X189166476Y-52093761D01*
X189261714Y-52141380D01*
X189452190Y-52141380D01*
X189547428Y-52093761D01*
X189595047Y-52046142D01*
X189642666Y-51950904D01*
X189642666Y-51712809D01*
X189595047Y-51617571D01*
X189547428Y-51569952D01*
X189452190Y-51522333D01*
X189261714Y-51522333D01*
X189166476Y-51569952D01*
X189118857Y-51617571D01*
X189071238Y-51712809D01*
X165401666Y-47585380D02*
X165401666Y-48299666D01*
X165354047Y-48442523D01*
X165258809Y-48537761D01*
X165115952Y-48585380D01*
X165020714Y-48585380D01*
X166354047Y-47585380D02*
X165877857Y-47585380D01*
X165830238Y-48061571D01*
X165877857Y-48013952D01*
X165973095Y-47966333D01*
X166211190Y-47966333D01*
X166306428Y-48013952D01*
X166354047Y-48061571D01*
X166401666Y-48156809D01*
X166401666Y-48394904D01*
X166354047Y-48490142D01*
X166306428Y-48537761D01*
X166211190Y-48585380D01*
X165973095Y-48585380D01*
X165877857Y-48537761D01*
X165830238Y-48490142D01*
X166822380Y-84304095D02*
X165822380Y-84304095D01*
X165822380Y-84066000D01*
X165870000Y-83923142D01*
X165965238Y-83827904D01*
X166060476Y-83780285D01*
X166250952Y-83732666D01*
X166393809Y-83732666D01*
X166584285Y-83780285D01*
X166679523Y-83827904D01*
X166774761Y-83923142D01*
X166822380Y-84066000D01*
X166822380Y-84304095D01*
X166155714Y-82875523D02*
X166822380Y-82875523D01*
X165774761Y-83113619D02*
X166489047Y-83351714D01*
X166489047Y-82732666D01*
X186555142Y-78462142D02*
X186507523Y-78509761D01*
X186364666Y-78557380D01*
X186269428Y-78557380D01*
X186126571Y-78509761D01*
X186031333Y-78414523D01*
X185983714Y-78319285D01*
X185936095Y-78128809D01*
X185936095Y-77985952D01*
X185983714Y-77795476D01*
X186031333Y-77700238D01*
X186126571Y-77605000D01*
X186269428Y-77557380D01*
X186364666Y-77557380D01*
X186507523Y-77605000D01*
X186555142Y-77652619D01*
X187507523Y-78557380D02*
X186936095Y-78557380D01*
X187221809Y-78557380D02*
X187221809Y-77557380D01*
X187126571Y-77700238D01*
X187031333Y-77795476D01*
X186936095Y-77843095D01*
X188364666Y-77557380D02*
X188174190Y-77557380D01*
X188078952Y-77605000D01*
X188031333Y-77652619D01*
X187936095Y-77795476D01*
X187888476Y-77985952D01*
X187888476Y-78366904D01*
X187936095Y-78462142D01*
X187983714Y-78509761D01*
X188078952Y-78557380D01*
X188269428Y-78557380D01*
X188364666Y-78509761D01*
X188412285Y-78462142D01*
X188459904Y-78366904D01*
X188459904Y-78128809D01*
X188412285Y-78033571D01*
X188364666Y-77985952D01*
X188269428Y-77938333D01*
X188078952Y-77938333D01*
X187983714Y-77985952D01*
X187936095Y-78033571D01*
X187888476Y-78128809D01*
X186555142Y-80748142D02*
X186507523Y-80795761D01*
X186364666Y-80843380D01*
X186269428Y-80843380D01*
X186126571Y-80795761D01*
X186031333Y-80700523D01*
X185983714Y-80605285D01*
X185936095Y-80414809D01*
X185936095Y-80271952D01*
X185983714Y-80081476D01*
X186031333Y-79986238D01*
X186126571Y-79891000D01*
X186269428Y-79843380D01*
X186364666Y-79843380D01*
X186507523Y-79891000D01*
X186555142Y-79938619D01*
X187507523Y-80843380D02*
X186936095Y-80843380D01*
X187221809Y-80843380D02*
X187221809Y-79843380D01*
X187126571Y-79986238D01*
X187031333Y-80081476D01*
X186936095Y-80129095D01*
X188412285Y-79843380D02*
X187936095Y-79843380D01*
X187888476Y-80319571D01*
X187936095Y-80271952D01*
X188031333Y-80224333D01*
X188269428Y-80224333D01*
X188364666Y-80271952D01*
X188412285Y-80319571D01*
X188459904Y-80414809D01*
X188459904Y-80652904D01*
X188412285Y-80748142D01*
X188364666Y-80795761D01*
X188269428Y-80843380D01*
X188031333Y-80843380D01*
X187936095Y-80795761D01*
X187888476Y-80748142D01*
X178919142Y-91193857D02*
X178966761Y-91241476D01*
X179014380Y-91384333D01*
X179014380Y-91479571D01*
X178966761Y-91622428D01*
X178871523Y-91717666D01*
X178776285Y-91765285D01*
X178585809Y-91812904D01*
X178442952Y-91812904D01*
X178252476Y-91765285D01*
X178157238Y-91717666D01*
X178062000Y-91622428D01*
X178014380Y-91479571D01*
X178014380Y-91384333D01*
X178062000Y-91241476D01*
X178109619Y-91193857D01*
X179014380Y-90241476D02*
X179014380Y-90812904D01*
X179014380Y-90527190D02*
X178014380Y-90527190D01*
X178157238Y-90622428D01*
X178252476Y-90717666D01*
X178300095Y-90812904D01*
X178109619Y-89860523D02*
X178062000Y-89812904D01*
X178014380Y-89717666D01*
X178014380Y-89479571D01*
X178062000Y-89384333D01*
X178109619Y-89336714D01*
X178204857Y-89289095D01*
X178300095Y-89289095D01*
X178442952Y-89336714D01*
X179014380Y-89908142D01*
X179014380Y-89289095D01*
X173585142Y-97670857D02*
X173632761Y-97718476D01*
X173680380Y-97861333D01*
X173680380Y-97956571D01*
X173632761Y-98099428D01*
X173537523Y-98194666D01*
X173442285Y-98242285D01*
X173251809Y-98289904D01*
X173108952Y-98289904D01*
X172918476Y-98242285D01*
X172823238Y-98194666D01*
X172728000Y-98099428D01*
X172680380Y-97956571D01*
X172680380Y-97861333D01*
X172728000Y-97718476D01*
X172775619Y-97670857D01*
X173680380Y-96718476D02*
X173680380Y-97289904D01*
X173680380Y-97004190D02*
X172680380Y-97004190D01*
X172823238Y-97099428D01*
X172918476Y-97194666D01*
X172966095Y-97289904D01*
X173680380Y-95766095D02*
X173680380Y-96337523D01*
X173680380Y-96051809D02*
X172680380Y-96051809D01*
X172823238Y-96147047D01*
X172918476Y-96242285D01*
X172966095Y-96337523D01*
X201612666Y-53998761D02*
X201755523Y-54046380D01*
X201993619Y-54046380D01*
X202088857Y-53998761D01*
X202136476Y-53951142D01*
X202184095Y-53855904D01*
X202184095Y-53760666D01*
X202136476Y-53665428D01*
X202088857Y-53617809D01*
X201993619Y-53570190D01*
X201803142Y-53522571D01*
X201707904Y-53474952D01*
X201660285Y-53427333D01*
X201612666Y-53332095D01*
X201612666Y-53236857D01*
X201660285Y-53141619D01*
X201707904Y-53094000D01*
X201803142Y-53046380D01*
X202041238Y-53046380D01*
X202184095Y-53094000D01*
X202517428Y-53046380D02*
X202755523Y-54046380D01*
X202946000Y-53332095D01*
X203136476Y-54046380D01*
X203374571Y-53046380D01*
X203707904Y-53141619D02*
X203755523Y-53094000D01*
X203850761Y-53046380D01*
X204088857Y-53046380D01*
X204184095Y-53094000D01*
X204231714Y-53141619D01*
X204279333Y-53236857D01*
X204279333Y-53332095D01*
X204231714Y-53474952D01*
X203660285Y-54046380D01*
X204279333Y-54046380D01*
X201612666Y-62888761D02*
X201755523Y-62936380D01*
X201993619Y-62936380D01*
X202088857Y-62888761D01*
X202136476Y-62841142D01*
X202184095Y-62745904D01*
X202184095Y-62650666D01*
X202136476Y-62555428D01*
X202088857Y-62507809D01*
X201993619Y-62460190D01*
X201803142Y-62412571D01*
X201707904Y-62364952D01*
X201660285Y-62317333D01*
X201612666Y-62222095D01*
X201612666Y-62126857D01*
X201660285Y-62031619D01*
X201707904Y-61984000D01*
X201803142Y-61936380D01*
X202041238Y-61936380D01*
X202184095Y-61984000D01*
X202517428Y-61936380D02*
X202755523Y-62936380D01*
X202946000Y-62222095D01*
X203136476Y-62936380D01*
X203374571Y-61936380D01*
X204279333Y-62936380D02*
X203707904Y-62936380D01*
X203993619Y-62936380D02*
X203993619Y-61936380D01*
X203898380Y-62079238D01*
X203803142Y-62174476D01*
X203707904Y-62222095D01*
X203628666Y-65194380D02*
X203628666Y-65908666D01*
X203581047Y-66051523D01*
X203485809Y-66146761D01*
X203342952Y-66194380D01*
X203247714Y-66194380D01*
X204533428Y-65527714D02*
X204533428Y-66194380D01*
X204295333Y-65146761D02*
X204057238Y-65861047D01*
X204676285Y-65861047D01*
X209319904Y-54046380D02*
X209319904Y-53046380D01*
X209558000Y-53046380D01*
X209700857Y-53094000D01*
X209796095Y-53189238D01*
X209843714Y-53284476D01*
X209891333Y-53474952D01*
X209891333Y-53617809D01*
X209843714Y-53808285D01*
X209796095Y-53903523D01*
X209700857Y-53998761D01*
X209558000Y-54046380D01*
X209319904Y-54046380D01*
X210224666Y-53046380D02*
X210843714Y-53046380D01*
X210510380Y-53427333D01*
X210653238Y-53427333D01*
X210748476Y-53474952D01*
X210796095Y-53522571D01*
X210843714Y-53617809D01*
X210843714Y-53855904D01*
X210796095Y-53951142D01*
X210748476Y-53998761D01*
X210653238Y-54046380D01*
X210367523Y-54046380D01*
X210272285Y-53998761D01*
X210224666Y-53951142D01*
X209319904Y-56840380D02*
X209319904Y-55840380D01*
X209558000Y-55840380D01*
X209700857Y-55888000D01*
X209796095Y-55983238D01*
X209843714Y-56078476D01*
X209891333Y-56268952D01*
X209891333Y-56411809D01*
X209843714Y-56602285D01*
X209796095Y-56697523D01*
X209700857Y-56792761D01*
X209558000Y-56840380D01*
X209319904Y-56840380D01*
X210272285Y-55935619D02*
X210319904Y-55888000D01*
X210415142Y-55840380D01*
X210653238Y-55840380D01*
X210748476Y-55888000D01*
X210796095Y-55935619D01*
X210843714Y-56030857D01*
X210843714Y-56126095D01*
X210796095Y-56268952D01*
X210224666Y-56840380D01*
X210843714Y-56840380D01*
X239736380Y-66523904D02*
X240450666Y-66523904D01*
X240593523Y-66571523D01*
X240688761Y-66666761D01*
X240736380Y-66809619D01*
X240736380Y-66904857D01*
X239736380Y-66190571D02*
X240736380Y-65857238D01*
X239736380Y-65523904D01*
X240212571Y-64857238D02*
X240260190Y-64714380D01*
X240307809Y-64666761D01*
X240403047Y-64619142D01*
X240545904Y-64619142D01*
X240641142Y-64666761D01*
X240688761Y-64714380D01*
X240736380Y-64809619D01*
X240736380Y-65190571D01*
X239736380Y-65190571D01*
X239736380Y-64857238D01*
X239784000Y-64762000D01*
X239831619Y-64714380D01*
X239926857Y-64666761D01*
X240022095Y-64666761D01*
X240117333Y-64714380D01*
X240164952Y-64762000D01*
X240212571Y-64857238D01*
X240212571Y-65190571D01*
X239736380Y-64190571D02*
X240545904Y-64190571D01*
X240641142Y-64142952D01*
X240688761Y-64095333D01*
X240736380Y-64000095D01*
X240736380Y-63809619D01*
X240688761Y-63714380D01*
X240641142Y-63666761D01*
X240545904Y-63619142D01*
X239736380Y-63619142D01*
X240688761Y-63190571D02*
X240736380Y-63047714D01*
X240736380Y-62809619D01*
X240688761Y-62714380D01*
X240641142Y-62666761D01*
X240545904Y-62619142D01*
X240450666Y-62619142D01*
X240355428Y-62666761D01*
X240307809Y-62714380D01*
X240260190Y-62809619D01*
X240212571Y-63000095D01*
X240164952Y-63095333D01*
X240117333Y-63142952D01*
X240022095Y-63190571D01*
X239926857Y-63190571D01*
X239831619Y-63142952D01*
X239784000Y-63095333D01*
X239736380Y-63000095D01*
X239736380Y-62762000D01*
X239784000Y-62619142D01*
X240736380Y-61666761D02*
X240736380Y-62238190D01*
X240736380Y-61952476D02*
X239736380Y-61952476D01*
X239879238Y-62047714D01*
X239974476Y-62142952D01*
X240022095Y-62238190D01*
X239736380Y-79430285D02*
X240450666Y-79430285D01*
X240593523Y-79477904D01*
X240688761Y-79573142D01*
X240736380Y-79716000D01*
X240736380Y-79811238D01*
X240736380Y-78954095D02*
X239736380Y-78954095D01*
X240450666Y-78620761D01*
X239736380Y-78287428D01*
X240736380Y-78287428D01*
X240212571Y-77477904D02*
X240260190Y-77335047D01*
X240307809Y-77287428D01*
X240403047Y-77239809D01*
X240545904Y-77239809D01*
X240641142Y-77287428D01*
X240688761Y-77335047D01*
X240736380Y-77430285D01*
X240736380Y-77811238D01*
X239736380Y-77811238D01*
X239736380Y-77477904D01*
X239784000Y-77382666D01*
X239831619Y-77335047D01*
X239926857Y-77287428D01*
X240022095Y-77287428D01*
X240117333Y-77335047D01*
X240164952Y-77382666D01*
X240212571Y-77477904D01*
X240212571Y-77811238D01*
X240450666Y-76858857D02*
X240450666Y-76382666D01*
X240736380Y-76954095D02*
X239736380Y-76620761D01*
X240736380Y-76287428D01*
X239736380Y-76096952D02*
X239736380Y-75525523D01*
X240736380Y-75811238D02*
X239736380Y-75811238D01*
X240736380Y-74668380D02*
X240736380Y-75239809D01*
X240736380Y-74954095D02*
X239736380Y-74954095D01*
X239879238Y-75049333D01*
X239974476Y-75144571D01*
X240022095Y-75239809D01*
X239736380Y-72659619D02*
X240450666Y-72659619D01*
X240593523Y-72707238D01*
X240688761Y-72802476D01*
X240736380Y-72945333D01*
X240736380Y-73040571D01*
X240736380Y-71707238D02*
X240736380Y-72183428D01*
X239736380Y-72183428D01*
X240212571Y-71040571D02*
X240260190Y-70897714D01*
X240307809Y-70850095D01*
X240403047Y-70802476D01*
X240545904Y-70802476D01*
X240641142Y-70850095D01*
X240688761Y-70897714D01*
X240736380Y-70992952D01*
X240736380Y-71373904D01*
X239736380Y-71373904D01*
X239736380Y-71040571D01*
X239784000Y-70945333D01*
X239831619Y-70897714D01*
X239926857Y-70850095D01*
X240022095Y-70850095D01*
X240117333Y-70897714D01*
X240164952Y-70945333D01*
X240212571Y-71040571D01*
X240212571Y-71373904D01*
X240450666Y-70421523D02*
X240450666Y-69945333D01*
X240736380Y-70516761D02*
X239736380Y-70183428D01*
X240736380Y-69850095D01*
X239736380Y-69659619D02*
X239736380Y-69088190D01*
X240736380Y-69373904D02*
X239736380Y-69373904D01*
X240736380Y-68231047D02*
X240736380Y-68802476D01*
X240736380Y-68516761D02*
X239736380Y-68516761D01*
X239879238Y-68612000D01*
X239974476Y-68707238D01*
X240022095Y-68802476D01*
X241855666Y-96988380D02*
X241855666Y-97702666D01*
X241808047Y-97845523D01*
X241712809Y-97940761D01*
X241569952Y-97988380D01*
X241474714Y-97988380D01*
X242236619Y-96988380D02*
X242855666Y-96988380D01*
X242522333Y-97369333D01*
X242665190Y-97369333D01*
X242760428Y-97416952D01*
X242808047Y-97464571D01*
X242855666Y-97559809D01*
X242855666Y-97797904D01*
X242808047Y-97893142D01*
X242760428Y-97940761D01*
X242665190Y-97988380D01*
X242379476Y-97988380D01*
X242284238Y-97940761D01*
X242236619Y-97893142D01*
X239076571Y-86213142D02*
X240219428Y-86213142D01*
X239648000Y-86784571D02*
X239648000Y-85641714D01*
X228076571Y-86213142D02*
X229219428Y-86213142D01*
X241982666Y-49236380D02*
X241982666Y-49950666D01*
X241935047Y-50093523D01*
X241839809Y-50188761D01*
X241696952Y-50236380D01*
X241601714Y-50236380D01*
X242411238Y-49331619D02*
X242458857Y-49284000D01*
X242554095Y-49236380D01*
X242792190Y-49236380D01*
X242887428Y-49284000D01*
X242935047Y-49331619D01*
X242982666Y-49426857D01*
X242982666Y-49522095D01*
X242935047Y-49664952D01*
X242363619Y-50236380D01*
X242982666Y-50236380D01*
X227250666Y-47204380D02*
X227250666Y-47918666D01*
X227203047Y-48061523D01*
X227107809Y-48156761D01*
X226964952Y-48204380D01*
X226869714Y-48204380D01*
X228250666Y-48204380D02*
X227679238Y-48204380D01*
X227964952Y-48204380D02*
X227964952Y-47204380D01*
X227869714Y-47347238D01*
X227774476Y-47442476D01*
X227679238Y-47490095D01*
X213424571Y-59797142D02*
X214567428Y-59797142D01*
X213996000Y-60368571D02*
X213996000Y-59225714D01*
X224424571Y-59797142D02*
X225567428Y-59797142D01*
D14*
X230168380Y-73897123D02*
X230168380Y-74415219D01*
X230198857Y-74476171D01*
X230229333Y-74506647D01*
X230290285Y-74537123D01*
X230412190Y-74537123D01*
X230473142Y-74506647D01*
X230503619Y-74476171D01*
X230534095Y-74415219D01*
X230534095Y-73897123D01*
X231113142Y-73897123D02*
X230991238Y-73897123D01*
X230930285Y-73927600D01*
X230899809Y-73958076D01*
X230838857Y-74049504D01*
X230808380Y-74171409D01*
X230808380Y-74415219D01*
X230838857Y-74476171D01*
X230869333Y-74506647D01*
X230930285Y-74537123D01*
X231052190Y-74537123D01*
X231113142Y-74506647D01*
X231143619Y-74476171D01*
X231174095Y-74415219D01*
X231174095Y-74262838D01*
X231143619Y-74201885D01*
X231113142Y-74171409D01*
X231052190Y-74140933D01*
X230930285Y-74140933D01*
X230869333Y-74171409D01*
X230838857Y-74201885D01*
X230808380Y-74262838D01*
D10*
X193294095Y-68530380D02*
X193294095Y-69339904D01*
X193341714Y-69435142D01*
X193389333Y-69482761D01*
X193484571Y-69530380D01*
X193675047Y-69530380D01*
X193770285Y-69482761D01*
X193817904Y-69435142D01*
X193865523Y-69339904D01*
X193865523Y-68530380D01*
X194770285Y-68863714D02*
X194770285Y-69530380D01*
X194532190Y-68482761D02*
X194294095Y-69197047D01*
X194913142Y-69197047D01*
X180935380Y-73405904D02*
X181744904Y-73405904D01*
X181840142Y-73358285D01*
X181887761Y-73310666D01*
X181935380Y-73215428D01*
X181935380Y-73024952D01*
X181887761Y-72929714D01*
X181840142Y-72882095D01*
X181744904Y-72834476D01*
X180935380Y-72834476D01*
X180935380Y-72453523D02*
X180935380Y-71834476D01*
X181316333Y-72167809D01*
X181316333Y-72024952D01*
X181363952Y-71929714D01*
X181411571Y-71882095D01*
X181506809Y-71834476D01*
X181744904Y-71834476D01*
X181840142Y-71882095D01*
X181887761Y-71929714D01*
X181935380Y-72024952D01*
X181935380Y-72310666D01*
X181887761Y-72405904D01*
X181840142Y-72453523D01*
X193294095Y-76102380D02*
X193294095Y-76911904D01*
X193341714Y-77007142D01*
X193389333Y-77054761D01*
X193484571Y-77102380D01*
X193675047Y-77102380D01*
X193770285Y-77054761D01*
X193817904Y-77007142D01*
X193865523Y-76911904D01*
X193865523Y-76102380D01*
X194865523Y-77102380D02*
X194294095Y-77102380D01*
X194579809Y-77102380D02*
X194579809Y-76102380D01*
X194484571Y-76245238D01*
X194389333Y-76340476D01*
X194294095Y-76388095D01*
M02*
