G04 #@! TF.GenerationSoftware,KiCad,Pcbnew,(5.1.5-0-10_14)*
G04 #@! TF.CreationDate,2019-12-31T01:38:16-08:00*
G04 #@! TF.ProjectId,Glue Board,476c7565-2042-46f6-9172-642e6b696361,rev?*
G04 #@! TF.SameCoordinates,Original*
G04 #@! TF.FileFunction,Copper,L3,Inr*
G04 #@! TF.FilePolarity,Positive*
%FSLAX46Y46*%
G04 Gerber Fmt 4.6, Leading zero omitted, Abs format (unit mm)*
G04 Created by KiCad (PCBNEW (5.1.5-0-10_14)) date 2019-12-31 01:38:16*
%MOMM*%
%LPD*%
G04 APERTURE LIST*
%ADD10C,1.508000*%
%ADD11R,1.508000X1.508000*%
%ADD12O,1.727200X1.727200*%
%ADD13R,1.727200X1.727200*%
%ADD14O,1.700000X1.700000*%
%ADD15R,1.700000X1.700000*%
%ADD16C,0.630000*%
%ADD17O,0.800000X1.300000*%
%ADD18C,0.100000*%
%ADD19O,1.700000X2.000000*%
%ADD20C,3.000000*%
%ADD21R,3.000000X3.000000*%
%ADD22C,3.500000*%
%ADD23R,3.500000X3.500000*%
%ADD24C,1.400000*%
%ADD25C,0.300000*%
%ADD26C,5.080000*%
%ADD27C,0.800000*%
%ADD28C,0.812800*%
%ADD29C,0.152400*%
G04 APERTURE END LIST*
D10*
X208924000Y-96012000D03*
X208924000Y-93472000D03*
X208924000Y-90932000D03*
X208924000Y-88392000D03*
X208924000Y-85852000D03*
X208924000Y-83312000D03*
X208924000Y-80772000D03*
X208924000Y-78232000D03*
X208924000Y-75692000D03*
X208924000Y-73152000D03*
X208924000Y-70612000D03*
D11*
X208924000Y-68072000D03*
D12*
X191516000Y-94615000D03*
X191516000Y-92075000D03*
X194056000Y-94615000D03*
X194056000Y-92075000D03*
X196596000Y-94615000D03*
D13*
X196596000Y-92075000D03*
D14*
X205232000Y-96012000D03*
X205232000Y-93472000D03*
X205232000Y-90932000D03*
D15*
X205232000Y-88392000D03*
D16*
X195356000Y-55738000D03*
X195356000Y-57038000D03*
X192756000Y-55738000D03*
X194056000Y-55738000D03*
X194056000Y-57038000D03*
X192756000Y-57038000D03*
D17*
X190199000Y-48260000D03*
X191449000Y-48260000D03*
X192699000Y-48260000D03*
X193949000Y-48260000D03*
G04 #@! TA.AperFunction,ViaPad*
D18*
G36*
X195418603Y-47610963D02*
G01*
X195438018Y-47613843D01*
X195457057Y-47618612D01*
X195475537Y-47625224D01*
X195493279Y-47633616D01*
X195510114Y-47643706D01*
X195525879Y-47655398D01*
X195540421Y-47668579D01*
X195553602Y-47683121D01*
X195565294Y-47698886D01*
X195575384Y-47715721D01*
X195583776Y-47733463D01*
X195590388Y-47751943D01*
X195595157Y-47770982D01*
X195598037Y-47790397D01*
X195599000Y-47810000D01*
X195599000Y-48710000D01*
X195598037Y-48729603D01*
X195595157Y-48749018D01*
X195590388Y-48768057D01*
X195583776Y-48786537D01*
X195575384Y-48804279D01*
X195565294Y-48821114D01*
X195553602Y-48836879D01*
X195540421Y-48851421D01*
X195525879Y-48864602D01*
X195510114Y-48876294D01*
X195493279Y-48886384D01*
X195475537Y-48894776D01*
X195457057Y-48901388D01*
X195438018Y-48906157D01*
X195418603Y-48909037D01*
X195399000Y-48910000D01*
X194999000Y-48910000D01*
X194979397Y-48909037D01*
X194959982Y-48906157D01*
X194940943Y-48901388D01*
X194922463Y-48894776D01*
X194904721Y-48886384D01*
X194887886Y-48876294D01*
X194872121Y-48864602D01*
X194857579Y-48851421D01*
X194844398Y-48836879D01*
X194832706Y-48821114D01*
X194822616Y-48804279D01*
X194814224Y-48786537D01*
X194807612Y-48768057D01*
X194802843Y-48749018D01*
X194799963Y-48729603D01*
X194799000Y-48710000D01*
X194799000Y-47810000D01*
X194799963Y-47790397D01*
X194802843Y-47770982D01*
X194807612Y-47751943D01*
X194814224Y-47733463D01*
X194822616Y-47715721D01*
X194832706Y-47698886D01*
X194844398Y-47683121D01*
X194857579Y-47668579D01*
X194872121Y-47655398D01*
X194887886Y-47643706D01*
X194904721Y-47633616D01*
X194922463Y-47625224D01*
X194940943Y-47618612D01*
X194959982Y-47613843D01*
X194979397Y-47610963D01*
X194999000Y-47610000D01*
X195399000Y-47610000D01*
X195418603Y-47610963D01*
G37*
G04 #@! TD.AperFunction*
D19*
X172934000Y-50292000D03*
G04 #@! TA.AperFunction,ViaPad*
D18*
G36*
X171058504Y-49293204D02*
G01*
X171082773Y-49296804D01*
X171106571Y-49302765D01*
X171129671Y-49311030D01*
X171151849Y-49321520D01*
X171172893Y-49334133D01*
X171192598Y-49348747D01*
X171210777Y-49365223D01*
X171227253Y-49383402D01*
X171241867Y-49403107D01*
X171254480Y-49424151D01*
X171264970Y-49446329D01*
X171273235Y-49469429D01*
X171279196Y-49493227D01*
X171282796Y-49517496D01*
X171284000Y-49542000D01*
X171284000Y-51042000D01*
X171282796Y-51066504D01*
X171279196Y-51090773D01*
X171273235Y-51114571D01*
X171264970Y-51137671D01*
X171254480Y-51159849D01*
X171241867Y-51180893D01*
X171227253Y-51200598D01*
X171210777Y-51218777D01*
X171192598Y-51235253D01*
X171172893Y-51249867D01*
X171151849Y-51262480D01*
X171129671Y-51272970D01*
X171106571Y-51281235D01*
X171082773Y-51287196D01*
X171058504Y-51290796D01*
X171034000Y-51292000D01*
X169834000Y-51292000D01*
X169809496Y-51290796D01*
X169785227Y-51287196D01*
X169761429Y-51281235D01*
X169738329Y-51272970D01*
X169716151Y-51262480D01*
X169695107Y-51249867D01*
X169675402Y-51235253D01*
X169657223Y-51218777D01*
X169640747Y-51200598D01*
X169626133Y-51180893D01*
X169613520Y-51159849D01*
X169603030Y-51137671D01*
X169594765Y-51114571D01*
X169588804Y-51090773D01*
X169585204Y-51066504D01*
X169584000Y-51042000D01*
X169584000Y-49542000D01*
X169585204Y-49517496D01*
X169588804Y-49493227D01*
X169594765Y-49469429D01*
X169603030Y-49446329D01*
X169613520Y-49424151D01*
X169626133Y-49403107D01*
X169640747Y-49383402D01*
X169657223Y-49365223D01*
X169675402Y-49348747D01*
X169695107Y-49334133D01*
X169716151Y-49321520D01*
X169738329Y-49311030D01*
X169761429Y-49302765D01*
X169785227Y-49296804D01*
X169809496Y-49293204D01*
X169834000Y-49292000D01*
X171034000Y-49292000D01*
X171058504Y-49293204D01*
G37*
G04 #@! TD.AperFunction*
D20*
X200406000Y-50800000D03*
D21*
X205486000Y-50800000D03*
D20*
X200406000Y-59436000D03*
D21*
X205486000Y-59436000D03*
D14*
X205232000Y-80772000D03*
X202692000Y-80772000D03*
X205232000Y-78232000D03*
X202692000Y-78232000D03*
X205232000Y-75692000D03*
X202692000Y-75692000D03*
X205232000Y-73152000D03*
X202692000Y-73152000D03*
X205232000Y-70612000D03*
X202692000Y-70612000D03*
X205232000Y-68072000D03*
D15*
X202692000Y-68072000D03*
D14*
X210058000Y-51054000D03*
D15*
X210058000Y-48514000D03*
D14*
X210058000Y-58928000D03*
D15*
X210058000Y-61468000D03*
D22*
X236648000Y-86106000D03*
D23*
X231648000Y-86106000D03*
D24*
X239648000Y-96106000D03*
X228648000Y-96106000D03*
G04 #@! TA.AperFunction,ViaPad*
D18*
G36*
X239164765Y-49688213D02*
G01*
X239249704Y-49700813D01*
X239332999Y-49721677D01*
X239413848Y-49750605D01*
X239491472Y-49787319D01*
X239565124Y-49831464D01*
X239634094Y-49882616D01*
X239697718Y-49940282D01*
X239755384Y-50003906D01*
X239806536Y-50072876D01*
X239850681Y-50146528D01*
X239887395Y-50224152D01*
X239916323Y-50305001D01*
X239937187Y-50388296D01*
X239949787Y-50473235D01*
X239954000Y-50559000D01*
X239954000Y-52309000D01*
X239949787Y-52394765D01*
X239937187Y-52479704D01*
X239916323Y-52562999D01*
X239887395Y-52643848D01*
X239850681Y-52721472D01*
X239806536Y-52795124D01*
X239755384Y-52864094D01*
X239697718Y-52927718D01*
X239634094Y-52985384D01*
X239565124Y-53036536D01*
X239491472Y-53080681D01*
X239413848Y-53117395D01*
X239332999Y-53146323D01*
X239249704Y-53167187D01*
X239164765Y-53179787D01*
X239079000Y-53184000D01*
X237329000Y-53184000D01*
X237243235Y-53179787D01*
X237158296Y-53167187D01*
X237075001Y-53146323D01*
X236994152Y-53117395D01*
X236916528Y-53080681D01*
X236842876Y-53036536D01*
X236773906Y-52985384D01*
X236710282Y-52927718D01*
X236652616Y-52864094D01*
X236601464Y-52795124D01*
X236557319Y-52721472D01*
X236520605Y-52643848D01*
X236491677Y-52562999D01*
X236470813Y-52479704D01*
X236458213Y-52394765D01*
X236454000Y-52309000D01*
X236454000Y-50559000D01*
X236458213Y-50473235D01*
X236470813Y-50388296D01*
X236491677Y-50305001D01*
X236520605Y-50224152D01*
X236557319Y-50146528D01*
X236601464Y-50072876D01*
X236652616Y-50003906D01*
X236710282Y-49940282D01*
X236773906Y-49882616D01*
X236842876Y-49831464D01*
X236916528Y-49787319D01*
X236994152Y-49750605D01*
X237075001Y-49721677D01*
X237158296Y-49700813D01*
X237243235Y-49688213D01*
X237329000Y-49684000D01*
X239079000Y-49684000D01*
X239164765Y-49688213D01*
G37*
G04 #@! TD.AperFunction*
G04 #@! TA.AperFunction,ViaPad*
G36*
X242027513Y-54387611D02*
G01*
X242100318Y-54398411D01*
X242171714Y-54416295D01*
X242241013Y-54441090D01*
X242307548Y-54472559D01*
X242370678Y-54510398D01*
X242429795Y-54554242D01*
X242484330Y-54603670D01*
X242533758Y-54658205D01*
X242577602Y-54717322D01*
X242615441Y-54780452D01*
X242646910Y-54846987D01*
X242671705Y-54916286D01*
X242689589Y-54987682D01*
X242700389Y-55060487D01*
X242704000Y-55134000D01*
X242704000Y-57134000D01*
X242700389Y-57207513D01*
X242689589Y-57280318D01*
X242671705Y-57351714D01*
X242646910Y-57421013D01*
X242615441Y-57487548D01*
X242577602Y-57550678D01*
X242533758Y-57609795D01*
X242484330Y-57664330D01*
X242429795Y-57713758D01*
X242370678Y-57757602D01*
X242307548Y-57795441D01*
X242241013Y-57826910D01*
X242171714Y-57851705D01*
X242100318Y-57869589D01*
X242027513Y-57880389D01*
X241954000Y-57884000D01*
X240454000Y-57884000D01*
X240380487Y-57880389D01*
X240307682Y-57869589D01*
X240236286Y-57851705D01*
X240166987Y-57826910D01*
X240100452Y-57795441D01*
X240037322Y-57757602D01*
X239978205Y-57713758D01*
X239923670Y-57664330D01*
X239874242Y-57609795D01*
X239830398Y-57550678D01*
X239792559Y-57487548D01*
X239761090Y-57421013D01*
X239736295Y-57351714D01*
X239718411Y-57280318D01*
X239707611Y-57207513D01*
X239704000Y-57134000D01*
X239704000Y-55134000D01*
X239707611Y-55060487D01*
X239718411Y-54987682D01*
X239736295Y-54916286D01*
X239761090Y-54846987D01*
X239792559Y-54780452D01*
X239830398Y-54717322D01*
X239874242Y-54658205D01*
X239923670Y-54603670D01*
X239978205Y-54554242D01*
X240037322Y-54510398D01*
X240100452Y-54472559D01*
X240166987Y-54441090D01*
X240236286Y-54416295D01*
X240307682Y-54398411D01*
X240380487Y-54387611D01*
X240454000Y-54384000D01*
X241954000Y-54384000D01*
X242027513Y-54387611D01*
G37*
G04 #@! TD.AperFunction*
D23*
X235204000Y-56134000D03*
D22*
X216996000Y-59690000D03*
D23*
X221996000Y-59690000D03*
D24*
X213996000Y-49690000D03*
X224996000Y-49690000D03*
D25*
X230524000Y-76104000D03*
X230524000Y-76804000D03*
X229724000Y-76804000D03*
X229724000Y-76104000D03*
D26*
X230632000Y-50038000D03*
X166624000Y-95250000D03*
D27*
X189738000Y-81534000D03*
X167640000Y-89662000D03*
X164084000Y-77724000D03*
X164084000Y-85344000D03*
X165862000Y-85344000D03*
X172974000Y-85344000D03*
X175260000Y-91440000D03*
D28*
X184912000Y-76581000D03*
X184912000Y-81788000D03*
X166751000Y-72898000D03*
X168275000Y-71755000D03*
X170053000Y-71755000D03*
X173609000Y-71755000D03*
X171831000Y-71755000D03*
X176784000Y-59055000D03*
X175768000Y-59055000D03*
X174752000Y-59055000D03*
X166624000Y-59055000D03*
X167640000Y-59055000D03*
X168783000Y-59055000D03*
X176784000Y-54864000D03*
X175768000Y-54864000D03*
X174752000Y-54864000D03*
X168783000Y-54864000D03*
X167767000Y-54864000D03*
X166751000Y-54864000D03*
X175260000Y-71755000D03*
X179578000Y-76200000D03*
X199136000Y-71374000D03*
X171196000Y-96012000D03*
X173228000Y-96012000D03*
X175260000Y-96012000D03*
X180213000Y-86487000D03*
X180213000Y-88519000D03*
X165862000Y-89662000D03*
X164084000Y-89662000D03*
X190246000Y-71374000D03*
X189738000Y-86741000D03*
X198374000Y-81915000D03*
X199263000Y-78740000D03*
X199263000Y-79883000D03*
X189738000Y-77851000D03*
X197866000Y-71374000D03*
X191897000Y-74422000D03*
X191897000Y-68834000D03*
X187071000Y-60198000D03*
X195961000Y-61722000D03*
X192151000Y-61722000D03*
X188976000Y-66929000D03*
X191897000Y-64008000D03*
X191897000Y-66548000D03*
X182880000Y-70358000D03*
X185039000Y-66167000D03*
X186309000Y-66167000D03*
X185039000Y-58801000D03*
X186309000Y-58801000D03*
X188722000Y-55245000D03*
X217170000Y-79502000D03*
X215392000Y-93472000D03*
X218948000Y-70612000D03*
X239649000Y-82677000D03*
X232410000Y-75819000D03*
X232410000Y-77089000D03*
X230886000Y-73533000D03*
X229616000Y-73533000D03*
X227838000Y-77089000D03*
X227838000Y-79883000D03*
X229362000Y-79502000D03*
X232029000Y-79502000D03*
X230632000Y-79502000D03*
X221234000Y-49276000D03*
X218694000Y-49276000D03*
X216662000Y-49276000D03*
X228219000Y-78613000D03*
X232410000Y-73533000D03*
X227838000Y-73533000D03*
X225171000Y-67564000D03*
X226314000Y-67564000D03*
X228981000Y-67564000D03*
X231648000Y-67564000D03*
X228600000Y-83820000D03*
X225298000Y-79502000D03*
X218948000Y-79502000D03*
X214757000Y-96012000D03*
X217424000Y-87376000D03*
X225044000Y-87630000D03*
X223139000Y-93091000D03*
X217424000Y-93472000D03*
X188722000Y-50419000D03*
X182626000Y-55245000D03*
X196215000Y-64008000D03*
X196215000Y-66548000D03*
X188976000Y-68453000D03*
X199263000Y-81026000D03*
X233426000Y-77089000D03*
D27*
X233934000Y-83566000D03*
D28*
X176161500Y-82918500D03*
X177165000Y-84201000D03*
X178435000Y-84201000D03*
X179705000Y-84201000D03*
X215646000Y-79502000D03*
X221996000Y-79502000D03*
X223520000Y-79502000D03*
X225044000Y-88900000D03*
X216027000Y-86995000D03*
X188341000Y-70358000D03*
X198374000Y-68834000D03*
X198374000Y-77851000D03*
X196215000Y-74422000D03*
X226822000Y-77089000D03*
X227838000Y-75819000D03*
X233426000Y-75819000D03*
X226822000Y-75819000D03*
X221234000Y-54356000D03*
X218694000Y-54356000D03*
X216662000Y-54356000D03*
X223703000Y-89479000D03*
X218821000Y-89535000D03*
X221742000Y-88519000D03*
X215392000Y-89027000D03*
D27*
X178435000Y-76200000D03*
X177276000Y-76200000D03*
D28*
X188341000Y-72009000D03*
D27*
X172974000Y-89535000D03*
X171196000Y-89535000D03*
X189738000Y-82677000D03*
X169418000Y-85344000D03*
X174752000Y-85344000D03*
D28*
X187071000Y-62484000D03*
D27*
X179705000Y-74501000D03*
D28*
X218821000Y-86995000D03*
D29*
G36*
X212140800Y-77597000D02*
G01*
X212142264Y-77611866D01*
X212146600Y-77626160D01*
X212153642Y-77639334D01*
X212163118Y-77650882D01*
X212174666Y-77660358D01*
X212187840Y-77667400D01*
X212202134Y-77671736D01*
X212217000Y-77673200D01*
X225983800Y-77673200D01*
X225983800Y-99060400D01*
X163842406Y-99060400D01*
X163632814Y-99039849D01*
X163443144Y-98982584D01*
X163268203Y-98889566D01*
X163114666Y-98764344D01*
X162988374Y-98611683D01*
X162894139Y-98437398D01*
X162835551Y-98248134D01*
X162813600Y-98039279D01*
X162813600Y-94972629D01*
X163807800Y-94972629D01*
X163807800Y-95527371D01*
X163916025Y-96071455D01*
X164128316Y-96583971D01*
X164436515Y-97045223D01*
X164828777Y-97437485D01*
X165290029Y-97745684D01*
X165802545Y-97957975D01*
X166346629Y-98066200D01*
X166901371Y-98066200D01*
X167445455Y-97957975D01*
X167957971Y-97745684D01*
X168419223Y-97437485D01*
X168811485Y-97045223D01*
X169119684Y-96583971D01*
X169331975Y-96071455D01*
X169357174Y-95944770D01*
X170513400Y-95944770D01*
X170513400Y-96079230D01*
X170539632Y-96211107D01*
X170591088Y-96335332D01*
X170665790Y-96447132D01*
X170760868Y-96542210D01*
X170872668Y-96616912D01*
X170996893Y-96668368D01*
X171128770Y-96694600D01*
X171263230Y-96694600D01*
X171395107Y-96668368D01*
X171519332Y-96616912D01*
X171631132Y-96542210D01*
X171726210Y-96447132D01*
X171800912Y-96335332D01*
X171852368Y-96211107D01*
X171878600Y-96079230D01*
X171878600Y-95944770D01*
X172545400Y-95944770D01*
X172545400Y-96079230D01*
X172571632Y-96211107D01*
X172623088Y-96335332D01*
X172697790Y-96447132D01*
X172792868Y-96542210D01*
X172904668Y-96616912D01*
X173028893Y-96668368D01*
X173160770Y-96694600D01*
X173295230Y-96694600D01*
X173427107Y-96668368D01*
X173551332Y-96616912D01*
X173663132Y-96542210D01*
X173758210Y-96447132D01*
X173832912Y-96335332D01*
X173884368Y-96211107D01*
X173910600Y-96079230D01*
X173910600Y-95944770D01*
X174577400Y-95944770D01*
X174577400Y-96079230D01*
X174603632Y-96211107D01*
X174655088Y-96335332D01*
X174729790Y-96447132D01*
X174824868Y-96542210D01*
X174936668Y-96616912D01*
X175060893Y-96668368D01*
X175192770Y-96694600D01*
X175327230Y-96694600D01*
X175459107Y-96668368D01*
X175583332Y-96616912D01*
X175695132Y-96542210D01*
X175790210Y-96447132D01*
X175864912Y-96335332D01*
X175916368Y-96211107D01*
X175942600Y-96079230D01*
X175942600Y-95944770D01*
X175933910Y-95901079D01*
X204105800Y-95901079D01*
X204105800Y-96122921D01*
X204149079Y-96340500D01*
X204233975Y-96545456D01*
X204357223Y-96729911D01*
X204514089Y-96886777D01*
X204698544Y-97010025D01*
X204903500Y-97094921D01*
X205121079Y-97138200D01*
X205342921Y-97138200D01*
X205560500Y-97094921D01*
X205765456Y-97010025D01*
X205949911Y-96886777D01*
X206106777Y-96729911D01*
X206230025Y-96545456D01*
X206314921Y-96340500D01*
X206358200Y-96122921D01*
X206358200Y-95910534D01*
X207893800Y-95910534D01*
X207893800Y-96113466D01*
X207933390Y-96312498D01*
X208011048Y-96499983D01*
X208123791Y-96668714D01*
X208267286Y-96812209D01*
X208436017Y-96924952D01*
X208623502Y-97002610D01*
X208822534Y-97042200D01*
X209025466Y-97042200D01*
X209224498Y-97002610D01*
X209411983Y-96924952D01*
X209580714Y-96812209D01*
X209724209Y-96668714D01*
X209836952Y-96499983D01*
X209914610Y-96312498D01*
X209954200Y-96113466D01*
X209954200Y-95944770D01*
X214074400Y-95944770D01*
X214074400Y-96079230D01*
X214100632Y-96211107D01*
X214152088Y-96335332D01*
X214226790Y-96447132D01*
X214321868Y-96542210D01*
X214433668Y-96616912D01*
X214557893Y-96668368D01*
X214689770Y-96694600D01*
X214824230Y-96694600D01*
X214956107Y-96668368D01*
X215080332Y-96616912D01*
X215192132Y-96542210D01*
X215287210Y-96447132D01*
X215361912Y-96335332D01*
X215413368Y-96211107D01*
X215439600Y-96079230D01*
X215439600Y-95944770D01*
X215413368Y-95812893D01*
X215361912Y-95688668D01*
X215287210Y-95576868D01*
X215192132Y-95481790D01*
X215080332Y-95407088D01*
X214956107Y-95355632D01*
X214824230Y-95329400D01*
X214689770Y-95329400D01*
X214557893Y-95355632D01*
X214433668Y-95407088D01*
X214321868Y-95481790D01*
X214226790Y-95576868D01*
X214152088Y-95688668D01*
X214100632Y-95812893D01*
X214074400Y-95944770D01*
X209954200Y-95944770D01*
X209954200Y-95910534D01*
X209914610Y-95711502D01*
X209836952Y-95524017D01*
X209724209Y-95355286D01*
X209580714Y-95211791D01*
X209411983Y-95099048D01*
X209224498Y-95021390D01*
X209025466Y-94981800D01*
X208822534Y-94981800D01*
X208623502Y-95021390D01*
X208436017Y-95099048D01*
X208267286Y-95211791D01*
X208123791Y-95355286D01*
X208011048Y-95524017D01*
X207933390Y-95711502D01*
X207893800Y-95910534D01*
X206358200Y-95910534D01*
X206358200Y-95901079D01*
X206314921Y-95683500D01*
X206230025Y-95478544D01*
X206106777Y-95294089D01*
X205949911Y-95137223D01*
X205765456Y-95013975D01*
X205560500Y-94929079D01*
X205342921Y-94885800D01*
X205121079Y-94885800D01*
X204903500Y-94929079D01*
X204698544Y-95013975D01*
X204514089Y-95137223D01*
X204357223Y-95294089D01*
X204233975Y-95478544D01*
X204149079Y-95683500D01*
X204105800Y-95901079D01*
X175933910Y-95901079D01*
X175916368Y-95812893D01*
X175864912Y-95688668D01*
X175790210Y-95576868D01*
X175695132Y-95481790D01*
X175583332Y-95407088D01*
X175459107Y-95355632D01*
X175327230Y-95329400D01*
X175192770Y-95329400D01*
X175060893Y-95355632D01*
X174936668Y-95407088D01*
X174824868Y-95481790D01*
X174729790Y-95576868D01*
X174655088Y-95688668D01*
X174603632Y-95812893D01*
X174577400Y-95944770D01*
X173910600Y-95944770D01*
X173884368Y-95812893D01*
X173832912Y-95688668D01*
X173758210Y-95576868D01*
X173663132Y-95481790D01*
X173551332Y-95407088D01*
X173427107Y-95355632D01*
X173295230Y-95329400D01*
X173160770Y-95329400D01*
X173028893Y-95355632D01*
X172904668Y-95407088D01*
X172792868Y-95481790D01*
X172697790Y-95576868D01*
X172623088Y-95688668D01*
X172571632Y-95812893D01*
X172545400Y-95944770D01*
X171878600Y-95944770D01*
X171852368Y-95812893D01*
X171800912Y-95688668D01*
X171726210Y-95576868D01*
X171631132Y-95481790D01*
X171519332Y-95407088D01*
X171395107Y-95355632D01*
X171263230Y-95329400D01*
X171128770Y-95329400D01*
X170996893Y-95355632D01*
X170872668Y-95407088D01*
X170760868Y-95481790D01*
X170665790Y-95576868D01*
X170591088Y-95688668D01*
X170539632Y-95812893D01*
X170513400Y-95944770D01*
X169357174Y-95944770D01*
X169440200Y-95527371D01*
X169440200Y-94972629D01*
X169346734Y-94502739D01*
X190376200Y-94502739D01*
X190376200Y-94727261D01*
X190420002Y-94947467D01*
X190505922Y-95154898D01*
X190630660Y-95341580D01*
X190789420Y-95500340D01*
X190976102Y-95625078D01*
X191183533Y-95710998D01*
X191403739Y-95754800D01*
X191628261Y-95754800D01*
X191848467Y-95710998D01*
X192055898Y-95625078D01*
X192242580Y-95500340D01*
X192401340Y-95341580D01*
X192526078Y-95154898D01*
X192611998Y-94947467D01*
X192655800Y-94727261D01*
X192655800Y-94502739D01*
X192916200Y-94502739D01*
X192916200Y-94727261D01*
X192960002Y-94947467D01*
X193045922Y-95154898D01*
X193170660Y-95341580D01*
X193329420Y-95500340D01*
X193516102Y-95625078D01*
X193723533Y-95710998D01*
X193943739Y-95754800D01*
X194168261Y-95754800D01*
X194388467Y-95710998D01*
X194595898Y-95625078D01*
X194782580Y-95500340D01*
X194941340Y-95341580D01*
X195066078Y-95154898D01*
X195151998Y-94947467D01*
X195195800Y-94727261D01*
X195195800Y-94502739D01*
X195456200Y-94502739D01*
X195456200Y-94727261D01*
X195500002Y-94947467D01*
X195585922Y-95154898D01*
X195710660Y-95341580D01*
X195869420Y-95500340D01*
X196056102Y-95625078D01*
X196263533Y-95710998D01*
X196483739Y-95754800D01*
X196708261Y-95754800D01*
X196928467Y-95710998D01*
X197135898Y-95625078D01*
X197322580Y-95500340D01*
X197481340Y-95341580D01*
X197606078Y-95154898D01*
X197691998Y-94947467D01*
X197735800Y-94727261D01*
X197735800Y-94502739D01*
X197691998Y-94282533D01*
X197606078Y-94075102D01*
X197481340Y-93888420D01*
X197322580Y-93729660D01*
X197135898Y-93604922D01*
X196928467Y-93519002D01*
X196708261Y-93475200D01*
X196483739Y-93475200D01*
X196263533Y-93519002D01*
X196056102Y-93604922D01*
X195869420Y-93729660D01*
X195710660Y-93888420D01*
X195585922Y-94075102D01*
X195500002Y-94282533D01*
X195456200Y-94502739D01*
X195195800Y-94502739D01*
X195151998Y-94282533D01*
X195066078Y-94075102D01*
X194941340Y-93888420D01*
X194782580Y-93729660D01*
X194595898Y-93604922D01*
X194388467Y-93519002D01*
X194168261Y-93475200D01*
X193943739Y-93475200D01*
X193723533Y-93519002D01*
X193516102Y-93604922D01*
X193329420Y-93729660D01*
X193170660Y-93888420D01*
X193045922Y-94075102D01*
X192960002Y-94282533D01*
X192916200Y-94502739D01*
X192655800Y-94502739D01*
X192611998Y-94282533D01*
X192526078Y-94075102D01*
X192401340Y-93888420D01*
X192242580Y-93729660D01*
X192055898Y-93604922D01*
X191848467Y-93519002D01*
X191628261Y-93475200D01*
X191403739Y-93475200D01*
X191183533Y-93519002D01*
X190976102Y-93604922D01*
X190789420Y-93729660D01*
X190630660Y-93888420D01*
X190505922Y-94075102D01*
X190420002Y-94282533D01*
X190376200Y-94502739D01*
X169346734Y-94502739D01*
X169331975Y-94428545D01*
X169119684Y-93916029D01*
X168811485Y-93454777D01*
X168717787Y-93361079D01*
X204105800Y-93361079D01*
X204105800Y-93582921D01*
X204149079Y-93800500D01*
X204233975Y-94005456D01*
X204357223Y-94189911D01*
X204514089Y-94346777D01*
X204698544Y-94470025D01*
X204903500Y-94554921D01*
X205121079Y-94598200D01*
X205342921Y-94598200D01*
X205560500Y-94554921D01*
X205765456Y-94470025D01*
X205949911Y-94346777D01*
X206106777Y-94189911D01*
X206230025Y-94005456D01*
X206314921Y-93800500D01*
X206358200Y-93582921D01*
X206358200Y-93370534D01*
X207893800Y-93370534D01*
X207893800Y-93573466D01*
X207933390Y-93772498D01*
X208011048Y-93959983D01*
X208123791Y-94128714D01*
X208267286Y-94272209D01*
X208436017Y-94384952D01*
X208623502Y-94462610D01*
X208822534Y-94502200D01*
X209025466Y-94502200D01*
X209224498Y-94462610D01*
X209411983Y-94384952D01*
X209580714Y-94272209D01*
X209724209Y-94128714D01*
X209836952Y-93959983D01*
X209914610Y-93772498D01*
X209954200Y-93573466D01*
X209954200Y-93404770D01*
X214709400Y-93404770D01*
X214709400Y-93539230D01*
X214735632Y-93671107D01*
X214787088Y-93795332D01*
X214861790Y-93907132D01*
X214956868Y-94002210D01*
X215068668Y-94076912D01*
X215192893Y-94128368D01*
X215324770Y-94154600D01*
X215459230Y-94154600D01*
X215591107Y-94128368D01*
X215715332Y-94076912D01*
X215827132Y-94002210D01*
X215922210Y-93907132D01*
X215996912Y-93795332D01*
X216048368Y-93671107D01*
X216074600Y-93539230D01*
X216074600Y-93404770D01*
X216741400Y-93404770D01*
X216741400Y-93539230D01*
X216767632Y-93671107D01*
X216819088Y-93795332D01*
X216893790Y-93907132D01*
X216988868Y-94002210D01*
X217100668Y-94076912D01*
X217224893Y-94128368D01*
X217356770Y-94154600D01*
X217491230Y-94154600D01*
X217623107Y-94128368D01*
X217747332Y-94076912D01*
X217859132Y-94002210D01*
X217954210Y-93907132D01*
X218028912Y-93795332D01*
X218080368Y-93671107D01*
X218106600Y-93539230D01*
X218106600Y-93404770D01*
X218080368Y-93272893D01*
X218028912Y-93148668D01*
X217954210Y-93036868D01*
X217941112Y-93023770D01*
X222456400Y-93023770D01*
X222456400Y-93158230D01*
X222482632Y-93290107D01*
X222534088Y-93414332D01*
X222608790Y-93526132D01*
X222703868Y-93621210D01*
X222815668Y-93695912D01*
X222939893Y-93747368D01*
X223071770Y-93773600D01*
X223206230Y-93773600D01*
X223338107Y-93747368D01*
X223462332Y-93695912D01*
X223574132Y-93621210D01*
X223669210Y-93526132D01*
X223743912Y-93414332D01*
X223795368Y-93290107D01*
X223821600Y-93158230D01*
X223821600Y-93023770D01*
X223795368Y-92891893D01*
X223743912Y-92767668D01*
X223669210Y-92655868D01*
X223574132Y-92560790D01*
X223462332Y-92486088D01*
X223338107Y-92434632D01*
X223206230Y-92408400D01*
X223071770Y-92408400D01*
X222939893Y-92434632D01*
X222815668Y-92486088D01*
X222703868Y-92560790D01*
X222608790Y-92655868D01*
X222534088Y-92767668D01*
X222482632Y-92891893D01*
X222456400Y-93023770D01*
X217941112Y-93023770D01*
X217859132Y-92941790D01*
X217747332Y-92867088D01*
X217623107Y-92815632D01*
X217491230Y-92789400D01*
X217356770Y-92789400D01*
X217224893Y-92815632D01*
X217100668Y-92867088D01*
X216988868Y-92941790D01*
X216893790Y-93036868D01*
X216819088Y-93148668D01*
X216767632Y-93272893D01*
X216741400Y-93404770D01*
X216074600Y-93404770D01*
X216048368Y-93272893D01*
X215996912Y-93148668D01*
X215922210Y-93036868D01*
X215827132Y-92941790D01*
X215715332Y-92867088D01*
X215591107Y-92815632D01*
X215459230Y-92789400D01*
X215324770Y-92789400D01*
X215192893Y-92815632D01*
X215068668Y-92867088D01*
X214956868Y-92941790D01*
X214861790Y-93036868D01*
X214787088Y-93148668D01*
X214735632Y-93272893D01*
X214709400Y-93404770D01*
X209954200Y-93404770D01*
X209954200Y-93370534D01*
X209914610Y-93171502D01*
X209836952Y-92984017D01*
X209724209Y-92815286D01*
X209580714Y-92671791D01*
X209411983Y-92559048D01*
X209224498Y-92481390D01*
X209025466Y-92441800D01*
X208822534Y-92441800D01*
X208623502Y-92481390D01*
X208436017Y-92559048D01*
X208267286Y-92671791D01*
X208123791Y-92815286D01*
X208011048Y-92984017D01*
X207933390Y-93171502D01*
X207893800Y-93370534D01*
X206358200Y-93370534D01*
X206358200Y-93361079D01*
X206314921Y-93143500D01*
X206230025Y-92938544D01*
X206106777Y-92754089D01*
X205949911Y-92597223D01*
X205765456Y-92473975D01*
X205560500Y-92389079D01*
X205342921Y-92345800D01*
X205121079Y-92345800D01*
X204903500Y-92389079D01*
X204698544Y-92473975D01*
X204514089Y-92597223D01*
X204357223Y-92754089D01*
X204233975Y-92938544D01*
X204149079Y-93143500D01*
X204105800Y-93361079D01*
X168717787Y-93361079D01*
X168419223Y-93062515D01*
X167957971Y-92754316D01*
X167445455Y-92542025D01*
X166901371Y-92433800D01*
X166346629Y-92433800D01*
X165802545Y-92542025D01*
X165290029Y-92754316D01*
X164828777Y-93062515D01*
X164436515Y-93454777D01*
X164128316Y-93916029D01*
X163916025Y-94428545D01*
X163807800Y-94972629D01*
X162813600Y-94972629D01*
X162813600Y-91373400D01*
X174583800Y-91373400D01*
X174583800Y-91506600D01*
X174609786Y-91637240D01*
X174660759Y-91760301D01*
X174734761Y-91871052D01*
X174828948Y-91965239D01*
X174939699Y-92039241D01*
X175062760Y-92090214D01*
X175193400Y-92116200D01*
X175326600Y-92116200D01*
X175457240Y-92090214D01*
X175580301Y-92039241D01*
X175691052Y-91965239D01*
X175693552Y-91962739D01*
X190376200Y-91962739D01*
X190376200Y-92187261D01*
X190420002Y-92407467D01*
X190505922Y-92614898D01*
X190630660Y-92801580D01*
X190789420Y-92960340D01*
X190976102Y-93085078D01*
X191183533Y-93170998D01*
X191403739Y-93214800D01*
X191628261Y-93214800D01*
X191848467Y-93170998D01*
X192055898Y-93085078D01*
X192242580Y-92960340D01*
X192401340Y-92801580D01*
X192526078Y-92614898D01*
X192611998Y-92407467D01*
X192655800Y-92187261D01*
X192655800Y-91962739D01*
X192916200Y-91962739D01*
X192916200Y-92187261D01*
X192960002Y-92407467D01*
X193045922Y-92614898D01*
X193170660Y-92801580D01*
X193329420Y-92960340D01*
X193516102Y-93085078D01*
X193723533Y-93170998D01*
X193943739Y-93214800D01*
X194168261Y-93214800D01*
X194388467Y-93170998D01*
X194595898Y-93085078D01*
X194782580Y-92960340D01*
X194941340Y-92801580D01*
X195066078Y-92614898D01*
X195151998Y-92407467D01*
X195195800Y-92187261D01*
X195195800Y-91962739D01*
X195151998Y-91742533D01*
X195066078Y-91535102D01*
X194941340Y-91348420D01*
X194804320Y-91211400D01*
X195454864Y-91211400D01*
X195454864Y-92938600D01*
X195460197Y-92992745D01*
X195475990Y-93044808D01*
X195501637Y-93092791D01*
X195536152Y-93134848D01*
X195578209Y-93169363D01*
X195626192Y-93195010D01*
X195678255Y-93210803D01*
X195732400Y-93216136D01*
X197459600Y-93216136D01*
X197513745Y-93210803D01*
X197565808Y-93195010D01*
X197613791Y-93169363D01*
X197655848Y-93134848D01*
X197690363Y-93092791D01*
X197716010Y-93044808D01*
X197731803Y-92992745D01*
X197737136Y-92938600D01*
X197737136Y-91211400D01*
X197731803Y-91157255D01*
X197716010Y-91105192D01*
X197690363Y-91057209D01*
X197655848Y-91015152D01*
X197613791Y-90980637D01*
X197565808Y-90954990D01*
X197513745Y-90939197D01*
X197459600Y-90933864D01*
X195732400Y-90933864D01*
X195678255Y-90939197D01*
X195626192Y-90954990D01*
X195578209Y-90980637D01*
X195536152Y-91015152D01*
X195501637Y-91057209D01*
X195475990Y-91105192D01*
X195460197Y-91157255D01*
X195454864Y-91211400D01*
X194804320Y-91211400D01*
X194782580Y-91189660D01*
X194595898Y-91064922D01*
X194388467Y-90979002D01*
X194168261Y-90935200D01*
X193943739Y-90935200D01*
X193723533Y-90979002D01*
X193516102Y-91064922D01*
X193329420Y-91189660D01*
X193170660Y-91348420D01*
X193045922Y-91535102D01*
X192960002Y-91742533D01*
X192916200Y-91962739D01*
X192655800Y-91962739D01*
X192611998Y-91742533D01*
X192526078Y-91535102D01*
X192401340Y-91348420D01*
X192242580Y-91189660D01*
X192055898Y-91064922D01*
X191848467Y-90979002D01*
X191628261Y-90935200D01*
X191403739Y-90935200D01*
X191183533Y-90979002D01*
X190976102Y-91064922D01*
X190789420Y-91189660D01*
X190630660Y-91348420D01*
X190505922Y-91535102D01*
X190420002Y-91742533D01*
X190376200Y-91962739D01*
X175693552Y-91962739D01*
X175785239Y-91871052D01*
X175859241Y-91760301D01*
X175910214Y-91637240D01*
X175936200Y-91506600D01*
X175936200Y-91373400D01*
X175910214Y-91242760D01*
X175859241Y-91119699D01*
X175785239Y-91008948D01*
X175691052Y-90914761D01*
X175580301Y-90840759D01*
X175532789Y-90821079D01*
X204105800Y-90821079D01*
X204105800Y-91042921D01*
X204149079Y-91260500D01*
X204233975Y-91465456D01*
X204357223Y-91649911D01*
X204514089Y-91806777D01*
X204698544Y-91930025D01*
X204903500Y-92014921D01*
X205121079Y-92058200D01*
X205342921Y-92058200D01*
X205560500Y-92014921D01*
X205765456Y-91930025D01*
X205949911Y-91806777D01*
X206106777Y-91649911D01*
X206230025Y-91465456D01*
X206314921Y-91260500D01*
X206358200Y-91042921D01*
X206358200Y-90830534D01*
X207893800Y-90830534D01*
X207893800Y-91033466D01*
X207933390Y-91232498D01*
X208011048Y-91419983D01*
X208123791Y-91588714D01*
X208267286Y-91732209D01*
X208436017Y-91844952D01*
X208623502Y-91922610D01*
X208822534Y-91962200D01*
X209025466Y-91962200D01*
X209224498Y-91922610D01*
X209411983Y-91844952D01*
X209580714Y-91732209D01*
X209724209Y-91588714D01*
X209836952Y-91419983D01*
X209914610Y-91232498D01*
X209954200Y-91033466D01*
X209954200Y-90830534D01*
X209914610Y-90631502D01*
X209836952Y-90444017D01*
X209724209Y-90275286D01*
X209580714Y-90131791D01*
X209411983Y-90019048D01*
X209224498Y-89941390D01*
X209025466Y-89901800D01*
X208822534Y-89901800D01*
X208623502Y-89941390D01*
X208436017Y-90019048D01*
X208267286Y-90131791D01*
X208123791Y-90275286D01*
X208011048Y-90444017D01*
X207933390Y-90631502D01*
X207893800Y-90830534D01*
X206358200Y-90830534D01*
X206358200Y-90821079D01*
X206314921Y-90603500D01*
X206230025Y-90398544D01*
X206106777Y-90214089D01*
X205949911Y-90057223D01*
X205765456Y-89933975D01*
X205560500Y-89849079D01*
X205342921Y-89805800D01*
X205121079Y-89805800D01*
X204903500Y-89849079D01*
X204698544Y-89933975D01*
X204514089Y-90057223D01*
X204357223Y-90214089D01*
X204233975Y-90398544D01*
X204149079Y-90603500D01*
X204105800Y-90821079D01*
X175532789Y-90821079D01*
X175457240Y-90789786D01*
X175326600Y-90763800D01*
X175193400Y-90763800D01*
X175062760Y-90789786D01*
X174939699Y-90840759D01*
X174828948Y-90914761D01*
X174734761Y-91008948D01*
X174660759Y-91119699D01*
X174609786Y-91242760D01*
X174583800Y-91373400D01*
X162813600Y-91373400D01*
X162813600Y-89595400D01*
X166963800Y-89595400D01*
X166963800Y-89728600D01*
X166989786Y-89859240D01*
X167040759Y-89982301D01*
X167114761Y-90093052D01*
X167208948Y-90187239D01*
X167319699Y-90261241D01*
X167442760Y-90312214D01*
X167573400Y-90338200D01*
X167706600Y-90338200D01*
X167837240Y-90312214D01*
X167960301Y-90261241D01*
X168071052Y-90187239D01*
X168165239Y-90093052D01*
X168239241Y-89982301D01*
X168290214Y-89859240D01*
X168316200Y-89728600D01*
X168316200Y-89595400D01*
X168290939Y-89468400D01*
X170519800Y-89468400D01*
X170519800Y-89601600D01*
X170545786Y-89732240D01*
X170596759Y-89855301D01*
X170670761Y-89966052D01*
X170764948Y-90060239D01*
X170875699Y-90134241D01*
X170998760Y-90185214D01*
X171129400Y-90211200D01*
X171262600Y-90211200D01*
X171393240Y-90185214D01*
X171516301Y-90134241D01*
X171627052Y-90060239D01*
X171721239Y-89966052D01*
X171795241Y-89855301D01*
X171846214Y-89732240D01*
X171872200Y-89601600D01*
X171872200Y-89468400D01*
X172297800Y-89468400D01*
X172297800Y-89601600D01*
X172323786Y-89732240D01*
X172374759Y-89855301D01*
X172448761Y-89966052D01*
X172542948Y-90060239D01*
X172653699Y-90134241D01*
X172776760Y-90185214D01*
X172907400Y-90211200D01*
X173040600Y-90211200D01*
X173171240Y-90185214D01*
X173294301Y-90134241D01*
X173405052Y-90060239D01*
X173499239Y-89966052D01*
X173573241Y-89855301D01*
X173624214Y-89732240D01*
X173650200Y-89601600D01*
X173650200Y-89468400D01*
X173624214Y-89337760D01*
X173573241Y-89214699D01*
X173499239Y-89103948D01*
X173405052Y-89009761D01*
X173294301Y-88935759D01*
X173171240Y-88884786D01*
X173040600Y-88858800D01*
X172907400Y-88858800D01*
X172776760Y-88884786D01*
X172653699Y-88935759D01*
X172542948Y-89009761D01*
X172448761Y-89103948D01*
X172374759Y-89214699D01*
X172323786Y-89337760D01*
X172297800Y-89468400D01*
X171872200Y-89468400D01*
X171846214Y-89337760D01*
X171795241Y-89214699D01*
X171721239Y-89103948D01*
X171627052Y-89009761D01*
X171516301Y-88935759D01*
X171393240Y-88884786D01*
X171262600Y-88858800D01*
X171129400Y-88858800D01*
X170998760Y-88884786D01*
X170875699Y-88935759D01*
X170764948Y-89009761D01*
X170670761Y-89103948D01*
X170596759Y-89214699D01*
X170545786Y-89337760D01*
X170519800Y-89468400D01*
X168290939Y-89468400D01*
X168290214Y-89464760D01*
X168239241Y-89341699D01*
X168165239Y-89230948D01*
X168071052Y-89136761D01*
X167960301Y-89062759D01*
X167837240Y-89011786D01*
X167706600Y-88985800D01*
X167573400Y-88985800D01*
X167442760Y-89011786D01*
X167319699Y-89062759D01*
X167208948Y-89136761D01*
X167114761Y-89230948D01*
X167040759Y-89341699D01*
X166989786Y-89464760D01*
X166963800Y-89595400D01*
X162813600Y-89595400D01*
X162813600Y-88849200D01*
X179612677Y-88849200D01*
X179682790Y-88954132D01*
X179777868Y-89049210D01*
X179889668Y-89123912D01*
X180013893Y-89175368D01*
X180145770Y-89201600D01*
X180280230Y-89201600D01*
X180412107Y-89175368D01*
X180536332Y-89123912D01*
X180648132Y-89049210D01*
X180743210Y-88954132D01*
X180813323Y-88849200D01*
X185674000Y-88849200D01*
X185688866Y-88847736D01*
X185703160Y-88843400D01*
X185716334Y-88836358D01*
X185727882Y-88826882D01*
X185737358Y-88815334D01*
X185744400Y-88802160D01*
X185748736Y-88787866D01*
X185750200Y-88773000D01*
X185750200Y-88290534D01*
X207893800Y-88290534D01*
X207893800Y-88493466D01*
X207933390Y-88692498D01*
X208011048Y-88879983D01*
X208123791Y-89048714D01*
X208267286Y-89192209D01*
X208436017Y-89304952D01*
X208623502Y-89382610D01*
X208822534Y-89422200D01*
X209025466Y-89422200D01*
X209224498Y-89382610D01*
X209411983Y-89304952D01*
X209580714Y-89192209D01*
X209724209Y-89048714D01*
X209783639Y-88959770D01*
X214709400Y-88959770D01*
X214709400Y-89094230D01*
X214735632Y-89226107D01*
X214787088Y-89350332D01*
X214861790Y-89462132D01*
X214956868Y-89557210D01*
X215068668Y-89631912D01*
X215192893Y-89683368D01*
X215324770Y-89709600D01*
X215459230Y-89709600D01*
X215591107Y-89683368D01*
X215715332Y-89631912D01*
X215827132Y-89557210D01*
X215916572Y-89467770D01*
X218138400Y-89467770D01*
X218138400Y-89602230D01*
X218164632Y-89734107D01*
X218216088Y-89858332D01*
X218290790Y-89970132D01*
X218385868Y-90065210D01*
X218497668Y-90139912D01*
X218621893Y-90191368D01*
X218753770Y-90217600D01*
X218888230Y-90217600D01*
X219020107Y-90191368D01*
X219144332Y-90139912D01*
X219256132Y-90065210D01*
X219351210Y-89970132D01*
X219425912Y-89858332D01*
X219477368Y-89734107D01*
X219503600Y-89602230D01*
X219503600Y-89467770D01*
X219492461Y-89411770D01*
X223020400Y-89411770D01*
X223020400Y-89546230D01*
X223046632Y-89678107D01*
X223098088Y-89802332D01*
X223172790Y-89914132D01*
X223267868Y-90009210D01*
X223379668Y-90083912D01*
X223503893Y-90135368D01*
X223635770Y-90161600D01*
X223770230Y-90161600D01*
X223902107Y-90135368D01*
X224026332Y-90083912D01*
X224138132Y-90009210D01*
X224233210Y-89914132D01*
X224307912Y-89802332D01*
X224359368Y-89678107D01*
X224385600Y-89546230D01*
X224385600Y-89411770D01*
X224359368Y-89279893D01*
X224307912Y-89155668D01*
X224233210Y-89043868D01*
X224138132Y-88948790D01*
X224026332Y-88874088D01*
X223902107Y-88822632D01*
X223770230Y-88796400D01*
X223635770Y-88796400D01*
X223503893Y-88822632D01*
X223379668Y-88874088D01*
X223267868Y-88948790D01*
X223172790Y-89043868D01*
X223098088Y-89155668D01*
X223046632Y-89279893D01*
X223020400Y-89411770D01*
X219492461Y-89411770D01*
X219477368Y-89335893D01*
X219425912Y-89211668D01*
X219351210Y-89099868D01*
X219256132Y-89004790D01*
X219144332Y-88930088D01*
X219020107Y-88878632D01*
X218888230Y-88852400D01*
X218753770Y-88852400D01*
X218621893Y-88878632D01*
X218497668Y-88930088D01*
X218385868Y-89004790D01*
X218290790Y-89099868D01*
X218216088Y-89211668D01*
X218164632Y-89335893D01*
X218138400Y-89467770D01*
X215916572Y-89467770D01*
X215922210Y-89462132D01*
X215996912Y-89350332D01*
X216048368Y-89226107D01*
X216074600Y-89094230D01*
X216074600Y-88959770D01*
X216048368Y-88827893D01*
X215996912Y-88703668D01*
X215922210Y-88591868D01*
X215827132Y-88496790D01*
X215759755Y-88451770D01*
X221059400Y-88451770D01*
X221059400Y-88586230D01*
X221085632Y-88718107D01*
X221137088Y-88842332D01*
X221211790Y-88954132D01*
X221306868Y-89049210D01*
X221418668Y-89123912D01*
X221542893Y-89175368D01*
X221674770Y-89201600D01*
X221809230Y-89201600D01*
X221941107Y-89175368D01*
X222065332Y-89123912D01*
X222177132Y-89049210D01*
X222272210Y-88954132D01*
X222346912Y-88842332D01*
X222398368Y-88718107D01*
X222424600Y-88586230D01*
X222424600Y-88451770D01*
X222398368Y-88319893D01*
X222346912Y-88195668D01*
X222272210Y-88083868D01*
X222177132Y-87988790D01*
X222065332Y-87914088D01*
X221941107Y-87862632D01*
X221809230Y-87836400D01*
X221674770Y-87836400D01*
X221542893Y-87862632D01*
X221418668Y-87914088D01*
X221306868Y-87988790D01*
X221211790Y-88083868D01*
X221137088Y-88195668D01*
X221085632Y-88319893D01*
X221059400Y-88451770D01*
X215759755Y-88451770D01*
X215715332Y-88422088D01*
X215591107Y-88370632D01*
X215459230Y-88344400D01*
X215324770Y-88344400D01*
X215192893Y-88370632D01*
X215068668Y-88422088D01*
X214956868Y-88496790D01*
X214861790Y-88591868D01*
X214787088Y-88703668D01*
X214735632Y-88827893D01*
X214709400Y-88959770D01*
X209783639Y-88959770D01*
X209836952Y-88879983D01*
X209914610Y-88692498D01*
X209954200Y-88493466D01*
X209954200Y-88290534D01*
X209914610Y-88091502D01*
X209836952Y-87904017D01*
X209724209Y-87735286D01*
X209580714Y-87591791D01*
X209411983Y-87479048D01*
X209224498Y-87401390D01*
X209025466Y-87361800D01*
X208822534Y-87361800D01*
X208623502Y-87401390D01*
X208436017Y-87479048D01*
X208267286Y-87591791D01*
X208123791Y-87735286D01*
X208011048Y-87904017D01*
X207933390Y-88091502D01*
X207893800Y-88290534D01*
X185750200Y-88290534D01*
X185750200Y-86673770D01*
X189055400Y-86673770D01*
X189055400Y-86808230D01*
X189081632Y-86940107D01*
X189133088Y-87064332D01*
X189207790Y-87176132D01*
X189302868Y-87271210D01*
X189414668Y-87345912D01*
X189538893Y-87397368D01*
X189670770Y-87423600D01*
X189805230Y-87423600D01*
X189937107Y-87397368D01*
X190061332Y-87345912D01*
X190116919Y-87308770D01*
X216741400Y-87308770D01*
X216741400Y-87443230D01*
X216767632Y-87575107D01*
X216819088Y-87699332D01*
X216893790Y-87811132D01*
X216988868Y-87906210D01*
X217100668Y-87980912D01*
X217224893Y-88032368D01*
X217356770Y-88058600D01*
X217491230Y-88058600D01*
X217623107Y-88032368D01*
X217747332Y-87980912D01*
X217859132Y-87906210D01*
X217954210Y-87811132D01*
X218028912Y-87699332D01*
X218080368Y-87575107D01*
X218106600Y-87443230D01*
X218106600Y-87308770D01*
X218080368Y-87176893D01*
X218028912Y-87052668D01*
X217954210Y-86940868D01*
X217941112Y-86927770D01*
X218138400Y-86927770D01*
X218138400Y-87062230D01*
X218164632Y-87194107D01*
X218216088Y-87318332D01*
X218290790Y-87430132D01*
X218385868Y-87525210D01*
X218497668Y-87599912D01*
X218621893Y-87651368D01*
X218753770Y-87677600D01*
X218888230Y-87677600D01*
X219020107Y-87651368D01*
X219144332Y-87599912D01*
X219199919Y-87562770D01*
X224361400Y-87562770D01*
X224361400Y-87697230D01*
X224387632Y-87829107D01*
X224439088Y-87953332D01*
X224513790Y-88065132D01*
X224608868Y-88160210D01*
X224720668Y-88234912D01*
X224844893Y-88286368D01*
X224976770Y-88312600D01*
X225111230Y-88312600D01*
X225243107Y-88286368D01*
X225367332Y-88234912D01*
X225479132Y-88160210D01*
X225574210Y-88065132D01*
X225648912Y-87953332D01*
X225700368Y-87829107D01*
X225726600Y-87697230D01*
X225726600Y-87562770D01*
X225700368Y-87430893D01*
X225648912Y-87306668D01*
X225574210Y-87194868D01*
X225479132Y-87099790D01*
X225367332Y-87025088D01*
X225243107Y-86973632D01*
X225111230Y-86947400D01*
X224976770Y-86947400D01*
X224844893Y-86973632D01*
X224720668Y-87025088D01*
X224608868Y-87099790D01*
X224513790Y-87194868D01*
X224439088Y-87306668D01*
X224387632Y-87430893D01*
X224361400Y-87562770D01*
X219199919Y-87562770D01*
X219256132Y-87525210D01*
X219351210Y-87430132D01*
X219425912Y-87318332D01*
X219477368Y-87194107D01*
X219503600Y-87062230D01*
X219503600Y-86927770D01*
X219477368Y-86795893D01*
X219425912Y-86671668D01*
X219351210Y-86559868D01*
X219256132Y-86464790D01*
X219144332Y-86390088D01*
X219020107Y-86338632D01*
X218888230Y-86312400D01*
X218753770Y-86312400D01*
X218621893Y-86338632D01*
X218497668Y-86390088D01*
X218385868Y-86464790D01*
X218290790Y-86559868D01*
X218216088Y-86671668D01*
X218164632Y-86795893D01*
X218138400Y-86927770D01*
X217941112Y-86927770D01*
X217859132Y-86845790D01*
X217747332Y-86771088D01*
X217623107Y-86719632D01*
X217491230Y-86693400D01*
X217356770Y-86693400D01*
X217224893Y-86719632D01*
X217100668Y-86771088D01*
X216988868Y-86845790D01*
X216893790Y-86940868D01*
X216819088Y-87052668D01*
X216767632Y-87176893D01*
X216741400Y-87308770D01*
X190116919Y-87308770D01*
X190173132Y-87271210D01*
X190268210Y-87176132D01*
X190342912Y-87064332D01*
X190394368Y-86940107D01*
X190420600Y-86808230D01*
X190420600Y-86673770D01*
X190394368Y-86541893D01*
X190342912Y-86417668D01*
X190268210Y-86305868D01*
X190173132Y-86210790D01*
X190061332Y-86136088D01*
X189937107Y-86084632D01*
X189805230Y-86058400D01*
X189670770Y-86058400D01*
X189538893Y-86084632D01*
X189414668Y-86136088D01*
X189302868Y-86210790D01*
X189207790Y-86305868D01*
X189133088Y-86417668D01*
X189081632Y-86541893D01*
X189055400Y-86673770D01*
X185750200Y-86673770D01*
X185750200Y-85750534D01*
X207893800Y-85750534D01*
X207893800Y-85953466D01*
X207933390Y-86152498D01*
X208011048Y-86339983D01*
X208123791Y-86508714D01*
X208267286Y-86652209D01*
X208436017Y-86764952D01*
X208623502Y-86842610D01*
X208822534Y-86882200D01*
X209025466Y-86882200D01*
X209224498Y-86842610D01*
X209411983Y-86764952D01*
X209580714Y-86652209D01*
X209724209Y-86508714D01*
X209836952Y-86339983D01*
X209914610Y-86152498D01*
X209954200Y-85953466D01*
X209954200Y-85750534D01*
X209914610Y-85551502D01*
X209836952Y-85364017D01*
X209724209Y-85195286D01*
X209580714Y-85051791D01*
X209411983Y-84939048D01*
X209224498Y-84861390D01*
X209025466Y-84821800D01*
X208822534Y-84821800D01*
X208623502Y-84861390D01*
X208436017Y-84939048D01*
X208267286Y-85051791D01*
X208123791Y-85195286D01*
X208011048Y-85364017D01*
X207933390Y-85551502D01*
X207893800Y-85750534D01*
X185750200Y-85750534D01*
X185750200Y-81467400D01*
X189061800Y-81467400D01*
X189061800Y-81600600D01*
X189087786Y-81731240D01*
X189138759Y-81854301D01*
X189212761Y-81965052D01*
X189306948Y-82059239D01*
X189376182Y-82105500D01*
X189306948Y-82151761D01*
X189212761Y-82245948D01*
X189138759Y-82356699D01*
X189087786Y-82479760D01*
X189061800Y-82610400D01*
X189061800Y-82743600D01*
X189087786Y-82874240D01*
X189138759Y-82997301D01*
X189212761Y-83108052D01*
X189306948Y-83202239D01*
X189417699Y-83276241D01*
X189540760Y-83327214D01*
X189671400Y-83353200D01*
X189804600Y-83353200D01*
X189935240Y-83327214D01*
X190058301Y-83276241D01*
X190156637Y-83210534D01*
X207893800Y-83210534D01*
X207893800Y-83413466D01*
X207933390Y-83612498D01*
X208011048Y-83799983D01*
X208123791Y-83968714D01*
X208267286Y-84112209D01*
X208436017Y-84224952D01*
X208623502Y-84302610D01*
X208822534Y-84342200D01*
X209025466Y-84342200D01*
X209224498Y-84302610D01*
X209411983Y-84224952D01*
X209580714Y-84112209D01*
X209724209Y-83968714D01*
X209836952Y-83799983D01*
X209914610Y-83612498D01*
X209954200Y-83413466D01*
X209954200Y-83210534D01*
X209914610Y-83011502D01*
X209836952Y-82824017D01*
X209724209Y-82655286D01*
X209580714Y-82511791D01*
X209411983Y-82399048D01*
X209224498Y-82321390D01*
X209025466Y-82281800D01*
X208822534Y-82281800D01*
X208623502Y-82321390D01*
X208436017Y-82399048D01*
X208267286Y-82511791D01*
X208123791Y-82655286D01*
X208011048Y-82824017D01*
X207933390Y-83011502D01*
X207893800Y-83210534D01*
X190156637Y-83210534D01*
X190169052Y-83202239D01*
X190263239Y-83108052D01*
X190337241Y-82997301D01*
X190388214Y-82874240D01*
X190414200Y-82743600D01*
X190414200Y-82610400D01*
X190388214Y-82479760D01*
X190337241Y-82356699D01*
X190263239Y-82245948D01*
X190169052Y-82151761D01*
X190099818Y-82105500D01*
X190169052Y-82059239D01*
X190263239Y-81965052D01*
X190337241Y-81854301D01*
X190339946Y-81847770D01*
X197691400Y-81847770D01*
X197691400Y-81982230D01*
X197717632Y-82114107D01*
X197769088Y-82238332D01*
X197843790Y-82350132D01*
X197938868Y-82445210D01*
X198050668Y-82519912D01*
X198174893Y-82571368D01*
X198306770Y-82597600D01*
X198441230Y-82597600D01*
X198573107Y-82571368D01*
X198697332Y-82519912D01*
X198809132Y-82445210D01*
X198904210Y-82350132D01*
X198978912Y-82238332D01*
X199030368Y-82114107D01*
X199056600Y-81982230D01*
X199056600Y-81847770D01*
X199030368Y-81715893D01*
X199006662Y-81658662D01*
X199063893Y-81682368D01*
X199195770Y-81708600D01*
X199330230Y-81708600D01*
X199462107Y-81682368D01*
X199586332Y-81630912D01*
X199698132Y-81556210D01*
X199793210Y-81461132D01*
X199867912Y-81349332D01*
X199919368Y-81225107D01*
X199945600Y-81093230D01*
X199945600Y-80958770D01*
X199919368Y-80826893D01*
X199867912Y-80702668D01*
X199840124Y-80661079D01*
X201565800Y-80661079D01*
X201565800Y-80882921D01*
X201609079Y-81100500D01*
X201693975Y-81305456D01*
X201817223Y-81489911D01*
X201974089Y-81646777D01*
X202158544Y-81770025D01*
X202363500Y-81854921D01*
X202581079Y-81898200D01*
X202802921Y-81898200D01*
X203020500Y-81854921D01*
X203225456Y-81770025D01*
X203409911Y-81646777D01*
X203566777Y-81489911D01*
X203690025Y-81305456D01*
X203774921Y-81100500D01*
X203818200Y-80882921D01*
X203818200Y-80661079D01*
X204105800Y-80661079D01*
X204105800Y-80882921D01*
X204149079Y-81100500D01*
X204233975Y-81305456D01*
X204357223Y-81489911D01*
X204514089Y-81646777D01*
X204698544Y-81770025D01*
X204903500Y-81854921D01*
X205121079Y-81898200D01*
X205342921Y-81898200D01*
X205560500Y-81854921D01*
X205765456Y-81770025D01*
X205949911Y-81646777D01*
X206106777Y-81489911D01*
X206230025Y-81305456D01*
X206314921Y-81100500D01*
X206358200Y-80882921D01*
X206358200Y-80670534D01*
X207893800Y-80670534D01*
X207893800Y-80873466D01*
X207933390Y-81072498D01*
X208011048Y-81259983D01*
X208123791Y-81428714D01*
X208267286Y-81572209D01*
X208436017Y-81684952D01*
X208623502Y-81762610D01*
X208822534Y-81802200D01*
X209025466Y-81802200D01*
X209224498Y-81762610D01*
X209411983Y-81684952D01*
X209580714Y-81572209D01*
X209724209Y-81428714D01*
X209836952Y-81259983D01*
X209914610Y-81072498D01*
X209954200Y-80873466D01*
X209954200Y-80670534D01*
X209914610Y-80471502D01*
X209836952Y-80284017D01*
X209724209Y-80115286D01*
X209580714Y-79971791D01*
X209411983Y-79859048D01*
X209224498Y-79781390D01*
X209025466Y-79741800D01*
X208822534Y-79741800D01*
X208623502Y-79781390D01*
X208436017Y-79859048D01*
X208267286Y-79971791D01*
X208123791Y-80115286D01*
X208011048Y-80284017D01*
X207933390Y-80471502D01*
X207893800Y-80670534D01*
X206358200Y-80670534D01*
X206358200Y-80661079D01*
X206314921Y-80443500D01*
X206230025Y-80238544D01*
X206106777Y-80054089D01*
X205949911Y-79897223D01*
X205765456Y-79773975D01*
X205560500Y-79689079D01*
X205342921Y-79645800D01*
X205121079Y-79645800D01*
X204903500Y-79689079D01*
X204698544Y-79773975D01*
X204514089Y-79897223D01*
X204357223Y-80054089D01*
X204233975Y-80238544D01*
X204149079Y-80443500D01*
X204105800Y-80661079D01*
X203818200Y-80661079D01*
X203774921Y-80443500D01*
X203690025Y-80238544D01*
X203566777Y-80054089D01*
X203409911Y-79897223D01*
X203225456Y-79773975D01*
X203020500Y-79689079D01*
X202802921Y-79645800D01*
X202581079Y-79645800D01*
X202363500Y-79689079D01*
X202158544Y-79773975D01*
X201974089Y-79897223D01*
X201817223Y-80054089D01*
X201693975Y-80238544D01*
X201609079Y-80443500D01*
X201565800Y-80661079D01*
X199840124Y-80661079D01*
X199793210Y-80590868D01*
X199698132Y-80495790D01*
X199636337Y-80454500D01*
X199698132Y-80413210D01*
X199793210Y-80318132D01*
X199867912Y-80206332D01*
X199919368Y-80082107D01*
X199945600Y-79950230D01*
X199945600Y-79815770D01*
X199919368Y-79683893D01*
X199867912Y-79559668D01*
X199793210Y-79447868D01*
X199780112Y-79434770D01*
X218265400Y-79434770D01*
X218265400Y-79569230D01*
X218291632Y-79701107D01*
X218343088Y-79825332D01*
X218417790Y-79937132D01*
X218512868Y-80032210D01*
X218624668Y-80106912D01*
X218748893Y-80158368D01*
X218880770Y-80184600D01*
X219015230Y-80184600D01*
X219147107Y-80158368D01*
X219271332Y-80106912D01*
X219383132Y-80032210D01*
X219478210Y-79937132D01*
X219552912Y-79825332D01*
X219604368Y-79701107D01*
X219630600Y-79569230D01*
X219630600Y-79434770D01*
X224615400Y-79434770D01*
X224615400Y-79569230D01*
X224641632Y-79701107D01*
X224693088Y-79825332D01*
X224767790Y-79937132D01*
X224862868Y-80032210D01*
X224974668Y-80106912D01*
X225098893Y-80158368D01*
X225230770Y-80184600D01*
X225365230Y-80184600D01*
X225497107Y-80158368D01*
X225621332Y-80106912D01*
X225733132Y-80032210D01*
X225828210Y-79937132D01*
X225902912Y-79825332D01*
X225954368Y-79701107D01*
X225980600Y-79569230D01*
X225980600Y-79434770D01*
X225954368Y-79302893D01*
X225902912Y-79178668D01*
X225828210Y-79066868D01*
X225733132Y-78971790D01*
X225621332Y-78897088D01*
X225497107Y-78845632D01*
X225365230Y-78819400D01*
X225230770Y-78819400D01*
X225098893Y-78845632D01*
X224974668Y-78897088D01*
X224862868Y-78971790D01*
X224767790Y-79066868D01*
X224693088Y-79178668D01*
X224641632Y-79302893D01*
X224615400Y-79434770D01*
X219630600Y-79434770D01*
X219604368Y-79302893D01*
X219552912Y-79178668D01*
X219478210Y-79066868D01*
X219383132Y-78971790D01*
X219271332Y-78897088D01*
X219147107Y-78845632D01*
X219015230Y-78819400D01*
X218880770Y-78819400D01*
X218748893Y-78845632D01*
X218624668Y-78897088D01*
X218512868Y-78971790D01*
X218417790Y-79066868D01*
X218343088Y-79178668D01*
X218291632Y-79302893D01*
X218265400Y-79434770D01*
X199780112Y-79434770D01*
X199698132Y-79352790D01*
X199636337Y-79311500D01*
X199698132Y-79270210D01*
X199793210Y-79175132D01*
X199867912Y-79063332D01*
X199919368Y-78939107D01*
X199945600Y-78807230D01*
X199945600Y-78672770D01*
X199919368Y-78540893D01*
X199867912Y-78416668D01*
X199793210Y-78304868D01*
X199698132Y-78209790D01*
X199586332Y-78135088D01*
X199552512Y-78121079D01*
X201565800Y-78121079D01*
X201565800Y-78342921D01*
X201609079Y-78560500D01*
X201693975Y-78765456D01*
X201817223Y-78949911D01*
X201974089Y-79106777D01*
X202158544Y-79230025D01*
X202363500Y-79314921D01*
X202581079Y-79358200D01*
X202802921Y-79358200D01*
X203020500Y-79314921D01*
X203225456Y-79230025D01*
X203409911Y-79106777D01*
X203566777Y-78949911D01*
X203690025Y-78765456D01*
X203774921Y-78560500D01*
X203818200Y-78342921D01*
X203818200Y-78121079D01*
X204105800Y-78121079D01*
X204105800Y-78342921D01*
X204149079Y-78560500D01*
X204233975Y-78765456D01*
X204357223Y-78949911D01*
X204514089Y-79106777D01*
X204698544Y-79230025D01*
X204903500Y-79314921D01*
X205121079Y-79358200D01*
X205342921Y-79358200D01*
X205560500Y-79314921D01*
X205765456Y-79230025D01*
X205949911Y-79106777D01*
X206106777Y-78949911D01*
X206230025Y-78765456D01*
X206314921Y-78560500D01*
X206358200Y-78342921D01*
X206358200Y-78130534D01*
X207893800Y-78130534D01*
X207893800Y-78333466D01*
X207933390Y-78532498D01*
X208011048Y-78719983D01*
X208123791Y-78888714D01*
X208267286Y-79032209D01*
X208436017Y-79144952D01*
X208623502Y-79222610D01*
X208822534Y-79262200D01*
X209025466Y-79262200D01*
X209224498Y-79222610D01*
X209411983Y-79144952D01*
X209580714Y-79032209D01*
X209724209Y-78888714D01*
X209836952Y-78719983D01*
X209914610Y-78532498D01*
X209954200Y-78333466D01*
X209954200Y-78130534D01*
X209914610Y-77931502D01*
X209836952Y-77744017D01*
X209724209Y-77575286D01*
X209580714Y-77431791D01*
X209411983Y-77319048D01*
X209224498Y-77241390D01*
X209025466Y-77201800D01*
X208822534Y-77201800D01*
X208623502Y-77241390D01*
X208436017Y-77319048D01*
X208267286Y-77431791D01*
X208123791Y-77575286D01*
X208011048Y-77744017D01*
X207933390Y-77931502D01*
X207893800Y-78130534D01*
X206358200Y-78130534D01*
X206358200Y-78121079D01*
X206314921Y-77903500D01*
X206230025Y-77698544D01*
X206106777Y-77514089D01*
X205949911Y-77357223D01*
X205765456Y-77233975D01*
X205560500Y-77149079D01*
X205342921Y-77105800D01*
X205121079Y-77105800D01*
X204903500Y-77149079D01*
X204698544Y-77233975D01*
X204514089Y-77357223D01*
X204357223Y-77514089D01*
X204233975Y-77698544D01*
X204149079Y-77903500D01*
X204105800Y-78121079D01*
X203818200Y-78121079D01*
X203774921Y-77903500D01*
X203690025Y-77698544D01*
X203566777Y-77514089D01*
X203409911Y-77357223D01*
X203225456Y-77233975D01*
X203020500Y-77149079D01*
X202802921Y-77105800D01*
X202581079Y-77105800D01*
X202363500Y-77149079D01*
X202158544Y-77233975D01*
X201974089Y-77357223D01*
X201817223Y-77514089D01*
X201693975Y-77698544D01*
X201609079Y-77903500D01*
X201565800Y-78121079D01*
X199552512Y-78121079D01*
X199462107Y-78083632D01*
X199330230Y-78057400D01*
X199195770Y-78057400D01*
X199063893Y-78083632D01*
X198939668Y-78135088D01*
X198827868Y-78209790D01*
X198732790Y-78304868D01*
X198658088Y-78416668D01*
X198606632Y-78540893D01*
X198580400Y-78672770D01*
X198580400Y-78807230D01*
X198606632Y-78939107D01*
X198658088Y-79063332D01*
X198732790Y-79175132D01*
X198827868Y-79270210D01*
X198889663Y-79311500D01*
X198827868Y-79352790D01*
X198732790Y-79447868D01*
X198658088Y-79559668D01*
X198606632Y-79683893D01*
X198580400Y-79815770D01*
X198580400Y-79950230D01*
X198606632Y-80082107D01*
X198658088Y-80206332D01*
X198732790Y-80318132D01*
X198827868Y-80413210D01*
X198889663Y-80454500D01*
X198827868Y-80495790D01*
X198732790Y-80590868D01*
X198658088Y-80702668D01*
X198606632Y-80826893D01*
X198580400Y-80958770D01*
X198580400Y-81093230D01*
X198606632Y-81225107D01*
X198630338Y-81282338D01*
X198573107Y-81258632D01*
X198441230Y-81232400D01*
X198306770Y-81232400D01*
X198174893Y-81258632D01*
X198050668Y-81310088D01*
X197938868Y-81384790D01*
X197843790Y-81479868D01*
X197769088Y-81591668D01*
X197717632Y-81715893D01*
X197691400Y-81847770D01*
X190339946Y-81847770D01*
X190388214Y-81731240D01*
X190414200Y-81600600D01*
X190414200Y-81467400D01*
X190388214Y-81336760D01*
X190337241Y-81213699D01*
X190263239Y-81102948D01*
X190169052Y-81008761D01*
X190058301Y-80934759D01*
X189935240Y-80883786D01*
X189804600Y-80857800D01*
X189671400Y-80857800D01*
X189540760Y-80883786D01*
X189417699Y-80934759D01*
X189306948Y-81008761D01*
X189212761Y-81102948D01*
X189138759Y-81213699D01*
X189087786Y-81336760D01*
X189061800Y-81467400D01*
X185750200Y-81467400D01*
X185750200Y-77783770D01*
X189055400Y-77783770D01*
X189055400Y-77918230D01*
X189081632Y-78050107D01*
X189133088Y-78174332D01*
X189207790Y-78286132D01*
X189302868Y-78381210D01*
X189414668Y-78455912D01*
X189538893Y-78507368D01*
X189670770Y-78533600D01*
X189805230Y-78533600D01*
X189937107Y-78507368D01*
X190061332Y-78455912D01*
X190173132Y-78381210D01*
X190268210Y-78286132D01*
X190342912Y-78174332D01*
X190394368Y-78050107D01*
X190420600Y-77918230D01*
X190420600Y-77783770D01*
X190394368Y-77651893D01*
X190342912Y-77527668D01*
X190268210Y-77415868D01*
X190173132Y-77320790D01*
X190061332Y-77246088D01*
X189937107Y-77194632D01*
X189805230Y-77168400D01*
X189670770Y-77168400D01*
X189538893Y-77194632D01*
X189414668Y-77246088D01*
X189302868Y-77320790D01*
X189207790Y-77415868D01*
X189133088Y-77527668D01*
X189081632Y-77651893D01*
X189055400Y-77783770D01*
X185750200Y-77783770D01*
X185750200Y-75581079D01*
X201565800Y-75581079D01*
X201565800Y-75802921D01*
X201609079Y-76020500D01*
X201693975Y-76225456D01*
X201817223Y-76409911D01*
X201974089Y-76566777D01*
X202158544Y-76690025D01*
X202363500Y-76774921D01*
X202581079Y-76818200D01*
X202802921Y-76818200D01*
X203020500Y-76774921D01*
X203225456Y-76690025D01*
X203409911Y-76566777D01*
X203566777Y-76409911D01*
X203690025Y-76225456D01*
X203774921Y-76020500D01*
X203818200Y-75802921D01*
X203818200Y-75581079D01*
X204105800Y-75581079D01*
X204105800Y-75802921D01*
X204149079Y-76020500D01*
X204233975Y-76225456D01*
X204357223Y-76409911D01*
X204514089Y-76566777D01*
X204698544Y-76690025D01*
X204903500Y-76774921D01*
X205121079Y-76818200D01*
X205342921Y-76818200D01*
X205560500Y-76774921D01*
X205765456Y-76690025D01*
X205949911Y-76566777D01*
X206106777Y-76409911D01*
X206230025Y-76225456D01*
X206314921Y-76020500D01*
X206358200Y-75802921D01*
X206358200Y-75590534D01*
X207893800Y-75590534D01*
X207893800Y-75793466D01*
X207933390Y-75992498D01*
X208011048Y-76179983D01*
X208123791Y-76348714D01*
X208267286Y-76492209D01*
X208436017Y-76604952D01*
X208623502Y-76682610D01*
X208822534Y-76722200D01*
X209025466Y-76722200D01*
X209224498Y-76682610D01*
X209411983Y-76604952D01*
X209580714Y-76492209D01*
X209724209Y-76348714D01*
X209836952Y-76179983D01*
X209914610Y-75992498D01*
X209954200Y-75793466D01*
X209954200Y-75590534D01*
X209914610Y-75391502D01*
X209836952Y-75204017D01*
X209724209Y-75035286D01*
X209580714Y-74891791D01*
X209411983Y-74779048D01*
X209224498Y-74701390D01*
X209025466Y-74661800D01*
X208822534Y-74661800D01*
X208623502Y-74701390D01*
X208436017Y-74779048D01*
X208267286Y-74891791D01*
X208123791Y-75035286D01*
X208011048Y-75204017D01*
X207933390Y-75391502D01*
X207893800Y-75590534D01*
X206358200Y-75590534D01*
X206358200Y-75581079D01*
X206314921Y-75363500D01*
X206230025Y-75158544D01*
X206106777Y-74974089D01*
X205949911Y-74817223D01*
X205765456Y-74693975D01*
X205560500Y-74609079D01*
X205342921Y-74565800D01*
X205121079Y-74565800D01*
X204903500Y-74609079D01*
X204698544Y-74693975D01*
X204514089Y-74817223D01*
X204357223Y-74974089D01*
X204233975Y-75158544D01*
X204149079Y-75363500D01*
X204105800Y-75581079D01*
X203818200Y-75581079D01*
X203774921Y-75363500D01*
X203690025Y-75158544D01*
X203566777Y-74974089D01*
X203409911Y-74817223D01*
X203225456Y-74693975D01*
X203020500Y-74609079D01*
X202802921Y-74565800D01*
X202581079Y-74565800D01*
X202363500Y-74609079D01*
X202158544Y-74693975D01*
X201974089Y-74817223D01*
X201817223Y-74974089D01*
X201693975Y-75158544D01*
X201609079Y-75363500D01*
X201565800Y-75581079D01*
X185750200Y-75581079D01*
X185750200Y-74354770D01*
X191214400Y-74354770D01*
X191214400Y-74489230D01*
X191240632Y-74621107D01*
X191292088Y-74745332D01*
X191366790Y-74857132D01*
X191461868Y-74952210D01*
X191573668Y-75026912D01*
X191697893Y-75078368D01*
X191829770Y-75104600D01*
X191964230Y-75104600D01*
X192096107Y-75078368D01*
X192220332Y-75026912D01*
X192332132Y-74952210D01*
X192427210Y-74857132D01*
X192501912Y-74745332D01*
X192553368Y-74621107D01*
X192579600Y-74489230D01*
X192579600Y-74354770D01*
X192553368Y-74222893D01*
X192501912Y-74098668D01*
X192427210Y-73986868D01*
X192332132Y-73891790D01*
X192220332Y-73817088D01*
X192096107Y-73765632D01*
X191964230Y-73739400D01*
X191829770Y-73739400D01*
X191697893Y-73765632D01*
X191573668Y-73817088D01*
X191461868Y-73891790D01*
X191366790Y-73986868D01*
X191292088Y-74098668D01*
X191240632Y-74222893D01*
X191214400Y-74354770D01*
X185750200Y-74354770D01*
X185750200Y-73041079D01*
X201565800Y-73041079D01*
X201565800Y-73262921D01*
X201609079Y-73480500D01*
X201693975Y-73685456D01*
X201817223Y-73869911D01*
X201974089Y-74026777D01*
X202158544Y-74150025D01*
X202363500Y-74234921D01*
X202581079Y-74278200D01*
X202802921Y-74278200D01*
X203020500Y-74234921D01*
X203225456Y-74150025D01*
X203409911Y-74026777D01*
X203566777Y-73869911D01*
X203690025Y-73685456D01*
X203774921Y-73480500D01*
X203818200Y-73262921D01*
X203818200Y-73041079D01*
X204105800Y-73041079D01*
X204105800Y-73262921D01*
X204149079Y-73480500D01*
X204233975Y-73685456D01*
X204357223Y-73869911D01*
X204514089Y-74026777D01*
X204698544Y-74150025D01*
X204903500Y-74234921D01*
X205121079Y-74278200D01*
X205342921Y-74278200D01*
X205560500Y-74234921D01*
X205765456Y-74150025D01*
X205949911Y-74026777D01*
X206106777Y-73869911D01*
X206230025Y-73685456D01*
X206314921Y-73480500D01*
X206358200Y-73262921D01*
X206358200Y-73050534D01*
X207893800Y-73050534D01*
X207893800Y-73253466D01*
X207933390Y-73452498D01*
X208011048Y-73639983D01*
X208123791Y-73808714D01*
X208267286Y-73952209D01*
X208436017Y-74064952D01*
X208623502Y-74142610D01*
X208822534Y-74182200D01*
X209025466Y-74182200D01*
X209224498Y-74142610D01*
X209411983Y-74064952D01*
X209580714Y-73952209D01*
X209724209Y-73808714D01*
X209836952Y-73639983D01*
X209914610Y-73452498D01*
X209954200Y-73253466D01*
X209954200Y-73050534D01*
X209914610Y-72851502D01*
X209836952Y-72664017D01*
X209724209Y-72495286D01*
X209580714Y-72351791D01*
X209411983Y-72239048D01*
X209224498Y-72161390D01*
X209025466Y-72121800D01*
X208822534Y-72121800D01*
X208623502Y-72161390D01*
X208436017Y-72239048D01*
X208267286Y-72351791D01*
X208123791Y-72495286D01*
X208011048Y-72664017D01*
X207933390Y-72851502D01*
X207893800Y-73050534D01*
X206358200Y-73050534D01*
X206358200Y-73041079D01*
X206314921Y-72823500D01*
X206230025Y-72618544D01*
X206106777Y-72434089D01*
X205949911Y-72277223D01*
X205765456Y-72153975D01*
X205560500Y-72069079D01*
X205342921Y-72025800D01*
X205121079Y-72025800D01*
X204903500Y-72069079D01*
X204698544Y-72153975D01*
X204514089Y-72277223D01*
X204357223Y-72434089D01*
X204233975Y-72618544D01*
X204149079Y-72823500D01*
X204105800Y-73041079D01*
X203818200Y-73041079D01*
X203774921Y-72823500D01*
X203690025Y-72618544D01*
X203566777Y-72434089D01*
X203409911Y-72277223D01*
X203225456Y-72153975D01*
X203020500Y-72069079D01*
X202802921Y-72025800D01*
X202581079Y-72025800D01*
X202363500Y-72069079D01*
X202158544Y-72153975D01*
X201974089Y-72277223D01*
X201817223Y-72434089D01*
X201693975Y-72618544D01*
X201609079Y-72823500D01*
X201565800Y-73041079D01*
X185750200Y-73041079D01*
X185750200Y-71941770D01*
X187658400Y-71941770D01*
X187658400Y-72076230D01*
X187684632Y-72208107D01*
X187736088Y-72332332D01*
X187810790Y-72444132D01*
X187905868Y-72539210D01*
X188017668Y-72613912D01*
X188141893Y-72665368D01*
X188273770Y-72691600D01*
X188408230Y-72691600D01*
X188540107Y-72665368D01*
X188664332Y-72613912D01*
X188776132Y-72539210D01*
X188871210Y-72444132D01*
X188945912Y-72332332D01*
X188997368Y-72208107D01*
X189023600Y-72076230D01*
X189023600Y-71941770D01*
X188997368Y-71809893D01*
X188945912Y-71685668D01*
X188871210Y-71573868D01*
X188776132Y-71478790D01*
X188664332Y-71404088D01*
X188540107Y-71352632D01*
X188408230Y-71326400D01*
X188273770Y-71326400D01*
X188141893Y-71352632D01*
X188017668Y-71404088D01*
X187905868Y-71478790D01*
X187810790Y-71573868D01*
X187736088Y-71685668D01*
X187684632Y-71809893D01*
X187658400Y-71941770D01*
X185750200Y-71941770D01*
X185750200Y-71306770D01*
X189563400Y-71306770D01*
X189563400Y-71441230D01*
X189589632Y-71573107D01*
X189641088Y-71697332D01*
X189715790Y-71809132D01*
X189810868Y-71904210D01*
X189922668Y-71978912D01*
X190046893Y-72030368D01*
X190178770Y-72056600D01*
X190313230Y-72056600D01*
X190445107Y-72030368D01*
X190569332Y-71978912D01*
X190681132Y-71904210D01*
X190776210Y-71809132D01*
X190850912Y-71697332D01*
X190902368Y-71573107D01*
X190928600Y-71441230D01*
X190928600Y-71306770D01*
X197183400Y-71306770D01*
X197183400Y-71441230D01*
X197209632Y-71573107D01*
X197261088Y-71697332D01*
X197335790Y-71809132D01*
X197430868Y-71904210D01*
X197542668Y-71978912D01*
X197666893Y-72030368D01*
X197798770Y-72056600D01*
X197933230Y-72056600D01*
X198065107Y-72030368D01*
X198189332Y-71978912D01*
X198301132Y-71904210D01*
X198396210Y-71809132D01*
X198470912Y-71697332D01*
X198501000Y-71624694D01*
X198531088Y-71697332D01*
X198605790Y-71809132D01*
X198700868Y-71904210D01*
X198812668Y-71978912D01*
X198936893Y-72030368D01*
X199068770Y-72056600D01*
X199203230Y-72056600D01*
X199335107Y-72030368D01*
X199459332Y-71978912D01*
X199571132Y-71904210D01*
X199666210Y-71809132D01*
X199740912Y-71697332D01*
X199792368Y-71573107D01*
X199818600Y-71441230D01*
X199818600Y-71306770D01*
X199792368Y-71174893D01*
X199740912Y-71050668D01*
X199666210Y-70938868D01*
X199571132Y-70843790D01*
X199459332Y-70769088D01*
X199335107Y-70717632D01*
X199203230Y-70691400D01*
X199068770Y-70691400D01*
X198936893Y-70717632D01*
X198812668Y-70769088D01*
X198700868Y-70843790D01*
X198605790Y-70938868D01*
X198531088Y-71050668D01*
X198501000Y-71123306D01*
X198470912Y-71050668D01*
X198396210Y-70938868D01*
X198301132Y-70843790D01*
X198189332Y-70769088D01*
X198065107Y-70717632D01*
X197933230Y-70691400D01*
X197798770Y-70691400D01*
X197666893Y-70717632D01*
X197542668Y-70769088D01*
X197430868Y-70843790D01*
X197335790Y-70938868D01*
X197261088Y-71050668D01*
X197209632Y-71174893D01*
X197183400Y-71306770D01*
X190928600Y-71306770D01*
X190902368Y-71174893D01*
X190850912Y-71050668D01*
X190776210Y-70938868D01*
X190681132Y-70843790D01*
X190569332Y-70769088D01*
X190445107Y-70717632D01*
X190313230Y-70691400D01*
X190178770Y-70691400D01*
X190046893Y-70717632D01*
X189922668Y-70769088D01*
X189810868Y-70843790D01*
X189715790Y-70938868D01*
X189641088Y-71050668D01*
X189589632Y-71174893D01*
X189563400Y-71306770D01*
X185750200Y-71306770D01*
X185750200Y-70501079D01*
X201565800Y-70501079D01*
X201565800Y-70722921D01*
X201609079Y-70940500D01*
X201693975Y-71145456D01*
X201817223Y-71329911D01*
X201974089Y-71486777D01*
X202158544Y-71610025D01*
X202363500Y-71694921D01*
X202581079Y-71738200D01*
X202802921Y-71738200D01*
X203020500Y-71694921D01*
X203225456Y-71610025D01*
X203409911Y-71486777D01*
X203566777Y-71329911D01*
X203690025Y-71145456D01*
X203774921Y-70940500D01*
X203818200Y-70722921D01*
X203818200Y-70510534D01*
X207893800Y-70510534D01*
X207893800Y-70713466D01*
X207933390Y-70912498D01*
X208011048Y-71099983D01*
X208123791Y-71268714D01*
X208267286Y-71412209D01*
X208436017Y-71524952D01*
X208623502Y-71602610D01*
X208822534Y-71642200D01*
X209025466Y-71642200D01*
X209224498Y-71602610D01*
X209411983Y-71524952D01*
X209580714Y-71412209D01*
X209724209Y-71268714D01*
X209836952Y-71099983D01*
X209914610Y-70912498D01*
X209954200Y-70713466D01*
X209954200Y-70510534D01*
X209914610Y-70311502D01*
X209836952Y-70124017D01*
X209724209Y-69955286D01*
X209580714Y-69811791D01*
X209411983Y-69699048D01*
X209224498Y-69621390D01*
X209025466Y-69581800D01*
X208822534Y-69581800D01*
X208623502Y-69621390D01*
X208436017Y-69699048D01*
X208267286Y-69811791D01*
X208123791Y-69955286D01*
X208011048Y-70124017D01*
X207933390Y-70311502D01*
X207893800Y-70510534D01*
X203818200Y-70510534D01*
X203818200Y-70501079D01*
X203774921Y-70283500D01*
X203690025Y-70078544D01*
X203566777Y-69894089D01*
X203409911Y-69737223D01*
X203225456Y-69613975D01*
X203020500Y-69529079D01*
X202802921Y-69485800D01*
X202581079Y-69485800D01*
X202363500Y-69529079D01*
X202158544Y-69613975D01*
X201974089Y-69737223D01*
X201817223Y-69894089D01*
X201693975Y-70078544D01*
X201609079Y-70283500D01*
X201565800Y-70501079D01*
X185750200Y-70501079D01*
X185750200Y-69799200D01*
X197612000Y-69799200D01*
X197626866Y-69797736D01*
X197641160Y-69793400D01*
X197654334Y-69786358D01*
X197665882Y-69776882D01*
X197675358Y-69765334D01*
X197682400Y-69752160D01*
X197686736Y-69737866D01*
X197688200Y-69723000D01*
X197688200Y-67222000D01*
X201564464Y-67222000D01*
X201564464Y-68922000D01*
X201569797Y-68976145D01*
X201585590Y-69028208D01*
X201611237Y-69076191D01*
X201645752Y-69118248D01*
X201687809Y-69152763D01*
X201735792Y-69178410D01*
X201787855Y-69194203D01*
X201842000Y-69199536D01*
X203542000Y-69199536D01*
X203596145Y-69194203D01*
X203648208Y-69178410D01*
X203696191Y-69152763D01*
X203738248Y-69118248D01*
X203772763Y-69076191D01*
X203798410Y-69028208D01*
X203814203Y-68976145D01*
X203819536Y-68922000D01*
X203819536Y-67318000D01*
X207892464Y-67318000D01*
X207892464Y-68826000D01*
X207897797Y-68880145D01*
X207913590Y-68932208D01*
X207939237Y-68980191D01*
X207973752Y-69022248D01*
X208015809Y-69056763D01*
X208063792Y-69082410D01*
X208115855Y-69098203D01*
X208170000Y-69103536D01*
X209678000Y-69103536D01*
X209732145Y-69098203D01*
X209784208Y-69082410D01*
X209832191Y-69056763D01*
X209874248Y-69022248D01*
X209908763Y-68980191D01*
X209934410Y-68932208D01*
X209950203Y-68880145D01*
X209955536Y-68826000D01*
X209955536Y-67318000D01*
X209950203Y-67263855D01*
X209934410Y-67211792D01*
X209908763Y-67163809D01*
X209874248Y-67121752D01*
X209832191Y-67087237D01*
X209784208Y-67061590D01*
X209732145Y-67045797D01*
X209678000Y-67040464D01*
X208170000Y-67040464D01*
X208115855Y-67045797D01*
X208063792Y-67061590D01*
X208015809Y-67087237D01*
X207973752Y-67121752D01*
X207939237Y-67163809D01*
X207913590Y-67211792D01*
X207897797Y-67263855D01*
X207892464Y-67318000D01*
X203819536Y-67318000D01*
X203819536Y-67222000D01*
X203814203Y-67167855D01*
X203798410Y-67115792D01*
X203772763Y-67067809D01*
X203738248Y-67025752D01*
X203696191Y-66991237D01*
X203648208Y-66965590D01*
X203596145Y-66949797D01*
X203542000Y-66944464D01*
X201842000Y-66944464D01*
X201787855Y-66949797D01*
X201735792Y-66965590D01*
X201687809Y-66991237D01*
X201645752Y-67025752D01*
X201611237Y-67067809D01*
X201585590Y-67115792D01*
X201569797Y-67167855D01*
X201564464Y-67222000D01*
X197688200Y-67222000D01*
X197688200Y-57936000D01*
X203708464Y-57936000D01*
X203708464Y-60936000D01*
X203713797Y-60990145D01*
X203729590Y-61042208D01*
X203755237Y-61090191D01*
X203789752Y-61132248D01*
X203831809Y-61166763D01*
X203879792Y-61192410D01*
X203931855Y-61208203D01*
X203986000Y-61213536D01*
X206986000Y-61213536D01*
X207040145Y-61208203D01*
X207092208Y-61192410D01*
X207140191Y-61166763D01*
X207182248Y-61132248D01*
X207216763Y-61090191D01*
X207242410Y-61042208D01*
X207258203Y-60990145D01*
X207263536Y-60936000D01*
X207263536Y-60618000D01*
X208930464Y-60618000D01*
X208930464Y-62318000D01*
X208935797Y-62372145D01*
X208951590Y-62424208D01*
X208977237Y-62472191D01*
X209011752Y-62514248D01*
X209053809Y-62548763D01*
X209101792Y-62574410D01*
X209153855Y-62590203D01*
X209208000Y-62595536D01*
X210908000Y-62595536D01*
X210962145Y-62590203D01*
X211014208Y-62574410D01*
X211062191Y-62548763D01*
X211104248Y-62514248D01*
X211138763Y-62472191D01*
X211164410Y-62424208D01*
X211180203Y-62372145D01*
X211185536Y-62318000D01*
X211185536Y-60618000D01*
X211180203Y-60563855D01*
X211164410Y-60511792D01*
X211138763Y-60463809D01*
X211104248Y-60421752D01*
X211062191Y-60387237D01*
X211014208Y-60361590D01*
X210962145Y-60345797D01*
X210908000Y-60340464D01*
X209208000Y-60340464D01*
X209153855Y-60345797D01*
X209101792Y-60361590D01*
X209053809Y-60387237D01*
X209011752Y-60421752D01*
X208977237Y-60463809D01*
X208951590Y-60511792D01*
X208935797Y-60563855D01*
X208930464Y-60618000D01*
X207263536Y-60618000D01*
X207263536Y-58817079D01*
X208931800Y-58817079D01*
X208931800Y-59038921D01*
X208975079Y-59256500D01*
X209059975Y-59461456D01*
X209183223Y-59645911D01*
X209340089Y-59802777D01*
X209524544Y-59926025D01*
X209729500Y-60010921D01*
X209947079Y-60054200D01*
X210168921Y-60054200D01*
X210386500Y-60010921D01*
X210591456Y-59926025D01*
X210775911Y-59802777D01*
X210932777Y-59645911D01*
X211056025Y-59461456D01*
X211140921Y-59256500D01*
X211184200Y-59038921D01*
X211184200Y-58817079D01*
X211140921Y-58599500D01*
X211056025Y-58394544D01*
X210932777Y-58210089D01*
X210775911Y-58053223D01*
X210591456Y-57929975D01*
X210386500Y-57845079D01*
X210168921Y-57801800D01*
X209947079Y-57801800D01*
X209729500Y-57845079D01*
X209524544Y-57929975D01*
X209340089Y-58053223D01*
X209183223Y-58210089D01*
X209059975Y-58394544D01*
X208975079Y-58599500D01*
X208931800Y-58817079D01*
X207263536Y-58817079D01*
X207263536Y-57936000D01*
X207258203Y-57881855D01*
X207242410Y-57829792D01*
X207216763Y-57781809D01*
X207182248Y-57739752D01*
X207140191Y-57705237D01*
X207092208Y-57679590D01*
X207040145Y-57663797D01*
X206986000Y-57658464D01*
X203986000Y-57658464D01*
X203931855Y-57663797D01*
X203879792Y-57679590D01*
X203831809Y-57705237D01*
X203789752Y-57739752D01*
X203755237Y-57781809D01*
X203729590Y-57829792D01*
X203713797Y-57881855D01*
X203708464Y-57936000D01*
X197688200Y-57936000D01*
X197688200Y-55067200D01*
X212140800Y-55067200D01*
X212140800Y-77597000D01*
G37*
X212140800Y-77597000D02*
X212142264Y-77611866D01*
X212146600Y-77626160D01*
X212153642Y-77639334D01*
X212163118Y-77650882D01*
X212174666Y-77660358D01*
X212187840Y-77667400D01*
X212202134Y-77671736D01*
X212217000Y-77673200D01*
X225983800Y-77673200D01*
X225983800Y-99060400D01*
X163842406Y-99060400D01*
X163632814Y-99039849D01*
X163443144Y-98982584D01*
X163268203Y-98889566D01*
X163114666Y-98764344D01*
X162988374Y-98611683D01*
X162894139Y-98437398D01*
X162835551Y-98248134D01*
X162813600Y-98039279D01*
X162813600Y-94972629D01*
X163807800Y-94972629D01*
X163807800Y-95527371D01*
X163916025Y-96071455D01*
X164128316Y-96583971D01*
X164436515Y-97045223D01*
X164828777Y-97437485D01*
X165290029Y-97745684D01*
X165802545Y-97957975D01*
X166346629Y-98066200D01*
X166901371Y-98066200D01*
X167445455Y-97957975D01*
X167957971Y-97745684D01*
X168419223Y-97437485D01*
X168811485Y-97045223D01*
X169119684Y-96583971D01*
X169331975Y-96071455D01*
X169357174Y-95944770D01*
X170513400Y-95944770D01*
X170513400Y-96079230D01*
X170539632Y-96211107D01*
X170591088Y-96335332D01*
X170665790Y-96447132D01*
X170760868Y-96542210D01*
X170872668Y-96616912D01*
X170996893Y-96668368D01*
X171128770Y-96694600D01*
X171263230Y-96694600D01*
X171395107Y-96668368D01*
X171519332Y-96616912D01*
X171631132Y-96542210D01*
X171726210Y-96447132D01*
X171800912Y-96335332D01*
X171852368Y-96211107D01*
X171878600Y-96079230D01*
X171878600Y-95944770D01*
X172545400Y-95944770D01*
X172545400Y-96079230D01*
X172571632Y-96211107D01*
X172623088Y-96335332D01*
X172697790Y-96447132D01*
X172792868Y-96542210D01*
X172904668Y-96616912D01*
X173028893Y-96668368D01*
X173160770Y-96694600D01*
X173295230Y-96694600D01*
X173427107Y-96668368D01*
X173551332Y-96616912D01*
X173663132Y-96542210D01*
X173758210Y-96447132D01*
X173832912Y-96335332D01*
X173884368Y-96211107D01*
X173910600Y-96079230D01*
X173910600Y-95944770D01*
X174577400Y-95944770D01*
X174577400Y-96079230D01*
X174603632Y-96211107D01*
X174655088Y-96335332D01*
X174729790Y-96447132D01*
X174824868Y-96542210D01*
X174936668Y-96616912D01*
X175060893Y-96668368D01*
X175192770Y-96694600D01*
X175327230Y-96694600D01*
X175459107Y-96668368D01*
X175583332Y-96616912D01*
X175695132Y-96542210D01*
X175790210Y-96447132D01*
X175864912Y-96335332D01*
X175916368Y-96211107D01*
X175942600Y-96079230D01*
X175942600Y-95944770D01*
X175933910Y-95901079D01*
X204105800Y-95901079D01*
X204105800Y-96122921D01*
X204149079Y-96340500D01*
X204233975Y-96545456D01*
X204357223Y-96729911D01*
X204514089Y-96886777D01*
X204698544Y-97010025D01*
X204903500Y-97094921D01*
X205121079Y-97138200D01*
X205342921Y-97138200D01*
X205560500Y-97094921D01*
X205765456Y-97010025D01*
X205949911Y-96886777D01*
X206106777Y-96729911D01*
X206230025Y-96545456D01*
X206314921Y-96340500D01*
X206358200Y-96122921D01*
X206358200Y-95910534D01*
X207893800Y-95910534D01*
X207893800Y-96113466D01*
X207933390Y-96312498D01*
X208011048Y-96499983D01*
X208123791Y-96668714D01*
X208267286Y-96812209D01*
X208436017Y-96924952D01*
X208623502Y-97002610D01*
X208822534Y-97042200D01*
X209025466Y-97042200D01*
X209224498Y-97002610D01*
X209411983Y-96924952D01*
X209580714Y-96812209D01*
X209724209Y-96668714D01*
X209836952Y-96499983D01*
X209914610Y-96312498D01*
X209954200Y-96113466D01*
X209954200Y-95944770D01*
X214074400Y-95944770D01*
X214074400Y-96079230D01*
X214100632Y-96211107D01*
X214152088Y-96335332D01*
X214226790Y-96447132D01*
X214321868Y-96542210D01*
X214433668Y-96616912D01*
X214557893Y-96668368D01*
X214689770Y-96694600D01*
X214824230Y-96694600D01*
X214956107Y-96668368D01*
X215080332Y-96616912D01*
X215192132Y-96542210D01*
X215287210Y-96447132D01*
X215361912Y-96335332D01*
X215413368Y-96211107D01*
X215439600Y-96079230D01*
X215439600Y-95944770D01*
X215413368Y-95812893D01*
X215361912Y-95688668D01*
X215287210Y-95576868D01*
X215192132Y-95481790D01*
X215080332Y-95407088D01*
X214956107Y-95355632D01*
X214824230Y-95329400D01*
X214689770Y-95329400D01*
X214557893Y-95355632D01*
X214433668Y-95407088D01*
X214321868Y-95481790D01*
X214226790Y-95576868D01*
X214152088Y-95688668D01*
X214100632Y-95812893D01*
X214074400Y-95944770D01*
X209954200Y-95944770D01*
X209954200Y-95910534D01*
X209914610Y-95711502D01*
X209836952Y-95524017D01*
X209724209Y-95355286D01*
X209580714Y-95211791D01*
X209411983Y-95099048D01*
X209224498Y-95021390D01*
X209025466Y-94981800D01*
X208822534Y-94981800D01*
X208623502Y-95021390D01*
X208436017Y-95099048D01*
X208267286Y-95211791D01*
X208123791Y-95355286D01*
X208011048Y-95524017D01*
X207933390Y-95711502D01*
X207893800Y-95910534D01*
X206358200Y-95910534D01*
X206358200Y-95901079D01*
X206314921Y-95683500D01*
X206230025Y-95478544D01*
X206106777Y-95294089D01*
X205949911Y-95137223D01*
X205765456Y-95013975D01*
X205560500Y-94929079D01*
X205342921Y-94885800D01*
X205121079Y-94885800D01*
X204903500Y-94929079D01*
X204698544Y-95013975D01*
X204514089Y-95137223D01*
X204357223Y-95294089D01*
X204233975Y-95478544D01*
X204149079Y-95683500D01*
X204105800Y-95901079D01*
X175933910Y-95901079D01*
X175916368Y-95812893D01*
X175864912Y-95688668D01*
X175790210Y-95576868D01*
X175695132Y-95481790D01*
X175583332Y-95407088D01*
X175459107Y-95355632D01*
X175327230Y-95329400D01*
X175192770Y-95329400D01*
X175060893Y-95355632D01*
X174936668Y-95407088D01*
X174824868Y-95481790D01*
X174729790Y-95576868D01*
X174655088Y-95688668D01*
X174603632Y-95812893D01*
X174577400Y-95944770D01*
X173910600Y-95944770D01*
X173884368Y-95812893D01*
X173832912Y-95688668D01*
X173758210Y-95576868D01*
X173663132Y-95481790D01*
X173551332Y-95407088D01*
X173427107Y-95355632D01*
X173295230Y-95329400D01*
X173160770Y-95329400D01*
X173028893Y-95355632D01*
X172904668Y-95407088D01*
X172792868Y-95481790D01*
X172697790Y-95576868D01*
X172623088Y-95688668D01*
X172571632Y-95812893D01*
X172545400Y-95944770D01*
X171878600Y-95944770D01*
X171852368Y-95812893D01*
X171800912Y-95688668D01*
X171726210Y-95576868D01*
X171631132Y-95481790D01*
X171519332Y-95407088D01*
X171395107Y-95355632D01*
X171263230Y-95329400D01*
X171128770Y-95329400D01*
X170996893Y-95355632D01*
X170872668Y-95407088D01*
X170760868Y-95481790D01*
X170665790Y-95576868D01*
X170591088Y-95688668D01*
X170539632Y-95812893D01*
X170513400Y-95944770D01*
X169357174Y-95944770D01*
X169440200Y-95527371D01*
X169440200Y-94972629D01*
X169346734Y-94502739D01*
X190376200Y-94502739D01*
X190376200Y-94727261D01*
X190420002Y-94947467D01*
X190505922Y-95154898D01*
X190630660Y-95341580D01*
X190789420Y-95500340D01*
X190976102Y-95625078D01*
X191183533Y-95710998D01*
X191403739Y-95754800D01*
X191628261Y-95754800D01*
X191848467Y-95710998D01*
X192055898Y-95625078D01*
X192242580Y-95500340D01*
X192401340Y-95341580D01*
X192526078Y-95154898D01*
X192611998Y-94947467D01*
X192655800Y-94727261D01*
X192655800Y-94502739D01*
X192916200Y-94502739D01*
X192916200Y-94727261D01*
X192960002Y-94947467D01*
X193045922Y-95154898D01*
X193170660Y-95341580D01*
X193329420Y-95500340D01*
X193516102Y-95625078D01*
X193723533Y-95710998D01*
X193943739Y-95754800D01*
X194168261Y-95754800D01*
X194388467Y-95710998D01*
X194595898Y-95625078D01*
X194782580Y-95500340D01*
X194941340Y-95341580D01*
X195066078Y-95154898D01*
X195151998Y-94947467D01*
X195195800Y-94727261D01*
X195195800Y-94502739D01*
X195456200Y-94502739D01*
X195456200Y-94727261D01*
X195500002Y-94947467D01*
X195585922Y-95154898D01*
X195710660Y-95341580D01*
X195869420Y-95500340D01*
X196056102Y-95625078D01*
X196263533Y-95710998D01*
X196483739Y-95754800D01*
X196708261Y-95754800D01*
X196928467Y-95710998D01*
X197135898Y-95625078D01*
X197322580Y-95500340D01*
X197481340Y-95341580D01*
X197606078Y-95154898D01*
X197691998Y-94947467D01*
X197735800Y-94727261D01*
X197735800Y-94502739D01*
X197691998Y-94282533D01*
X197606078Y-94075102D01*
X197481340Y-93888420D01*
X197322580Y-93729660D01*
X197135898Y-93604922D01*
X196928467Y-93519002D01*
X196708261Y-93475200D01*
X196483739Y-93475200D01*
X196263533Y-93519002D01*
X196056102Y-93604922D01*
X195869420Y-93729660D01*
X195710660Y-93888420D01*
X195585922Y-94075102D01*
X195500002Y-94282533D01*
X195456200Y-94502739D01*
X195195800Y-94502739D01*
X195151998Y-94282533D01*
X195066078Y-94075102D01*
X194941340Y-93888420D01*
X194782580Y-93729660D01*
X194595898Y-93604922D01*
X194388467Y-93519002D01*
X194168261Y-93475200D01*
X193943739Y-93475200D01*
X193723533Y-93519002D01*
X193516102Y-93604922D01*
X193329420Y-93729660D01*
X193170660Y-93888420D01*
X193045922Y-94075102D01*
X192960002Y-94282533D01*
X192916200Y-94502739D01*
X192655800Y-94502739D01*
X192611998Y-94282533D01*
X192526078Y-94075102D01*
X192401340Y-93888420D01*
X192242580Y-93729660D01*
X192055898Y-93604922D01*
X191848467Y-93519002D01*
X191628261Y-93475200D01*
X191403739Y-93475200D01*
X191183533Y-93519002D01*
X190976102Y-93604922D01*
X190789420Y-93729660D01*
X190630660Y-93888420D01*
X190505922Y-94075102D01*
X190420002Y-94282533D01*
X190376200Y-94502739D01*
X169346734Y-94502739D01*
X169331975Y-94428545D01*
X169119684Y-93916029D01*
X168811485Y-93454777D01*
X168717787Y-93361079D01*
X204105800Y-93361079D01*
X204105800Y-93582921D01*
X204149079Y-93800500D01*
X204233975Y-94005456D01*
X204357223Y-94189911D01*
X204514089Y-94346777D01*
X204698544Y-94470025D01*
X204903500Y-94554921D01*
X205121079Y-94598200D01*
X205342921Y-94598200D01*
X205560500Y-94554921D01*
X205765456Y-94470025D01*
X205949911Y-94346777D01*
X206106777Y-94189911D01*
X206230025Y-94005456D01*
X206314921Y-93800500D01*
X206358200Y-93582921D01*
X206358200Y-93370534D01*
X207893800Y-93370534D01*
X207893800Y-93573466D01*
X207933390Y-93772498D01*
X208011048Y-93959983D01*
X208123791Y-94128714D01*
X208267286Y-94272209D01*
X208436017Y-94384952D01*
X208623502Y-94462610D01*
X208822534Y-94502200D01*
X209025466Y-94502200D01*
X209224498Y-94462610D01*
X209411983Y-94384952D01*
X209580714Y-94272209D01*
X209724209Y-94128714D01*
X209836952Y-93959983D01*
X209914610Y-93772498D01*
X209954200Y-93573466D01*
X209954200Y-93404770D01*
X214709400Y-93404770D01*
X214709400Y-93539230D01*
X214735632Y-93671107D01*
X214787088Y-93795332D01*
X214861790Y-93907132D01*
X214956868Y-94002210D01*
X215068668Y-94076912D01*
X215192893Y-94128368D01*
X215324770Y-94154600D01*
X215459230Y-94154600D01*
X215591107Y-94128368D01*
X215715332Y-94076912D01*
X215827132Y-94002210D01*
X215922210Y-93907132D01*
X215996912Y-93795332D01*
X216048368Y-93671107D01*
X216074600Y-93539230D01*
X216074600Y-93404770D01*
X216741400Y-93404770D01*
X216741400Y-93539230D01*
X216767632Y-93671107D01*
X216819088Y-93795332D01*
X216893790Y-93907132D01*
X216988868Y-94002210D01*
X217100668Y-94076912D01*
X217224893Y-94128368D01*
X217356770Y-94154600D01*
X217491230Y-94154600D01*
X217623107Y-94128368D01*
X217747332Y-94076912D01*
X217859132Y-94002210D01*
X217954210Y-93907132D01*
X218028912Y-93795332D01*
X218080368Y-93671107D01*
X218106600Y-93539230D01*
X218106600Y-93404770D01*
X218080368Y-93272893D01*
X218028912Y-93148668D01*
X217954210Y-93036868D01*
X217941112Y-93023770D01*
X222456400Y-93023770D01*
X222456400Y-93158230D01*
X222482632Y-93290107D01*
X222534088Y-93414332D01*
X222608790Y-93526132D01*
X222703868Y-93621210D01*
X222815668Y-93695912D01*
X222939893Y-93747368D01*
X223071770Y-93773600D01*
X223206230Y-93773600D01*
X223338107Y-93747368D01*
X223462332Y-93695912D01*
X223574132Y-93621210D01*
X223669210Y-93526132D01*
X223743912Y-93414332D01*
X223795368Y-93290107D01*
X223821600Y-93158230D01*
X223821600Y-93023770D01*
X223795368Y-92891893D01*
X223743912Y-92767668D01*
X223669210Y-92655868D01*
X223574132Y-92560790D01*
X223462332Y-92486088D01*
X223338107Y-92434632D01*
X223206230Y-92408400D01*
X223071770Y-92408400D01*
X222939893Y-92434632D01*
X222815668Y-92486088D01*
X222703868Y-92560790D01*
X222608790Y-92655868D01*
X222534088Y-92767668D01*
X222482632Y-92891893D01*
X222456400Y-93023770D01*
X217941112Y-93023770D01*
X217859132Y-92941790D01*
X217747332Y-92867088D01*
X217623107Y-92815632D01*
X217491230Y-92789400D01*
X217356770Y-92789400D01*
X217224893Y-92815632D01*
X217100668Y-92867088D01*
X216988868Y-92941790D01*
X216893790Y-93036868D01*
X216819088Y-93148668D01*
X216767632Y-93272893D01*
X216741400Y-93404770D01*
X216074600Y-93404770D01*
X216048368Y-93272893D01*
X215996912Y-93148668D01*
X215922210Y-93036868D01*
X215827132Y-92941790D01*
X215715332Y-92867088D01*
X215591107Y-92815632D01*
X215459230Y-92789400D01*
X215324770Y-92789400D01*
X215192893Y-92815632D01*
X215068668Y-92867088D01*
X214956868Y-92941790D01*
X214861790Y-93036868D01*
X214787088Y-93148668D01*
X214735632Y-93272893D01*
X214709400Y-93404770D01*
X209954200Y-93404770D01*
X209954200Y-93370534D01*
X209914610Y-93171502D01*
X209836952Y-92984017D01*
X209724209Y-92815286D01*
X209580714Y-92671791D01*
X209411983Y-92559048D01*
X209224498Y-92481390D01*
X209025466Y-92441800D01*
X208822534Y-92441800D01*
X208623502Y-92481390D01*
X208436017Y-92559048D01*
X208267286Y-92671791D01*
X208123791Y-92815286D01*
X208011048Y-92984017D01*
X207933390Y-93171502D01*
X207893800Y-93370534D01*
X206358200Y-93370534D01*
X206358200Y-93361079D01*
X206314921Y-93143500D01*
X206230025Y-92938544D01*
X206106777Y-92754089D01*
X205949911Y-92597223D01*
X205765456Y-92473975D01*
X205560500Y-92389079D01*
X205342921Y-92345800D01*
X205121079Y-92345800D01*
X204903500Y-92389079D01*
X204698544Y-92473975D01*
X204514089Y-92597223D01*
X204357223Y-92754089D01*
X204233975Y-92938544D01*
X204149079Y-93143500D01*
X204105800Y-93361079D01*
X168717787Y-93361079D01*
X168419223Y-93062515D01*
X167957971Y-92754316D01*
X167445455Y-92542025D01*
X166901371Y-92433800D01*
X166346629Y-92433800D01*
X165802545Y-92542025D01*
X165290029Y-92754316D01*
X164828777Y-93062515D01*
X164436515Y-93454777D01*
X164128316Y-93916029D01*
X163916025Y-94428545D01*
X163807800Y-94972629D01*
X162813600Y-94972629D01*
X162813600Y-91373400D01*
X174583800Y-91373400D01*
X174583800Y-91506600D01*
X174609786Y-91637240D01*
X174660759Y-91760301D01*
X174734761Y-91871052D01*
X174828948Y-91965239D01*
X174939699Y-92039241D01*
X175062760Y-92090214D01*
X175193400Y-92116200D01*
X175326600Y-92116200D01*
X175457240Y-92090214D01*
X175580301Y-92039241D01*
X175691052Y-91965239D01*
X175693552Y-91962739D01*
X190376200Y-91962739D01*
X190376200Y-92187261D01*
X190420002Y-92407467D01*
X190505922Y-92614898D01*
X190630660Y-92801580D01*
X190789420Y-92960340D01*
X190976102Y-93085078D01*
X191183533Y-93170998D01*
X191403739Y-93214800D01*
X191628261Y-93214800D01*
X191848467Y-93170998D01*
X192055898Y-93085078D01*
X192242580Y-92960340D01*
X192401340Y-92801580D01*
X192526078Y-92614898D01*
X192611998Y-92407467D01*
X192655800Y-92187261D01*
X192655800Y-91962739D01*
X192916200Y-91962739D01*
X192916200Y-92187261D01*
X192960002Y-92407467D01*
X193045922Y-92614898D01*
X193170660Y-92801580D01*
X193329420Y-92960340D01*
X193516102Y-93085078D01*
X193723533Y-93170998D01*
X193943739Y-93214800D01*
X194168261Y-93214800D01*
X194388467Y-93170998D01*
X194595898Y-93085078D01*
X194782580Y-92960340D01*
X194941340Y-92801580D01*
X195066078Y-92614898D01*
X195151998Y-92407467D01*
X195195800Y-92187261D01*
X195195800Y-91962739D01*
X195151998Y-91742533D01*
X195066078Y-91535102D01*
X194941340Y-91348420D01*
X194804320Y-91211400D01*
X195454864Y-91211400D01*
X195454864Y-92938600D01*
X195460197Y-92992745D01*
X195475990Y-93044808D01*
X195501637Y-93092791D01*
X195536152Y-93134848D01*
X195578209Y-93169363D01*
X195626192Y-93195010D01*
X195678255Y-93210803D01*
X195732400Y-93216136D01*
X197459600Y-93216136D01*
X197513745Y-93210803D01*
X197565808Y-93195010D01*
X197613791Y-93169363D01*
X197655848Y-93134848D01*
X197690363Y-93092791D01*
X197716010Y-93044808D01*
X197731803Y-92992745D01*
X197737136Y-92938600D01*
X197737136Y-91211400D01*
X197731803Y-91157255D01*
X197716010Y-91105192D01*
X197690363Y-91057209D01*
X197655848Y-91015152D01*
X197613791Y-90980637D01*
X197565808Y-90954990D01*
X197513745Y-90939197D01*
X197459600Y-90933864D01*
X195732400Y-90933864D01*
X195678255Y-90939197D01*
X195626192Y-90954990D01*
X195578209Y-90980637D01*
X195536152Y-91015152D01*
X195501637Y-91057209D01*
X195475990Y-91105192D01*
X195460197Y-91157255D01*
X195454864Y-91211400D01*
X194804320Y-91211400D01*
X194782580Y-91189660D01*
X194595898Y-91064922D01*
X194388467Y-90979002D01*
X194168261Y-90935200D01*
X193943739Y-90935200D01*
X193723533Y-90979002D01*
X193516102Y-91064922D01*
X193329420Y-91189660D01*
X193170660Y-91348420D01*
X193045922Y-91535102D01*
X192960002Y-91742533D01*
X192916200Y-91962739D01*
X192655800Y-91962739D01*
X192611998Y-91742533D01*
X192526078Y-91535102D01*
X192401340Y-91348420D01*
X192242580Y-91189660D01*
X192055898Y-91064922D01*
X191848467Y-90979002D01*
X191628261Y-90935200D01*
X191403739Y-90935200D01*
X191183533Y-90979002D01*
X190976102Y-91064922D01*
X190789420Y-91189660D01*
X190630660Y-91348420D01*
X190505922Y-91535102D01*
X190420002Y-91742533D01*
X190376200Y-91962739D01*
X175693552Y-91962739D01*
X175785239Y-91871052D01*
X175859241Y-91760301D01*
X175910214Y-91637240D01*
X175936200Y-91506600D01*
X175936200Y-91373400D01*
X175910214Y-91242760D01*
X175859241Y-91119699D01*
X175785239Y-91008948D01*
X175691052Y-90914761D01*
X175580301Y-90840759D01*
X175532789Y-90821079D01*
X204105800Y-90821079D01*
X204105800Y-91042921D01*
X204149079Y-91260500D01*
X204233975Y-91465456D01*
X204357223Y-91649911D01*
X204514089Y-91806777D01*
X204698544Y-91930025D01*
X204903500Y-92014921D01*
X205121079Y-92058200D01*
X205342921Y-92058200D01*
X205560500Y-92014921D01*
X205765456Y-91930025D01*
X205949911Y-91806777D01*
X206106777Y-91649911D01*
X206230025Y-91465456D01*
X206314921Y-91260500D01*
X206358200Y-91042921D01*
X206358200Y-90830534D01*
X207893800Y-90830534D01*
X207893800Y-91033466D01*
X207933390Y-91232498D01*
X208011048Y-91419983D01*
X208123791Y-91588714D01*
X208267286Y-91732209D01*
X208436017Y-91844952D01*
X208623502Y-91922610D01*
X208822534Y-91962200D01*
X209025466Y-91962200D01*
X209224498Y-91922610D01*
X209411983Y-91844952D01*
X209580714Y-91732209D01*
X209724209Y-91588714D01*
X209836952Y-91419983D01*
X209914610Y-91232498D01*
X209954200Y-91033466D01*
X209954200Y-90830534D01*
X209914610Y-90631502D01*
X209836952Y-90444017D01*
X209724209Y-90275286D01*
X209580714Y-90131791D01*
X209411983Y-90019048D01*
X209224498Y-89941390D01*
X209025466Y-89901800D01*
X208822534Y-89901800D01*
X208623502Y-89941390D01*
X208436017Y-90019048D01*
X208267286Y-90131791D01*
X208123791Y-90275286D01*
X208011048Y-90444017D01*
X207933390Y-90631502D01*
X207893800Y-90830534D01*
X206358200Y-90830534D01*
X206358200Y-90821079D01*
X206314921Y-90603500D01*
X206230025Y-90398544D01*
X206106777Y-90214089D01*
X205949911Y-90057223D01*
X205765456Y-89933975D01*
X205560500Y-89849079D01*
X205342921Y-89805800D01*
X205121079Y-89805800D01*
X204903500Y-89849079D01*
X204698544Y-89933975D01*
X204514089Y-90057223D01*
X204357223Y-90214089D01*
X204233975Y-90398544D01*
X204149079Y-90603500D01*
X204105800Y-90821079D01*
X175532789Y-90821079D01*
X175457240Y-90789786D01*
X175326600Y-90763800D01*
X175193400Y-90763800D01*
X175062760Y-90789786D01*
X174939699Y-90840759D01*
X174828948Y-90914761D01*
X174734761Y-91008948D01*
X174660759Y-91119699D01*
X174609786Y-91242760D01*
X174583800Y-91373400D01*
X162813600Y-91373400D01*
X162813600Y-89595400D01*
X166963800Y-89595400D01*
X166963800Y-89728600D01*
X166989786Y-89859240D01*
X167040759Y-89982301D01*
X167114761Y-90093052D01*
X167208948Y-90187239D01*
X167319699Y-90261241D01*
X167442760Y-90312214D01*
X167573400Y-90338200D01*
X167706600Y-90338200D01*
X167837240Y-90312214D01*
X167960301Y-90261241D01*
X168071052Y-90187239D01*
X168165239Y-90093052D01*
X168239241Y-89982301D01*
X168290214Y-89859240D01*
X168316200Y-89728600D01*
X168316200Y-89595400D01*
X168290939Y-89468400D01*
X170519800Y-89468400D01*
X170519800Y-89601600D01*
X170545786Y-89732240D01*
X170596759Y-89855301D01*
X170670761Y-89966052D01*
X170764948Y-90060239D01*
X170875699Y-90134241D01*
X170998760Y-90185214D01*
X171129400Y-90211200D01*
X171262600Y-90211200D01*
X171393240Y-90185214D01*
X171516301Y-90134241D01*
X171627052Y-90060239D01*
X171721239Y-89966052D01*
X171795241Y-89855301D01*
X171846214Y-89732240D01*
X171872200Y-89601600D01*
X171872200Y-89468400D01*
X172297800Y-89468400D01*
X172297800Y-89601600D01*
X172323786Y-89732240D01*
X172374759Y-89855301D01*
X172448761Y-89966052D01*
X172542948Y-90060239D01*
X172653699Y-90134241D01*
X172776760Y-90185214D01*
X172907400Y-90211200D01*
X173040600Y-90211200D01*
X173171240Y-90185214D01*
X173294301Y-90134241D01*
X173405052Y-90060239D01*
X173499239Y-89966052D01*
X173573241Y-89855301D01*
X173624214Y-89732240D01*
X173650200Y-89601600D01*
X173650200Y-89468400D01*
X173624214Y-89337760D01*
X173573241Y-89214699D01*
X173499239Y-89103948D01*
X173405052Y-89009761D01*
X173294301Y-88935759D01*
X173171240Y-88884786D01*
X173040600Y-88858800D01*
X172907400Y-88858800D01*
X172776760Y-88884786D01*
X172653699Y-88935759D01*
X172542948Y-89009761D01*
X172448761Y-89103948D01*
X172374759Y-89214699D01*
X172323786Y-89337760D01*
X172297800Y-89468400D01*
X171872200Y-89468400D01*
X171846214Y-89337760D01*
X171795241Y-89214699D01*
X171721239Y-89103948D01*
X171627052Y-89009761D01*
X171516301Y-88935759D01*
X171393240Y-88884786D01*
X171262600Y-88858800D01*
X171129400Y-88858800D01*
X170998760Y-88884786D01*
X170875699Y-88935759D01*
X170764948Y-89009761D01*
X170670761Y-89103948D01*
X170596759Y-89214699D01*
X170545786Y-89337760D01*
X170519800Y-89468400D01*
X168290939Y-89468400D01*
X168290214Y-89464760D01*
X168239241Y-89341699D01*
X168165239Y-89230948D01*
X168071052Y-89136761D01*
X167960301Y-89062759D01*
X167837240Y-89011786D01*
X167706600Y-88985800D01*
X167573400Y-88985800D01*
X167442760Y-89011786D01*
X167319699Y-89062759D01*
X167208948Y-89136761D01*
X167114761Y-89230948D01*
X167040759Y-89341699D01*
X166989786Y-89464760D01*
X166963800Y-89595400D01*
X162813600Y-89595400D01*
X162813600Y-88849200D01*
X179612677Y-88849200D01*
X179682790Y-88954132D01*
X179777868Y-89049210D01*
X179889668Y-89123912D01*
X180013893Y-89175368D01*
X180145770Y-89201600D01*
X180280230Y-89201600D01*
X180412107Y-89175368D01*
X180536332Y-89123912D01*
X180648132Y-89049210D01*
X180743210Y-88954132D01*
X180813323Y-88849200D01*
X185674000Y-88849200D01*
X185688866Y-88847736D01*
X185703160Y-88843400D01*
X185716334Y-88836358D01*
X185727882Y-88826882D01*
X185737358Y-88815334D01*
X185744400Y-88802160D01*
X185748736Y-88787866D01*
X185750200Y-88773000D01*
X185750200Y-88290534D01*
X207893800Y-88290534D01*
X207893800Y-88493466D01*
X207933390Y-88692498D01*
X208011048Y-88879983D01*
X208123791Y-89048714D01*
X208267286Y-89192209D01*
X208436017Y-89304952D01*
X208623502Y-89382610D01*
X208822534Y-89422200D01*
X209025466Y-89422200D01*
X209224498Y-89382610D01*
X209411983Y-89304952D01*
X209580714Y-89192209D01*
X209724209Y-89048714D01*
X209783639Y-88959770D01*
X214709400Y-88959770D01*
X214709400Y-89094230D01*
X214735632Y-89226107D01*
X214787088Y-89350332D01*
X214861790Y-89462132D01*
X214956868Y-89557210D01*
X215068668Y-89631912D01*
X215192893Y-89683368D01*
X215324770Y-89709600D01*
X215459230Y-89709600D01*
X215591107Y-89683368D01*
X215715332Y-89631912D01*
X215827132Y-89557210D01*
X215916572Y-89467770D01*
X218138400Y-89467770D01*
X218138400Y-89602230D01*
X218164632Y-89734107D01*
X218216088Y-89858332D01*
X218290790Y-89970132D01*
X218385868Y-90065210D01*
X218497668Y-90139912D01*
X218621893Y-90191368D01*
X218753770Y-90217600D01*
X218888230Y-90217600D01*
X219020107Y-90191368D01*
X219144332Y-90139912D01*
X219256132Y-90065210D01*
X219351210Y-89970132D01*
X219425912Y-89858332D01*
X219477368Y-89734107D01*
X219503600Y-89602230D01*
X219503600Y-89467770D01*
X219492461Y-89411770D01*
X223020400Y-89411770D01*
X223020400Y-89546230D01*
X223046632Y-89678107D01*
X223098088Y-89802332D01*
X223172790Y-89914132D01*
X223267868Y-90009210D01*
X223379668Y-90083912D01*
X223503893Y-90135368D01*
X223635770Y-90161600D01*
X223770230Y-90161600D01*
X223902107Y-90135368D01*
X224026332Y-90083912D01*
X224138132Y-90009210D01*
X224233210Y-89914132D01*
X224307912Y-89802332D01*
X224359368Y-89678107D01*
X224385600Y-89546230D01*
X224385600Y-89411770D01*
X224359368Y-89279893D01*
X224307912Y-89155668D01*
X224233210Y-89043868D01*
X224138132Y-88948790D01*
X224026332Y-88874088D01*
X223902107Y-88822632D01*
X223770230Y-88796400D01*
X223635770Y-88796400D01*
X223503893Y-88822632D01*
X223379668Y-88874088D01*
X223267868Y-88948790D01*
X223172790Y-89043868D01*
X223098088Y-89155668D01*
X223046632Y-89279893D01*
X223020400Y-89411770D01*
X219492461Y-89411770D01*
X219477368Y-89335893D01*
X219425912Y-89211668D01*
X219351210Y-89099868D01*
X219256132Y-89004790D01*
X219144332Y-88930088D01*
X219020107Y-88878632D01*
X218888230Y-88852400D01*
X218753770Y-88852400D01*
X218621893Y-88878632D01*
X218497668Y-88930088D01*
X218385868Y-89004790D01*
X218290790Y-89099868D01*
X218216088Y-89211668D01*
X218164632Y-89335893D01*
X218138400Y-89467770D01*
X215916572Y-89467770D01*
X215922210Y-89462132D01*
X215996912Y-89350332D01*
X216048368Y-89226107D01*
X216074600Y-89094230D01*
X216074600Y-88959770D01*
X216048368Y-88827893D01*
X215996912Y-88703668D01*
X215922210Y-88591868D01*
X215827132Y-88496790D01*
X215759755Y-88451770D01*
X221059400Y-88451770D01*
X221059400Y-88586230D01*
X221085632Y-88718107D01*
X221137088Y-88842332D01*
X221211790Y-88954132D01*
X221306868Y-89049210D01*
X221418668Y-89123912D01*
X221542893Y-89175368D01*
X221674770Y-89201600D01*
X221809230Y-89201600D01*
X221941107Y-89175368D01*
X222065332Y-89123912D01*
X222177132Y-89049210D01*
X222272210Y-88954132D01*
X222346912Y-88842332D01*
X222398368Y-88718107D01*
X222424600Y-88586230D01*
X222424600Y-88451770D01*
X222398368Y-88319893D01*
X222346912Y-88195668D01*
X222272210Y-88083868D01*
X222177132Y-87988790D01*
X222065332Y-87914088D01*
X221941107Y-87862632D01*
X221809230Y-87836400D01*
X221674770Y-87836400D01*
X221542893Y-87862632D01*
X221418668Y-87914088D01*
X221306868Y-87988790D01*
X221211790Y-88083868D01*
X221137088Y-88195668D01*
X221085632Y-88319893D01*
X221059400Y-88451770D01*
X215759755Y-88451770D01*
X215715332Y-88422088D01*
X215591107Y-88370632D01*
X215459230Y-88344400D01*
X215324770Y-88344400D01*
X215192893Y-88370632D01*
X215068668Y-88422088D01*
X214956868Y-88496790D01*
X214861790Y-88591868D01*
X214787088Y-88703668D01*
X214735632Y-88827893D01*
X214709400Y-88959770D01*
X209783639Y-88959770D01*
X209836952Y-88879983D01*
X209914610Y-88692498D01*
X209954200Y-88493466D01*
X209954200Y-88290534D01*
X209914610Y-88091502D01*
X209836952Y-87904017D01*
X209724209Y-87735286D01*
X209580714Y-87591791D01*
X209411983Y-87479048D01*
X209224498Y-87401390D01*
X209025466Y-87361800D01*
X208822534Y-87361800D01*
X208623502Y-87401390D01*
X208436017Y-87479048D01*
X208267286Y-87591791D01*
X208123791Y-87735286D01*
X208011048Y-87904017D01*
X207933390Y-88091502D01*
X207893800Y-88290534D01*
X185750200Y-88290534D01*
X185750200Y-86673770D01*
X189055400Y-86673770D01*
X189055400Y-86808230D01*
X189081632Y-86940107D01*
X189133088Y-87064332D01*
X189207790Y-87176132D01*
X189302868Y-87271210D01*
X189414668Y-87345912D01*
X189538893Y-87397368D01*
X189670770Y-87423600D01*
X189805230Y-87423600D01*
X189937107Y-87397368D01*
X190061332Y-87345912D01*
X190116919Y-87308770D01*
X216741400Y-87308770D01*
X216741400Y-87443230D01*
X216767632Y-87575107D01*
X216819088Y-87699332D01*
X216893790Y-87811132D01*
X216988868Y-87906210D01*
X217100668Y-87980912D01*
X217224893Y-88032368D01*
X217356770Y-88058600D01*
X217491230Y-88058600D01*
X217623107Y-88032368D01*
X217747332Y-87980912D01*
X217859132Y-87906210D01*
X217954210Y-87811132D01*
X218028912Y-87699332D01*
X218080368Y-87575107D01*
X218106600Y-87443230D01*
X218106600Y-87308770D01*
X218080368Y-87176893D01*
X218028912Y-87052668D01*
X217954210Y-86940868D01*
X217941112Y-86927770D01*
X218138400Y-86927770D01*
X218138400Y-87062230D01*
X218164632Y-87194107D01*
X218216088Y-87318332D01*
X218290790Y-87430132D01*
X218385868Y-87525210D01*
X218497668Y-87599912D01*
X218621893Y-87651368D01*
X218753770Y-87677600D01*
X218888230Y-87677600D01*
X219020107Y-87651368D01*
X219144332Y-87599912D01*
X219199919Y-87562770D01*
X224361400Y-87562770D01*
X224361400Y-87697230D01*
X224387632Y-87829107D01*
X224439088Y-87953332D01*
X224513790Y-88065132D01*
X224608868Y-88160210D01*
X224720668Y-88234912D01*
X224844893Y-88286368D01*
X224976770Y-88312600D01*
X225111230Y-88312600D01*
X225243107Y-88286368D01*
X225367332Y-88234912D01*
X225479132Y-88160210D01*
X225574210Y-88065132D01*
X225648912Y-87953332D01*
X225700368Y-87829107D01*
X225726600Y-87697230D01*
X225726600Y-87562770D01*
X225700368Y-87430893D01*
X225648912Y-87306668D01*
X225574210Y-87194868D01*
X225479132Y-87099790D01*
X225367332Y-87025088D01*
X225243107Y-86973632D01*
X225111230Y-86947400D01*
X224976770Y-86947400D01*
X224844893Y-86973632D01*
X224720668Y-87025088D01*
X224608868Y-87099790D01*
X224513790Y-87194868D01*
X224439088Y-87306668D01*
X224387632Y-87430893D01*
X224361400Y-87562770D01*
X219199919Y-87562770D01*
X219256132Y-87525210D01*
X219351210Y-87430132D01*
X219425912Y-87318332D01*
X219477368Y-87194107D01*
X219503600Y-87062230D01*
X219503600Y-86927770D01*
X219477368Y-86795893D01*
X219425912Y-86671668D01*
X219351210Y-86559868D01*
X219256132Y-86464790D01*
X219144332Y-86390088D01*
X219020107Y-86338632D01*
X218888230Y-86312400D01*
X218753770Y-86312400D01*
X218621893Y-86338632D01*
X218497668Y-86390088D01*
X218385868Y-86464790D01*
X218290790Y-86559868D01*
X218216088Y-86671668D01*
X218164632Y-86795893D01*
X218138400Y-86927770D01*
X217941112Y-86927770D01*
X217859132Y-86845790D01*
X217747332Y-86771088D01*
X217623107Y-86719632D01*
X217491230Y-86693400D01*
X217356770Y-86693400D01*
X217224893Y-86719632D01*
X217100668Y-86771088D01*
X216988868Y-86845790D01*
X216893790Y-86940868D01*
X216819088Y-87052668D01*
X216767632Y-87176893D01*
X216741400Y-87308770D01*
X190116919Y-87308770D01*
X190173132Y-87271210D01*
X190268210Y-87176132D01*
X190342912Y-87064332D01*
X190394368Y-86940107D01*
X190420600Y-86808230D01*
X190420600Y-86673770D01*
X190394368Y-86541893D01*
X190342912Y-86417668D01*
X190268210Y-86305868D01*
X190173132Y-86210790D01*
X190061332Y-86136088D01*
X189937107Y-86084632D01*
X189805230Y-86058400D01*
X189670770Y-86058400D01*
X189538893Y-86084632D01*
X189414668Y-86136088D01*
X189302868Y-86210790D01*
X189207790Y-86305868D01*
X189133088Y-86417668D01*
X189081632Y-86541893D01*
X189055400Y-86673770D01*
X185750200Y-86673770D01*
X185750200Y-85750534D01*
X207893800Y-85750534D01*
X207893800Y-85953466D01*
X207933390Y-86152498D01*
X208011048Y-86339983D01*
X208123791Y-86508714D01*
X208267286Y-86652209D01*
X208436017Y-86764952D01*
X208623502Y-86842610D01*
X208822534Y-86882200D01*
X209025466Y-86882200D01*
X209224498Y-86842610D01*
X209411983Y-86764952D01*
X209580714Y-86652209D01*
X209724209Y-86508714D01*
X209836952Y-86339983D01*
X209914610Y-86152498D01*
X209954200Y-85953466D01*
X209954200Y-85750534D01*
X209914610Y-85551502D01*
X209836952Y-85364017D01*
X209724209Y-85195286D01*
X209580714Y-85051791D01*
X209411983Y-84939048D01*
X209224498Y-84861390D01*
X209025466Y-84821800D01*
X208822534Y-84821800D01*
X208623502Y-84861390D01*
X208436017Y-84939048D01*
X208267286Y-85051791D01*
X208123791Y-85195286D01*
X208011048Y-85364017D01*
X207933390Y-85551502D01*
X207893800Y-85750534D01*
X185750200Y-85750534D01*
X185750200Y-81467400D01*
X189061800Y-81467400D01*
X189061800Y-81600600D01*
X189087786Y-81731240D01*
X189138759Y-81854301D01*
X189212761Y-81965052D01*
X189306948Y-82059239D01*
X189376182Y-82105500D01*
X189306948Y-82151761D01*
X189212761Y-82245948D01*
X189138759Y-82356699D01*
X189087786Y-82479760D01*
X189061800Y-82610400D01*
X189061800Y-82743600D01*
X189087786Y-82874240D01*
X189138759Y-82997301D01*
X189212761Y-83108052D01*
X189306948Y-83202239D01*
X189417699Y-83276241D01*
X189540760Y-83327214D01*
X189671400Y-83353200D01*
X189804600Y-83353200D01*
X189935240Y-83327214D01*
X190058301Y-83276241D01*
X190156637Y-83210534D01*
X207893800Y-83210534D01*
X207893800Y-83413466D01*
X207933390Y-83612498D01*
X208011048Y-83799983D01*
X208123791Y-83968714D01*
X208267286Y-84112209D01*
X208436017Y-84224952D01*
X208623502Y-84302610D01*
X208822534Y-84342200D01*
X209025466Y-84342200D01*
X209224498Y-84302610D01*
X209411983Y-84224952D01*
X209580714Y-84112209D01*
X209724209Y-83968714D01*
X209836952Y-83799983D01*
X209914610Y-83612498D01*
X209954200Y-83413466D01*
X209954200Y-83210534D01*
X209914610Y-83011502D01*
X209836952Y-82824017D01*
X209724209Y-82655286D01*
X209580714Y-82511791D01*
X209411983Y-82399048D01*
X209224498Y-82321390D01*
X209025466Y-82281800D01*
X208822534Y-82281800D01*
X208623502Y-82321390D01*
X208436017Y-82399048D01*
X208267286Y-82511791D01*
X208123791Y-82655286D01*
X208011048Y-82824017D01*
X207933390Y-83011502D01*
X207893800Y-83210534D01*
X190156637Y-83210534D01*
X190169052Y-83202239D01*
X190263239Y-83108052D01*
X190337241Y-82997301D01*
X190388214Y-82874240D01*
X190414200Y-82743600D01*
X190414200Y-82610400D01*
X190388214Y-82479760D01*
X190337241Y-82356699D01*
X190263239Y-82245948D01*
X190169052Y-82151761D01*
X190099818Y-82105500D01*
X190169052Y-82059239D01*
X190263239Y-81965052D01*
X190337241Y-81854301D01*
X190339946Y-81847770D01*
X197691400Y-81847770D01*
X197691400Y-81982230D01*
X197717632Y-82114107D01*
X197769088Y-82238332D01*
X197843790Y-82350132D01*
X197938868Y-82445210D01*
X198050668Y-82519912D01*
X198174893Y-82571368D01*
X198306770Y-82597600D01*
X198441230Y-82597600D01*
X198573107Y-82571368D01*
X198697332Y-82519912D01*
X198809132Y-82445210D01*
X198904210Y-82350132D01*
X198978912Y-82238332D01*
X199030368Y-82114107D01*
X199056600Y-81982230D01*
X199056600Y-81847770D01*
X199030368Y-81715893D01*
X199006662Y-81658662D01*
X199063893Y-81682368D01*
X199195770Y-81708600D01*
X199330230Y-81708600D01*
X199462107Y-81682368D01*
X199586332Y-81630912D01*
X199698132Y-81556210D01*
X199793210Y-81461132D01*
X199867912Y-81349332D01*
X199919368Y-81225107D01*
X199945600Y-81093230D01*
X199945600Y-80958770D01*
X199919368Y-80826893D01*
X199867912Y-80702668D01*
X199840124Y-80661079D01*
X201565800Y-80661079D01*
X201565800Y-80882921D01*
X201609079Y-81100500D01*
X201693975Y-81305456D01*
X201817223Y-81489911D01*
X201974089Y-81646777D01*
X202158544Y-81770025D01*
X202363500Y-81854921D01*
X202581079Y-81898200D01*
X202802921Y-81898200D01*
X203020500Y-81854921D01*
X203225456Y-81770025D01*
X203409911Y-81646777D01*
X203566777Y-81489911D01*
X203690025Y-81305456D01*
X203774921Y-81100500D01*
X203818200Y-80882921D01*
X203818200Y-80661079D01*
X204105800Y-80661079D01*
X204105800Y-80882921D01*
X204149079Y-81100500D01*
X204233975Y-81305456D01*
X204357223Y-81489911D01*
X204514089Y-81646777D01*
X204698544Y-81770025D01*
X204903500Y-81854921D01*
X205121079Y-81898200D01*
X205342921Y-81898200D01*
X205560500Y-81854921D01*
X205765456Y-81770025D01*
X205949911Y-81646777D01*
X206106777Y-81489911D01*
X206230025Y-81305456D01*
X206314921Y-81100500D01*
X206358200Y-80882921D01*
X206358200Y-80670534D01*
X207893800Y-80670534D01*
X207893800Y-80873466D01*
X207933390Y-81072498D01*
X208011048Y-81259983D01*
X208123791Y-81428714D01*
X208267286Y-81572209D01*
X208436017Y-81684952D01*
X208623502Y-81762610D01*
X208822534Y-81802200D01*
X209025466Y-81802200D01*
X209224498Y-81762610D01*
X209411983Y-81684952D01*
X209580714Y-81572209D01*
X209724209Y-81428714D01*
X209836952Y-81259983D01*
X209914610Y-81072498D01*
X209954200Y-80873466D01*
X209954200Y-80670534D01*
X209914610Y-80471502D01*
X209836952Y-80284017D01*
X209724209Y-80115286D01*
X209580714Y-79971791D01*
X209411983Y-79859048D01*
X209224498Y-79781390D01*
X209025466Y-79741800D01*
X208822534Y-79741800D01*
X208623502Y-79781390D01*
X208436017Y-79859048D01*
X208267286Y-79971791D01*
X208123791Y-80115286D01*
X208011048Y-80284017D01*
X207933390Y-80471502D01*
X207893800Y-80670534D01*
X206358200Y-80670534D01*
X206358200Y-80661079D01*
X206314921Y-80443500D01*
X206230025Y-80238544D01*
X206106777Y-80054089D01*
X205949911Y-79897223D01*
X205765456Y-79773975D01*
X205560500Y-79689079D01*
X205342921Y-79645800D01*
X205121079Y-79645800D01*
X204903500Y-79689079D01*
X204698544Y-79773975D01*
X204514089Y-79897223D01*
X204357223Y-80054089D01*
X204233975Y-80238544D01*
X204149079Y-80443500D01*
X204105800Y-80661079D01*
X203818200Y-80661079D01*
X203774921Y-80443500D01*
X203690025Y-80238544D01*
X203566777Y-80054089D01*
X203409911Y-79897223D01*
X203225456Y-79773975D01*
X203020500Y-79689079D01*
X202802921Y-79645800D01*
X202581079Y-79645800D01*
X202363500Y-79689079D01*
X202158544Y-79773975D01*
X201974089Y-79897223D01*
X201817223Y-80054089D01*
X201693975Y-80238544D01*
X201609079Y-80443500D01*
X201565800Y-80661079D01*
X199840124Y-80661079D01*
X199793210Y-80590868D01*
X199698132Y-80495790D01*
X199636337Y-80454500D01*
X199698132Y-80413210D01*
X199793210Y-80318132D01*
X199867912Y-80206332D01*
X199919368Y-80082107D01*
X199945600Y-79950230D01*
X199945600Y-79815770D01*
X199919368Y-79683893D01*
X199867912Y-79559668D01*
X199793210Y-79447868D01*
X199780112Y-79434770D01*
X218265400Y-79434770D01*
X218265400Y-79569230D01*
X218291632Y-79701107D01*
X218343088Y-79825332D01*
X218417790Y-79937132D01*
X218512868Y-80032210D01*
X218624668Y-80106912D01*
X218748893Y-80158368D01*
X218880770Y-80184600D01*
X219015230Y-80184600D01*
X219147107Y-80158368D01*
X219271332Y-80106912D01*
X219383132Y-80032210D01*
X219478210Y-79937132D01*
X219552912Y-79825332D01*
X219604368Y-79701107D01*
X219630600Y-79569230D01*
X219630600Y-79434770D01*
X224615400Y-79434770D01*
X224615400Y-79569230D01*
X224641632Y-79701107D01*
X224693088Y-79825332D01*
X224767790Y-79937132D01*
X224862868Y-80032210D01*
X224974668Y-80106912D01*
X225098893Y-80158368D01*
X225230770Y-80184600D01*
X225365230Y-80184600D01*
X225497107Y-80158368D01*
X225621332Y-80106912D01*
X225733132Y-80032210D01*
X225828210Y-79937132D01*
X225902912Y-79825332D01*
X225954368Y-79701107D01*
X225980600Y-79569230D01*
X225980600Y-79434770D01*
X225954368Y-79302893D01*
X225902912Y-79178668D01*
X225828210Y-79066868D01*
X225733132Y-78971790D01*
X225621332Y-78897088D01*
X225497107Y-78845632D01*
X225365230Y-78819400D01*
X225230770Y-78819400D01*
X225098893Y-78845632D01*
X224974668Y-78897088D01*
X224862868Y-78971790D01*
X224767790Y-79066868D01*
X224693088Y-79178668D01*
X224641632Y-79302893D01*
X224615400Y-79434770D01*
X219630600Y-79434770D01*
X219604368Y-79302893D01*
X219552912Y-79178668D01*
X219478210Y-79066868D01*
X219383132Y-78971790D01*
X219271332Y-78897088D01*
X219147107Y-78845632D01*
X219015230Y-78819400D01*
X218880770Y-78819400D01*
X218748893Y-78845632D01*
X218624668Y-78897088D01*
X218512868Y-78971790D01*
X218417790Y-79066868D01*
X218343088Y-79178668D01*
X218291632Y-79302893D01*
X218265400Y-79434770D01*
X199780112Y-79434770D01*
X199698132Y-79352790D01*
X199636337Y-79311500D01*
X199698132Y-79270210D01*
X199793210Y-79175132D01*
X199867912Y-79063332D01*
X199919368Y-78939107D01*
X199945600Y-78807230D01*
X199945600Y-78672770D01*
X199919368Y-78540893D01*
X199867912Y-78416668D01*
X199793210Y-78304868D01*
X199698132Y-78209790D01*
X199586332Y-78135088D01*
X199552512Y-78121079D01*
X201565800Y-78121079D01*
X201565800Y-78342921D01*
X201609079Y-78560500D01*
X201693975Y-78765456D01*
X201817223Y-78949911D01*
X201974089Y-79106777D01*
X202158544Y-79230025D01*
X202363500Y-79314921D01*
X202581079Y-79358200D01*
X202802921Y-79358200D01*
X203020500Y-79314921D01*
X203225456Y-79230025D01*
X203409911Y-79106777D01*
X203566777Y-78949911D01*
X203690025Y-78765456D01*
X203774921Y-78560500D01*
X203818200Y-78342921D01*
X203818200Y-78121079D01*
X204105800Y-78121079D01*
X204105800Y-78342921D01*
X204149079Y-78560500D01*
X204233975Y-78765456D01*
X204357223Y-78949911D01*
X204514089Y-79106777D01*
X204698544Y-79230025D01*
X204903500Y-79314921D01*
X205121079Y-79358200D01*
X205342921Y-79358200D01*
X205560500Y-79314921D01*
X205765456Y-79230025D01*
X205949911Y-79106777D01*
X206106777Y-78949911D01*
X206230025Y-78765456D01*
X206314921Y-78560500D01*
X206358200Y-78342921D01*
X206358200Y-78130534D01*
X207893800Y-78130534D01*
X207893800Y-78333466D01*
X207933390Y-78532498D01*
X208011048Y-78719983D01*
X208123791Y-78888714D01*
X208267286Y-79032209D01*
X208436017Y-79144952D01*
X208623502Y-79222610D01*
X208822534Y-79262200D01*
X209025466Y-79262200D01*
X209224498Y-79222610D01*
X209411983Y-79144952D01*
X209580714Y-79032209D01*
X209724209Y-78888714D01*
X209836952Y-78719983D01*
X209914610Y-78532498D01*
X209954200Y-78333466D01*
X209954200Y-78130534D01*
X209914610Y-77931502D01*
X209836952Y-77744017D01*
X209724209Y-77575286D01*
X209580714Y-77431791D01*
X209411983Y-77319048D01*
X209224498Y-77241390D01*
X209025466Y-77201800D01*
X208822534Y-77201800D01*
X208623502Y-77241390D01*
X208436017Y-77319048D01*
X208267286Y-77431791D01*
X208123791Y-77575286D01*
X208011048Y-77744017D01*
X207933390Y-77931502D01*
X207893800Y-78130534D01*
X206358200Y-78130534D01*
X206358200Y-78121079D01*
X206314921Y-77903500D01*
X206230025Y-77698544D01*
X206106777Y-77514089D01*
X205949911Y-77357223D01*
X205765456Y-77233975D01*
X205560500Y-77149079D01*
X205342921Y-77105800D01*
X205121079Y-77105800D01*
X204903500Y-77149079D01*
X204698544Y-77233975D01*
X204514089Y-77357223D01*
X204357223Y-77514089D01*
X204233975Y-77698544D01*
X204149079Y-77903500D01*
X204105800Y-78121079D01*
X203818200Y-78121079D01*
X203774921Y-77903500D01*
X203690025Y-77698544D01*
X203566777Y-77514089D01*
X203409911Y-77357223D01*
X203225456Y-77233975D01*
X203020500Y-77149079D01*
X202802921Y-77105800D01*
X202581079Y-77105800D01*
X202363500Y-77149079D01*
X202158544Y-77233975D01*
X201974089Y-77357223D01*
X201817223Y-77514089D01*
X201693975Y-77698544D01*
X201609079Y-77903500D01*
X201565800Y-78121079D01*
X199552512Y-78121079D01*
X199462107Y-78083632D01*
X199330230Y-78057400D01*
X199195770Y-78057400D01*
X199063893Y-78083632D01*
X198939668Y-78135088D01*
X198827868Y-78209790D01*
X198732790Y-78304868D01*
X198658088Y-78416668D01*
X198606632Y-78540893D01*
X198580400Y-78672770D01*
X198580400Y-78807230D01*
X198606632Y-78939107D01*
X198658088Y-79063332D01*
X198732790Y-79175132D01*
X198827868Y-79270210D01*
X198889663Y-79311500D01*
X198827868Y-79352790D01*
X198732790Y-79447868D01*
X198658088Y-79559668D01*
X198606632Y-79683893D01*
X198580400Y-79815770D01*
X198580400Y-79950230D01*
X198606632Y-80082107D01*
X198658088Y-80206332D01*
X198732790Y-80318132D01*
X198827868Y-80413210D01*
X198889663Y-80454500D01*
X198827868Y-80495790D01*
X198732790Y-80590868D01*
X198658088Y-80702668D01*
X198606632Y-80826893D01*
X198580400Y-80958770D01*
X198580400Y-81093230D01*
X198606632Y-81225107D01*
X198630338Y-81282338D01*
X198573107Y-81258632D01*
X198441230Y-81232400D01*
X198306770Y-81232400D01*
X198174893Y-81258632D01*
X198050668Y-81310088D01*
X197938868Y-81384790D01*
X197843790Y-81479868D01*
X197769088Y-81591668D01*
X197717632Y-81715893D01*
X197691400Y-81847770D01*
X190339946Y-81847770D01*
X190388214Y-81731240D01*
X190414200Y-81600600D01*
X190414200Y-81467400D01*
X190388214Y-81336760D01*
X190337241Y-81213699D01*
X190263239Y-81102948D01*
X190169052Y-81008761D01*
X190058301Y-80934759D01*
X189935240Y-80883786D01*
X189804600Y-80857800D01*
X189671400Y-80857800D01*
X189540760Y-80883786D01*
X189417699Y-80934759D01*
X189306948Y-81008761D01*
X189212761Y-81102948D01*
X189138759Y-81213699D01*
X189087786Y-81336760D01*
X189061800Y-81467400D01*
X185750200Y-81467400D01*
X185750200Y-77783770D01*
X189055400Y-77783770D01*
X189055400Y-77918230D01*
X189081632Y-78050107D01*
X189133088Y-78174332D01*
X189207790Y-78286132D01*
X189302868Y-78381210D01*
X189414668Y-78455912D01*
X189538893Y-78507368D01*
X189670770Y-78533600D01*
X189805230Y-78533600D01*
X189937107Y-78507368D01*
X190061332Y-78455912D01*
X190173132Y-78381210D01*
X190268210Y-78286132D01*
X190342912Y-78174332D01*
X190394368Y-78050107D01*
X190420600Y-77918230D01*
X190420600Y-77783770D01*
X190394368Y-77651893D01*
X190342912Y-77527668D01*
X190268210Y-77415868D01*
X190173132Y-77320790D01*
X190061332Y-77246088D01*
X189937107Y-77194632D01*
X189805230Y-77168400D01*
X189670770Y-77168400D01*
X189538893Y-77194632D01*
X189414668Y-77246088D01*
X189302868Y-77320790D01*
X189207790Y-77415868D01*
X189133088Y-77527668D01*
X189081632Y-77651893D01*
X189055400Y-77783770D01*
X185750200Y-77783770D01*
X185750200Y-75581079D01*
X201565800Y-75581079D01*
X201565800Y-75802921D01*
X201609079Y-76020500D01*
X201693975Y-76225456D01*
X201817223Y-76409911D01*
X201974089Y-76566777D01*
X202158544Y-76690025D01*
X202363500Y-76774921D01*
X202581079Y-76818200D01*
X202802921Y-76818200D01*
X203020500Y-76774921D01*
X203225456Y-76690025D01*
X203409911Y-76566777D01*
X203566777Y-76409911D01*
X203690025Y-76225456D01*
X203774921Y-76020500D01*
X203818200Y-75802921D01*
X203818200Y-75581079D01*
X204105800Y-75581079D01*
X204105800Y-75802921D01*
X204149079Y-76020500D01*
X204233975Y-76225456D01*
X204357223Y-76409911D01*
X204514089Y-76566777D01*
X204698544Y-76690025D01*
X204903500Y-76774921D01*
X205121079Y-76818200D01*
X205342921Y-76818200D01*
X205560500Y-76774921D01*
X205765456Y-76690025D01*
X205949911Y-76566777D01*
X206106777Y-76409911D01*
X206230025Y-76225456D01*
X206314921Y-76020500D01*
X206358200Y-75802921D01*
X206358200Y-75590534D01*
X207893800Y-75590534D01*
X207893800Y-75793466D01*
X207933390Y-75992498D01*
X208011048Y-76179983D01*
X208123791Y-76348714D01*
X208267286Y-76492209D01*
X208436017Y-76604952D01*
X208623502Y-76682610D01*
X208822534Y-76722200D01*
X209025466Y-76722200D01*
X209224498Y-76682610D01*
X209411983Y-76604952D01*
X209580714Y-76492209D01*
X209724209Y-76348714D01*
X209836952Y-76179983D01*
X209914610Y-75992498D01*
X209954200Y-75793466D01*
X209954200Y-75590534D01*
X209914610Y-75391502D01*
X209836952Y-75204017D01*
X209724209Y-75035286D01*
X209580714Y-74891791D01*
X209411983Y-74779048D01*
X209224498Y-74701390D01*
X209025466Y-74661800D01*
X208822534Y-74661800D01*
X208623502Y-74701390D01*
X208436017Y-74779048D01*
X208267286Y-74891791D01*
X208123791Y-75035286D01*
X208011048Y-75204017D01*
X207933390Y-75391502D01*
X207893800Y-75590534D01*
X206358200Y-75590534D01*
X206358200Y-75581079D01*
X206314921Y-75363500D01*
X206230025Y-75158544D01*
X206106777Y-74974089D01*
X205949911Y-74817223D01*
X205765456Y-74693975D01*
X205560500Y-74609079D01*
X205342921Y-74565800D01*
X205121079Y-74565800D01*
X204903500Y-74609079D01*
X204698544Y-74693975D01*
X204514089Y-74817223D01*
X204357223Y-74974089D01*
X204233975Y-75158544D01*
X204149079Y-75363500D01*
X204105800Y-75581079D01*
X203818200Y-75581079D01*
X203774921Y-75363500D01*
X203690025Y-75158544D01*
X203566777Y-74974089D01*
X203409911Y-74817223D01*
X203225456Y-74693975D01*
X203020500Y-74609079D01*
X202802921Y-74565800D01*
X202581079Y-74565800D01*
X202363500Y-74609079D01*
X202158544Y-74693975D01*
X201974089Y-74817223D01*
X201817223Y-74974089D01*
X201693975Y-75158544D01*
X201609079Y-75363500D01*
X201565800Y-75581079D01*
X185750200Y-75581079D01*
X185750200Y-74354770D01*
X191214400Y-74354770D01*
X191214400Y-74489230D01*
X191240632Y-74621107D01*
X191292088Y-74745332D01*
X191366790Y-74857132D01*
X191461868Y-74952210D01*
X191573668Y-75026912D01*
X191697893Y-75078368D01*
X191829770Y-75104600D01*
X191964230Y-75104600D01*
X192096107Y-75078368D01*
X192220332Y-75026912D01*
X192332132Y-74952210D01*
X192427210Y-74857132D01*
X192501912Y-74745332D01*
X192553368Y-74621107D01*
X192579600Y-74489230D01*
X192579600Y-74354770D01*
X192553368Y-74222893D01*
X192501912Y-74098668D01*
X192427210Y-73986868D01*
X192332132Y-73891790D01*
X192220332Y-73817088D01*
X192096107Y-73765632D01*
X191964230Y-73739400D01*
X191829770Y-73739400D01*
X191697893Y-73765632D01*
X191573668Y-73817088D01*
X191461868Y-73891790D01*
X191366790Y-73986868D01*
X191292088Y-74098668D01*
X191240632Y-74222893D01*
X191214400Y-74354770D01*
X185750200Y-74354770D01*
X185750200Y-73041079D01*
X201565800Y-73041079D01*
X201565800Y-73262921D01*
X201609079Y-73480500D01*
X201693975Y-73685456D01*
X201817223Y-73869911D01*
X201974089Y-74026777D01*
X202158544Y-74150025D01*
X202363500Y-74234921D01*
X202581079Y-74278200D01*
X202802921Y-74278200D01*
X203020500Y-74234921D01*
X203225456Y-74150025D01*
X203409911Y-74026777D01*
X203566777Y-73869911D01*
X203690025Y-73685456D01*
X203774921Y-73480500D01*
X203818200Y-73262921D01*
X203818200Y-73041079D01*
X204105800Y-73041079D01*
X204105800Y-73262921D01*
X204149079Y-73480500D01*
X204233975Y-73685456D01*
X204357223Y-73869911D01*
X204514089Y-74026777D01*
X204698544Y-74150025D01*
X204903500Y-74234921D01*
X205121079Y-74278200D01*
X205342921Y-74278200D01*
X205560500Y-74234921D01*
X205765456Y-74150025D01*
X205949911Y-74026777D01*
X206106777Y-73869911D01*
X206230025Y-73685456D01*
X206314921Y-73480500D01*
X206358200Y-73262921D01*
X206358200Y-73050534D01*
X207893800Y-73050534D01*
X207893800Y-73253466D01*
X207933390Y-73452498D01*
X208011048Y-73639983D01*
X208123791Y-73808714D01*
X208267286Y-73952209D01*
X208436017Y-74064952D01*
X208623502Y-74142610D01*
X208822534Y-74182200D01*
X209025466Y-74182200D01*
X209224498Y-74142610D01*
X209411983Y-74064952D01*
X209580714Y-73952209D01*
X209724209Y-73808714D01*
X209836952Y-73639983D01*
X209914610Y-73452498D01*
X209954200Y-73253466D01*
X209954200Y-73050534D01*
X209914610Y-72851502D01*
X209836952Y-72664017D01*
X209724209Y-72495286D01*
X209580714Y-72351791D01*
X209411983Y-72239048D01*
X209224498Y-72161390D01*
X209025466Y-72121800D01*
X208822534Y-72121800D01*
X208623502Y-72161390D01*
X208436017Y-72239048D01*
X208267286Y-72351791D01*
X208123791Y-72495286D01*
X208011048Y-72664017D01*
X207933390Y-72851502D01*
X207893800Y-73050534D01*
X206358200Y-73050534D01*
X206358200Y-73041079D01*
X206314921Y-72823500D01*
X206230025Y-72618544D01*
X206106777Y-72434089D01*
X205949911Y-72277223D01*
X205765456Y-72153975D01*
X205560500Y-72069079D01*
X205342921Y-72025800D01*
X205121079Y-72025800D01*
X204903500Y-72069079D01*
X204698544Y-72153975D01*
X204514089Y-72277223D01*
X204357223Y-72434089D01*
X204233975Y-72618544D01*
X204149079Y-72823500D01*
X204105800Y-73041079D01*
X203818200Y-73041079D01*
X203774921Y-72823500D01*
X203690025Y-72618544D01*
X203566777Y-72434089D01*
X203409911Y-72277223D01*
X203225456Y-72153975D01*
X203020500Y-72069079D01*
X202802921Y-72025800D01*
X202581079Y-72025800D01*
X202363500Y-72069079D01*
X202158544Y-72153975D01*
X201974089Y-72277223D01*
X201817223Y-72434089D01*
X201693975Y-72618544D01*
X201609079Y-72823500D01*
X201565800Y-73041079D01*
X185750200Y-73041079D01*
X185750200Y-71941770D01*
X187658400Y-71941770D01*
X187658400Y-72076230D01*
X187684632Y-72208107D01*
X187736088Y-72332332D01*
X187810790Y-72444132D01*
X187905868Y-72539210D01*
X188017668Y-72613912D01*
X188141893Y-72665368D01*
X188273770Y-72691600D01*
X188408230Y-72691600D01*
X188540107Y-72665368D01*
X188664332Y-72613912D01*
X188776132Y-72539210D01*
X188871210Y-72444132D01*
X188945912Y-72332332D01*
X188997368Y-72208107D01*
X189023600Y-72076230D01*
X189023600Y-71941770D01*
X188997368Y-71809893D01*
X188945912Y-71685668D01*
X188871210Y-71573868D01*
X188776132Y-71478790D01*
X188664332Y-71404088D01*
X188540107Y-71352632D01*
X188408230Y-71326400D01*
X188273770Y-71326400D01*
X188141893Y-71352632D01*
X188017668Y-71404088D01*
X187905868Y-71478790D01*
X187810790Y-71573868D01*
X187736088Y-71685668D01*
X187684632Y-71809893D01*
X187658400Y-71941770D01*
X185750200Y-71941770D01*
X185750200Y-71306770D01*
X189563400Y-71306770D01*
X189563400Y-71441230D01*
X189589632Y-71573107D01*
X189641088Y-71697332D01*
X189715790Y-71809132D01*
X189810868Y-71904210D01*
X189922668Y-71978912D01*
X190046893Y-72030368D01*
X190178770Y-72056600D01*
X190313230Y-72056600D01*
X190445107Y-72030368D01*
X190569332Y-71978912D01*
X190681132Y-71904210D01*
X190776210Y-71809132D01*
X190850912Y-71697332D01*
X190902368Y-71573107D01*
X190928600Y-71441230D01*
X190928600Y-71306770D01*
X197183400Y-71306770D01*
X197183400Y-71441230D01*
X197209632Y-71573107D01*
X197261088Y-71697332D01*
X197335790Y-71809132D01*
X197430868Y-71904210D01*
X197542668Y-71978912D01*
X197666893Y-72030368D01*
X197798770Y-72056600D01*
X197933230Y-72056600D01*
X198065107Y-72030368D01*
X198189332Y-71978912D01*
X198301132Y-71904210D01*
X198396210Y-71809132D01*
X198470912Y-71697332D01*
X198501000Y-71624694D01*
X198531088Y-71697332D01*
X198605790Y-71809132D01*
X198700868Y-71904210D01*
X198812668Y-71978912D01*
X198936893Y-72030368D01*
X199068770Y-72056600D01*
X199203230Y-72056600D01*
X199335107Y-72030368D01*
X199459332Y-71978912D01*
X199571132Y-71904210D01*
X199666210Y-71809132D01*
X199740912Y-71697332D01*
X199792368Y-71573107D01*
X199818600Y-71441230D01*
X199818600Y-71306770D01*
X199792368Y-71174893D01*
X199740912Y-71050668D01*
X199666210Y-70938868D01*
X199571132Y-70843790D01*
X199459332Y-70769088D01*
X199335107Y-70717632D01*
X199203230Y-70691400D01*
X199068770Y-70691400D01*
X198936893Y-70717632D01*
X198812668Y-70769088D01*
X198700868Y-70843790D01*
X198605790Y-70938868D01*
X198531088Y-71050668D01*
X198501000Y-71123306D01*
X198470912Y-71050668D01*
X198396210Y-70938868D01*
X198301132Y-70843790D01*
X198189332Y-70769088D01*
X198065107Y-70717632D01*
X197933230Y-70691400D01*
X197798770Y-70691400D01*
X197666893Y-70717632D01*
X197542668Y-70769088D01*
X197430868Y-70843790D01*
X197335790Y-70938868D01*
X197261088Y-71050668D01*
X197209632Y-71174893D01*
X197183400Y-71306770D01*
X190928600Y-71306770D01*
X190902368Y-71174893D01*
X190850912Y-71050668D01*
X190776210Y-70938868D01*
X190681132Y-70843790D01*
X190569332Y-70769088D01*
X190445107Y-70717632D01*
X190313230Y-70691400D01*
X190178770Y-70691400D01*
X190046893Y-70717632D01*
X189922668Y-70769088D01*
X189810868Y-70843790D01*
X189715790Y-70938868D01*
X189641088Y-71050668D01*
X189589632Y-71174893D01*
X189563400Y-71306770D01*
X185750200Y-71306770D01*
X185750200Y-70501079D01*
X201565800Y-70501079D01*
X201565800Y-70722921D01*
X201609079Y-70940500D01*
X201693975Y-71145456D01*
X201817223Y-71329911D01*
X201974089Y-71486777D01*
X202158544Y-71610025D01*
X202363500Y-71694921D01*
X202581079Y-71738200D01*
X202802921Y-71738200D01*
X203020500Y-71694921D01*
X203225456Y-71610025D01*
X203409911Y-71486777D01*
X203566777Y-71329911D01*
X203690025Y-71145456D01*
X203774921Y-70940500D01*
X203818200Y-70722921D01*
X203818200Y-70510534D01*
X207893800Y-70510534D01*
X207893800Y-70713466D01*
X207933390Y-70912498D01*
X208011048Y-71099983D01*
X208123791Y-71268714D01*
X208267286Y-71412209D01*
X208436017Y-71524952D01*
X208623502Y-71602610D01*
X208822534Y-71642200D01*
X209025466Y-71642200D01*
X209224498Y-71602610D01*
X209411983Y-71524952D01*
X209580714Y-71412209D01*
X209724209Y-71268714D01*
X209836952Y-71099983D01*
X209914610Y-70912498D01*
X209954200Y-70713466D01*
X209954200Y-70510534D01*
X209914610Y-70311502D01*
X209836952Y-70124017D01*
X209724209Y-69955286D01*
X209580714Y-69811791D01*
X209411983Y-69699048D01*
X209224498Y-69621390D01*
X209025466Y-69581800D01*
X208822534Y-69581800D01*
X208623502Y-69621390D01*
X208436017Y-69699048D01*
X208267286Y-69811791D01*
X208123791Y-69955286D01*
X208011048Y-70124017D01*
X207933390Y-70311502D01*
X207893800Y-70510534D01*
X203818200Y-70510534D01*
X203818200Y-70501079D01*
X203774921Y-70283500D01*
X203690025Y-70078544D01*
X203566777Y-69894089D01*
X203409911Y-69737223D01*
X203225456Y-69613975D01*
X203020500Y-69529079D01*
X202802921Y-69485800D01*
X202581079Y-69485800D01*
X202363500Y-69529079D01*
X202158544Y-69613975D01*
X201974089Y-69737223D01*
X201817223Y-69894089D01*
X201693975Y-70078544D01*
X201609079Y-70283500D01*
X201565800Y-70501079D01*
X185750200Y-70501079D01*
X185750200Y-69799200D01*
X197612000Y-69799200D01*
X197626866Y-69797736D01*
X197641160Y-69793400D01*
X197654334Y-69786358D01*
X197665882Y-69776882D01*
X197675358Y-69765334D01*
X197682400Y-69752160D01*
X197686736Y-69737866D01*
X197688200Y-69723000D01*
X197688200Y-67222000D01*
X201564464Y-67222000D01*
X201564464Y-68922000D01*
X201569797Y-68976145D01*
X201585590Y-69028208D01*
X201611237Y-69076191D01*
X201645752Y-69118248D01*
X201687809Y-69152763D01*
X201735792Y-69178410D01*
X201787855Y-69194203D01*
X201842000Y-69199536D01*
X203542000Y-69199536D01*
X203596145Y-69194203D01*
X203648208Y-69178410D01*
X203696191Y-69152763D01*
X203738248Y-69118248D01*
X203772763Y-69076191D01*
X203798410Y-69028208D01*
X203814203Y-68976145D01*
X203819536Y-68922000D01*
X203819536Y-67318000D01*
X207892464Y-67318000D01*
X207892464Y-68826000D01*
X207897797Y-68880145D01*
X207913590Y-68932208D01*
X207939237Y-68980191D01*
X207973752Y-69022248D01*
X208015809Y-69056763D01*
X208063792Y-69082410D01*
X208115855Y-69098203D01*
X208170000Y-69103536D01*
X209678000Y-69103536D01*
X209732145Y-69098203D01*
X209784208Y-69082410D01*
X209832191Y-69056763D01*
X209874248Y-69022248D01*
X209908763Y-68980191D01*
X209934410Y-68932208D01*
X209950203Y-68880145D01*
X209955536Y-68826000D01*
X209955536Y-67318000D01*
X209950203Y-67263855D01*
X209934410Y-67211792D01*
X209908763Y-67163809D01*
X209874248Y-67121752D01*
X209832191Y-67087237D01*
X209784208Y-67061590D01*
X209732145Y-67045797D01*
X209678000Y-67040464D01*
X208170000Y-67040464D01*
X208115855Y-67045797D01*
X208063792Y-67061590D01*
X208015809Y-67087237D01*
X207973752Y-67121752D01*
X207939237Y-67163809D01*
X207913590Y-67211792D01*
X207897797Y-67263855D01*
X207892464Y-67318000D01*
X203819536Y-67318000D01*
X203819536Y-67222000D01*
X203814203Y-67167855D01*
X203798410Y-67115792D01*
X203772763Y-67067809D01*
X203738248Y-67025752D01*
X203696191Y-66991237D01*
X203648208Y-66965590D01*
X203596145Y-66949797D01*
X203542000Y-66944464D01*
X201842000Y-66944464D01*
X201787855Y-66949797D01*
X201735792Y-66965590D01*
X201687809Y-66991237D01*
X201645752Y-67025752D01*
X201611237Y-67067809D01*
X201585590Y-67115792D01*
X201569797Y-67167855D01*
X201564464Y-67222000D01*
X197688200Y-67222000D01*
X197688200Y-57936000D01*
X203708464Y-57936000D01*
X203708464Y-60936000D01*
X203713797Y-60990145D01*
X203729590Y-61042208D01*
X203755237Y-61090191D01*
X203789752Y-61132248D01*
X203831809Y-61166763D01*
X203879792Y-61192410D01*
X203931855Y-61208203D01*
X203986000Y-61213536D01*
X206986000Y-61213536D01*
X207040145Y-61208203D01*
X207092208Y-61192410D01*
X207140191Y-61166763D01*
X207182248Y-61132248D01*
X207216763Y-61090191D01*
X207242410Y-61042208D01*
X207258203Y-60990145D01*
X207263536Y-60936000D01*
X207263536Y-60618000D01*
X208930464Y-60618000D01*
X208930464Y-62318000D01*
X208935797Y-62372145D01*
X208951590Y-62424208D01*
X208977237Y-62472191D01*
X209011752Y-62514248D01*
X209053809Y-62548763D01*
X209101792Y-62574410D01*
X209153855Y-62590203D01*
X209208000Y-62595536D01*
X210908000Y-62595536D01*
X210962145Y-62590203D01*
X211014208Y-62574410D01*
X211062191Y-62548763D01*
X211104248Y-62514248D01*
X211138763Y-62472191D01*
X211164410Y-62424208D01*
X211180203Y-62372145D01*
X211185536Y-62318000D01*
X211185536Y-60618000D01*
X211180203Y-60563855D01*
X211164410Y-60511792D01*
X211138763Y-60463809D01*
X211104248Y-60421752D01*
X211062191Y-60387237D01*
X211014208Y-60361590D01*
X210962145Y-60345797D01*
X210908000Y-60340464D01*
X209208000Y-60340464D01*
X209153855Y-60345797D01*
X209101792Y-60361590D01*
X209053809Y-60387237D01*
X209011752Y-60421752D01*
X208977237Y-60463809D01*
X208951590Y-60511792D01*
X208935797Y-60563855D01*
X208930464Y-60618000D01*
X207263536Y-60618000D01*
X207263536Y-58817079D01*
X208931800Y-58817079D01*
X208931800Y-59038921D01*
X208975079Y-59256500D01*
X209059975Y-59461456D01*
X209183223Y-59645911D01*
X209340089Y-59802777D01*
X209524544Y-59926025D01*
X209729500Y-60010921D01*
X209947079Y-60054200D01*
X210168921Y-60054200D01*
X210386500Y-60010921D01*
X210591456Y-59926025D01*
X210775911Y-59802777D01*
X210932777Y-59645911D01*
X211056025Y-59461456D01*
X211140921Y-59256500D01*
X211184200Y-59038921D01*
X211184200Y-58817079D01*
X211140921Y-58599500D01*
X211056025Y-58394544D01*
X210932777Y-58210089D01*
X210775911Y-58053223D01*
X210591456Y-57929975D01*
X210386500Y-57845079D01*
X210168921Y-57801800D01*
X209947079Y-57801800D01*
X209729500Y-57845079D01*
X209524544Y-57929975D01*
X209340089Y-58053223D01*
X209183223Y-58210089D01*
X209059975Y-58394544D01*
X208975079Y-58599500D01*
X208931800Y-58817079D01*
X207263536Y-58817079D01*
X207263536Y-57936000D01*
X207258203Y-57881855D01*
X207242410Y-57829792D01*
X207216763Y-57781809D01*
X207182248Y-57739752D01*
X207140191Y-57705237D01*
X207092208Y-57679590D01*
X207040145Y-57663797D01*
X206986000Y-57658464D01*
X203986000Y-57658464D01*
X203931855Y-57663797D01*
X203879792Y-57679590D01*
X203831809Y-57705237D01*
X203789752Y-57739752D01*
X203755237Y-57781809D01*
X203729590Y-57829792D01*
X203713797Y-57881855D01*
X203708464Y-57936000D01*
X197688200Y-57936000D01*
X197688200Y-55067200D01*
X212140800Y-55067200D01*
X212140800Y-77597000D01*
G36*
X189718541Y-48990458D02*
G01*
X189821506Y-49074959D01*
X189938978Y-49137749D01*
X190066442Y-49176415D01*
X190199000Y-49189471D01*
X190331557Y-49176415D01*
X190459021Y-49137749D01*
X190576493Y-49074959D01*
X190679458Y-48990459D01*
X190695263Y-48971200D01*
X190952737Y-48971200D01*
X190968541Y-48990458D01*
X191071506Y-49074959D01*
X191188978Y-49137749D01*
X191316442Y-49176415D01*
X191449000Y-49189471D01*
X191581557Y-49176415D01*
X191709021Y-49137749D01*
X191826493Y-49074959D01*
X191929458Y-48990459D01*
X191945263Y-48971200D01*
X192202737Y-48971200D01*
X192218541Y-48990458D01*
X192321506Y-49074959D01*
X192438978Y-49137749D01*
X192566442Y-49176415D01*
X192699000Y-49189471D01*
X192831557Y-49176415D01*
X192959021Y-49137749D01*
X193076493Y-49074959D01*
X193179458Y-48990459D01*
X193195263Y-48971200D01*
X193452737Y-48971200D01*
X193468541Y-48990458D01*
X193571506Y-49074959D01*
X193688978Y-49137749D01*
X193816442Y-49176415D01*
X193949000Y-49189471D01*
X194081557Y-49176415D01*
X194209021Y-49137749D01*
X194326493Y-49074959D01*
X194429458Y-48990459D01*
X194445263Y-48971200D01*
X194599749Y-48971200D01*
X194601943Y-48975305D01*
X194661331Y-49047669D01*
X194733695Y-49107057D01*
X194816255Y-49151186D01*
X194905837Y-49178360D01*
X194999000Y-49187536D01*
X195399000Y-49187536D01*
X195492163Y-49178360D01*
X195581745Y-49151186D01*
X195664305Y-49107057D01*
X195736669Y-49047669D01*
X195796057Y-48975305D01*
X195798251Y-48971200D01*
X202742800Y-48971200D01*
X202742800Y-54152800D01*
X196850000Y-54152800D01*
X196835134Y-54154264D01*
X196820840Y-54158600D01*
X196807666Y-54165642D01*
X196796118Y-54175118D01*
X196786642Y-54186666D01*
X196779600Y-54199840D01*
X196775264Y-54214134D01*
X196773800Y-54229000D01*
X196773800Y-63615656D01*
X196745210Y-63572868D01*
X196650132Y-63477790D01*
X196538332Y-63403088D01*
X196414107Y-63351632D01*
X196282230Y-63325400D01*
X196147770Y-63325400D01*
X196015893Y-63351632D01*
X195891668Y-63403088D01*
X195779868Y-63477790D01*
X195684790Y-63572868D01*
X195610088Y-63684668D01*
X195558632Y-63808893D01*
X195532400Y-63940770D01*
X195532400Y-64075230D01*
X195558632Y-64207107D01*
X195610088Y-64331332D01*
X195684790Y-64443132D01*
X195779868Y-64538210D01*
X195891668Y-64612912D01*
X196015893Y-64664368D01*
X196147770Y-64690600D01*
X196282230Y-64690600D01*
X196414107Y-64664368D01*
X196538332Y-64612912D01*
X196650132Y-64538210D01*
X196745210Y-64443132D01*
X196773800Y-64400344D01*
X196773800Y-66155656D01*
X196745210Y-66112868D01*
X196650132Y-66017790D01*
X196538332Y-65943088D01*
X196414107Y-65891632D01*
X196282230Y-65865400D01*
X196147770Y-65865400D01*
X196015893Y-65891632D01*
X195891668Y-65943088D01*
X195779868Y-66017790D01*
X195684790Y-66112868D01*
X195610088Y-66224668D01*
X195558632Y-66348893D01*
X195532400Y-66480770D01*
X195532400Y-66615230D01*
X195558632Y-66747107D01*
X195610088Y-66871332D01*
X195684790Y-66983132D01*
X195779868Y-67078210D01*
X195891668Y-67152912D01*
X196015893Y-67204368D01*
X196147770Y-67230600D01*
X196282230Y-67230600D01*
X196414107Y-67204368D01*
X196538332Y-67152912D01*
X196650132Y-67078210D01*
X196745210Y-66983132D01*
X196773800Y-66940344D01*
X196773800Y-68884800D01*
X192579600Y-68884800D01*
X192579600Y-68766770D01*
X192553368Y-68634893D01*
X192501912Y-68510668D01*
X192427210Y-68398868D01*
X192332132Y-68303790D01*
X192220332Y-68229088D01*
X192096107Y-68177632D01*
X191964230Y-68151400D01*
X191829770Y-68151400D01*
X191697893Y-68177632D01*
X191573668Y-68229088D01*
X191461868Y-68303790D01*
X191366790Y-68398868D01*
X191292088Y-68510668D01*
X191240632Y-68634893D01*
X191214400Y-68766770D01*
X191214400Y-68884800D01*
X189508436Y-68884800D01*
X189580912Y-68776332D01*
X189632368Y-68652107D01*
X189658600Y-68520230D01*
X189658600Y-68385770D01*
X189632368Y-68253893D01*
X189580912Y-68129668D01*
X189506210Y-68017868D01*
X189411132Y-67922790D01*
X189299332Y-67848088D01*
X189175107Y-67796632D01*
X189043230Y-67770400D01*
X188908770Y-67770400D01*
X188776893Y-67796632D01*
X188652668Y-67848088D01*
X188540868Y-67922790D01*
X188445790Y-68017868D01*
X188371088Y-68129668D01*
X188319632Y-68253893D01*
X188293400Y-68385770D01*
X188293400Y-68520230D01*
X188319632Y-68652107D01*
X188371088Y-68776332D01*
X188443564Y-68884800D01*
X184912000Y-68884800D01*
X184897134Y-68886264D01*
X184882840Y-68890600D01*
X184869666Y-68897642D01*
X184858118Y-68907118D01*
X184848642Y-68918666D01*
X184841600Y-68931840D01*
X184837264Y-68946134D01*
X184835800Y-68961000D01*
X184835800Y-75900184D01*
X184712893Y-75924632D01*
X184588668Y-75976088D01*
X184476868Y-76050790D01*
X184381790Y-76145868D01*
X184307088Y-76257668D01*
X184255632Y-76381893D01*
X184229400Y-76513770D01*
X184229400Y-76648230D01*
X184255632Y-76780107D01*
X184307088Y-76904332D01*
X184381790Y-77016132D01*
X184476868Y-77111210D01*
X184588668Y-77185912D01*
X184712893Y-77237368D01*
X184835800Y-77261816D01*
X184835800Y-81107184D01*
X184712893Y-81131632D01*
X184588668Y-81183088D01*
X184476868Y-81257790D01*
X184381790Y-81352868D01*
X184307088Y-81464668D01*
X184255632Y-81588893D01*
X184229400Y-81720770D01*
X184229400Y-81855230D01*
X184255632Y-81987107D01*
X184307088Y-82111332D01*
X184381790Y-82223132D01*
X184476868Y-82318210D01*
X184588668Y-82392912D01*
X184712893Y-82444368D01*
X184835800Y-82468816D01*
X184835800Y-87934800D01*
X180567330Y-87934800D01*
X180536332Y-87914088D01*
X180412107Y-87862632D01*
X180280230Y-87836400D01*
X180145770Y-87836400D01*
X180013893Y-87862632D01*
X179889668Y-87914088D01*
X179858670Y-87934800D01*
X162813600Y-87934800D01*
X162813600Y-85277400D01*
X163407800Y-85277400D01*
X163407800Y-85410600D01*
X163433786Y-85541240D01*
X163484759Y-85664301D01*
X163558761Y-85775052D01*
X163652948Y-85869239D01*
X163763699Y-85943241D01*
X163886760Y-85994214D01*
X164017400Y-86020200D01*
X164150600Y-86020200D01*
X164281240Y-85994214D01*
X164404301Y-85943241D01*
X164515052Y-85869239D01*
X164609239Y-85775052D01*
X164683241Y-85664301D01*
X164734214Y-85541240D01*
X164760200Y-85410600D01*
X164760200Y-85277400D01*
X165185800Y-85277400D01*
X165185800Y-85410600D01*
X165211786Y-85541240D01*
X165262759Y-85664301D01*
X165336761Y-85775052D01*
X165430948Y-85869239D01*
X165541699Y-85943241D01*
X165664760Y-85994214D01*
X165795400Y-86020200D01*
X165928600Y-86020200D01*
X166059240Y-85994214D01*
X166182301Y-85943241D01*
X166293052Y-85869239D01*
X166387239Y-85775052D01*
X166461241Y-85664301D01*
X166512214Y-85541240D01*
X166538200Y-85410600D01*
X166538200Y-85277400D01*
X168741800Y-85277400D01*
X168741800Y-85410600D01*
X168767786Y-85541240D01*
X168818759Y-85664301D01*
X168892761Y-85775052D01*
X168986948Y-85869239D01*
X169097699Y-85943241D01*
X169220760Y-85994214D01*
X169351400Y-86020200D01*
X169484600Y-86020200D01*
X169615240Y-85994214D01*
X169738301Y-85943241D01*
X169849052Y-85869239D01*
X169943239Y-85775052D01*
X170017241Y-85664301D01*
X170068214Y-85541240D01*
X170094200Y-85410600D01*
X170094200Y-85277400D01*
X172297800Y-85277400D01*
X172297800Y-85410600D01*
X172323786Y-85541240D01*
X172374759Y-85664301D01*
X172448761Y-85775052D01*
X172542948Y-85869239D01*
X172653699Y-85943241D01*
X172776760Y-85994214D01*
X172907400Y-86020200D01*
X173040600Y-86020200D01*
X173171240Y-85994214D01*
X173294301Y-85943241D01*
X173405052Y-85869239D01*
X173499239Y-85775052D01*
X173573241Y-85664301D01*
X173624214Y-85541240D01*
X173650200Y-85410600D01*
X173650200Y-85277400D01*
X174075800Y-85277400D01*
X174075800Y-85410600D01*
X174101786Y-85541240D01*
X174152759Y-85664301D01*
X174226761Y-85775052D01*
X174320948Y-85869239D01*
X174431699Y-85943241D01*
X174554760Y-85994214D01*
X174685400Y-86020200D01*
X174818600Y-86020200D01*
X174949240Y-85994214D01*
X175072301Y-85943241D01*
X175183052Y-85869239D01*
X175277239Y-85775052D01*
X175351241Y-85664301D01*
X175402214Y-85541240D01*
X175428200Y-85410600D01*
X175428200Y-85277400D01*
X175402214Y-85146760D01*
X175351241Y-85023699D01*
X175277239Y-84912948D01*
X175183052Y-84818761D01*
X175072301Y-84744759D01*
X174949240Y-84693786D01*
X174818600Y-84667800D01*
X174685400Y-84667800D01*
X174554760Y-84693786D01*
X174431699Y-84744759D01*
X174320948Y-84818761D01*
X174226761Y-84912948D01*
X174152759Y-85023699D01*
X174101786Y-85146760D01*
X174075800Y-85277400D01*
X173650200Y-85277400D01*
X173624214Y-85146760D01*
X173573241Y-85023699D01*
X173499239Y-84912948D01*
X173405052Y-84818761D01*
X173294301Y-84744759D01*
X173171240Y-84693786D01*
X173040600Y-84667800D01*
X172907400Y-84667800D01*
X172776760Y-84693786D01*
X172653699Y-84744759D01*
X172542948Y-84818761D01*
X172448761Y-84912948D01*
X172374759Y-85023699D01*
X172323786Y-85146760D01*
X172297800Y-85277400D01*
X170094200Y-85277400D01*
X170068214Y-85146760D01*
X170017241Y-85023699D01*
X169943239Y-84912948D01*
X169849052Y-84818761D01*
X169738301Y-84744759D01*
X169615240Y-84693786D01*
X169484600Y-84667800D01*
X169351400Y-84667800D01*
X169220760Y-84693786D01*
X169097699Y-84744759D01*
X168986948Y-84818761D01*
X168892761Y-84912948D01*
X168818759Y-85023699D01*
X168767786Y-85146760D01*
X168741800Y-85277400D01*
X166538200Y-85277400D01*
X166512214Y-85146760D01*
X166461241Y-85023699D01*
X166387239Y-84912948D01*
X166293052Y-84818761D01*
X166182301Y-84744759D01*
X166059240Y-84693786D01*
X165928600Y-84667800D01*
X165795400Y-84667800D01*
X165664760Y-84693786D01*
X165541699Y-84744759D01*
X165430948Y-84818761D01*
X165336761Y-84912948D01*
X165262759Y-85023699D01*
X165211786Y-85146760D01*
X165185800Y-85277400D01*
X164760200Y-85277400D01*
X164734214Y-85146760D01*
X164683241Y-85023699D01*
X164609239Y-84912948D01*
X164515052Y-84818761D01*
X164404301Y-84744759D01*
X164281240Y-84693786D01*
X164150600Y-84667800D01*
X164017400Y-84667800D01*
X163886760Y-84693786D01*
X163763699Y-84744759D01*
X163652948Y-84818761D01*
X163558761Y-84912948D01*
X163484759Y-85023699D01*
X163433786Y-85146760D01*
X163407800Y-85277400D01*
X162813600Y-85277400D01*
X162813600Y-82245200D01*
X180340000Y-82245200D01*
X180354866Y-82243736D01*
X180369160Y-82239400D01*
X180382334Y-82232358D01*
X180393882Y-82222882D01*
X180403358Y-82211334D01*
X180410400Y-82198160D01*
X180414736Y-82183866D01*
X180416200Y-82169000D01*
X180416200Y-70290770D01*
X182197400Y-70290770D01*
X182197400Y-70425230D01*
X182223632Y-70557107D01*
X182275088Y-70681332D01*
X182349790Y-70793132D01*
X182444868Y-70888210D01*
X182556668Y-70962912D01*
X182680893Y-71014368D01*
X182812770Y-71040600D01*
X182947230Y-71040600D01*
X183079107Y-71014368D01*
X183203332Y-70962912D01*
X183315132Y-70888210D01*
X183410210Y-70793132D01*
X183484912Y-70681332D01*
X183536368Y-70557107D01*
X183562600Y-70425230D01*
X183562600Y-70290770D01*
X183536368Y-70158893D01*
X183484912Y-70034668D01*
X183410210Y-69922868D01*
X183315132Y-69827790D01*
X183203332Y-69753088D01*
X183079107Y-69701632D01*
X182947230Y-69675400D01*
X182812770Y-69675400D01*
X182680893Y-69701632D01*
X182556668Y-69753088D01*
X182444868Y-69827790D01*
X182349790Y-69922868D01*
X182275088Y-70034668D01*
X182223632Y-70158893D01*
X182197400Y-70290770D01*
X180416200Y-70290770D01*
X180416200Y-66099770D01*
X184356400Y-66099770D01*
X184356400Y-66234230D01*
X184382632Y-66366107D01*
X184434088Y-66490332D01*
X184508790Y-66602132D01*
X184603868Y-66697210D01*
X184715668Y-66771912D01*
X184839893Y-66823368D01*
X184971770Y-66849600D01*
X185106230Y-66849600D01*
X185238107Y-66823368D01*
X185362332Y-66771912D01*
X185474132Y-66697210D01*
X185569210Y-66602132D01*
X185643912Y-66490332D01*
X185674000Y-66417694D01*
X185704088Y-66490332D01*
X185778790Y-66602132D01*
X185873868Y-66697210D01*
X185985668Y-66771912D01*
X186109893Y-66823368D01*
X186241770Y-66849600D01*
X186376230Y-66849600D01*
X186508107Y-66823368D01*
X186632332Y-66771912D01*
X186744132Y-66697210D01*
X186839210Y-66602132D01*
X186913912Y-66490332D01*
X186965368Y-66366107D01*
X186991600Y-66234230D01*
X186991600Y-66099770D01*
X186965368Y-65967893D01*
X186913912Y-65843668D01*
X186839210Y-65731868D01*
X186744132Y-65636790D01*
X186632332Y-65562088D01*
X186508107Y-65510632D01*
X186376230Y-65484400D01*
X186241770Y-65484400D01*
X186109893Y-65510632D01*
X185985668Y-65562088D01*
X185873868Y-65636790D01*
X185778790Y-65731868D01*
X185704088Y-65843668D01*
X185674000Y-65916306D01*
X185643912Y-65843668D01*
X185569210Y-65731868D01*
X185474132Y-65636790D01*
X185362332Y-65562088D01*
X185238107Y-65510632D01*
X185106230Y-65484400D01*
X184971770Y-65484400D01*
X184839893Y-65510632D01*
X184715668Y-65562088D01*
X184603868Y-65636790D01*
X184508790Y-65731868D01*
X184434088Y-65843668D01*
X184382632Y-65967893D01*
X184356400Y-66099770D01*
X180416200Y-66099770D01*
X180416200Y-62416770D01*
X186388400Y-62416770D01*
X186388400Y-62551230D01*
X186414632Y-62683107D01*
X186466088Y-62807332D01*
X186540790Y-62919132D01*
X186635868Y-63014210D01*
X186747668Y-63088912D01*
X186871893Y-63140368D01*
X187003770Y-63166600D01*
X187138230Y-63166600D01*
X187270107Y-63140368D01*
X187394332Y-63088912D01*
X187506132Y-63014210D01*
X187601210Y-62919132D01*
X187675912Y-62807332D01*
X187727368Y-62683107D01*
X187753600Y-62551230D01*
X187753600Y-62416770D01*
X187727368Y-62284893D01*
X187675912Y-62160668D01*
X187601210Y-62048868D01*
X187506132Y-61953790D01*
X187394332Y-61879088D01*
X187270107Y-61827632D01*
X187138230Y-61801400D01*
X187003770Y-61801400D01*
X186871893Y-61827632D01*
X186747668Y-61879088D01*
X186635868Y-61953790D01*
X186540790Y-62048868D01*
X186466088Y-62160668D01*
X186414632Y-62284893D01*
X186388400Y-62416770D01*
X180416200Y-62416770D01*
X180416200Y-61654770D01*
X191468400Y-61654770D01*
X191468400Y-61789230D01*
X191494632Y-61921107D01*
X191546088Y-62045332D01*
X191620790Y-62157132D01*
X191715868Y-62252210D01*
X191827668Y-62326912D01*
X191951893Y-62378368D01*
X192083770Y-62404600D01*
X192218230Y-62404600D01*
X192350107Y-62378368D01*
X192474332Y-62326912D01*
X192586132Y-62252210D01*
X192681210Y-62157132D01*
X192755912Y-62045332D01*
X192807368Y-61921107D01*
X192833600Y-61789230D01*
X192833600Y-61654770D01*
X195278400Y-61654770D01*
X195278400Y-61789230D01*
X195304632Y-61921107D01*
X195356088Y-62045332D01*
X195430790Y-62157132D01*
X195525868Y-62252210D01*
X195637668Y-62326912D01*
X195761893Y-62378368D01*
X195893770Y-62404600D01*
X196028230Y-62404600D01*
X196160107Y-62378368D01*
X196284332Y-62326912D01*
X196396132Y-62252210D01*
X196491210Y-62157132D01*
X196565912Y-62045332D01*
X196617368Y-61921107D01*
X196643600Y-61789230D01*
X196643600Y-61654770D01*
X196617368Y-61522893D01*
X196565912Y-61398668D01*
X196491210Y-61286868D01*
X196396132Y-61191790D01*
X196284332Y-61117088D01*
X196160107Y-61065632D01*
X196028230Y-61039400D01*
X195893770Y-61039400D01*
X195761893Y-61065632D01*
X195637668Y-61117088D01*
X195525868Y-61191790D01*
X195430790Y-61286868D01*
X195356088Y-61398668D01*
X195304632Y-61522893D01*
X195278400Y-61654770D01*
X192833600Y-61654770D01*
X192807368Y-61522893D01*
X192755912Y-61398668D01*
X192681210Y-61286868D01*
X192586132Y-61191790D01*
X192474332Y-61117088D01*
X192350107Y-61065632D01*
X192218230Y-61039400D01*
X192083770Y-61039400D01*
X191951893Y-61065632D01*
X191827668Y-61117088D01*
X191715868Y-61191790D01*
X191620790Y-61286868D01*
X191546088Y-61398668D01*
X191494632Y-61522893D01*
X191468400Y-61654770D01*
X180416200Y-61654770D01*
X180416200Y-60130770D01*
X186388400Y-60130770D01*
X186388400Y-60265230D01*
X186414632Y-60397107D01*
X186466088Y-60521332D01*
X186540790Y-60633132D01*
X186635868Y-60728210D01*
X186747668Y-60802912D01*
X186871893Y-60854368D01*
X187003770Y-60880600D01*
X187138230Y-60880600D01*
X187270107Y-60854368D01*
X187394332Y-60802912D01*
X187506132Y-60728210D01*
X187601210Y-60633132D01*
X187675912Y-60521332D01*
X187727368Y-60397107D01*
X187753600Y-60265230D01*
X187753600Y-60130770D01*
X187727368Y-59998893D01*
X187675912Y-59874668D01*
X187601210Y-59762868D01*
X187506132Y-59667790D01*
X187394332Y-59593088D01*
X187270107Y-59541632D01*
X187138230Y-59515400D01*
X187003770Y-59515400D01*
X186871893Y-59541632D01*
X186747668Y-59593088D01*
X186635868Y-59667790D01*
X186540790Y-59762868D01*
X186466088Y-59874668D01*
X186414632Y-59998893D01*
X186388400Y-60130770D01*
X180416200Y-60130770D01*
X180416200Y-59766200D01*
X185674000Y-59766200D01*
X185688866Y-59764736D01*
X185703160Y-59760400D01*
X185716334Y-59753358D01*
X185727882Y-59743882D01*
X185737358Y-59732334D01*
X185744400Y-59719160D01*
X185748736Y-59704866D01*
X185750200Y-59690000D01*
X185750200Y-59193344D01*
X185778790Y-59236132D01*
X185873868Y-59331210D01*
X185985668Y-59405912D01*
X186109893Y-59457368D01*
X186241770Y-59483600D01*
X186376230Y-59483600D01*
X186508107Y-59457368D01*
X186632332Y-59405912D01*
X186744132Y-59331210D01*
X186839210Y-59236132D01*
X186913912Y-59124332D01*
X186965368Y-59000107D01*
X186991600Y-58868230D01*
X186991600Y-58733770D01*
X186965368Y-58601893D01*
X186913912Y-58477668D01*
X186839210Y-58365868D01*
X186744132Y-58270790D01*
X186632332Y-58196088D01*
X186508107Y-58144632D01*
X186376230Y-58118400D01*
X186241770Y-58118400D01*
X186109893Y-58144632D01*
X185985668Y-58196088D01*
X185873868Y-58270790D01*
X185778790Y-58365868D01*
X185750200Y-58408656D01*
X185750200Y-56979772D01*
X192164800Y-56979772D01*
X192164800Y-57096228D01*
X192187519Y-57210447D01*
X192232085Y-57318038D01*
X192296785Y-57414868D01*
X192379132Y-57497215D01*
X192475962Y-57561915D01*
X192583553Y-57606481D01*
X192697772Y-57629200D01*
X192814228Y-57629200D01*
X192928447Y-57606481D01*
X193036038Y-57561915D01*
X193132868Y-57497215D01*
X193215215Y-57414868D01*
X193279915Y-57318038D01*
X193324481Y-57210447D01*
X193347200Y-57096228D01*
X193347200Y-56979772D01*
X193464800Y-56979772D01*
X193464800Y-57096228D01*
X193487519Y-57210447D01*
X193532085Y-57318038D01*
X193596785Y-57414868D01*
X193679132Y-57497215D01*
X193775962Y-57561915D01*
X193883553Y-57606481D01*
X193997772Y-57629200D01*
X194114228Y-57629200D01*
X194228447Y-57606481D01*
X194336038Y-57561915D01*
X194432868Y-57497215D01*
X194515215Y-57414868D01*
X194579915Y-57318038D01*
X194624481Y-57210447D01*
X194647200Y-57096228D01*
X194647200Y-56979772D01*
X194764800Y-56979772D01*
X194764800Y-57096228D01*
X194787519Y-57210447D01*
X194832085Y-57318038D01*
X194896785Y-57414868D01*
X194979132Y-57497215D01*
X195075962Y-57561915D01*
X195183553Y-57606481D01*
X195297772Y-57629200D01*
X195414228Y-57629200D01*
X195528447Y-57606481D01*
X195636038Y-57561915D01*
X195732868Y-57497215D01*
X195815215Y-57414868D01*
X195879915Y-57318038D01*
X195924481Y-57210447D01*
X195947200Y-57096228D01*
X195947200Y-56979772D01*
X195924481Y-56865553D01*
X195879915Y-56757962D01*
X195815215Y-56661132D01*
X195732868Y-56578785D01*
X195636038Y-56514085D01*
X195528447Y-56469519D01*
X195414228Y-56446800D01*
X195297772Y-56446800D01*
X195183553Y-56469519D01*
X195075962Y-56514085D01*
X194979132Y-56578785D01*
X194896785Y-56661132D01*
X194832085Y-56757962D01*
X194787519Y-56865553D01*
X194764800Y-56979772D01*
X194647200Y-56979772D01*
X194624481Y-56865553D01*
X194579915Y-56757962D01*
X194515215Y-56661132D01*
X194432868Y-56578785D01*
X194336038Y-56514085D01*
X194228447Y-56469519D01*
X194114228Y-56446800D01*
X193997772Y-56446800D01*
X193883553Y-56469519D01*
X193775962Y-56514085D01*
X193679132Y-56578785D01*
X193596785Y-56661132D01*
X193532085Y-56757962D01*
X193487519Y-56865553D01*
X193464800Y-56979772D01*
X193347200Y-56979772D01*
X193324481Y-56865553D01*
X193279915Y-56757962D01*
X193215215Y-56661132D01*
X193132868Y-56578785D01*
X193036038Y-56514085D01*
X192928447Y-56469519D01*
X192814228Y-56446800D01*
X192697772Y-56446800D01*
X192583553Y-56469519D01*
X192475962Y-56514085D01*
X192379132Y-56578785D01*
X192296785Y-56661132D01*
X192232085Y-56757962D01*
X192187519Y-56865553D01*
X192164800Y-56979772D01*
X185750200Y-56979772D01*
X185750200Y-55177770D01*
X188039400Y-55177770D01*
X188039400Y-55312230D01*
X188065632Y-55444107D01*
X188117088Y-55568332D01*
X188191790Y-55680132D01*
X188286868Y-55775210D01*
X188398668Y-55849912D01*
X188522893Y-55901368D01*
X188654770Y-55927600D01*
X188789230Y-55927600D01*
X188921107Y-55901368D01*
X189045332Y-55849912D01*
X189157132Y-55775210D01*
X189252210Y-55680132D01*
X189252450Y-55679772D01*
X192164800Y-55679772D01*
X192164800Y-55796228D01*
X192187519Y-55910447D01*
X192232085Y-56018038D01*
X192296785Y-56114868D01*
X192379132Y-56197215D01*
X192475962Y-56261915D01*
X192583553Y-56306481D01*
X192697772Y-56329200D01*
X192814228Y-56329200D01*
X192928447Y-56306481D01*
X193036038Y-56261915D01*
X193132868Y-56197215D01*
X193215215Y-56114868D01*
X193279915Y-56018038D01*
X193324481Y-55910447D01*
X193347200Y-55796228D01*
X193347200Y-55679772D01*
X193464800Y-55679772D01*
X193464800Y-55796228D01*
X193487519Y-55910447D01*
X193532085Y-56018038D01*
X193596785Y-56114868D01*
X193679132Y-56197215D01*
X193775962Y-56261915D01*
X193883553Y-56306481D01*
X193997772Y-56329200D01*
X194114228Y-56329200D01*
X194228447Y-56306481D01*
X194336038Y-56261915D01*
X194432868Y-56197215D01*
X194515215Y-56114868D01*
X194579915Y-56018038D01*
X194624481Y-55910447D01*
X194647200Y-55796228D01*
X194647200Y-55679772D01*
X194764800Y-55679772D01*
X194764800Y-55796228D01*
X194787519Y-55910447D01*
X194832085Y-56018038D01*
X194896785Y-56114868D01*
X194979132Y-56197215D01*
X195075962Y-56261915D01*
X195183553Y-56306481D01*
X195297772Y-56329200D01*
X195414228Y-56329200D01*
X195528447Y-56306481D01*
X195636038Y-56261915D01*
X195732868Y-56197215D01*
X195815215Y-56114868D01*
X195879915Y-56018038D01*
X195924481Y-55910447D01*
X195947200Y-55796228D01*
X195947200Y-55679772D01*
X195924481Y-55565553D01*
X195879915Y-55457962D01*
X195815215Y-55361132D01*
X195732868Y-55278785D01*
X195636038Y-55214085D01*
X195528447Y-55169519D01*
X195414228Y-55146800D01*
X195297772Y-55146800D01*
X195183553Y-55169519D01*
X195075962Y-55214085D01*
X194979132Y-55278785D01*
X194896785Y-55361132D01*
X194832085Y-55457962D01*
X194787519Y-55565553D01*
X194764800Y-55679772D01*
X194647200Y-55679772D01*
X194624481Y-55565553D01*
X194579915Y-55457962D01*
X194515215Y-55361132D01*
X194432868Y-55278785D01*
X194336038Y-55214085D01*
X194228447Y-55169519D01*
X194114228Y-55146800D01*
X193997772Y-55146800D01*
X193883553Y-55169519D01*
X193775962Y-55214085D01*
X193679132Y-55278785D01*
X193596785Y-55361132D01*
X193532085Y-55457962D01*
X193487519Y-55565553D01*
X193464800Y-55679772D01*
X193347200Y-55679772D01*
X193324481Y-55565553D01*
X193279915Y-55457962D01*
X193215215Y-55361132D01*
X193132868Y-55278785D01*
X193036038Y-55214085D01*
X192928447Y-55169519D01*
X192814228Y-55146800D01*
X192697772Y-55146800D01*
X192583553Y-55169519D01*
X192475962Y-55214085D01*
X192379132Y-55278785D01*
X192296785Y-55361132D01*
X192232085Y-55457962D01*
X192187519Y-55565553D01*
X192164800Y-55679772D01*
X189252450Y-55679772D01*
X189326912Y-55568332D01*
X189378368Y-55444107D01*
X189404600Y-55312230D01*
X189404600Y-55177770D01*
X189378368Y-55045893D01*
X189326912Y-54921668D01*
X189252210Y-54809868D01*
X189157132Y-54714790D01*
X189045332Y-54640088D01*
X188921107Y-54588632D01*
X188789230Y-54562400D01*
X188654770Y-54562400D01*
X188522893Y-54588632D01*
X188398668Y-54640088D01*
X188286868Y-54714790D01*
X188191790Y-54809868D01*
X188117088Y-54921668D01*
X188065632Y-55045893D01*
X188039400Y-55177770D01*
X185750200Y-55177770D01*
X185750200Y-50351770D01*
X188039400Y-50351770D01*
X188039400Y-50486230D01*
X188065632Y-50618107D01*
X188117088Y-50742332D01*
X188191790Y-50854132D01*
X188286868Y-50949210D01*
X188398668Y-51023912D01*
X188522893Y-51075368D01*
X188654770Y-51101600D01*
X188789230Y-51101600D01*
X188921107Y-51075368D01*
X189045332Y-51023912D01*
X189157132Y-50949210D01*
X189252210Y-50854132D01*
X189326912Y-50742332D01*
X189378368Y-50618107D01*
X189404600Y-50486230D01*
X189404600Y-50351770D01*
X189378368Y-50219893D01*
X189326912Y-50095668D01*
X189252210Y-49983868D01*
X189157132Y-49888790D01*
X189045332Y-49814088D01*
X188921107Y-49762632D01*
X188789230Y-49736400D01*
X188654770Y-49736400D01*
X188522893Y-49762632D01*
X188398668Y-49814088D01*
X188286868Y-49888790D01*
X188191790Y-49983868D01*
X188117088Y-50095668D01*
X188065632Y-50219893D01*
X188039400Y-50351770D01*
X185750200Y-50351770D01*
X185750200Y-48971200D01*
X189702737Y-48971200D01*
X189718541Y-48990458D01*
G37*
X189718541Y-48990458D02*
X189821506Y-49074959D01*
X189938978Y-49137749D01*
X190066442Y-49176415D01*
X190199000Y-49189471D01*
X190331557Y-49176415D01*
X190459021Y-49137749D01*
X190576493Y-49074959D01*
X190679458Y-48990459D01*
X190695263Y-48971200D01*
X190952737Y-48971200D01*
X190968541Y-48990458D01*
X191071506Y-49074959D01*
X191188978Y-49137749D01*
X191316442Y-49176415D01*
X191449000Y-49189471D01*
X191581557Y-49176415D01*
X191709021Y-49137749D01*
X191826493Y-49074959D01*
X191929458Y-48990459D01*
X191945263Y-48971200D01*
X192202737Y-48971200D01*
X192218541Y-48990458D01*
X192321506Y-49074959D01*
X192438978Y-49137749D01*
X192566442Y-49176415D01*
X192699000Y-49189471D01*
X192831557Y-49176415D01*
X192959021Y-49137749D01*
X193076493Y-49074959D01*
X193179458Y-48990459D01*
X193195263Y-48971200D01*
X193452737Y-48971200D01*
X193468541Y-48990458D01*
X193571506Y-49074959D01*
X193688978Y-49137749D01*
X193816442Y-49176415D01*
X193949000Y-49189471D01*
X194081557Y-49176415D01*
X194209021Y-49137749D01*
X194326493Y-49074959D01*
X194429458Y-48990459D01*
X194445263Y-48971200D01*
X194599749Y-48971200D01*
X194601943Y-48975305D01*
X194661331Y-49047669D01*
X194733695Y-49107057D01*
X194816255Y-49151186D01*
X194905837Y-49178360D01*
X194999000Y-49187536D01*
X195399000Y-49187536D01*
X195492163Y-49178360D01*
X195581745Y-49151186D01*
X195664305Y-49107057D01*
X195736669Y-49047669D01*
X195796057Y-48975305D01*
X195798251Y-48971200D01*
X202742800Y-48971200D01*
X202742800Y-54152800D01*
X196850000Y-54152800D01*
X196835134Y-54154264D01*
X196820840Y-54158600D01*
X196807666Y-54165642D01*
X196796118Y-54175118D01*
X196786642Y-54186666D01*
X196779600Y-54199840D01*
X196775264Y-54214134D01*
X196773800Y-54229000D01*
X196773800Y-63615656D01*
X196745210Y-63572868D01*
X196650132Y-63477790D01*
X196538332Y-63403088D01*
X196414107Y-63351632D01*
X196282230Y-63325400D01*
X196147770Y-63325400D01*
X196015893Y-63351632D01*
X195891668Y-63403088D01*
X195779868Y-63477790D01*
X195684790Y-63572868D01*
X195610088Y-63684668D01*
X195558632Y-63808893D01*
X195532400Y-63940770D01*
X195532400Y-64075230D01*
X195558632Y-64207107D01*
X195610088Y-64331332D01*
X195684790Y-64443132D01*
X195779868Y-64538210D01*
X195891668Y-64612912D01*
X196015893Y-64664368D01*
X196147770Y-64690600D01*
X196282230Y-64690600D01*
X196414107Y-64664368D01*
X196538332Y-64612912D01*
X196650132Y-64538210D01*
X196745210Y-64443132D01*
X196773800Y-64400344D01*
X196773800Y-66155656D01*
X196745210Y-66112868D01*
X196650132Y-66017790D01*
X196538332Y-65943088D01*
X196414107Y-65891632D01*
X196282230Y-65865400D01*
X196147770Y-65865400D01*
X196015893Y-65891632D01*
X195891668Y-65943088D01*
X195779868Y-66017790D01*
X195684790Y-66112868D01*
X195610088Y-66224668D01*
X195558632Y-66348893D01*
X195532400Y-66480770D01*
X195532400Y-66615230D01*
X195558632Y-66747107D01*
X195610088Y-66871332D01*
X195684790Y-66983132D01*
X195779868Y-67078210D01*
X195891668Y-67152912D01*
X196015893Y-67204368D01*
X196147770Y-67230600D01*
X196282230Y-67230600D01*
X196414107Y-67204368D01*
X196538332Y-67152912D01*
X196650132Y-67078210D01*
X196745210Y-66983132D01*
X196773800Y-66940344D01*
X196773800Y-68884800D01*
X192579600Y-68884800D01*
X192579600Y-68766770D01*
X192553368Y-68634893D01*
X192501912Y-68510668D01*
X192427210Y-68398868D01*
X192332132Y-68303790D01*
X192220332Y-68229088D01*
X192096107Y-68177632D01*
X191964230Y-68151400D01*
X191829770Y-68151400D01*
X191697893Y-68177632D01*
X191573668Y-68229088D01*
X191461868Y-68303790D01*
X191366790Y-68398868D01*
X191292088Y-68510668D01*
X191240632Y-68634893D01*
X191214400Y-68766770D01*
X191214400Y-68884800D01*
X189508436Y-68884800D01*
X189580912Y-68776332D01*
X189632368Y-68652107D01*
X189658600Y-68520230D01*
X189658600Y-68385770D01*
X189632368Y-68253893D01*
X189580912Y-68129668D01*
X189506210Y-68017868D01*
X189411132Y-67922790D01*
X189299332Y-67848088D01*
X189175107Y-67796632D01*
X189043230Y-67770400D01*
X188908770Y-67770400D01*
X188776893Y-67796632D01*
X188652668Y-67848088D01*
X188540868Y-67922790D01*
X188445790Y-68017868D01*
X188371088Y-68129668D01*
X188319632Y-68253893D01*
X188293400Y-68385770D01*
X188293400Y-68520230D01*
X188319632Y-68652107D01*
X188371088Y-68776332D01*
X188443564Y-68884800D01*
X184912000Y-68884800D01*
X184897134Y-68886264D01*
X184882840Y-68890600D01*
X184869666Y-68897642D01*
X184858118Y-68907118D01*
X184848642Y-68918666D01*
X184841600Y-68931840D01*
X184837264Y-68946134D01*
X184835800Y-68961000D01*
X184835800Y-75900184D01*
X184712893Y-75924632D01*
X184588668Y-75976088D01*
X184476868Y-76050790D01*
X184381790Y-76145868D01*
X184307088Y-76257668D01*
X184255632Y-76381893D01*
X184229400Y-76513770D01*
X184229400Y-76648230D01*
X184255632Y-76780107D01*
X184307088Y-76904332D01*
X184381790Y-77016132D01*
X184476868Y-77111210D01*
X184588668Y-77185912D01*
X184712893Y-77237368D01*
X184835800Y-77261816D01*
X184835800Y-81107184D01*
X184712893Y-81131632D01*
X184588668Y-81183088D01*
X184476868Y-81257790D01*
X184381790Y-81352868D01*
X184307088Y-81464668D01*
X184255632Y-81588893D01*
X184229400Y-81720770D01*
X184229400Y-81855230D01*
X184255632Y-81987107D01*
X184307088Y-82111332D01*
X184381790Y-82223132D01*
X184476868Y-82318210D01*
X184588668Y-82392912D01*
X184712893Y-82444368D01*
X184835800Y-82468816D01*
X184835800Y-87934800D01*
X180567330Y-87934800D01*
X180536332Y-87914088D01*
X180412107Y-87862632D01*
X180280230Y-87836400D01*
X180145770Y-87836400D01*
X180013893Y-87862632D01*
X179889668Y-87914088D01*
X179858670Y-87934800D01*
X162813600Y-87934800D01*
X162813600Y-85277400D01*
X163407800Y-85277400D01*
X163407800Y-85410600D01*
X163433786Y-85541240D01*
X163484759Y-85664301D01*
X163558761Y-85775052D01*
X163652948Y-85869239D01*
X163763699Y-85943241D01*
X163886760Y-85994214D01*
X164017400Y-86020200D01*
X164150600Y-86020200D01*
X164281240Y-85994214D01*
X164404301Y-85943241D01*
X164515052Y-85869239D01*
X164609239Y-85775052D01*
X164683241Y-85664301D01*
X164734214Y-85541240D01*
X164760200Y-85410600D01*
X164760200Y-85277400D01*
X165185800Y-85277400D01*
X165185800Y-85410600D01*
X165211786Y-85541240D01*
X165262759Y-85664301D01*
X165336761Y-85775052D01*
X165430948Y-85869239D01*
X165541699Y-85943241D01*
X165664760Y-85994214D01*
X165795400Y-86020200D01*
X165928600Y-86020200D01*
X166059240Y-85994214D01*
X166182301Y-85943241D01*
X166293052Y-85869239D01*
X166387239Y-85775052D01*
X166461241Y-85664301D01*
X166512214Y-85541240D01*
X166538200Y-85410600D01*
X166538200Y-85277400D01*
X168741800Y-85277400D01*
X168741800Y-85410600D01*
X168767786Y-85541240D01*
X168818759Y-85664301D01*
X168892761Y-85775052D01*
X168986948Y-85869239D01*
X169097699Y-85943241D01*
X169220760Y-85994214D01*
X169351400Y-86020200D01*
X169484600Y-86020200D01*
X169615240Y-85994214D01*
X169738301Y-85943241D01*
X169849052Y-85869239D01*
X169943239Y-85775052D01*
X170017241Y-85664301D01*
X170068214Y-85541240D01*
X170094200Y-85410600D01*
X170094200Y-85277400D01*
X172297800Y-85277400D01*
X172297800Y-85410600D01*
X172323786Y-85541240D01*
X172374759Y-85664301D01*
X172448761Y-85775052D01*
X172542948Y-85869239D01*
X172653699Y-85943241D01*
X172776760Y-85994214D01*
X172907400Y-86020200D01*
X173040600Y-86020200D01*
X173171240Y-85994214D01*
X173294301Y-85943241D01*
X173405052Y-85869239D01*
X173499239Y-85775052D01*
X173573241Y-85664301D01*
X173624214Y-85541240D01*
X173650200Y-85410600D01*
X173650200Y-85277400D01*
X174075800Y-85277400D01*
X174075800Y-85410600D01*
X174101786Y-85541240D01*
X174152759Y-85664301D01*
X174226761Y-85775052D01*
X174320948Y-85869239D01*
X174431699Y-85943241D01*
X174554760Y-85994214D01*
X174685400Y-86020200D01*
X174818600Y-86020200D01*
X174949240Y-85994214D01*
X175072301Y-85943241D01*
X175183052Y-85869239D01*
X175277239Y-85775052D01*
X175351241Y-85664301D01*
X175402214Y-85541240D01*
X175428200Y-85410600D01*
X175428200Y-85277400D01*
X175402214Y-85146760D01*
X175351241Y-85023699D01*
X175277239Y-84912948D01*
X175183052Y-84818761D01*
X175072301Y-84744759D01*
X174949240Y-84693786D01*
X174818600Y-84667800D01*
X174685400Y-84667800D01*
X174554760Y-84693786D01*
X174431699Y-84744759D01*
X174320948Y-84818761D01*
X174226761Y-84912948D01*
X174152759Y-85023699D01*
X174101786Y-85146760D01*
X174075800Y-85277400D01*
X173650200Y-85277400D01*
X173624214Y-85146760D01*
X173573241Y-85023699D01*
X173499239Y-84912948D01*
X173405052Y-84818761D01*
X173294301Y-84744759D01*
X173171240Y-84693786D01*
X173040600Y-84667800D01*
X172907400Y-84667800D01*
X172776760Y-84693786D01*
X172653699Y-84744759D01*
X172542948Y-84818761D01*
X172448761Y-84912948D01*
X172374759Y-85023699D01*
X172323786Y-85146760D01*
X172297800Y-85277400D01*
X170094200Y-85277400D01*
X170068214Y-85146760D01*
X170017241Y-85023699D01*
X169943239Y-84912948D01*
X169849052Y-84818761D01*
X169738301Y-84744759D01*
X169615240Y-84693786D01*
X169484600Y-84667800D01*
X169351400Y-84667800D01*
X169220760Y-84693786D01*
X169097699Y-84744759D01*
X168986948Y-84818761D01*
X168892761Y-84912948D01*
X168818759Y-85023699D01*
X168767786Y-85146760D01*
X168741800Y-85277400D01*
X166538200Y-85277400D01*
X166512214Y-85146760D01*
X166461241Y-85023699D01*
X166387239Y-84912948D01*
X166293052Y-84818761D01*
X166182301Y-84744759D01*
X166059240Y-84693786D01*
X165928600Y-84667800D01*
X165795400Y-84667800D01*
X165664760Y-84693786D01*
X165541699Y-84744759D01*
X165430948Y-84818761D01*
X165336761Y-84912948D01*
X165262759Y-85023699D01*
X165211786Y-85146760D01*
X165185800Y-85277400D01*
X164760200Y-85277400D01*
X164734214Y-85146760D01*
X164683241Y-85023699D01*
X164609239Y-84912948D01*
X164515052Y-84818761D01*
X164404301Y-84744759D01*
X164281240Y-84693786D01*
X164150600Y-84667800D01*
X164017400Y-84667800D01*
X163886760Y-84693786D01*
X163763699Y-84744759D01*
X163652948Y-84818761D01*
X163558761Y-84912948D01*
X163484759Y-85023699D01*
X163433786Y-85146760D01*
X163407800Y-85277400D01*
X162813600Y-85277400D01*
X162813600Y-82245200D01*
X180340000Y-82245200D01*
X180354866Y-82243736D01*
X180369160Y-82239400D01*
X180382334Y-82232358D01*
X180393882Y-82222882D01*
X180403358Y-82211334D01*
X180410400Y-82198160D01*
X180414736Y-82183866D01*
X180416200Y-82169000D01*
X180416200Y-70290770D01*
X182197400Y-70290770D01*
X182197400Y-70425230D01*
X182223632Y-70557107D01*
X182275088Y-70681332D01*
X182349790Y-70793132D01*
X182444868Y-70888210D01*
X182556668Y-70962912D01*
X182680893Y-71014368D01*
X182812770Y-71040600D01*
X182947230Y-71040600D01*
X183079107Y-71014368D01*
X183203332Y-70962912D01*
X183315132Y-70888210D01*
X183410210Y-70793132D01*
X183484912Y-70681332D01*
X183536368Y-70557107D01*
X183562600Y-70425230D01*
X183562600Y-70290770D01*
X183536368Y-70158893D01*
X183484912Y-70034668D01*
X183410210Y-69922868D01*
X183315132Y-69827790D01*
X183203332Y-69753088D01*
X183079107Y-69701632D01*
X182947230Y-69675400D01*
X182812770Y-69675400D01*
X182680893Y-69701632D01*
X182556668Y-69753088D01*
X182444868Y-69827790D01*
X182349790Y-69922868D01*
X182275088Y-70034668D01*
X182223632Y-70158893D01*
X182197400Y-70290770D01*
X180416200Y-70290770D01*
X180416200Y-66099770D01*
X184356400Y-66099770D01*
X184356400Y-66234230D01*
X184382632Y-66366107D01*
X184434088Y-66490332D01*
X184508790Y-66602132D01*
X184603868Y-66697210D01*
X184715668Y-66771912D01*
X184839893Y-66823368D01*
X184971770Y-66849600D01*
X185106230Y-66849600D01*
X185238107Y-66823368D01*
X185362332Y-66771912D01*
X185474132Y-66697210D01*
X185569210Y-66602132D01*
X185643912Y-66490332D01*
X185674000Y-66417694D01*
X185704088Y-66490332D01*
X185778790Y-66602132D01*
X185873868Y-66697210D01*
X185985668Y-66771912D01*
X186109893Y-66823368D01*
X186241770Y-66849600D01*
X186376230Y-66849600D01*
X186508107Y-66823368D01*
X186632332Y-66771912D01*
X186744132Y-66697210D01*
X186839210Y-66602132D01*
X186913912Y-66490332D01*
X186965368Y-66366107D01*
X186991600Y-66234230D01*
X186991600Y-66099770D01*
X186965368Y-65967893D01*
X186913912Y-65843668D01*
X186839210Y-65731868D01*
X186744132Y-65636790D01*
X186632332Y-65562088D01*
X186508107Y-65510632D01*
X186376230Y-65484400D01*
X186241770Y-65484400D01*
X186109893Y-65510632D01*
X185985668Y-65562088D01*
X185873868Y-65636790D01*
X185778790Y-65731868D01*
X185704088Y-65843668D01*
X185674000Y-65916306D01*
X185643912Y-65843668D01*
X185569210Y-65731868D01*
X185474132Y-65636790D01*
X185362332Y-65562088D01*
X185238107Y-65510632D01*
X185106230Y-65484400D01*
X184971770Y-65484400D01*
X184839893Y-65510632D01*
X184715668Y-65562088D01*
X184603868Y-65636790D01*
X184508790Y-65731868D01*
X184434088Y-65843668D01*
X184382632Y-65967893D01*
X184356400Y-66099770D01*
X180416200Y-66099770D01*
X180416200Y-62416770D01*
X186388400Y-62416770D01*
X186388400Y-62551230D01*
X186414632Y-62683107D01*
X186466088Y-62807332D01*
X186540790Y-62919132D01*
X186635868Y-63014210D01*
X186747668Y-63088912D01*
X186871893Y-63140368D01*
X187003770Y-63166600D01*
X187138230Y-63166600D01*
X187270107Y-63140368D01*
X187394332Y-63088912D01*
X187506132Y-63014210D01*
X187601210Y-62919132D01*
X187675912Y-62807332D01*
X187727368Y-62683107D01*
X187753600Y-62551230D01*
X187753600Y-62416770D01*
X187727368Y-62284893D01*
X187675912Y-62160668D01*
X187601210Y-62048868D01*
X187506132Y-61953790D01*
X187394332Y-61879088D01*
X187270107Y-61827632D01*
X187138230Y-61801400D01*
X187003770Y-61801400D01*
X186871893Y-61827632D01*
X186747668Y-61879088D01*
X186635868Y-61953790D01*
X186540790Y-62048868D01*
X186466088Y-62160668D01*
X186414632Y-62284893D01*
X186388400Y-62416770D01*
X180416200Y-62416770D01*
X180416200Y-61654770D01*
X191468400Y-61654770D01*
X191468400Y-61789230D01*
X191494632Y-61921107D01*
X191546088Y-62045332D01*
X191620790Y-62157132D01*
X191715868Y-62252210D01*
X191827668Y-62326912D01*
X191951893Y-62378368D01*
X192083770Y-62404600D01*
X192218230Y-62404600D01*
X192350107Y-62378368D01*
X192474332Y-62326912D01*
X192586132Y-62252210D01*
X192681210Y-62157132D01*
X192755912Y-62045332D01*
X192807368Y-61921107D01*
X192833600Y-61789230D01*
X192833600Y-61654770D01*
X195278400Y-61654770D01*
X195278400Y-61789230D01*
X195304632Y-61921107D01*
X195356088Y-62045332D01*
X195430790Y-62157132D01*
X195525868Y-62252210D01*
X195637668Y-62326912D01*
X195761893Y-62378368D01*
X195893770Y-62404600D01*
X196028230Y-62404600D01*
X196160107Y-62378368D01*
X196284332Y-62326912D01*
X196396132Y-62252210D01*
X196491210Y-62157132D01*
X196565912Y-62045332D01*
X196617368Y-61921107D01*
X196643600Y-61789230D01*
X196643600Y-61654770D01*
X196617368Y-61522893D01*
X196565912Y-61398668D01*
X196491210Y-61286868D01*
X196396132Y-61191790D01*
X196284332Y-61117088D01*
X196160107Y-61065632D01*
X196028230Y-61039400D01*
X195893770Y-61039400D01*
X195761893Y-61065632D01*
X195637668Y-61117088D01*
X195525868Y-61191790D01*
X195430790Y-61286868D01*
X195356088Y-61398668D01*
X195304632Y-61522893D01*
X195278400Y-61654770D01*
X192833600Y-61654770D01*
X192807368Y-61522893D01*
X192755912Y-61398668D01*
X192681210Y-61286868D01*
X192586132Y-61191790D01*
X192474332Y-61117088D01*
X192350107Y-61065632D01*
X192218230Y-61039400D01*
X192083770Y-61039400D01*
X191951893Y-61065632D01*
X191827668Y-61117088D01*
X191715868Y-61191790D01*
X191620790Y-61286868D01*
X191546088Y-61398668D01*
X191494632Y-61522893D01*
X191468400Y-61654770D01*
X180416200Y-61654770D01*
X180416200Y-60130770D01*
X186388400Y-60130770D01*
X186388400Y-60265230D01*
X186414632Y-60397107D01*
X186466088Y-60521332D01*
X186540790Y-60633132D01*
X186635868Y-60728210D01*
X186747668Y-60802912D01*
X186871893Y-60854368D01*
X187003770Y-60880600D01*
X187138230Y-60880600D01*
X187270107Y-60854368D01*
X187394332Y-60802912D01*
X187506132Y-60728210D01*
X187601210Y-60633132D01*
X187675912Y-60521332D01*
X187727368Y-60397107D01*
X187753600Y-60265230D01*
X187753600Y-60130770D01*
X187727368Y-59998893D01*
X187675912Y-59874668D01*
X187601210Y-59762868D01*
X187506132Y-59667790D01*
X187394332Y-59593088D01*
X187270107Y-59541632D01*
X187138230Y-59515400D01*
X187003770Y-59515400D01*
X186871893Y-59541632D01*
X186747668Y-59593088D01*
X186635868Y-59667790D01*
X186540790Y-59762868D01*
X186466088Y-59874668D01*
X186414632Y-59998893D01*
X186388400Y-60130770D01*
X180416200Y-60130770D01*
X180416200Y-59766200D01*
X185674000Y-59766200D01*
X185688866Y-59764736D01*
X185703160Y-59760400D01*
X185716334Y-59753358D01*
X185727882Y-59743882D01*
X185737358Y-59732334D01*
X185744400Y-59719160D01*
X185748736Y-59704866D01*
X185750200Y-59690000D01*
X185750200Y-59193344D01*
X185778790Y-59236132D01*
X185873868Y-59331210D01*
X185985668Y-59405912D01*
X186109893Y-59457368D01*
X186241770Y-59483600D01*
X186376230Y-59483600D01*
X186508107Y-59457368D01*
X186632332Y-59405912D01*
X186744132Y-59331210D01*
X186839210Y-59236132D01*
X186913912Y-59124332D01*
X186965368Y-59000107D01*
X186991600Y-58868230D01*
X186991600Y-58733770D01*
X186965368Y-58601893D01*
X186913912Y-58477668D01*
X186839210Y-58365868D01*
X186744132Y-58270790D01*
X186632332Y-58196088D01*
X186508107Y-58144632D01*
X186376230Y-58118400D01*
X186241770Y-58118400D01*
X186109893Y-58144632D01*
X185985668Y-58196088D01*
X185873868Y-58270790D01*
X185778790Y-58365868D01*
X185750200Y-58408656D01*
X185750200Y-56979772D01*
X192164800Y-56979772D01*
X192164800Y-57096228D01*
X192187519Y-57210447D01*
X192232085Y-57318038D01*
X192296785Y-57414868D01*
X192379132Y-57497215D01*
X192475962Y-57561915D01*
X192583553Y-57606481D01*
X192697772Y-57629200D01*
X192814228Y-57629200D01*
X192928447Y-57606481D01*
X193036038Y-57561915D01*
X193132868Y-57497215D01*
X193215215Y-57414868D01*
X193279915Y-57318038D01*
X193324481Y-57210447D01*
X193347200Y-57096228D01*
X193347200Y-56979772D01*
X193464800Y-56979772D01*
X193464800Y-57096228D01*
X193487519Y-57210447D01*
X193532085Y-57318038D01*
X193596785Y-57414868D01*
X193679132Y-57497215D01*
X193775962Y-57561915D01*
X193883553Y-57606481D01*
X193997772Y-57629200D01*
X194114228Y-57629200D01*
X194228447Y-57606481D01*
X194336038Y-57561915D01*
X194432868Y-57497215D01*
X194515215Y-57414868D01*
X194579915Y-57318038D01*
X194624481Y-57210447D01*
X194647200Y-57096228D01*
X194647200Y-56979772D01*
X194764800Y-56979772D01*
X194764800Y-57096228D01*
X194787519Y-57210447D01*
X194832085Y-57318038D01*
X194896785Y-57414868D01*
X194979132Y-57497215D01*
X195075962Y-57561915D01*
X195183553Y-57606481D01*
X195297772Y-57629200D01*
X195414228Y-57629200D01*
X195528447Y-57606481D01*
X195636038Y-57561915D01*
X195732868Y-57497215D01*
X195815215Y-57414868D01*
X195879915Y-57318038D01*
X195924481Y-57210447D01*
X195947200Y-57096228D01*
X195947200Y-56979772D01*
X195924481Y-56865553D01*
X195879915Y-56757962D01*
X195815215Y-56661132D01*
X195732868Y-56578785D01*
X195636038Y-56514085D01*
X195528447Y-56469519D01*
X195414228Y-56446800D01*
X195297772Y-56446800D01*
X195183553Y-56469519D01*
X195075962Y-56514085D01*
X194979132Y-56578785D01*
X194896785Y-56661132D01*
X194832085Y-56757962D01*
X194787519Y-56865553D01*
X194764800Y-56979772D01*
X194647200Y-56979772D01*
X194624481Y-56865553D01*
X194579915Y-56757962D01*
X194515215Y-56661132D01*
X194432868Y-56578785D01*
X194336038Y-56514085D01*
X194228447Y-56469519D01*
X194114228Y-56446800D01*
X193997772Y-56446800D01*
X193883553Y-56469519D01*
X193775962Y-56514085D01*
X193679132Y-56578785D01*
X193596785Y-56661132D01*
X193532085Y-56757962D01*
X193487519Y-56865553D01*
X193464800Y-56979772D01*
X193347200Y-56979772D01*
X193324481Y-56865553D01*
X193279915Y-56757962D01*
X193215215Y-56661132D01*
X193132868Y-56578785D01*
X193036038Y-56514085D01*
X192928447Y-56469519D01*
X192814228Y-56446800D01*
X192697772Y-56446800D01*
X192583553Y-56469519D01*
X192475962Y-56514085D01*
X192379132Y-56578785D01*
X192296785Y-56661132D01*
X192232085Y-56757962D01*
X192187519Y-56865553D01*
X192164800Y-56979772D01*
X185750200Y-56979772D01*
X185750200Y-55177770D01*
X188039400Y-55177770D01*
X188039400Y-55312230D01*
X188065632Y-55444107D01*
X188117088Y-55568332D01*
X188191790Y-55680132D01*
X188286868Y-55775210D01*
X188398668Y-55849912D01*
X188522893Y-55901368D01*
X188654770Y-55927600D01*
X188789230Y-55927600D01*
X188921107Y-55901368D01*
X189045332Y-55849912D01*
X189157132Y-55775210D01*
X189252210Y-55680132D01*
X189252450Y-55679772D01*
X192164800Y-55679772D01*
X192164800Y-55796228D01*
X192187519Y-55910447D01*
X192232085Y-56018038D01*
X192296785Y-56114868D01*
X192379132Y-56197215D01*
X192475962Y-56261915D01*
X192583553Y-56306481D01*
X192697772Y-56329200D01*
X192814228Y-56329200D01*
X192928447Y-56306481D01*
X193036038Y-56261915D01*
X193132868Y-56197215D01*
X193215215Y-56114868D01*
X193279915Y-56018038D01*
X193324481Y-55910447D01*
X193347200Y-55796228D01*
X193347200Y-55679772D01*
X193464800Y-55679772D01*
X193464800Y-55796228D01*
X193487519Y-55910447D01*
X193532085Y-56018038D01*
X193596785Y-56114868D01*
X193679132Y-56197215D01*
X193775962Y-56261915D01*
X193883553Y-56306481D01*
X193997772Y-56329200D01*
X194114228Y-56329200D01*
X194228447Y-56306481D01*
X194336038Y-56261915D01*
X194432868Y-56197215D01*
X194515215Y-56114868D01*
X194579915Y-56018038D01*
X194624481Y-55910447D01*
X194647200Y-55796228D01*
X194647200Y-55679772D01*
X194764800Y-55679772D01*
X194764800Y-55796228D01*
X194787519Y-55910447D01*
X194832085Y-56018038D01*
X194896785Y-56114868D01*
X194979132Y-56197215D01*
X195075962Y-56261915D01*
X195183553Y-56306481D01*
X195297772Y-56329200D01*
X195414228Y-56329200D01*
X195528447Y-56306481D01*
X195636038Y-56261915D01*
X195732868Y-56197215D01*
X195815215Y-56114868D01*
X195879915Y-56018038D01*
X195924481Y-55910447D01*
X195947200Y-55796228D01*
X195947200Y-55679772D01*
X195924481Y-55565553D01*
X195879915Y-55457962D01*
X195815215Y-55361132D01*
X195732868Y-55278785D01*
X195636038Y-55214085D01*
X195528447Y-55169519D01*
X195414228Y-55146800D01*
X195297772Y-55146800D01*
X195183553Y-55169519D01*
X195075962Y-55214085D01*
X194979132Y-55278785D01*
X194896785Y-55361132D01*
X194832085Y-55457962D01*
X194787519Y-55565553D01*
X194764800Y-55679772D01*
X194647200Y-55679772D01*
X194624481Y-55565553D01*
X194579915Y-55457962D01*
X194515215Y-55361132D01*
X194432868Y-55278785D01*
X194336038Y-55214085D01*
X194228447Y-55169519D01*
X194114228Y-55146800D01*
X193997772Y-55146800D01*
X193883553Y-55169519D01*
X193775962Y-55214085D01*
X193679132Y-55278785D01*
X193596785Y-55361132D01*
X193532085Y-55457962D01*
X193487519Y-55565553D01*
X193464800Y-55679772D01*
X193347200Y-55679772D01*
X193324481Y-55565553D01*
X193279915Y-55457962D01*
X193215215Y-55361132D01*
X193132868Y-55278785D01*
X193036038Y-55214085D01*
X192928447Y-55169519D01*
X192814228Y-55146800D01*
X192697772Y-55146800D01*
X192583553Y-55169519D01*
X192475962Y-55214085D01*
X192379132Y-55278785D01*
X192296785Y-55361132D01*
X192232085Y-55457962D01*
X192187519Y-55565553D01*
X192164800Y-55679772D01*
X189252450Y-55679772D01*
X189326912Y-55568332D01*
X189378368Y-55444107D01*
X189404600Y-55312230D01*
X189404600Y-55177770D01*
X189378368Y-55045893D01*
X189326912Y-54921668D01*
X189252210Y-54809868D01*
X189157132Y-54714790D01*
X189045332Y-54640088D01*
X188921107Y-54588632D01*
X188789230Y-54562400D01*
X188654770Y-54562400D01*
X188522893Y-54588632D01*
X188398668Y-54640088D01*
X188286868Y-54714790D01*
X188191790Y-54809868D01*
X188117088Y-54921668D01*
X188065632Y-55045893D01*
X188039400Y-55177770D01*
X185750200Y-55177770D01*
X185750200Y-50351770D01*
X188039400Y-50351770D01*
X188039400Y-50486230D01*
X188065632Y-50618107D01*
X188117088Y-50742332D01*
X188191790Y-50854132D01*
X188286868Y-50949210D01*
X188398668Y-51023912D01*
X188522893Y-51075368D01*
X188654770Y-51101600D01*
X188789230Y-51101600D01*
X188921107Y-51075368D01*
X189045332Y-51023912D01*
X189157132Y-50949210D01*
X189252210Y-50854132D01*
X189326912Y-50742332D01*
X189378368Y-50618107D01*
X189404600Y-50486230D01*
X189404600Y-50351770D01*
X189378368Y-50219893D01*
X189326912Y-50095668D01*
X189252210Y-49983868D01*
X189157132Y-49888790D01*
X189045332Y-49814088D01*
X188921107Y-49762632D01*
X188789230Y-49736400D01*
X188654770Y-49736400D01*
X188522893Y-49762632D01*
X188398668Y-49814088D01*
X188286868Y-49888790D01*
X188191790Y-49983868D01*
X188117088Y-50095668D01*
X188065632Y-50219893D01*
X188039400Y-50351770D01*
X185750200Y-50351770D01*
X185750200Y-48971200D01*
X189702737Y-48971200D01*
X189718541Y-48990458D01*
G36*
X171373800Y-65201800D02*
G01*
X164287200Y-65201800D01*
X164287200Y-54796770D01*
X166068400Y-54796770D01*
X166068400Y-54931230D01*
X166094632Y-55063107D01*
X166146088Y-55187332D01*
X166220790Y-55299132D01*
X166315868Y-55394210D01*
X166427668Y-55468912D01*
X166551893Y-55520368D01*
X166683770Y-55546600D01*
X166818230Y-55546600D01*
X166950107Y-55520368D01*
X167074332Y-55468912D01*
X167186132Y-55394210D01*
X167259000Y-55321342D01*
X167331868Y-55394210D01*
X167443668Y-55468912D01*
X167567893Y-55520368D01*
X167699770Y-55546600D01*
X167834230Y-55546600D01*
X167966107Y-55520368D01*
X168090332Y-55468912D01*
X168202132Y-55394210D01*
X168275000Y-55321342D01*
X168347868Y-55394210D01*
X168459668Y-55468912D01*
X168583893Y-55520368D01*
X168715770Y-55546600D01*
X168850230Y-55546600D01*
X168982107Y-55520368D01*
X169106332Y-55468912D01*
X169218132Y-55394210D01*
X169313210Y-55299132D01*
X169387912Y-55187332D01*
X169439368Y-55063107D01*
X169465600Y-54931230D01*
X169465600Y-54796770D01*
X169439368Y-54664893D01*
X169387912Y-54540668D01*
X169313210Y-54428868D01*
X169218132Y-54333790D01*
X169106332Y-54259088D01*
X168982107Y-54207632D01*
X168850230Y-54181400D01*
X168715770Y-54181400D01*
X168583893Y-54207632D01*
X168459668Y-54259088D01*
X168347868Y-54333790D01*
X168275000Y-54406658D01*
X168202132Y-54333790D01*
X168090332Y-54259088D01*
X167966107Y-54207632D01*
X167834230Y-54181400D01*
X167699770Y-54181400D01*
X167567893Y-54207632D01*
X167443668Y-54259088D01*
X167331868Y-54333790D01*
X167259000Y-54406658D01*
X167186132Y-54333790D01*
X167074332Y-54259088D01*
X166950107Y-54207632D01*
X166818230Y-54181400D01*
X166683770Y-54181400D01*
X166551893Y-54207632D01*
X166427668Y-54259088D01*
X166315868Y-54333790D01*
X166220790Y-54428868D01*
X166146088Y-54540668D01*
X166094632Y-54664893D01*
X166068400Y-54796770D01*
X164287200Y-54796770D01*
X164287200Y-52205702D01*
X167957800Y-52205702D01*
X167957800Y-52378298D01*
X167991471Y-52547578D01*
X168057521Y-52707037D01*
X168153411Y-52850545D01*
X168275455Y-52972589D01*
X168418963Y-53068479D01*
X168578422Y-53134529D01*
X168747702Y-53168200D01*
X168920298Y-53168200D01*
X169089578Y-53134529D01*
X169249037Y-53068479D01*
X169392545Y-52972589D01*
X169514589Y-52850545D01*
X169610479Y-52707037D01*
X169676529Y-52547578D01*
X169710200Y-52378298D01*
X169710200Y-52205702D01*
X169676529Y-52036422D01*
X169610479Y-51876963D01*
X169514589Y-51733455D01*
X169392545Y-51611411D01*
X169249037Y-51515521D01*
X169089578Y-51449471D01*
X168920298Y-51415800D01*
X168747702Y-51415800D01*
X168578422Y-51449471D01*
X168418963Y-51515521D01*
X168275455Y-51611411D01*
X168153411Y-51733455D01*
X168057521Y-51876963D01*
X167991471Y-52036422D01*
X167957800Y-52205702D01*
X164287200Y-52205702D01*
X164287200Y-49098200D01*
X171373800Y-49098200D01*
X171373800Y-65201800D01*
G37*
X171373800Y-65201800D02*
X164287200Y-65201800D01*
X164287200Y-54796770D01*
X166068400Y-54796770D01*
X166068400Y-54931230D01*
X166094632Y-55063107D01*
X166146088Y-55187332D01*
X166220790Y-55299132D01*
X166315868Y-55394210D01*
X166427668Y-55468912D01*
X166551893Y-55520368D01*
X166683770Y-55546600D01*
X166818230Y-55546600D01*
X166950107Y-55520368D01*
X167074332Y-55468912D01*
X167186132Y-55394210D01*
X167259000Y-55321342D01*
X167331868Y-55394210D01*
X167443668Y-55468912D01*
X167567893Y-55520368D01*
X167699770Y-55546600D01*
X167834230Y-55546600D01*
X167966107Y-55520368D01*
X168090332Y-55468912D01*
X168202132Y-55394210D01*
X168275000Y-55321342D01*
X168347868Y-55394210D01*
X168459668Y-55468912D01*
X168583893Y-55520368D01*
X168715770Y-55546600D01*
X168850230Y-55546600D01*
X168982107Y-55520368D01*
X169106332Y-55468912D01*
X169218132Y-55394210D01*
X169313210Y-55299132D01*
X169387912Y-55187332D01*
X169439368Y-55063107D01*
X169465600Y-54931230D01*
X169465600Y-54796770D01*
X169439368Y-54664893D01*
X169387912Y-54540668D01*
X169313210Y-54428868D01*
X169218132Y-54333790D01*
X169106332Y-54259088D01*
X168982107Y-54207632D01*
X168850230Y-54181400D01*
X168715770Y-54181400D01*
X168583893Y-54207632D01*
X168459668Y-54259088D01*
X168347868Y-54333790D01*
X168275000Y-54406658D01*
X168202132Y-54333790D01*
X168090332Y-54259088D01*
X167966107Y-54207632D01*
X167834230Y-54181400D01*
X167699770Y-54181400D01*
X167567893Y-54207632D01*
X167443668Y-54259088D01*
X167331868Y-54333790D01*
X167259000Y-54406658D01*
X167186132Y-54333790D01*
X167074332Y-54259088D01*
X166950107Y-54207632D01*
X166818230Y-54181400D01*
X166683770Y-54181400D01*
X166551893Y-54207632D01*
X166427668Y-54259088D01*
X166315868Y-54333790D01*
X166220790Y-54428868D01*
X166146088Y-54540668D01*
X166094632Y-54664893D01*
X166068400Y-54796770D01*
X164287200Y-54796770D01*
X164287200Y-52205702D01*
X167957800Y-52205702D01*
X167957800Y-52378298D01*
X167991471Y-52547578D01*
X168057521Y-52707037D01*
X168153411Y-52850545D01*
X168275455Y-52972589D01*
X168418963Y-53068479D01*
X168578422Y-53134529D01*
X168747702Y-53168200D01*
X168920298Y-53168200D01*
X169089578Y-53134529D01*
X169249037Y-53068479D01*
X169392545Y-52972589D01*
X169514589Y-52850545D01*
X169610479Y-52707037D01*
X169676529Y-52547578D01*
X169710200Y-52378298D01*
X169710200Y-52205702D01*
X169676529Y-52036422D01*
X169610479Y-51876963D01*
X169514589Y-51733455D01*
X169392545Y-51611411D01*
X169249037Y-51515521D01*
X169089578Y-51449471D01*
X168920298Y-51415800D01*
X168747702Y-51415800D01*
X168578422Y-51449471D01*
X168418963Y-51515521D01*
X168275455Y-51611411D01*
X168153411Y-51733455D01*
X168057521Y-51876963D01*
X167991471Y-52036422D01*
X167957800Y-52205702D01*
X164287200Y-52205702D01*
X164287200Y-49098200D01*
X171373800Y-49098200D01*
X171373800Y-65201800D01*
G36*
X179374800Y-65201800D02*
G01*
X172034200Y-65201800D01*
X172034200Y-54796770D01*
X174069400Y-54796770D01*
X174069400Y-54931230D01*
X174095632Y-55063107D01*
X174147088Y-55187332D01*
X174221790Y-55299132D01*
X174316868Y-55394210D01*
X174428668Y-55468912D01*
X174552893Y-55520368D01*
X174684770Y-55546600D01*
X174819230Y-55546600D01*
X174951107Y-55520368D01*
X175075332Y-55468912D01*
X175187132Y-55394210D01*
X175260000Y-55321342D01*
X175332868Y-55394210D01*
X175444668Y-55468912D01*
X175568893Y-55520368D01*
X175700770Y-55546600D01*
X175835230Y-55546600D01*
X175967107Y-55520368D01*
X176091332Y-55468912D01*
X176203132Y-55394210D01*
X176276000Y-55321342D01*
X176348868Y-55394210D01*
X176460668Y-55468912D01*
X176584893Y-55520368D01*
X176716770Y-55546600D01*
X176851230Y-55546600D01*
X176983107Y-55520368D01*
X177107332Y-55468912D01*
X177219132Y-55394210D01*
X177314210Y-55299132D01*
X177388912Y-55187332D01*
X177440368Y-55063107D01*
X177466600Y-54931230D01*
X177466600Y-54796770D01*
X177440368Y-54664893D01*
X177388912Y-54540668D01*
X177314210Y-54428868D01*
X177219132Y-54333790D01*
X177107332Y-54259088D01*
X176983107Y-54207632D01*
X176851230Y-54181400D01*
X176716770Y-54181400D01*
X176584893Y-54207632D01*
X176460668Y-54259088D01*
X176348868Y-54333790D01*
X176276000Y-54406658D01*
X176203132Y-54333790D01*
X176091332Y-54259088D01*
X175967107Y-54207632D01*
X175835230Y-54181400D01*
X175700770Y-54181400D01*
X175568893Y-54207632D01*
X175444668Y-54259088D01*
X175332868Y-54333790D01*
X175260000Y-54406658D01*
X175187132Y-54333790D01*
X175075332Y-54259088D01*
X174951107Y-54207632D01*
X174819230Y-54181400D01*
X174684770Y-54181400D01*
X174552893Y-54207632D01*
X174428668Y-54259088D01*
X174316868Y-54333790D01*
X174221790Y-54428868D01*
X174147088Y-54540668D01*
X174095632Y-54664893D01*
X174069400Y-54796770D01*
X172034200Y-54796770D01*
X172034200Y-49098200D01*
X179374800Y-49098200D01*
X179374800Y-65201800D01*
G37*
X179374800Y-65201800D02*
X172034200Y-65201800D01*
X172034200Y-54796770D01*
X174069400Y-54796770D01*
X174069400Y-54931230D01*
X174095632Y-55063107D01*
X174147088Y-55187332D01*
X174221790Y-55299132D01*
X174316868Y-55394210D01*
X174428668Y-55468912D01*
X174552893Y-55520368D01*
X174684770Y-55546600D01*
X174819230Y-55546600D01*
X174951107Y-55520368D01*
X175075332Y-55468912D01*
X175187132Y-55394210D01*
X175260000Y-55321342D01*
X175332868Y-55394210D01*
X175444668Y-55468912D01*
X175568893Y-55520368D01*
X175700770Y-55546600D01*
X175835230Y-55546600D01*
X175967107Y-55520368D01*
X176091332Y-55468912D01*
X176203132Y-55394210D01*
X176276000Y-55321342D01*
X176348868Y-55394210D01*
X176460668Y-55468912D01*
X176584893Y-55520368D01*
X176716770Y-55546600D01*
X176851230Y-55546600D01*
X176983107Y-55520368D01*
X177107332Y-55468912D01*
X177219132Y-55394210D01*
X177314210Y-55299132D01*
X177388912Y-55187332D01*
X177440368Y-55063107D01*
X177466600Y-54931230D01*
X177466600Y-54796770D01*
X177440368Y-54664893D01*
X177388912Y-54540668D01*
X177314210Y-54428868D01*
X177219132Y-54333790D01*
X177107332Y-54259088D01*
X176983107Y-54207632D01*
X176851230Y-54181400D01*
X176716770Y-54181400D01*
X176584893Y-54207632D01*
X176460668Y-54259088D01*
X176348868Y-54333790D01*
X176276000Y-54406658D01*
X176203132Y-54333790D01*
X176091332Y-54259088D01*
X175967107Y-54207632D01*
X175835230Y-54181400D01*
X175700770Y-54181400D01*
X175568893Y-54207632D01*
X175444668Y-54259088D01*
X175332868Y-54333790D01*
X175260000Y-54406658D01*
X175187132Y-54333790D01*
X175075332Y-54259088D01*
X174951107Y-54207632D01*
X174819230Y-54181400D01*
X174684770Y-54181400D01*
X174552893Y-54207632D01*
X174428668Y-54259088D01*
X174316868Y-54333790D01*
X174221790Y-54428868D01*
X174147088Y-54540668D01*
X174095632Y-54664893D01*
X174069400Y-54796770D01*
X172034200Y-54796770D01*
X172034200Y-49098200D01*
X179374800Y-49098200D01*
X179374800Y-65201800D01*
G36*
X179882800Y-73846919D02*
G01*
X179771600Y-73824800D01*
X179638400Y-73824800D01*
X179507760Y-73850786D01*
X179384699Y-73901759D01*
X179273948Y-73975761D01*
X179179761Y-74069948D01*
X179105759Y-74180699D01*
X179054786Y-74303760D01*
X179028800Y-74434400D01*
X179028800Y-74567600D01*
X179054786Y-74698240D01*
X179105759Y-74821301D01*
X179179761Y-74932052D01*
X179273948Y-75026239D01*
X179384699Y-75100241D01*
X179507760Y-75151214D01*
X179638400Y-75177200D01*
X179771600Y-75177200D01*
X179882800Y-75155081D01*
X179882800Y-81711800D01*
X164160200Y-81711800D01*
X164160200Y-78398290D01*
X164281240Y-78374214D01*
X164404301Y-78323241D01*
X164515052Y-78249239D01*
X164609239Y-78155052D01*
X164683241Y-78044301D01*
X164734214Y-77921240D01*
X164760200Y-77790600D01*
X164760200Y-77657400D01*
X164734214Y-77526760D01*
X164683241Y-77403699D01*
X164609239Y-77292948D01*
X164515052Y-77198761D01*
X164404301Y-77124759D01*
X164281240Y-77073786D01*
X164160200Y-77049710D01*
X164160200Y-65735200D01*
X179882800Y-65735200D01*
X179882800Y-73846919D01*
G37*
X179882800Y-73846919D02*
X179771600Y-73824800D01*
X179638400Y-73824800D01*
X179507760Y-73850786D01*
X179384699Y-73901759D01*
X179273948Y-73975761D01*
X179179761Y-74069948D01*
X179105759Y-74180699D01*
X179054786Y-74303760D01*
X179028800Y-74434400D01*
X179028800Y-74567600D01*
X179054786Y-74698240D01*
X179105759Y-74821301D01*
X179179761Y-74932052D01*
X179273948Y-75026239D01*
X179384699Y-75100241D01*
X179507760Y-75151214D01*
X179638400Y-75177200D01*
X179771600Y-75177200D01*
X179882800Y-75155081D01*
X179882800Y-81711800D01*
X164160200Y-81711800D01*
X164160200Y-78398290D01*
X164281240Y-78374214D01*
X164404301Y-78323241D01*
X164515052Y-78249239D01*
X164609239Y-78155052D01*
X164683241Y-78044301D01*
X164734214Y-77921240D01*
X164760200Y-77790600D01*
X164760200Y-77657400D01*
X164734214Y-77526760D01*
X164683241Y-77403699D01*
X164609239Y-77292948D01*
X164515052Y-77198761D01*
X164404301Y-77124759D01*
X164281240Y-77073786D01*
X164160200Y-77049710D01*
X164160200Y-65735200D01*
X179882800Y-65735200D01*
X179882800Y-73846919D01*
M02*
